<?xml version="1.0" encoding="utf-8"?>
<!-- Generator: Adobe Illustrator 16.0.4, SVG Export Plug-In . SVG Version: 6.00 Build 0)  -->
<!DOCTYPE svg PUBLIC "-//W3C//DTD SVG 1.1//EN" "http://www.w3.org/Graphics/SVG/1.1/DTD/svg11.dtd">
<svg version="1.1" id="D2S" xmlns="http://www.w3.org/2000/svg" xmlns:xlink="http://www.w3.org/1999/xlink" x="0px" y="0px"
	 width="188px" height="159.8px" viewBox="0 0 188 159.8" style="enable-background:new 0 0 188 159.8;" xml:space="preserve">
<style type="text/css">
<![CDATA[
	.st0{fill:#FFFFFF;}
]]>
</style>
<g>
	<g>
		<path class="st0" d="M171.1,35.5c-0.2,0-0.3-0.1-0.4-0.3c-0.1-0.2-0.1-0.5,0.2-0.7l7.7-4.3c0.2-0.1,0.5-0.1,0.7,0.2
			c0.1,0.2,0.1,0.5-0.2,0.7l-7.7,4.3C171.3,35.5,171.2,35.5,171.1,35.5z"/>
	</g>
	<g>
		<path class="st0" d="M167.5,29.2c-0.2,0-0.3-0.1-0.4-0.3c-0.1-0.2-0.1-0.5,0.2-0.7l7.7-4.3c0.2-0.1,0.5-0.1,0.7,0.2
			c0.1,0.2,0.1,0.5-0.2,0.7l-7.7,4.3C167.7,29.2,167.6,29.2,167.5,29.2z"/>
	</g>
	<g>
		<path class="st0" d="M175,42.1c-0.2,0-0.3-0.1-0.4-0.3c-0.1-0.2-0.1-0.5,0.2-0.7L182,37c0.2-0.1,0.5-0.1,0.7,0.2
			c0.1,0.2,0.1,0.5-0.2,0.7l-7.3,4.2C175.1,42.1,175.1,42.1,175,42.1z"/>
	</g>
	<g>
		<path class="st0" d="M163.8,22.8c-0.2,0-0.3-0.1-0.4-0.3c-0.1-0.2-0.1-0.5,0.2-0.7l7-4c0.2-0.1,0.5-0.1,0.7,0.2
			c0.1,0.2,0.1,0.5-0.2,0.7l-7,4C164,22.8,163.9,22.8,163.8,22.8z"/>
	</g>
	<g>
		<path class="st0" d="M177.2,49.1c-0.2,0-0.3-0.1-0.4-0.2c-0.1-0.2-0.1-0.5,0.2-0.7l7.1-4.2c0.2-0.1,0.5-0.1,0.7,0.2
			c0.1,0.2,0.1,0.5-0.2,0.7l-7.1,4.2C177.4,49,177.3,49.1,177.2,49.1z"/>
	</g>
	<g>
		<path class="st0" d="M158.3,17.9c-0.2,0-0.3-0.1-0.4-0.2c-0.1-0.2-0.1-0.5,0.2-0.7l7.5-4.3c0.2-0.1,0.5-0.1,0.7,0.2
			c0.1,0.2,0.1,0.5-0.2,0.7l-7.5,4.3C158.4,17.9,158.4,17.9,158.3,17.9z"/>
	</g>
	<g>
		<path class="st0" d="M177.2,56c-0.2,0-0.3-0.1-0.4-0.2c-0.1-0.2-0.1-0.5,0.2-0.7l8-4.7c0.2-0.1,0.5-0.1,0.7,0.2
			c0.1,0.2,0.1,0.5-0.2,0.7l-8,4.7C177.4,56,177.3,56,177.2,56z"/>
	</g>
	<g>
		<path class="st0" d="M152.4,14.6c-0.2,0-0.3-0.1-0.4-0.3c-0.1-0.2-0.1-0.5,0.2-0.7l8.2-4.7c0.2-0.1,0.5-0.1,0.7,0.2
			c0.1,0.2,0.1,0.5-0.2,0.7l-8.2,4.7C152.5,14.6,152.4,14.6,152.4,14.6z"/>
	</g>
	<g>
		<path class="st0" d="M177.2,61.6c-0.2,0-0.3-0.1-0.4-0.2c-0.1-0.2-0.1-0.5,0.2-0.7l7.5-4.3c0.2-0.1,0.5-0.1,0.7,0.2
			c0.1,0.2,0.1,0.5-0.2,0.7l-7.5,4.3C177.4,61.6,177.3,61.6,177.2,61.6z"/>
	</g>
	<g>
		<path class="st0" d="M148,12c-0.2,0-0.3-0.1-0.4-0.2c-0.1-0.2-0.1-0.5,0.2-0.7l7.1-4.2c0.2-0.1,0.5-0.1,0.7,0.2
			c0.1,0.2,0.1,0.5-0.2,0.7l-7.1,4.2C148.2,12,148.1,12,148,12z"/>
	</g>
	<g>
		<path class="st0" d="M177.2,65.2c-0.2,0-0.3-0.1-0.4-0.2c-0.1-0.2-0.1-0.5,0.2-0.7l5.6-3.3c0.2-0.1,0.5-0.1,0.7,0.2
			c0.1,0.2,0.1,0.5-0.2,0.7l-5.6,3.3C177.4,65.2,177.3,65.2,177.2,65.2z"/>
	</g>
	<g>
		<path class="st0" d="M145.2,10.4c-0.2,0-0.3-0.1-0.4-0.3c-0.1-0.2,0-0.5,0.2-0.7l5-2.8c0.2-0.1,0.5,0,0.7,0.2s0,0.5-0.2,0.7
			l-5,2.8C145.4,10.4,145.3,10.4,145.2,10.4z"/>
	</g>
	<g>
		<path class="st0" d="M177.2,66.6c-0.2,0-0.3-0.1-0.4-0.3c-0.1-0.2-0.1-0.5,0.2-0.7l2.8-1.6c0.2-0.1,0.5,0,0.7,0.2
			c0.1,0.2,0.1,0.5-0.2,0.7l-2.8,1.6C177.4,66.6,177.3,66.6,177.2,66.6z"/>
	</g>
	<g>
		<path class="st0" d="M144.5,10.1c-0.2,0-0.3-0.1-0.4-0.2c-0.2-0.2-0.1-0.5,0.1-0.7l1.6-1c0.2-0.2,0.5-0.1,0.7,0.1
			c0.2,0.2,0.1,0.5-0.1,0.7l-1.6,1C144.7,10.1,144.6,10.1,144.5,10.1z"/>
	</g>
	<g>
		<path class="st0" d="M143.8,5.2c-0.2,0-0.3-0.1-0.4-0.2c-0.2-0.2-0.1-0.5,0.1-0.7l2.1-1.4c0.2-0.2,0.5-0.1,0.7,0.1
			c0.2,0.2,0.1,0.5-0.1,0.7l-2.1,1.4C144,5.2,143.9,5.2,143.8,5.2z"/>
	</g>
	<g>
		<path class="st0" d="M145.9,3.7c-0.2,0-0.4-0.1-0.4-0.3c-0.1-0.2,0-0.5,0.2-0.7l2.6-1.4c0.2-0.1,0.5,0,0.7,0.2
			c0.1,0.2,0,0.5-0.2,0.7l-2.6,1.4C146.1,3.6,146,3.7,145.9,3.7z"/>
	</g>
	<g>
		<path class="st0" d="M180.7,69.6l-1.1-0.2c-0.1,0-0.1,0-0.2-0.1l-0.9-0.5c0,0-0.1,0-0.1-0.1l-0.7-0.7c0,0,0,0-0.1-0.1l-0.3-0.5
			c-0.2-0.2-0.1-0.5,0.1-0.7c0.2-0.2,0.5-0.1,0.7,0.1l0.3,0.5l0.6,0.6l0.7,0.4l1,0.2l0.8,0l0.4-0.1c0.1-0.2,0.2-0.3,0.4-0.3
			c0.3,0,0.5,0.2,0.5,0.5v0.2c0,0.2-0.2,0.4-0.4,0.5l-0.9,0.2L180.7,69.6z"/>
	</g>
	<g>
		<path class="st0" d="M177.8,67.7c-0.2,0-0.3-0.1-0.4-0.2l-0.5-0.9c-0.1-0.2-0.1-0.5,0.2-0.7c0.2-0.1,0.5-0.1,0.7,0.2l0.5,0.9
			c0.1,0.2,0.1,0.5-0.2,0.7C177.9,67.7,177.8,67.7,177.8,67.7z"/>
	</g>
	<g>
		<path class="st0" d="M187.2,66.5c-0.3,0-0.5-0.2-0.5-0.5v-0.2c0-0.2,0.1-0.3,0.2-0.4c0,0,0-0.1,0.1-0.1l0,0l0-0.1
			c-0.2-0.2-0.2-0.5,0-0.7c0.2-0.2,0.5-0.2,0.7,0l0.2,0.2c0.1,0.1,0.1,0.2,0.1,0.4v0.5c0,0.1-0.1,0.3-0.1,0.4l0,0
			c0,0.2-0.1,0.3-0.2,0.4C187.5,66.4,187.3,66.5,187.2,66.5z"/>
	</g>
	<g>
		<path class="st0" d="M187.3,65.4c-0.2,0-0.3-0.1-0.4-0.3l-4-7c-0.1-0.2-0.1-0.5,0.2-0.7c0.2-0.1,0.5-0.1,0.7,0.2l4,7
			c0.1,0.2,0.1,0.5-0.2,0.7C187.5,65.4,187.4,65.4,187.3,65.4z"/>
	</g>
	<g>
		<path class="st0" d="M185.1,67.9c-0.2,0-0.3-0.1-0.4-0.2c-0.2-0.2-0.1-0.5,0.1-0.7l2.1-1.4c0.2-0.2,0.5-0.1,0.7,0.1
			c0.2,0.2,0.1,0.5-0.1,0.7l-2.1,1.4C185.3,67.8,185.2,67.9,185.1,67.9z"/>
	</g>
	<g>
		<path class="st0" d="M153.4,8.9c-0.2,0-0.3-0.1-0.4-0.2l-3.8-6.3c-0.1-0.2-0.1-0.5,0.2-0.7c0.2-0.1,0.5-0.1,0.7,0.2l3.8,6.3
			c0.1,0.2,0.1,0.5-0.2,0.7C153.6,8.9,153.5,8.9,153.4,8.9z"/>
	</g>
	<g>
		<path class="st0" d="M142.8,9.6c-0.2,0-0.4-0.2-0.5-0.4l-0.2-0.7L142,7.4c0-0.1,0-0.1,0-0.2l0.2-0.9l0.4-1c0,0,0-0.1,0.1-0.1
			l0.5-0.7l0.4-0.4c0.2-0.2,0.5-0.2,0.7,0c0.2,0.2,0.2,0.5,0,0.7l-0.3,0.3l-0.4,0.6l-0.3,0.8L143,7.3l0.2,1l0.2,0.7
			c0.1,0.3-0.1,0.5-0.4,0.6C142.9,9.6,142.8,9.6,142.8,9.6z"/>
	</g>
	<g>
		<path class="st0" d="M149.6,2.6c-0.1,0-0.3,0-0.4-0.1l-0.2-0.2c0,0-0.1-0.1-0.1-0.1c0,0-0.1,0-0.1-0.1c-0.1,0.1-0.2,0.1-0.3,0.1
			c-0.3,0-0.5-0.2-0.5-0.5V1.6c0-0.3,0.2-0.5,0.5-0.5h0.5c0.1,0,0.3,0.1,0.4,0.1l0,0c0.2,0,0.4,0.2,0.5,0.5l0,0
			c0.2,0.2,0.2,0.5,0,0.7C149.8,2.6,149.7,2.6,149.6,2.6z"/>
	</g>
	<g>
		<path class="st0" d="M182.5,69.2c-0.2,0-0.4-0.1-0.4-0.3c-0.1-0.2,0-0.5,0.2-0.7l2.6-1.4c0.2-0.1,0.5,0,0.7,0.2
			c0.1,0.2,0,0.5-0.2,0.7l-2.6,1.4C182.6,69.2,182.5,69.2,182.5,69.2z"/>
	</g>
	<g>
		<path class="st0" d="M185.1,67.9c-0.1,0-0.3-0.1-0.4-0.2c-0.1-0.1-0.1-0.2-0.1-0.3s0.1-0.3,0.1-0.3c0.2-0.2,0.5-0.2,0.7,0
			c0.1,0.1,0.1,0.2,0.1,0.4c0,0.1-0.1,0.3-0.1,0.3C185.3,67.8,185.2,67.9,185.1,67.9z"/>
	</g>
	<g>
		<path class="st0" d="M122.6,112c-0.1,0-0.3,0-0.4-0.1l-0.2-0.2c-0.1-0.1-0.2-0.3-0.1-0.4l0.4-1.9c0-0.1,0-0.1,0.1-0.2l0.5-0.7
			c0,0,0.1-0.1,0.1-0.1l0.8-0.6c0.2-0.2,0.5-0.2,0.7,0s0.2,0.5,0,0.7l-0.2,0.2l-0.7,0.5l-0.4,0.5l-0.3,1.5c0.2,0.2,0.2,0.5,0,0.7
			C122.9,112,122.7,112,122.6,112z"/>
	</g>
	<g>
		<path class="st0" d="M116,138.1c-0.2,0-0.3-0.1-0.4-0.2c-0.1-0.2-0.1-0.5,0.2-0.7l2.6-1.6c0.2-0.1,0.5-0.1,0.7,0.2
			c0.1,0.2,0.1,0.5-0.2,0.7l-2.6,1.6C116.2,138.1,116.1,138.1,116,138.1z"/>
	</g>
	<g>
		<path class="st0" d="M0.5,95C0.2,95,0,94.8,0,94.5v-2.3c0,0,0-0.1,0-0.1l0.2-0.6v-2.2l0.2-1l0-0.6c0,0,0-0.1,0-0.1l0.2-0.6v-0.8
			c0,0,0-0.1,0-0.1l0.3-1.3v-0.8c0,0,0-0.1,0-0.1l1.7-7.3L3,75.5l0.3-1.3c0,0,0-0.1,0-0.1l0.3-0.6l0.2-0.6c0,0,0-0.1,0-0.1L4.2,72
			l0.2-0.6c0,0,0-0.1,0-0.1l1-2.1C5.6,69,5.9,68.9,6.1,69c0.2,0.1,0.3,0.4,0.2,0.7l-1,2l-0.2,0.6c0,0,0,0.1,0,0.1l-0.3,0.6l-0.2,0.6
			c0,0,0,0.1,0,0.1l-0.3,0.6l-0.3,1.3l-0.4,0.9l-1.7,7.2v0.8c0,0,0,0.1,0,0.1l-0.3,1.3V87c0,0,0,0.1,0,0.1l-0.2,0.6v0.6l-0.2,1
			l0,2.2c0,0,0,0.1,0,0.1L1,92.3v2.2C1,94.8,0.8,95,0.5,95z"/>
	</g>
	<g>
		<path class="st0" d="M38.8,152.4c0,0-0.1,0-0.1,0l-0.7-0.2c0,0-0.1,0-0.1,0l-2.8-1.4l-0.6-0.4l-4.1-2.1c0,0-0.1-0.1-0.1-0.1
			l-0.5-0.5l-1.3-0.7c0,0-0.1-0.1-0.1-0.1l-0.5-0.5l-0.6-0.3l-2-1.4l-0.5-0.5l-0.6-0.3c0,0-0.1-0.1-0.1-0.1l-0.5-0.5l-0.6-0.5
			l-0.6-0.6l-0.4-0.3l-0.7-0.5l-1.6-1.6l-0.6-0.5l-1.1-1.1l-0.6-0.7l-1.5-1.5l-0.9-1.3l-0.5-0.4l-0.6-0.8l-0.5-0.5
			c0,0-0.1-0.1-0.1-0.1l-0.3-0.6l-0.5-0.5l-1.4-2l-0.4-0.7l-0.5-0.5c0,0-0.1-0.1-0.1-0.1l-0.7-1.3l-0.5-0.5c0,0-0.1-0.1-0.1-0.1
			l-2.1-4.2l-0.3-0.5l-1.4-2.8c0,0,0-0.1,0-0.1l-0.2-0.7l-0.3-0.8L4.1,117c0,0,0-0.1,0-0.1l-0.2-0.6l-0.3-0.6c0,0,0-0.1,0-0.1
			l-0.3-1.3l-0.3-0.6c0,0,0-0.1,0-0.1l-0.3-1.5l-0.3-0.6c0,0,0-0.1,0-0.1l-1-4.5l0-0.7l-0.5-2.2c0,0,0-0.1,0-0.1v-0.7l-0.2-0.8
			l0-0.7l-0.2-0.6c0,0,0-0.1,0-0.1v-0.8L0,99.1c0,0,0-0.1,0-0.1v-4.5C0,94.2,0.2,94,0.5,94S1,94.2,1,94.5V99l0.2,0.6
			c0,0,0,0.1,0,0.1v0.8l0.2,0.6c0,0,0,0.1,0,0.1v0.7l0.2,0.8l0,0.7l0.5,2.2c0,0,0,0.1,0,0.1v0.7l1,4.3l0.3,0.6c0,0,0,0.1,0,0.1
			l0.3,1.5l0.3,0.6c0,0,0,0.1,0,0.1l0.3,1.3l0.3,0.6c0,0,0,0.1,0,0.1l0.2,0.6l0.3,0.6l0.4,0.9l0.2,0.7l1.4,2.7l0.3,0.5l2.1,4.2
			l0.5,0.5c0,0,0.1,0.1,0.1,0.1l0.7,1.3l0.5,0.5c0,0,0.1,0.1,0.1,0.1l0.3,0.7l1.3,1.8l0.5,0.5c0,0,0.1,0.1,0.1,0.1l0.3,0.6l0.5,0.5
			l0.6,0.8l0.5,0.5l0.9,1.3l1.5,1.5l0.6,0.8l1,1l0.6,0.5l1.6,1.6l1.1,0.8l0.6,0.6l0.6,0.5l0.5,0.5l0.6,0.3c0,0,0.1,0.1,0.1,0.1
			l0.5,0.5l1.9,1.3l0.6,0.3c0,0,0.1,0.1,0.1,0.1l0.5,0.5l1.3,0.7c0,0,0.1,0.1,0.1,0.1l0.5,0.5l4.1,2.1l0.6,0.4l2.7,1.3l0.6,0.2
			c0.3,0.1,0.4,0.3,0.4,0.6C39.2,152.2,39,152.4,38.8,152.4z"/>
	</g>
	<g>
		<path class="st0" d="M72,153.6c-0.2,0-0.3-0.1-0.4-0.2c-0.1-0.2-0.1-0.5,0.2-0.7l1.7-1c0.2-0.1,0.5-0.1,0.7,0.2
			c0.1,0.2,0.1,0.5-0.2,0.7l-1.7,1C72.2,153.6,72.1,153.6,72,153.6z"/>
	</g>
	<g>
		<path class="st0" d="M13.4,59.7c-0.2,0-0.3-0.1-0.4-0.2c-0.1-0.2-0.1-0.5,0.2-0.7l1.7-1c0.2-0.1,0.5-0.1,0.7,0.2
			c0.1,0.2,0.1,0.5-0.2,0.7l-1.7,1C13.5,59.7,13.5,59.7,13.4,59.7z"/>
	</g>
	<g>
		<path class="st0" d="M80.2,117.4c-0.3,0-0.5-0.2-0.5-0.5v-0.7l-0.2-2.6l-0.3-2.6l-0.5-2.8l-0.7-2.8l-0.9-2.9l-2.4-5.5l-1.4-2.8
			l-1.6-2.8L70.2,89l-1.9-2.6l-3.8-4.5l-2.1-2.1L60.4,78l-2-1.5L55,74.2c-0.2-0.2-0.3-0.5-0.1-0.7c0.2-0.2,0.5-0.3,0.7-0.1l3.3,2.3
			l2.1,1.6l2.1,1.9l2.1,2.1l3.9,4.6l1.9,2.6l1.6,2.6l1.6,2.8l1.4,2.8l2.4,5.6l0.9,3l0.7,2.8l0.5,2.8l0.4,2.6l0.2,3.4
			C80.7,117.2,80.4,117.4,80.2,117.4z"/>
	</g>
	<g>
		<path class="st0" d="M80.2,137.6c-0.3,0-0.5-0.2-0.5-0.5v-20.2c0-0.3,0.2-0.5,0.5-0.5s0.5,0.2,0.5,0.5v20.2
			C80.7,137.4,80.4,137.6,80.2,137.6z"/>
	</g>
	<g>
		<path class="st0" d="M55.3,74.3c-0.1,0-0.2,0-0.2-0.1L31,60.5c-0.2-0.1-0.3-0.4-0.2-0.7c0.1-0.2,0.4-0.3,0.7-0.2l24,13.7
			c0.2,0.1,0.3,0.4,0.2,0.7C55.6,74.2,55.5,74.3,55.3,74.3z"/>
	</g>
	<g>
		<path class="st0" d="M68.5,158.7C68.5,158.7,68.5,158.7,68.5,158.7l-2.5-0.2l-2.3-0.4l-2.5-0.7l-2.5-0.9l-0.4-0.2
			c-0.2-0.1-0.3-0.4-0.2-0.7c0.1-0.2,0.4-0.3,0.7-0.2l0.3,0.2l2.4,0.8l2.4,0.7l2.2,0.3l2.3,0.2l4.1-0.7l1.8-0.7l1.3-0.7
			c0.2-0.1,0.5,0,0.7,0.2c0.1,0.2,0,0.5-0.2,0.7l-1.4,0.7l-2,0.7L68.5,158.7C68.6,158.7,68.5,158.7,68.5,158.7z"/>
	</g>
	<g>
		<path class="st0" d="M102.1,108.7c-0.1,0-0.2,0-0.3-0.1l-1-0.7c-0.2-0.2-0.3-0.5-0.1-0.7s0.5-0.3,0.7-0.1l1,0.7
			c0.2,0.2,0.3,0.5,0.1,0.7C102.4,108.7,102.3,108.7,102.1,108.7z"/>
	</g>
	<g>
		<path class="st0" d="M76,156.6c-0.2,0-0.3-0.1-0.4-0.2c-0.1-0.2-0.1-0.5,0.2-0.7l16.2-9.4c0.2-0.1,0.5-0.1,0.7,0.2
			c0.1,0.2,0.1,0.5-0.2,0.7l-16.2,9.4C76.2,156.5,76.1,156.6,76,156.6z"/>
	</g>
	<g>
		<path class="st0" d="M73.6,152.6c-0.2,0-0.4-0.1-0.4-0.3c-0.1-0.2,0-0.5,0.2-0.7l0.3-0.2l1.3-1l1-1l1-1.3l0.8-1.7l0.7-1.7l0.5-1.9
			l0.5-2.2l0.2-2.2l0-1.4c0-0.3,0.2-0.5,0.5-0.5s0.5,0.2,0.5,0.5v1.4l-0.2,2.3l-0.5,2.3l-0.5,1.9l-0.7,1.8l-0.9,1.8l-1.1,1.5
			l-1.1,1.1l-1.4,1.1l-0.4,0.2C73.7,152.6,73.6,152.6,73.6,152.6z"/>
	</g>
	<g>
		<path class="st0" d="M4.2,73.6c-0.3,0-0.5-0.2-0.5-0.5V70L4,67.3l0.5-2.5l0.9-2.3l0.9-2.1l1.3-2l1.2-1.6l1.6-1.5l2.1-1.6
			c0.2-0.2,0.5-0.1,0.7,0.1c0.2,0.2,0.1,0.5-0.1,0.7l-0.5,0.3l-1.5,1.2l-1.5,1.4L8.4,59l-1.2,1.9l-0.8,2l-0.9,2.2L5,67.5L4.6,70
			l0,3.1C4.7,73.4,4.4,73.6,4.2,73.6z"/>
	</g>
	<g>
		<path class="st0" d="M31.3,60.5c-0.1,0-0.2,0-0.3-0.1l-1.4-0.9l-2.2-0.8l-1.9-0.9l-3.9-0.7l-1.8,0l-1.6,0.3l-1.5,0.5l-1.2,0.5
			c-0.3,0.1-0.5,0-0.7-0.3c-0.1-0.3,0-0.5,0.3-0.7l1.2-0.5l1.6-0.5l1.8-0.4l2,0l4.1,0.7c0,0,0.1,0,0.1,0l1.9,0.9l2.2,0.9l1.5,0.9
			c0.2,0.1,0.3,0.5,0.2,0.7C31.6,60.5,31.5,60.5,31.3,60.5z"/>
	</g>
	<g>
		<path class="st0" d="M12.9,54.6c-0.2,0-0.3-0.1-0.4-0.3c-0.1-0.2-0.1-0.5,0.2-0.7l16.2-9.2c0.2-0.1,0.5-0.1,0.7,0.2
			c0.1,0.2,0.1,0.5-0.2,0.7l-16.2,9.2C13,54.6,12.9,54.6,12.9,54.6z"/>
	</g>
	<g>
		<path class="st0" d="M143.3,132.9c-0.2,0-0.3-0.1-0.4-0.2c-0.1-0.2-0.1-0.5,0.2-0.7l1.7-1c0.2-0.1,0.5-0.1,0.7,0.2
			s0.1,0.5-0.2,0.7l-1.7,1C143.5,132.9,143.4,132.9,143.3,132.9z"/>
	</g>
	<g>
		<path class="st0" d="M4.2,74.5c-0.3,0-0.5-0.2-0.5-0.5v-0.9c0-0.3,0.2-0.5,0.5-0.5s0.5,0.2,0.5,0.5V74C4.7,74.2,4.4,74.5,4.2,74.5
			z"/>
	</g>
	<g>
		<path class="st0" d="M43.3,44.9c-0.3,0-0.5-0.2-0.5-0.5v-0.9c0-0.3,0.2-0.5,0.5-0.5s0.5,0.2,0.5,0.5v0.9
			C43.8,44.7,43.6,44.9,43.3,44.9z"/>
	</g>
	<g>
		<path class="st0" d="M35.8,42.5c-0.2,0-0.3-0.1-0.4-0.3c-0.1-0.2,0-0.5,0.2-0.7l1.6-0.9c0.2-0.1,0.5,0,0.7,0.2
			c0.1,0.2,0,0.5-0.2,0.7l-1.6,0.9C36,42.4,35.9,42.5,35.8,42.5z"/>
	</g>
	<g>
		<path class="st0" d="M151.1,96.2c-0.1,0-0.2,0-0.2-0.1c-0.2-0.1-0.3-0.4-0.2-0.7l1-2.1l2.4-5.9l0.7-1.9l0.7-2.1l0.9-2.4l1-3.1
			l1.2-4l1.2-4.3l1.2-4.9c0.1-0.3,0.3-0.4,0.6-0.4c0.3,0.1,0.4,0.3,0.4,0.6l-1.2,4.9l-1.2,4.4l-1.2,4l-1,3.1l-2.3,6.4l-1.4,3.5
			l-1,2.4l-1.1,2.1C151.5,96.1,151.3,96.2,151.1,96.2z"/>
	</g>
	<g>
		<path class="st0" d="M141.9,150c-0.2,0-0.4-0.1-0.4-0.3c-0.1-0.2,0-0.5,0.2-0.7l2.3-1.2c0.2-0.1,0.5,0,0.7,0.2s0,0.5-0.2,0.7
			l-2.3,1.2C142.1,149.9,142,150,141.9,150z"/>
	</g>
	<g>
		<path class="st0" d="M62.1,27.5c-0.2,0-0.4-0.2-0.5-0.4c0-0.3,0.1-0.5,0.4-0.6l3.8-0.7l7.1-1.6l4.2-0.9l3.8-1l9.1-1.7l4.7-0.7
			l5.6-0.7l8.2-0.4h3.2l6.3,0.3l2.1,0.4l2.6,0.2l2.7,0.5l2.2,0.3l3.3,0.7l2.3,0.5l2.6,0.7l3.2,1.1c0.3,0.1,0.4,0.4,0.3,0.6
			c-0.1,0.3-0.4,0.4-0.6,0.3l-3.1-1l-2.6-0.7l-3.8-0.9l-1.7-0.3l-2.2-0.3l-2.6-0.5l-2.5-0.2l-2.1-0.4l-6.2-0.3l-3.1,0l-8.2,0.3
			l-5.5,0.7l-4.7,0.7l-9,1.7l-3.8,1l-5.9,1.2L66,26.8L62.1,27.5C62.1,27.5,62.1,27.5,62.1,27.5z"/>
	</g>
	<g>
		<path class="st0" d="M161.6,69.8h-0.2c-0.3,0-0.5-0.2-0.5-0.5s0.2-0.5,0.5-0.5h0.2c0.3,0,0.5,0.2,0.5,0.5S161.9,69.8,161.6,69.8z"
			/>
	</g>
	<g>
		<path class="st0" d="M134.1,22.1h-0.2c-0.3,0-0.5-0.2-0.5-0.5s0.2-0.5,0.5-0.5h0.2c0.3,0,0.5,0.2,0.5,0.5S134.4,22.1,134.1,22.1z"
			/>
	</g>
	<g>
		<path class="st0" d="M38.1,23.1c-0.2,0-0.3-0.1-0.4-0.2c-0.1-0.2-0.1-0.5,0.2-0.7l2.1-1.2c0.2-0.1,0.5-0.1,0.7,0.2
			c0.1,0.2,0.1,0.5-0.2,0.7l-2.1,1.2C38.2,23.1,38.2,23.1,38.1,23.1z"/>
	</g>
	<g>
		<path class="st0" d="M187.2,65.6c-0.2,0-0.3-0.1-0.4-0.2l-3.7-5.9c-0.1-0.2-0.1-0.5,0.2-0.7c0.2-0.1,0.5-0.1,0.7,0.2l3.7,5.9
			c0.1,0.2,0.1,0.5-0.2,0.7C187.3,65.6,187.2,65.6,187.2,65.6z"/>
	</g>
	<g>
		<path class="st0" d="M179.8,66.3c-0.2,0-0.4-0.1-0.5-0.3l-0.3-0.9c-0.1-0.3,0-0.5,0.3-0.6c0.3-0.1,0.5,0,0.6,0.3l0.3,0.9
			c0.1,0.3,0,0.5-0.3,0.6C180,66.3,179.9,66.3,179.8,66.3z"/>
	</g>
	<g>
		<path class="st0" d="M177.8,67.5c-0.2,0-0.3-0.1-0.4-0.2l-0.5-0.9c-0.1-0.2-0.1-0.5,0.2-0.7c0.2-0.1,0.5-0.1,0.7,0.2l0.5,0.9
			c0.1,0.2,0.1,0.5-0.2,0.7C177.9,67.5,177.8,67.5,177.8,67.5z"/>
	</g>
	<g>
		<path class="st0" d="M152.5,8c-0.2,0-0.3-0.1-0.4-0.2l-3.3-5.4c-0.1-0.2-0.1-0.5,0.2-0.7c0.2-0.1,0.5-0.1,0.7,0.2l3.3,5.4
			c0.1,0.2,0.1,0.5-0.2,0.7C152.7,8,152.6,8,152.5,8z"/>
	</g>
	<g>
		<path class="st0" d="M145.8,9.4c-0.2,0-0.3-0.1-0.4-0.2l-0.5-0.9c-0.1-0.2-0.1-0.5,0.2-0.7c0.2-0.1,0.5-0.1,0.7,0.2l0.5,0.9
			c0.1,0.2,0.1,0.5-0.2,0.7C145.9,9.4,145.8,9.4,145.8,9.4z"/>
	</g>
	<g>
		<path class="st0" d="M145.2,8.5c-0.2,0-0.4-0.1-0.4-0.3l-0.3-0.7c0,0,0-0.1,0-0.1L144,6.1c0-0.1,0-0.2,0-0.2l0.5-1.9
			c0-0.1,0.1-0.2,0.1-0.2l0.5-0.5c0,0,0.1-0.1,0.1-0.1l0.3-0.2c0.2-0.1,0.5,0,0.7,0.2c0.1,0.2,0,0.5-0.2,0.7l-0.3,0.1l-0.4,0.4
			L145,5.9l0.3,1.2l0.3,0.6c0.1,0.2,0,0.5-0.2,0.7C145.4,8.5,145.3,8.5,145.2,8.5z"/>
	</g>
	<g>
		<path class="st0" d="M146.8,4.2c-0.1,0-0.3,0-0.4-0.1l-0.2-0.2c0,0-0.1-0.1-0.1-0.1c0,0-0.1-0.1-0.1-0.1h-0.1
			c-0.3,0-0.5-0.2-0.5-0.5s0.2-0.5,0.5-0.5h0.5c0.2,0,0.3,0.1,0.4,0.2c0.1,0.1,0.2,0.2,0.2,0.4l0,0c0.2,0.2,0.2,0.5,0,0.7
			C147.1,4.1,146.9,4.2,146.8,4.2z"/>
	</g>
	<g>
		<path class="st0" d="M143.7,9.8c-0.1,0-0.3-0.1-0.4-0.2c-0.2-0.2-0.1-0.5,0.1-0.7l1.6-1.2c0.2-0.2,0.5-0.1,0.7,0.1
			c0.2,0.2,0.1,0.5-0.1,0.7L144,9.6C143.9,9.7,143.8,9.8,143.7,9.8z"/>
	</g>
	<g>
		<path class="st0" d="M143,9.4c-0.1,0-0.3,0-0.4-0.1l-0.2-0.2c-0.1-0.1-0.1-0.1-0.1-0.2L142,7.5c0-0.1,0-0.2,0-0.2l0.5-1.9
			c0-0.1,0.1-0.1,0.1-0.2l0.5-0.5c0,0,0.1-0.1,0.1-0.1l0.3-0.2c0.2-0.1,0.5,0,0.7,0.2c0.1,0.2,0,0.5-0.2,0.7l-0.3,0.1l-0.4,0.4
			l-0.1,0.4L143,7.3l0.3,1.1l0.1,0.1c0.2,0.2,0.2,0.5,0,0.7C143.2,9.4,143.1,9.4,143,9.4z"/>
	</g>
	<g>
		<path class="st0" d="M149.2,2.6c-0.1,0-0.3,0-0.4-0.1l-0.2-0.2h-0.1c-0.3,0-0.5-0.2-0.5-0.5s0.2-0.5,0.5-0.5h0.3
			c0.1,0,0.3,0.1,0.4,0.1l0.3,0.3c0.2,0.2,0.2,0.5,0,0.7C149.5,2.6,149.4,2.6,149.2,2.6z"/>
	</g>
	<g>
		<path class="st0" d="M177.8,67.7c-0.3,0-0.5-0.2-0.5-0.5V67c0-0.3,0.2-0.5,0.5-0.5s0.5,0.2,0.5,0.5v0.2
			C178.3,67.5,178,67.7,177.8,67.7z"/>
	</g>
	<g>
		<path class="st0" d="M187.3,66.5h-0.2c-0.3,0-0.5-0.2-0.5-0.5s0.2-0.5,0.5-0.5h0.2c0.3,0,0.5,0.2,0.5,0.5S187.6,66.5,187.3,66.5z"
			/>
	</g>
	<g>
		<path class="st0" d="M187.2,65.6c-0.1,0-0.3,0-0.4-0.1c-0.2-0.2-0.2-0.5,0-0.7l0.2-0.2c0.2-0.2,0.5-0.2,0.7,0
			c0.2,0.2,0.2,0.5,0,0.7l-0.2,0.2C187.4,65.5,187.3,65.6,187.2,65.6z"/>
	</g>
	<g>
		<path class="st0" d="M185.2,67.9h-0.2c-0.3,0-0.5-0.2-0.5-0.5s0.2-0.5,0.5-0.5h0.2c0.3,0,0.5,0.2,0.5,0.5S185.5,67.9,185.2,67.9z"
			/>
	</g>
	<g>
		<path class="st0" d="M149.6,2.6h-0.3c-0.3,0-0.5-0.2-0.5-0.5s0.2-0.5,0.5-0.5h0.3c0.3,0,0.5,0.2,0.5,0.5S149.9,2.6,149.6,2.6z"/>
	</g>
	<g>
		<path class="st0" d="M123.3,111.9c-0.1,0-0.3,0-0.4-0.1c-0.2-0.2-0.2-0.5,0-0.7l0.5-0.5c0.1-0.1,0.2-0.1,0.4-0.1h0.7
			c0.1,0,0.3,0.1,0.4,0.1l0.2,0.2c0.2,0.2,0.2,0.5,0,0.7c-0.2,0.2-0.5,0.2-0.7,0l0,0H124l-0.4,0.4
			C123.6,111.8,123.4,111.9,123.3,111.9z"/>
	</g>
	<g>
		<path class="st0" d="M48.5,78.8c-0.2,0-0.3-0.1-0.4-0.2c-0.1-0.2-0.1-0.5,0.2-0.7l7.1-4.2c0.2-0.1,0.5-0.1,0.7,0.2
			c0.1,0.2,0.1,0.5-0.2,0.7l-7.1,4.2C48.7,78.8,48.6,78.8,48.5,78.8z"/>
	</g>
	<g>
		<path class="st0" d="M76,119.2c-0.2,0-0.3-0.1-0.4-0.3c-0.1-0.2,0-0.5,0.2-0.7l4.2-2.3c0.2-0.1,0.5,0,0.7,0.2
			c0.1,0.2,0,0.5-0.2,0.7l-4.2,2.3C76.2,119.1,76.1,119.2,76,119.2z"/>
	</g>
	<g>
		<path class="st0" d="M24.5,64.9c-0.2,0-0.3-0.1-0.4-0.3c-0.1-0.2-0.1-0.5,0.2-0.7l7.3-4.2c0.2-0.1,0.5-0.1,0.7,0.2
			c0.1,0.2,0.1,0.5-0.2,0.7l-7.3,4.2C24.7,64.9,24.6,64.9,24.5,64.9z"/>
	</g>
	<g>
		<path class="st0" d="M76,139.5c-0.2,0-0.3-0.1-0.4-0.2c-0.1-0.2-0.1-0.5,0.2-0.7l4.2-2.4c0.2-0.1,0.5-0.1,0.7,0.2
			c0.1,0.2,0.1,0.5-0.2,0.7l-4.2,2.4C76.2,139.5,76.1,139.5,76,139.5z"/>
	</g>
	<g>
		<path class="st0" d="M55.3,74.3c-0.1,0-0.3,0-0.4-0.1l-0.4-0.4c0,0-0.1-0.1-0.1-0.1l-0.2-0.3c0-0.1-0.1-0.1-0.1-0.2v-0.3
			c0-0.3,0.2-0.5,0.5-0.5s0.5,0.2,0.5,0.5V73l0.1,0.2l0.3,0.3c0.2,0.2,0.2,0.5,0,0.7C55.6,74.2,55.4,74.3,55.3,74.3z"/>
	</g>
	<g>
		<path class="st0" d="M80.9,118.3c-0.1,0-0.2,0-0.2-0.1l-0.3-0.2c0,0-0.1-0.1-0.1-0.1l-0.2-0.2c0,0-0.1-0.1-0.1-0.1l-0.2-0.3
			c0-0.1-0.1-0.1-0.1-0.2v-0.2c0-0.3,0.2-0.5,0.5-0.5s0.5,0.2,0.5,0.5v0.1l0.1,0.2l0.3,0.1c0.2,0.1,0.3,0.4,0.2,0.7
			C81.2,118.2,81,118.3,80.9,118.3z"/>
	</g>
	<g>
		<path class="st0" d="M80.9,138.7c-0.1,0-0.2,0-0.2-0.1l-0.3-0.2c-0.1,0-0.2-0.1-0.2-0.2l-0.1-0.3l-0.1-0.1
			c-0.1-0.1-0.1-0.2-0.1-0.4v-0.3c0-0.3,0.2-0.5,0.5-0.5s0.5,0.2,0.5,0.5l0,0.2c0,0,0.1,0.1,0.1,0.1l0.1,0.2l0.2,0.1
			c0.2,0.1,0.3,0.4,0.2,0.7C81.2,138.6,81,138.7,80.9,138.7z"/>
	</g>
	<g>
		<path class="st0" d="M31.3,60.5c-0.1,0-0.3,0-0.4-0.1l-0.2-0.2c0,0-0.1-0.1-0.1-0.1l-0.1-0.3l-0.1-0.1c-0.1-0.1-0.1-0.2-0.1-0.4
			V59c0-0.3,0.2-0.5,0.5-0.5s0.5,0.2,0.5,0.5l0,0.2c0,0,0.1,0.1,0.1,0.1l0.1,0.3l0.1,0.1c0.2,0.2,0.2,0.5,0,0.7
			C31.5,60.5,31.4,60.5,31.3,60.5z"/>
	</g>
	<g>
		<path class="st0" d="M67.1,157.3C67.1,157.3,67.1,157.3,67.1,157.3l-2.5-0.2l-2.5-0.4c0,0-0.1,0-0.1,0l-0.9-0.3
			c-0.3-0.1-0.4-0.4-0.3-0.6s0.4-0.4,0.6-0.3l0.8,0.3l2.4,0.3l2.3,0.2l2-0.3l2-0.5l1.8-0.8l1.6-1.1l1.4-1.5l1.3-1.7l1-2l0.9-2.2
			l0.7-2.4l0.3-2.7l0.2-2.8c0-0.3,0.2-0.5,0.5-0.5c0.3,0,0.5,0.3,0.5,0.5l-0.2,2.8l-0.4,2.8l-0.7,2.5l-0.9,2.3l-1.1,2.1
			c0,0,0,0.1-0.1,0.1l-1.4,1.7l-1.4,1.6c0,0-0.1,0.1-0.1,0.1l-1.7,1.2l-2,0.9l-2.2,0.6L67.1,157.3C67.2,157.3,67.2,157.3,67.1,157.3
			z"/>
	</g>
	<g>
		<path class="st0" d="M76,156.6c-0.2,0-0.3-0.1-0.4-0.2c-0.1-0.2-0.1-0.5,0.2-0.7l0.9-0.5l1.5-1.3l1.5-1.5l1.2-1.9l1-2l0.7-2.2
			l0.7-2.6l0.3-2.7l0-2.7c0-0.3,0.2-0.5,0.5-0.5s0.5,0.2,0.5,0.5v2.8l-0.4,2.8l-0.7,2.7l-0.7,2.3l-1.1,2.2l-1.2,2c0,0,0,0.1-0.1,0.1
			l-1.6,1.6l-1.6,1.4l-0.9,0.6C76.2,156.5,76.1,156.6,76,156.6z"/>
	</g>
	<g>
		<path class="st0" d="M4.8,72.4c-0.3,0-0.5-0.2-0.5-0.5V71l0.4-2.7l0.7-2.5l0.9-2.5l1.1-2l1.4-1.8l1.4-1.6c0,0,0.1-0.1,0.1-0.1
			l1.7-1.2l2-0.9l2.2-0.6l2.3-0.4c0,0,0.1,0,0.1,0l2.3,0.2l2.5,0.4l2.5,0.7l2.5,1.1l2.6,1.4c0.2,0.1,0.3,0.4,0.2,0.7
			c-0.1,0.2-0.4,0.3-0.7,0.2l-2.6-1.4l-2.4-1l-2.4-0.7L20.8,56l-2.2-0.2l-2.2,0.3l-2,0.5l-1.8,0.8l-1.6,1.1l-1.4,1.5l-1.4,1.7
			l-1,1.8l-0.8,2.4l-0.7,2.4l-0.3,2.5l0,0.8C5.3,72.2,5.1,72.4,4.8,72.4z"/>
	</g>
	<g>
		<path class="st0" d="M4.2,73.9c-0.3,0-0.5-0.2-0.5-0.5v-0.3c0-0.3,0.2-0.5,0.5-0.5s0.5,0.2,0.5,0.5v0.3
			C4.7,73.7,4.4,73.9,4.2,73.9z"/>
	</g>
	<g>
		<path class="st0" d="M32.5,56.5c-0.1,0-0.1,0-0.2,0l-2.6-1.2l-2.6-1l-2.4-0.9l-2.3-0.5H18l-2,0.5l-2,0.7l-0.8,0.5
			c-0.2,0.1-0.5,0.1-0.7-0.2c-0.1-0.2-0.1-0.5,0.2-0.7l0.9-0.5c0,0,0.1,0,0.1,0l2.1-0.7l2.1-0.5c0,0,0.1,0,0.1,0h4.5
			c0,0,0.1,0,0.1,0l2.4,0.5l2.5,0.9l2.6,1.1l2.6,1.2c0.3,0.1,0.4,0.4,0.2,0.7C32.9,56.4,32.7,56.5,32.5,56.5z"/>
	</g>
	<g>
		<path class="st0" d="M43.1,44.9c-0.3,0-0.5-0.2-0.5-0.5v-0.7c0-0.3,0.2-0.5,0.5-0.5s0.5,0.2,0.5,0.5v0.7
			C43.6,44.7,43.4,44.9,43.1,44.9z"/>
	</g>
	<g>
		<path class="st0" d="M49.4,47.7c-0.2,0-0.3-0.1-0.4-0.2c-0.2-0.2-0.1-0.5,0.1-0.7l0.5-0.3c0.2-0.2,0.5-0.1,0.7,0.1
			c0.2,0.2,0.1,0.5-0.1,0.7l-0.5,0.3C49.6,47.6,49.5,47.7,49.4,47.7z"/>
	</g>
	<g>
		<path class="st0" d="M174.3,40.7c-0.2,0-0.4-0.2-0.5-0.4l-0.2-0.6l-0.5-1l-0.5-0.8l-0.8-0.9c-0.2-0.2-0.2-0.5,0-0.7s0.5-0.2,0.7,0
			l0.2,0.2l0.7,0.9l0.6,0.9l0.5,1.1c0,0,0,0.1,0,0.1l0.2,0.7c0.1,0.3-0.1,0.5-0.4,0.6C174.4,40.7,174.3,40.7,174.3,40.7z"/>
	</g>
	<g>
		<path class="st0" d="M177.2,55.7c-0.3,0-0.5-0.2-0.5-0.5v-2.1c0-0.3,0.2-0.5,0.5-0.5s0.5,0.2,0.5,0.5v2.1
			C177.7,55.5,177.5,55.7,177.2,55.7z"/>
	</g>
	<g>
		<path class="st0" d="M154.4,15.8c-0.1,0-0.3,0-0.4-0.1l-0.4-0.5l-1.2-0.5c-0.2-0.1-0.3-0.4-0.2-0.7c0.1-0.2,0.4-0.3,0.7-0.2
			l0.3,0.2l0.8,0.3c0.1,0,0.1,0.1,0.2,0.1l0.5,0.5c0.2,0.2,0.2,0.5,0,0.7C154.7,15.8,154.6,15.8,154.4,15.8z"/>
	</g>
	<g>
		<path class="st0" d="M166.3,27c-0.2,0-0.4-0.2-0.5-0.4l-0.1-0.6l-0.6-0.8l-0.4-0.6c-0.2-0.2-0.1-0.5,0.1-0.7
			c0.2-0.2,0.5-0.1,0.7,0.1l0.3,0.5l0.7,0.8c0,0.1,0.1,0.1,0.1,0.2l0.2,0.7c0.1,0.3-0.1,0.5-0.4,0.6C166.4,27,166.3,27,166.3,27z"/>
	</g>
	<g>
		<path class="st0" d="M170.8,35c-0.3,0-0.5-0.2-0.5-0.5v-0.7l-0.2-0.8l-0.3-0.9l-0.5-0.8l-0.6-0.8l-0.6-0.5l-0.3-0.1
			c-0.2-0.1-0.3-0.4-0.2-0.7c0.1-0.2,0.4-0.3,0.7-0.2l0.3,0.2l0.8,0.6c0,0,0.1,0.1,0.1,0.1l0.7,0.9l0.6,0.9c0,0,0,0.1,0,0.1l0.3,1
			l0.2,0.9l0,0.8C171.3,34.8,171.1,35,170.8,35z"/>
	</g>
	<g>
		<path class="st0" d="M178.8,31.1c-0.2,0-0.3-0.1-0.4-0.2c-0.2-0.2-0.1-0.5,0.1-0.7l0.4-0.2l0.1-0.4V28l-0.5-0.9l-0.5-0.8l-0.6-0.8
			l-0.6-0.5l-0.5-0.2h-0.5l-0.4,0.1c-0.3,0.1-0.5-0.1-0.6-0.3c-0.1-0.3,0.1-0.5,0.3-0.6l0.5-0.2c0.1,0,0.1,0,0.2,0h0.7
			c0.1,0,0.2,0,0.2,0.1l0.7,0.3l0.8,0.6c0,0,0.1,0.1,0.1,0.1l0.7,0.9l0.6,0.9l0.5,1.1c0,0.1,0.1,0.1,0.1,0.2v1.7c0,0,0,0.1,0,0.1
			l-0.2,0.7c0,0.1-0.1,0.2-0.2,0.3l-0.5,0.3C179,31.1,178.9,31.1,178.8,31.1z"/>
	</g>
	<g>
		<path class="st0" d="M171.3,35.8c-0.2,0-0.3-0.1-0.4-0.3c-0.1-0.2-0.1-0.5,0.2-0.7l7.7-4.3c0.2-0.1,0.5-0.1,0.7,0.2
			c0.1,0.2,0.1,0.5-0.2,0.7l-7.7,4.3C171.5,35.8,171.4,35.8,171.3,35.8z"/>
	</g>
	<g>
		<path class="st0" d="M182.3,37.9c-0.1,0-0.2,0-0.3-0.1c-0.2-0.2-0.3-0.5-0.1-0.7l0.3-0.5l0.3-0.5v-0.8l-0.2-0.8l-0.3-0.9l-1.3-1.6
			l-0.6-0.4l-0.5-0.1H179c-0.3,0-0.5-0.2-0.5-0.5s0.2-0.5,0.5-0.5h0.7c0,0,0.1,0,0.1,0l0.7,0.2c0.1,0,0.1,0,0.2,0.1l0.7,0.5
			c0,0,0.1,0.1,0.1,0.1l1.4,1.7c0,0,0.1,0.1,0.1,0.2l0.3,1l0.2,0.9l0,1c0,0.1,0,0.2-0.1,0.2l-0.3,0.7l-0.4,0.6
			C182.6,37.9,182.4,37.9,182.3,37.9z"/>
	</g>
	<g>
		<path class="st0" d="M174.8,24.7c-0.1,0-0.2,0-0.2-0.1c-0.2-0.1-0.3-0.4-0.2-0.7l0.3-0.6v-1.5l-0.3-0.9l-0.5-0.8l-0.6-0.7
			l-1.3-0.8h-0.5l-0.4,0.1c-0.3,0.1-0.5-0.1-0.6-0.3s0.1-0.5,0.3-0.6l0.5-0.2c0.1,0,0.1,0,0.2,0h0.7c0.1,0,0.2,0,0.2,0.1l0.7,0.3
			l0.9,0.5c0.1,0,0.1,0.1,0.1,0.1l0.7,0.9l0.6,0.9c0,0,0,0.1,0,0.1l0.3,1c0,0.1,0,0.1,0,0.2v1.7c0,0.1,0,0.2-0.1,0.2l-0.3,0.7
			C175.2,24.6,175,24.7,174.8,24.7z"/>
	</g>
	<g>
		<path class="st0" d="M167.5,29.1c-0.2,0-0.3-0.1-0.4-0.2c-0.1-0.2-0.1-0.5,0.2-0.7l7.3-4.3c0.2-0.1,0.5-0.1,0.7,0.2
			c0.1,0.2,0.1,0.5-0.2,0.7l-7.3,4.3C167.7,29,167.6,29.1,167.5,29.1z"/>
	</g>
	<g>
		<path class="st0" d="M175,42.1c-0.2,0-0.3-0.1-0.4-0.3c-0.1-0.2-0.1-0.5,0.2-0.7l6.8-3.8c0.2-0.1,0.5,0,0.7,0.2
			c0.1,0.2,0.1,0.5-0.2,0.7l-6.8,3.8C175.1,42.1,175.1,42.1,175,42.1z"/>
	</g>
	<g>
		<path class="st0" d="M184.4,44.9c-0.1,0-0.3,0-0.4-0.1c-0.2-0.2-0.2-0.5,0-0.7l0.2-0.2l0.3-0.4l0.3-0.5v-0.7l-0.3-0.8l-0.3-1
			l-0.6-0.8l-0.7-0.7l-0.6-0.5l-0.6-0.3c-0.2-0.1-0.3-0.4-0.2-0.7c0.1-0.2,0.4-0.3,0.7-0.2l0.7,0.3l0.8,0.6l0.7,0.7l0.7,0.9
			c0,0,0.1,0.1,0.1,0.2l0.3,1l0.3,0.8c0,0.1,0,0.1,0,0.2V43c0,0.1,0,0.2-0.1,0.2l-0.3,0.7l-0.4,0.6l-0.2,0.3
			C184.6,44.8,184.5,44.9,184.4,44.9z"/>
	</g>
	<g>
		<path class="st0" d="M179,31.5c-0.1,0-0.3,0-0.4-0.1l-0.2-0.2c-0.1-0.1-0.1-0.2-0.1-0.4v-0.2c0-0.3,0.2-0.5,0.5-0.5
			c0.3,0,0.5,0.2,0.5,0.5l0,0c0.2,0.2,0.2,0.5,0,0.7C179.2,31.4,179.1,31.5,179,31.5z"/>
	</g>
	<g>
		<path class="st0" d="M175,24.9c-0.2,0-0.3-0.1-0.4-0.2c-0.1-0.1-0.2-0.2-0.2-0.4c0-0.3,0.2-0.5,0.5-0.5h0.2c0.3,0,0.5,0.2,0.5,0.5
			v0.2C175.5,24.7,175.3,24.9,175,24.9z"/>
	</g>
	<g>
		<path class="st0" d="M170.1,19.1C170.1,19.1,170,19.1,170.1,19.1c-0.4-0.1-0.5-0.3-0.5-0.6l0.2-0.8l-0.2-0.8l-0.3-1l-0.5-0.9
			l-1.3-1.3l-0.6-0.3l-0.5-0.1l-0.6,0.1c-0.3,0.1-0.5-0.1-0.6-0.4c-0.1-0.3,0.1-0.5,0.4-0.6l0.7-0.2c0.1,0,0.2,0,0.2,0l0.7,0.2
			c0,0,0.1,0,0.1,0l0.7,0.3c0,0,0.1,0.1,0.1,0.1l1.4,1.4c0,0,0.1,0.1,0.1,0.1l0.5,1l0.4,1.1l0.2,0.9c0,0.1,0,0.1,0,0.2l-0.2,0.9
			C170.5,19,170.3,19.1,170.1,19.1z"/>
	</g>
	<g>
		<path class="st0" d="M163.7,22.8c-0.2,0-0.3-0.1-0.4-0.3c-0.1-0.2-0.1-0.5,0.2-0.7l6.4-3.7c0.2-0.1,0.5-0.1,0.7,0.2
			s0.1,0.5-0.2,0.7l-6.4,3.7C163.8,22.8,163.8,22.8,163.7,22.8z"/>
	</g>
	<g>
		<path class="st0" d="M185.4,51.3h-0.2c-0.3,0-0.5-0.2-0.5-0.5c0-0.2,0.2-0.4,0.4-0.5l0.2-0.3l0.2-0.5l-0.3-1.7l-0.5-0.8l-0.5-1
			l-0.6-0.6l-0.4-0.3c-0.2-0.2-0.3-0.5-0.1-0.7c0.2-0.2,0.5-0.3,0.7-0.1l0.5,0.3l0.8,0.8c0,0,0.1,0.1,0.1,0.1l0.5,1l0.5,0.8
			c0,0.1,0.1,0.1,0.1,0.2l0.3,1.9c0,0.1,0,0.2,0,0.3l-0.3,0.7l-0.4,0.6C185.7,51.2,185.6,51.3,185.4,51.3z"/>
	</g>
	<g>
		<path class="st0" d="M164.9,14.1c-0.3,0-0.5-0.2-0.5-0.5v-0.3l-0.3-0.9l-0.5-0.8l-0.7-0.8l-0.6-0.6l-0.6-0.3l-0.7-0.1l-0.4,0.1
			c-0.3,0.1-0.5-0.1-0.6-0.3C160,9.3,160.1,9,160.4,9l0.5-0.2c0.1,0,0.2,0,0.3,0l0.9,0.2c0,0,0.1,0,0.1,0l0.7,0.3
			c0,0,0.1,0.1,0.1,0.1l0.7,0.7l0.7,0.9L165,12c0,0,0,0.1,0,0.1l0.3,1c0,0.1,0,0.1,0,0.2v0.3C165.4,13.9,165.2,14.1,164.9,14.1z"/>
	</g>
	<g>
		<path class="st0" d="M184.7,57.2c-0.1,0-0.3,0-0.4-0.1c-0.2-0.2-0.2-0.5,0-0.7l0.6-0.6l0.1-0.5l-0.3-1.7l-0.5-0.9l-0.6-0.6
			c-0.1-0.1-0.1-0.2-0.1-0.4v-0.2c0-0.3,0.2-0.5,0.5-0.5c0.3,0,0.5,0.2,0.5,0.5l0.6,0.5c0,0,0.1,0.1,0.1,0.1l0.5,1c0,0,0,0.1,0,0.1
			l0.3,1.9c0,0.1,0,0.1,0,0.2l-0.2,0.7c0,0.1-0.1,0.2-0.1,0.2l-0.7,0.7C185,57.2,184.8,57.2,184.7,57.2z"/>
	</g>
	<g>
		<path class="st0" d="M159.1,10.6c-0.2,0-0.4-0.1-0.4-0.3l-0.3-0.6l-0.7-0.8l-0.7-0.7l-0.6-0.4L156,7.7l-0.6,0.1c0,0-0.1,0-0.1,0
			h-0.2c-0.3,0-0.5-0.2-0.5-0.5s0.2-0.5,0.5-0.5h0.1l0.6-0.2c0.1,0,0.2,0,0.2,0l0.7,0.2c0.1,0,0.1,0,0.2,0.1l0.7,0.5l0.7,0.7
			l0.7,0.9c0,0,0,0.1,0.1,0.1l0.3,0.7c0.1,0.2,0,0.5-0.2,0.7C159.3,10.6,159.2,10.6,159.1,10.6z"/>
	</g>
	<g>
		<path class="st0" d="M182.8,61.9c-0.2,0-0.4-0.1-0.4-0.3c-0.1-0.2,0-0.5,0.2-0.7l0.2-0.1l0.2-0.3l0.1-0.7l-0.4-1.7
			c-0.2-0.2-0.2-0.5,0-0.7c0.2-0.2,0.5-0.2,0.7,0l0.2,0.2c0.1,0.1,0.1,0.2,0.1,0.3l0.3,1.9c0,0.1,0,0.1,0,0.2l-0.2,0.9
			c0,0.1,0,0.1-0.1,0.2l-0.3,0.5c0,0.1-0.1,0.1-0.2,0.2l-0.3,0.2C183,61.9,182.9,61.9,182.8,61.9z"/>
	</g>
	<g>
		<path class="st0" d="M153.4,8.9c-0.1,0-0.3,0-0.4-0.1l-0.7-0.7l-0.8-0.5l-0.6-0.1l-0.5,0c-0.2,0.2-0.5,0.2-0.7,0
			c-0.2-0.2-0.2-0.5,0-0.7l0.2-0.2c0.1-0.1,0.2-0.1,0.4-0.1h0.7c0,0,0.1,0,0.1,0l0.7,0.2c0,0,0.1,0,0.1,0.1l0.9,0.5
			c0,0,0.1,0,0.1,0.1l0.7,0.7c0.2,0.2,0.2,0.5,0,0.7C153.7,8.8,153.5,8.9,153.4,8.9z"/>
	</g>
	<g>
		<path class="st0" d="M179.8,65.1c-0.2,0-0.4-0.1-0.5-0.3c-0.1-0.3,0.1-0.5,0.3-0.6l0.5-0.2c0.3-0.1,0.5,0.1,0.6,0.3
			c0.1,0.3-0.1,0.5-0.3,0.6L180,65C180,65.1,179.9,65.1,179.8,65.1z"/>
	</g>
	<g>
		<path class="st0" d="M180,65.1c-0.1,0-0.3,0-0.4-0.1c-0.2-0.2-0.2-0.5,0-0.7l0.2-0.2c0.1-0.1,0.2-0.1,0.4-0.1h0.2
			c0.3,0,0.5,0.2,0.5,0.5c0,0.3-0.2,0.5-0.5,0.5l0,0C180.3,65,180.1,65.1,180,65.1z"/>
	</g>
	<g>
		<path class="st0" d="M179.8,65.1c-0.2,0-0.4-0.1-0.4-0.3c-0.1-0.2,0-0.5,0.2-0.7l0.2-0.1l0.3-0.8v-0.4c0-0.3,0.2-0.5,0.5-0.5
			s0.5,0.2,0.5,0.5v0.5c0,0.1,0,0.1,0,0.2l-0.3,1c0,0.1-0.1,0.2-0.3,0.3l-0.3,0.2C180,65.1,179.9,65.1,179.8,65.1z"/>
	</g>
	<g>
		<path class="st0" d="M146.3,9.1c-0.2,0-0.4-0.1-0.4-0.3c-0.1-0.2,0-0.5,0.2-0.7l0.3-0.2c0.2-0.1,0.5,0,0.7,0.2
			c0.1,0.2,0,0.5-0.2,0.7L146.5,9C146.4,9,146.4,9.1,146.3,9.1z"/>
	</g>
	<g>
		<path class="st0" d="M147.7,9.2c-0.1,0-0.3,0-0.4-0.1l0,0h-1.2c-0.3,0-0.5-0.2-0.5-0.5s0.2-0.5,0.5-0.5h1.4c0.1,0,0.3,0.1,0.4,0.1
			l0.2,0.2c0.2,0.2,0.2,0.5,0,0.7C147.9,9.2,147.8,9.2,147.7,9.2z"/>
	</g>
	<g>
		<path class="st0" d="M183.7,67.3h-0.5c-0.1,0-0.1,0-0.2,0l-1-0.3c0,0-0.1,0-0.1-0.1l-0.5-0.3c-0.1,0-0.1-0.1-0.1-0.1l-0.7-1
			c-0.2-0.2-0.1-0.5,0.1-0.7c0.2-0.2,0.5-0.1,0.7,0.1l0.6,1l0.4,0.3l0.9,0.3h0.4l0.4-0.1l0.3-0.1c0.2-0.1,0.5,0,0.7,0.2
			c0.1,0.2,0,0.5-0.2,0.7l-0.3,0.2l-0.6,0.2C183.8,67.3,183.7,67.3,183.7,67.3z"/>
	</g>
	<g>
		<path class="st0" d="M184.7,67.9c-0.3,0-0.5-0.2-0.5-0.5l0-0.5c-0.2-0.2-0.2-0.5,0-0.7c0.2-0.2,0.5-0.2,0.7,0l0.2,0.2
			c0.1,0.1,0.1,0.2,0.1,0.4v0.7C185.2,67.6,185,67.9,184.7,67.9z"/>
	</g>
	<g>
		<path class="st0" d="M184,68.2h-1.2c0,0-0.1,0-0.1,0l-1.4-0.3c-0.1,0-0.2-0.1-0.2-0.1l-1.6-1.6c-0.2-0.2-0.2-0.5,0-0.7
			s0.5-0.2,0.7,0l1.5,1.5l1.2,0.3h1l0.6-0.3c0.2-0.1,0.5,0,0.7,0.2c0.1,0.2,0,0.5-0.2,0.7l-0.7,0.3C184.2,68.2,184.1,68.2,184,68.2z
			"/>
	</g>
	<g>
		<path class="st0" d="M179.8,66.3c-0.1,0-0.3,0-0.4-0.1c-0.2-0.2-0.2-0.5,0-0.7l0.2-0.2c0,0,0.1-0.1,0.1-0.1
			c0.1-0.1,0.2-0.2,0.4-0.2c0.1-0.1,0.2-0.2,0.3-0.2l0,0c0.2-0.2,0.5-0.2,0.7,0c0.2,0.2,0.2,0.5,0,0.7l-0.2,0.2c0,0-0.1,0.1-0.1,0.1
			c-0.1,0.1-0.2,0.2-0.4,0.2c-0.1,0.1-0.2,0.2-0.3,0.2l0,0C180.1,66.2,180,66.3,179.8,66.3z"/>
	</g>
	<g>
		<path class="st0" d="M184.5,67c-0.2,0-0.4-0.1-0.4-0.3c-0.1-0.2,0-0.5,0.2-0.7l2.6-1.4c0.2-0.1,0.5,0,0.7,0.2s0,0.5-0.2,0.7
			l-2.6,1.4C184.7,67,184.6,67,184.5,67z"/>
	</g>
	<g>
		<path class="st0" d="M180.9,65.6c-0.2,0-0.3-0.1-0.4-0.2l-0.5-0.7c-0.2-0.2-0.1-0.5,0.1-0.7c0.2-0.2,0.5-0.1,0.7,0.1l0.5,0.7
			c0.2,0.2,0.1,0.5-0.1,0.7C181.1,65.6,181,65.6,180.9,65.6z"/>
	</g>
	<g>
		<path class="st0" d="M182.6,69.2c-0.2,0-0.3-0.1-0.4-0.2c-0.2-0.2-0.1-0.5,0.1-0.7l2.1-1.4c0.2-0.2,0.5-0.1,0.7,0.1
			c0.2,0.2,0.1,0.5-0.1,0.7l-2.1,1.4C182.8,69.2,182.7,69.2,182.6,69.2z"/>
	</g>
	<g>
		<path class="st0" d="M181.9,69.6h-1.2c0,0-0.1,0-0.1,0l-0.7-0.2c0,0-0.1,0-0.1,0l-0.7-0.3l-0.6-0.4l-0.6-0.6l-0.6-0.7
			c-0.2-0.2-0.1-0.5,0.1-0.7c0.2-0.2,0.5-0.1,0.7,0.1l0.5,0.7l0.5,0.5l0.4,0.3l0.6,0.3l0.6,0.1h1l0.6-0.3c0.2-0.1,0.5,0,0.7,0.2
			s0,0.5-0.2,0.7l-0.7,0.3C182.1,69.6,182,69.6,181.9,69.6z"/>
	</g>
	<g>
		<path class="st0" d="M177.8,67.5c-0.2,0-0.3-0.1-0.4-0.2c-0.1-0.2-0.1-0.5,0.2-0.7l2.1-1.2c0.2-0.1,0.5-0.1,0.7,0.2
			c0.1,0.2,0.1,0.5-0.2,0.7l-2.1,1.2C177.9,67.5,177.8,67.5,177.8,67.5z"/>
	</g>
	<g>
		<path class="st0" d="M146.1,8c-0.2,0-0.4-0.1-0.5-0.3l-0.3-1l-0.2-0.7c0-0.1,0-0.2,0-0.3l0.1-0.4V4.7c0-0.1,0.1-0.3,0.1-0.4
			l0.3-0.3l0.3-0.4c0-0.1,0.1-0.1,0.2-0.2l0.3-0.2c0.2-0.1,0.5,0,0.7,0.2c0.1,0.2,0,0.5-0.2,0.7l-0.2,0.1l-0.3,0.4l-0.3,0.3v0.3
			c0,0.1,0,0.1,0,0.2l-0.1,0.4l0.5,1.6c0.1,0.3-0.1,0.5-0.3,0.6C146.2,8,146.2,8,146.1,8z"/>
	</g>
	<g>
		<path class="st0" d="M146.8,4.2c-0.2,0-0.3-0.1-0.4-0.2c-0.1-0.2-0.1-0.5,0.1-0.7l2.4-1.6c0.2-0.1,0.5-0.1,0.7,0.2
			c0.1,0.2,0.1,0.5-0.1,0.7l-2.4,1.6C147,4.2,146.9,4.2,146.8,4.2z"/>
	</g>
	<g>
		<path class="st0" d="M146.6,8.9c-0.2,0-0.3-0.1-0.4-0.2l-0.5-0.9c-0.1-0.2-0.1-0.5,0.2-0.7c0.2-0.1,0.5-0.1,0.7,0.2l0.5,0.9
			c0.1,0.2,0.1,0.5-0.2,0.7C146.8,8.9,146.7,8.9,146.6,8.9z"/>
	</g>
	<g>
		<path class="st0" d="M145.4,8.5h-0.2c-0.3,0-0.5-0.2-0.5-0.5c0-0.3,0.2-0.5,0.5-0.5l0,0c0,0,0.1-0.1,0.1-0.1
			c0.1-0.1,0.2-0.2,0.4-0.2c0.1-0.1,0.2-0.2,0.4-0.2c0.3,0,0.5,0.2,0.5,0.5v0.2c0,0.3-0.2,0.5-0.5,0.5c-0.1,0.1-0.2,0.2-0.3,0.2l0,0
			C145.7,8.5,145.5,8.5,145.4,8.5z"/>
	</g>
	<g>
		<path class="st0" d="M145.9,3.8c-0.3,0-0.5-0.2-0.5-0.5V3.2c0-0.3,0.2-0.5,0.5-0.5s0.5,0.2,0.5,0.5v0.2
			C146.4,3.6,146.2,3.8,145.9,3.8z"/>
	</g>
	<g>
		<path class="st0" d="M146.1,3.7h-0.2c-0.3,0-0.5-0.2-0.5-0.5s0.2-0.5,0.5-0.5h0.2c0.3,0,0.5,0.2,0.5,0.5S146.4,3.7,146.1,3.7z"/>
	</g>
	<g>
		<path class="st0" d="M187.2,66.5c-0.1,0-0.3,0-0.4-0.1c-0.2-0.2-0.2-0.5,0-0.7c-0.1-0.1-0.1-0.2-0.1-0.3v-0.2
			c0-0.3,0.2-0.5,0.5-0.5c0.3,0,0.5,0.2,0.5,0.5l0,0c0.1,0.1,0.1,0.2,0.1,0.4v0.3c0,0.1-0.1,0.3-0.1,0.4l-0.2,0.2
			C187.4,66.4,187.3,66.5,187.2,66.5z"/>
	</g>
	<g>
		<path class="st0" d="M184.7,67.9c-0.2,0-0.3-0.1-0.4-0.3c-0.1-0.2-0.1-0.5,0.2-0.7l2.4-1.4c0.2-0.1,0.5-0.1,0.7,0.2
			c0.1,0.2,0.1,0.5-0.2,0.7l-2.4,1.4C184.9,67.8,184.8,67.9,184.7,67.9z"/>
	</g>
	<g>
		<path class="st0" d="M185.1,67.9c-0.2,0-0.3-0.1-0.4-0.2c-0.2-0.2-0.1-0.5,0.1-0.7l2.1-1.4c0.2-0.2,0.5-0.1,0.7,0.1
			c0.2,0.2,0.1,0.5-0.1,0.7l-2.1,1.4C185.3,67.8,185.2,67.9,185.1,67.9z"/>
	</g>
	<g>
		<path class="st0" d="M182.6,69.2c-0.2,0-0.3-0.1-0.4-0.3c-0.1-0.2-0.1-0.5,0.2-0.7l2.4-1.4c0.2-0.1,0.5-0.1,0.7,0.2
			c0.1,0.2,0.1,0.5-0.2,0.7l-2.4,1.4C182.8,69.2,182.7,69.2,182.6,69.2z"/>
	</g>
	<g>
		<path class="st0" d="M182.6,69.2h-0.2c-0.3,0-0.5-0.2-0.5-0.5s0.2-0.5,0.5-0.5h0.2c0.3,0,0.5,0.2,0.5,0.5S182.9,69.2,182.6,69.2z"
			/>
	</g>
	<g>
		<path class="st0" d="M185.2,67.9h-0.2c-0.3,0-0.5-0.2-0.5-0.5s0.2-0.5,0.5-0.5h0.2c0.3,0,0.5,0.2,0.5,0.5S185.5,67.9,185.2,67.9z"
			/>
	</g>
	<g>
		<path class="st0" d="M149.6,24.9c-0.1,0-0.2,0-0.3-0.1l-1.6-1l-1.9-1c-0.2-0.1-0.3-0.4-0.2-0.7c0.1-0.2,0.4-0.3,0.7-0.2l1.9,1
			l1.6,1.1c0.2,0.2,0.3,0.5,0.1,0.7C149.9,24.8,149.7,24.9,149.6,24.9z"/>
	</g>
	<g>
		<path class="st0" d="M140.5,12.5c-0.1,0-0.2,0-0.2-0.1l-0.6-0.3l-1.8-0.5h-1.1l-0.5,0.1L136,12c-0.2,0.2-0.5,0.2-0.7,0
			c-0.2-0.2-0.2-0.5,0-0.7l0.3-0.3c0.1-0.1,0.1-0.1,0.2-0.1l0.7-0.2c0,0,0.1,0,0.1,0h1.2c0.1,0,0.1,0,0.2,0l0.5,0.2l1.4,0.3
			c0,0,0.1,0,0.1,0l0.7,0.3c0.2,0.1,0.3,0.4,0.2,0.7C140.9,12.4,140.7,12.5,140.5,12.5z"/>
	</g>
	<g>
		<path class="st0" d="M155.5,21.2c-0.1,0-0.2,0-0.3-0.1l-15-8.7c-0.2-0.1-0.3-0.4-0.2-0.7c0.1-0.2,0.4-0.3,0.7-0.2l15,8.7
			c0.2,0.1,0.3,0.4,0.2,0.7C155.8,21.1,155.7,21.2,155.5,21.2z"/>
	</g>
	<g>
		<path class="st0" d="M160.4,26.5c-0.2,0-0.3-0.1-0.4-0.2l-0.5-0.9l-0.5-0.7l-0.5-0.9l-0.7-0.7l-0.6-0.5c0,0-0.1-0.1-0.1-0.1
			l-0.5-0.6l-0.6-0.3l-0.8-0.6c-0.2-0.2-0.3-0.5-0.1-0.7s0.5-0.3,0.7-0.1l0.7,0.5l0.6,0.3c0.1,0,0.1,0.1,0.2,0.1l0.5,0.6l0.6,0.5
			l0.7,0.7c0,0,0.1,0.1,0.1,0.1l0.5,0.9l0.5,0.7l0.6,0.9c0.1,0.2,0.1,0.5-0.2,0.7C160.5,26.4,160.5,26.5,160.4,26.5z"/>
	</g>
	<g>
		<path class="st0" d="M171,44.7c-0.2,0-0.3-0.1-0.4-0.2l-10.6-18.3c-0.1-0.2-0.1-0.5,0.2-0.7c0.2-0.1,0.5-0.1,0.7,0.2L171.4,44
			c0.1,0.2,0.1,0.5-0.2,0.7C171.1,44.7,171.1,44.7,171,44.7z"/>
	</g>
	<g>
		<path class="st0" d="M173.1,51.7c-0.2,0-0.4-0.2-0.5-0.4l-0.2-0.9l0-1l-0.3-1.6l-1-2.5l-0.5-0.8c-0.1-0.2-0.1-0.5,0.2-0.7
			c0.2-0.1,0.5-0.1,0.7,0.2l0.5,0.9l1.1,2.7l0.4,1.8l0,1l0.2,0.8C173.6,51.3,173.4,51.6,173.1,51.7
			C173.1,51.7,173.1,51.7,173.1,51.7z"/>
	</g>
	<g>
		<path class="st0" d="M173.1,68.9c-0.3,0-0.5-0.2-0.5-0.5V51.2c0-0.3,0.2-0.5,0.5-0.5s0.5,0.2,0.5,0.5v17.2
			C173.6,68.7,173.3,68.9,173.1,68.9z"/>
	</g>
	<g>
		<path class="st0" d="M171,73.4c-0.2,0-0.3-0.1-0.4-0.2c-0.2-0.2-0.1-0.5,0.1-0.7l0.5-0.3l0.3-0.3l0.6-0.9l0.3-1.1v-0.8
			c0,0,0-0.1,0-0.1l0.2-0.7c0.1-0.3,0.3-0.4,0.6-0.4c0.3,0.1,0.4,0.3,0.4,0.6l-0.2,0.6V70c0,0.1,0,0.1,0,0.2l-0.2,0.5l-0.2,0.7
			c0,0.1,0,0.1-0.1,0.2l-0.7,1l-0.4,0.4l-0.6,0.4C171.2,73.4,171.1,73.4,171,73.4z"/>
	</g>
	<g>
		<path class="st0" d="M160.4,79.5c-0.2,0-0.3-0.1-0.4-0.3c-0.1-0.2-0.1-0.5,0.2-0.7l10.6-6.1c0.2-0.1,0.5-0.1,0.7,0.2
			c0.1,0.2,0.1,0.5-0.2,0.7l-10.6,6.1C160.5,79.5,160.4,79.5,160.4,79.5z"/>
	</g>
	<g>
		<path class="st0" d="M158.8,80c0,0-0.1,0-0.1,0l-0.6-0.2h-0.5c-0.3,0-0.5-0.2-0.5-0.5s0.2-0.5,0.5-0.5h0.5c0,0,0.1,0,0.1,0
			l0.6,0.1l1.4-0.5c0.3-0.1,0.5,0.1,0.6,0.3c0.1,0.3-0.1,0.5-0.3,0.6L159,80C158.9,80,158.9,80,158.8,80z"/>
	</g>
	<g>
		<path class="st0" d="M123.1,20.7c-0.1,0-0.3,0-0.4-0.1c-0.2-0.2-0.2-0.5,0-0.7l0.1-0.1l0.1-0.4c0,0,0-0.1,0.1-0.1l0.7-1l0.4-0.4
			l0.6-0.4c0.2-0.2,0.5-0.1,0.7,0.1c0.2,0.2,0.1,0.5-0.1,0.7l-0.5,0.3l-0.3,0.3l-0.6,0.9l-0.2,0.5c0,0.1-0.1,0.1-0.1,0.2l-0.2,0.2
			C123.4,20.7,123.3,20.7,123.1,20.7z"/>
	</g>
	<g>
		<path class="st0" d="M125.1,18.3c-0.2,0-0.3-0.1-0.4-0.3c-0.1-0.2-0.1-0.5,0.2-0.7l10.6-6.1c0.2-0.1,0.5-0.1,0.7,0.2
			c0.1,0.2,0.1,0.5-0.2,0.7l-10.6,6.1C125.2,18.3,125.1,18.3,125.1,18.3z"/>
	</g>
	<g>
		<path class="st0" d="M171,44.7c-0.2,0-0.3-0.1-0.4-0.2c-0.1-0.2-0.1-0.5,0.2-0.7l4.2-2.4c0.2-0.1,0.5-0.1,0.7,0.2
			c0.1,0.2,0.1,0.5-0.2,0.7l-4.2,2.4C171.1,44.7,171.1,44.7,171,44.7z"/>
	</g>
	<g>
		<path class="st0" d="M160.4,26.5c-0.2,0-0.3-0.1-0.4-0.2c-0.1-0.2-0.1-0.5,0.2-0.7l4.2-2.4c0.2-0.1,0.5-0.1,0.7,0.2
			c0.1,0.2,0.1,0.5-0.2,0.7l-4.2,2.4C160.5,26.4,160.5,26.5,160.4,26.5z"/>
	</g>
	<g>
		<path class="st0" d="M175.2,42.3c-0.2,0-0.3-0.1-0.4-0.2l-10.6-18.3c-0.1-0.2-0.1-0.5,0.2-0.7c0.2-0.1,0.5-0.1,0.7,0.2l10.6,18.3
			c0.1,0.2,0.1,0.5-0.2,0.7C175.3,42.3,175.2,42.3,175.2,42.3z"/>
	</g>
	<g>
		<path class="st0" d="M173.1,51.7c-0.2,0-0.3-0.1-0.4-0.2c-0.1-0.2-0.1-0.5,0.2-0.7l4.2-2.4c0.2-0.1,0.5-0.1,0.7,0.2
			c0.1,0.2,0.1,0.5-0.2,0.7l-4.2,2.4C173.2,51.7,173.1,51.7,173.1,51.7z"/>
	</g>
	<g>
		<path class="st0" d="M177.2,49.2c-0.2,0-0.4-0.2-0.5-0.4l-0.2-0.9l0-1l-0.3-1.6l-1-2.5l-0.5-0.8c-0.1-0.2-0.1-0.5,0.2-0.7
			c0.2-0.1,0.5-0.1,0.7,0.2l0.5,0.9l1.1,2.7l0.4,1.8l0,1l0.2,0.8C177.8,48.9,177.6,49.2,177.2,49.2
			C177.3,49.2,177.3,49.2,177.2,49.2z"/>
	</g>
	<g>
		<path class="st0" d="M155.5,21.2c-0.2,0-0.3-0.1-0.4-0.2c-0.1-0.2-0.1-0.5,0.2-0.7l4.2-2.4c0.2-0.1,0.5-0.1,0.7,0.2
			c0.1,0.2,0.1,0.5-0.2,0.7l-4.2,2.4C155.7,21.2,155.6,21.2,155.5,21.2z"/>
	</g>
	<g>
		<path class="st0" d="M164.5,24c-0.2,0-0.3-0.1-0.4-0.2l-0.5-0.9l-0.5-0.7l-0.5-0.9l-1.2-1.2l-2-1.5c-0.2-0.2-0.3-0.5-0.1-0.7
			c0.2-0.2,0.5-0.3,0.7-0.1l2.1,1.6l1.3,1.3c0,0,0.1,0.1,0.1,0.1l0.5,0.9l0.5,0.7l0.6,0.9c0.1,0.2,0.1,0.5-0.2,0.7
			C164.7,24,164.6,24,164.5,24z"/>
	</g>
	<g>
		<path class="st0" d="M173.1,68.9c-0.2,0-0.3-0.1-0.4-0.2c-0.1-0.2-0.1-0.5,0.2-0.7l4.2-2.4c0.2-0.1,0.5-0.1,0.7,0.2
			c0.1,0.2,0.1,0.5-0.2,0.7l-4.2,2.4C173.2,68.9,173.1,68.9,173.1,68.9z"/>
	</g>
	<g>
		<path class="st0" d="M177.2,66.5c-0.3,0-0.5-0.2-0.5-0.5V48.7c0-0.3,0.2-0.5,0.5-0.5s0.5,0.2,0.5,0.5V66
			C177.7,66.2,177.5,66.5,177.2,66.5z"/>
	</g>
	<g>
		<path class="st0" d="M140.5,12.5c-0.2,0-0.3-0.1-0.4-0.2c-0.1-0.2-0.1-0.5,0.2-0.7l4.2-2.4c0.2-0.1,0.5-0.1,0.7,0.2
			c0.1,0.2,0.1,0.5-0.2,0.7l-4.2,2.4C140.7,12.5,140.6,12.5,140.5,12.5z"/>
	</g>
	<g>
		<path class="st0" d="M159.7,18.8c-0.1,0-0.2,0-0.3-0.1l-15-8.7c-0.2-0.1-0.3-0.4-0.2-0.7c0.1-0.2,0.4-0.3,0.7-0.2l15,8.7
			c0.2,0.1,0.3,0.4,0.2,0.7C160,18.7,159.8,18.8,159.7,18.8z"/>
	</g>
	<g>
		<path class="st0" d="M171,73.4c-0.2,0-0.3-0.1-0.4-0.2c-0.1-0.2-0.1-0.5,0.2-0.7l4.2-2.4c0.2-0.1,0.5-0.1,0.7,0.2
			c0.1,0.2,0.1,0.5-0.2,0.7l-4.2,2.4C171.1,73.4,171.1,73.4,171,73.4z"/>
	</g>
	<g>
		<path class="st0" d="M175.2,71c-0.2,0-0.3-0.1-0.4-0.2c-0.2-0.2-0.1-0.5,0.1-0.7l0.5-0.3l0.3-0.3l0.6-0.9l0.3-1.1v-0.8
			c0,0,0-0.1,0-0.1l0.2-0.7c0.1-0.3,0.3-0.4,0.6-0.4c0.3,0.1,0.4,0.3,0.4,0.6l-0.2,0.6v0.8c0,0.1,0,0.1,0,0.2l-0.2,0.5l-0.2,0.7
			c0,0.1,0,0.1-0.1,0.2l-0.7,1l-0.4,0.4l-0.6,0.4C175.3,71,175.2,71,175.2,71z"/>
	</g>
	<g>
		<path class="st0" d="M135.7,12.2c-0.2,0-0.3-0.1-0.4-0.2c-0.1-0.2-0.1-0.5,0.2-0.7l4.2-2.4c0.2-0.1,0.5-0.1,0.7,0.2
			c0.1,0.2,0.1,0.5-0.2,0.7l-4.2,2.4C135.8,12.2,135.7,12.2,135.7,12.2z"/>
	</g>
	<g>
		<path class="st0" d="M144.7,10.1c-0.1,0-0.2,0-0.2-0.1l-0.6-0.3L142,9.2H141l-0.4,0.1l-0.5,0.3c-0.2,0.2-0.5,0.1-0.7-0.1
			c-0.2-0.2-0.1-0.5,0.1-0.7l0.5-0.3c0,0,0.1,0,0.1-0.1l0.5-0.2c0.1,0,0.1,0,0.2,0h1.2c0.1,0,0.1,0,0.2,0l0.5,0.2l1.4,0.3
			c0,0,0.1,0,0.1,0l0.7,0.3c0.2,0.1,0.3,0.4,0.2,0.7C145.1,10,144.9,10.1,144.7,10.1z"/>
	</g>
	<g>
		<path class="st0" d="M160.4,79.5c-0.2,0-0.3-0.1-0.4-0.2c-0.1-0.2-0.1-0.5,0.2-0.7l4.2-2.4c0.2-0.1,0.5-0.1,0.7,0.2
			c0.1,0.2,0.1,0.5-0.2,0.7l-4.2,2.4C160.5,79.5,160.5,79.5,160.4,79.5z"/>
	</g>
	<g>
		<path class="st0" d="M164.5,77.1c-0.2,0-0.3-0.1-0.4-0.3c-0.1-0.2-0.1-0.5,0.2-0.7l10.6-6.1c0.2-0.1,0.5-0.1,0.7,0.2
			c0.1,0.2,0.1,0.5-0.2,0.7L164.8,77C164.7,77,164.6,77.1,164.5,77.1z"/>
	</g>
	<g>
		<path class="st0" d="M120.4,112.7c-0.2,0-0.4-0.1-0.5-0.4l-0.3-1.2c-0.1-0.3,0.1-0.5,0.3-0.6c0.3-0.1,0.5,0.1,0.6,0.3l0.3,1.2
			c0.1,0.3-0.1,0.5-0.3,0.6C120.4,112.7,120.4,112.7,120.4,112.7z"/>
	</g>
	<g>
		<path class="st0" d="M120,111.5c-0.1,0-0.2,0-0.3-0.1l-1.4-0.9c-0.2-0.1-0.3-0.5-0.2-0.7c0.1-0.2,0.5-0.3,0.7-0.2l1.4,0.9
			c0.2,0.1,0.3,0.5,0.2,0.7C120.3,111.4,120.2,111.5,120,111.5z"/>
	</g>
	<g>
		<path class="st0" d="M118.6,110.6c-0.3,0-0.5-0.2-0.5-0.5v-4.5c0-0.3,0.2-0.5,0.5-0.5s0.5,0.2,0.5,0.5v4.5
			C119.1,110.4,118.9,110.6,118.6,110.6z"/>
	</g>
	<g>
		<path class="st0" d="M118.6,106.1c-0.1,0-0.2,0-0.2-0.1l-7-4c-0.2-0.1-0.3-0.4-0.2-0.7c0.1-0.2,0.4-0.3,0.7-0.2l7,4
			c0.2,0.1,0.3,0.4,0.2,0.7C119,106,118.8,106.1,118.6,106.1z"/>
	</g>
	<g>
		<path class="st0" d="M111.7,102.1c-0.3,0-0.5-0.2-0.5-0.5v-1.2c0-0.3,0.2-0.5,0.5-0.5s0.5,0.2,0.5,0.5v1.2
			C112.2,101.9,111.9,102.1,111.7,102.1z"/>
	</g>
	<g>
		<path class="st0" d="M111.7,100.9c-0.1,0-0.2,0-0.2-0.1l-14.6-8.3c-0.2-0.1-0.3-0.4-0.2-0.7c0.1-0.2,0.4-0.3,0.7-0.2l14.6,8.3
			c0.2,0.1,0.3,0.4,0.2,0.7C112,100.8,111.8,100.9,111.7,100.9z"/>
	</g>
	<g>
		<path class="st0" d="M89.6,77.4h-0.2c-0.3,0-0.5-0.2-0.5-0.5s0.2-0.5,0.5-0.5h0.2c0.3,0,0.5,0.2,0.5,0.5S89.8,77.4,89.6,77.4z"/>
	</g>
	<g>
		<path class="st0" d="M90.4,78.6c-0.2,0-0.3-0.1-0.4-0.2l-0.9-1.2C89,77,89,76.7,89.3,76.5c0.2-0.2,0.5-0.1,0.7,0.1l0.9,1.2
			c0.2,0.2,0.1,0.5-0.1,0.7C90.6,78.6,90.5,78.6,90.4,78.6z"/>
	</g>
	<g>
		<path class="st0" d="M90.4,78.6c-0.1,0-0.2,0-0.2-0.1l-0.3-0.2c-0.2-0.1-0.3-0.4-0.2-0.7c0.1-0.2,0.4-0.3,0.7-0.2l0.3,0.2
			c0.2,0.1,0.3,0.4,0.2,0.7C90.8,78.5,90.6,78.6,90.4,78.6z"/>
	</g>
	<g>
		<path class="st0" d="M96.5,91c-0.3,0-0.5-0.2-0.5-0.5v-8.9c0-0.3,0.2-0.5,0.5-0.5s0.5,0.2,0.5,0.5v8.9C97,90.8,96.8,91,96.5,91z"
			/>
	</g>
	<g>
		<path class="st0" d="M132.5,103c-0.1,0-0.2,0-0.3-0.1L96.3,82c-0.2-0.1-0.3-0.4-0.2-0.7c0.1-0.2,0.4-0.3,0.7-0.2l36,20.9
			c0.2,0.1,0.3,0.4,0.2,0.7C132.9,102.9,132.7,103,132.5,103z"/>
	</g>
	<g>
		<path class="st0" d="M128,109.8c-0.1,0-0.2,0-0.3-0.1l-0.5-0.3l-0.8-0.7l-0.7-0.3h-0.7l-0.6,0.2c-0.3,0.1-0.5-0.1-0.6-0.4
			s0.1-0.5,0.4-0.6l0.7-0.2c0,0,0.1,0,0.1,0h0.9c0.1,0,0.1,0,0.2,0l0.9,0.3c0,0,0.1,0,0.1,0.1l0.9,0.7l0.5,0.3
			c0.2,0.2,0.3,0.5,0.1,0.7C128.3,109.7,128.2,109.8,128,109.8z"/>
	</g>
	<g>
		<path class="st0" d="M96.5,82.1c-0.1,0-0.2,0-0.2-0.1l-6.1-3.5c-0.2-0.1-0.3-0.4-0.2-0.7c0.1-0.2,0.4-0.3,0.7-0.2l6.1,3.5
			c0.2,0.1,0.3,0.4,0.2,0.7C96.9,82,96.7,82.1,96.5,82.1z"/>
	</g>
	<g>
		<path class="st0" d="M90.4,78.6c-0.2,0-0.3-0.1-0.4-0.2c-0.1-0.2-0.1-0.5,0.2-0.7l2.1-1.2c0.2-0.1,0.5-0.1,0.7,0.2
			c0.1,0.2,0.1,0.5-0.2,0.7l-2.1,1.2C90.6,78.6,90.5,78.6,90.4,78.6z"/>
	</g>
	<g>
		<path class="st0" d="M134.8,101.8c-0.1,0-0.2,0-0.2-0.1L92.3,77.4c-0.2-0.1-0.3-0.4-0.2-0.7c0.1-0.2,0.4-0.3,0.7-0.2l42.3,24.4
			c0.2,0.1,0.3,0.4,0.2,0.7C135.1,101.7,135,101.8,134.8,101.8z"/>
	</g>
	<g>
		<path class="st0" d="M116.9,109.1c-0.1,0-0.3,0-0.4-0.1c-0.2-0.2-0.2-0.5,0-0.7l0.3-0.3c0,0,0.1-0.1,0.1-0.1l0.2-0.1l0.1-0.2
			c0,0,0.1-0.1,0.1-0.1l0.3-0.3l0.3-0.7v-0.2c0-0.1,0-0.1,0-0.2l0.2-0.5c0.1-0.3,0.4-0.4,0.6-0.3c0.3,0.1,0.4,0.4,0.3,0.6l-0.1,0.4
			v0.3c0,0.1,0,0.2-0.1,0.2l-0.2,0.3l-0.1,0.5c0,0.1-0.1,0.1-0.1,0.2l-0.3,0.3l-0.1,0.3c0,0.1-0.1,0.2-0.2,0.2l-0.3,0.1l-0.3,0.3
			C117.1,109,117,109.1,116.9,109.1z"/>
	</g>
	<g>
		<path class="st0" d="M117.4,113.1c-0.3,0-0.5-0.2-0.5-0.5v-0.3c0-0.1,0.1-0.3,0.1-0.4l0,0v-0.1c0-0.1,0-0.2,0.1-0.2l0.5-1
			c0,0,0.1-0.1,0.1-0.1l0.5-0.5c0.2-0.2,0.5-0.2,0.7,0s0.2,0.5,0,0.7l-0.5,0.5l-0.4,0.9v0.2c0,0.1-0.1,0.3-0.1,0.4l0,0v0.1
			C117.9,112.9,117.7,113.1,117.4,113.1z"/>
	</g>
	<g>
		<path class="st0" d="M117.4,113.6c-0.3,0-0.5-0.2-0.5-0.5v-0.5c0-0.3,0.2-0.5,0.5-0.5s0.5,0.2,0.5,0.5v0.5
			C117.9,113.4,117.7,113.6,117.4,113.6z"/>
	</g>
	<g>
		<path class="st0" d="M114.8,114.5c-0.3,0-0.5-0.2-0.5-0.5v-2.3c0-0.3,0.2-0.5,0.5-0.5s0.5,0.2,0.5,0.5v2.3
			C115.3,114.2,115.1,114.5,114.8,114.5z"/>
	</g>
	<g>
		<path class="st0" d="M114.8,112.2c-0.3,0-0.5-0.2-0.5-0.5v-0.9c0-0.1,0-0.2,0.1-0.2l0.2-0.3l0.1-0.5c0-0.1,0.1-0.1,0.1-0.2
			l0.3-0.3l0.1-0.3c0-0.1,0.1-0.2,0.2-0.2l0.3-0.1l0.3-0.3c0.2-0.2,0.5-0.2,0.7,0c0.2,0.2,0.2,0.5,0,0.7l-0.3,0.3
			c0,0-0.1,0.1-0.1,0.1l-0.2,0.1l-0.1,0.2c0,0-0.1,0.1-0.1,0.1l-0.3,0.3l-0.3,0.7v0.8C115.3,112,115.1,112.2,114.8,112.2z"/>
	</g>
	<g>
		<path class="st0" d="M116.4,109.3c-0.2,0-0.4-0.1-0.5-0.3c-0.1-0.3,0.1-0.5,0.3-0.6l0.5-0.2c0.3-0.1,0.5,0.1,0.6,0.3
			c0.1,0.3-0.1,0.5-0.3,0.6l-0.5,0.2C116.5,109.2,116.4,109.3,116.4,109.3z"/>
	</g>
	<g>
		<path class="st0" d="M107.8,116.4c-0.3,0-0.5-0.2-0.5-0.5v-8.2c0-0.3,0.2-0.5,0.5-0.5s0.5,0.2,0.5,0.5v8.2
			C108.3,116.2,108.1,116.4,107.8,116.4z"/>
	</g>
	<g>
		<path class="st0" d="M114.8,112.2c-0.1,0-0.2,0-0.2-0.1l-7-4c-0.2-0.1-0.3-0.4-0.2-0.7c0.1-0.2,0.4-0.3,0.7-0.2l7,4
			c0.2,0.1,0.3,0.4,0.2,0.7C115.1,112.1,115,112.2,114.8,112.2z"/>
	</g>
	<g>
		<path class="st0" d="M116.4,137.1c-0.3,0-0.5-0.2-0.5-0.5v-1.4c0-0.3,0.2-0.5,0.5-0.5s0.5,0.2,0.5,0.5v1.4
			C116.9,136.9,116.6,137.1,116.4,137.1z"/>
	</g>
	<g>
		<path class="st0" d="M115.7,138.3h-0.2c-0.1,0-0.2,0-0.2-0.1l-0.7-0.3c-0.2-0.1-0.3-0.4-0.2-0.7c0.1-0.2,0.4-0.3,0.7-0.2l0.6,0.3
			l0.1-0.1l0.1-0.1v-0.5c0-0.3,0.2-0.5,0.5-0.5s0.5,0.2,0.5,0.5v0.7c0,0.1-0.1,0.3-0.1,0.4l-0.3,0.3c0,0-0.1,0.1-0.1,0.1l-0.3,0.2
			C115.8,138.3,115.7,138.3,115.7,138.3z"/>
	</g>
	<g>
		<path class="st0" d="M114.8,138c-0.1,0-0.2,0-0.2-0.1l-1.9-1c-0.2-0.1-0.3-0.4-0.2-0.7c0.1-0.2,0.4-0.3,0.7-0.2l1.9,1
			c0.2,0.1,0.3,0.4,0.2,0.7C115.1,137.9,115,138,114.8,138z"/>
	</g>
	<g>
		<path class="st0" d="M107.8,108.2c-0.3,0-0.5-0.2-0.5-0.5v-0.3c0-0.1,0-0.1,0-0.2l0.1-0.4v-0.3c0-0.1,0-0.2,0.1-0.3l0.5-0.8
			c0,0,0.1-0.1,0.1-0.1l0.9-0.9c0.2-0.2,0.5-0.2,0.7,0c0.2,0.2,0.2,0.5,0,0.7l-0.8,0.8l-0.1,0.3l-0.3,0.4v0.2c0,0.1,0,0.1,0,0.2
			l-0.1,0.4v0.3C108.3,108,108.1,108.2,107.8,108.2z"/>
	</g>
	<g>
		<path class="st0" d="M116.4,109.3c-0.1,0-0.2,0-0.2-0.1l-7-4c-0.2-0.1-0.3-0.4-0.2-0.7c0.1-0.2,0.4-0.3,0.7-0.2l7,4
			c0.2,0.1,0.3,0.4,0.2,0.7C116.7,109.2,116.5,109.3,116.4,109.3z"/>
	</g>
	<g>
		<path class="st0" d="M116.9,109.1c-0.1,0-0.2,0-0.2-0.1l-7-4c-0.2-0.1-0.3-0.4-0.2-0.7c0.1-0.2,0.4-0.3,0.7-0.2l7,4
			c0.2,0.1,0.3,0.4,0.2,0.7C117.2,109,117,109.1,116.9,109.1z"/>
	</g>
	<g>
		<path class="st0" d="M109.9,105.1c-0.1,0-0.3,0-0.4-0.1c-0.2-0.2-0.2-0.5,0-0.7l0.3-0.3c0,0,0.1-0.1,0.1-0.1l0.3-0.1l0.2-0.2
			l0.1-0.3l0.1-0.5l0.3-0.7v-0.4c0-0.3,0.2-0.5,0.5-0.5s0.5,0.2,0.5,0.5v0.5c0,0.1,0,0.2-0.1,0.2l-0.3,0.7l-0.1,0.5l-0.2,0.4
			c0,0-0.1,0.1-0.1,0.1l-0.3,0.3c0,0-0.1,0.1-0.1,0.1l-0.3,0.1l-0.3,0.3C110.2,105,110,105.1,109.9,105.1z"/>
	</g>
	<g>
		<path class="st0" d="M109.4,105.3c-0.2,0-0.4-0.1-0.5-0.3c-0.1-0.3,0.1-0.5,0.3-0.6l0.5-0.2c0.3-0.1,0.5,0.1,0.6,0.3
			s-0.1,0.5-0.3,0.6l-0.5,0.2C109.5,105.2,109.4,105.3,109.4,105.3z"/>
	</g>
	<g>
		<path class="st0" d="M94.3,85.8c-0.1,0-0.2,0-0.3-0.1c-0.2-0.1-0.3-0.5-0.2-0.7l2.3-3.7c0.1-0.2,0.5-0.3,0.7-0.2
			c0.2,0.1,0.3,0.5,0.2,0.7l-2.3,3.7C94.6,85.7,94.4,85.8,94.3,85.8z"/>
	</g>
	<g>
		<path class="st0" d="M116.4,137.1c-0.2,0-0.3-0.1-0.4-0.3c-0.1-0.2,0-0.5,0.2-0.7l2.8-1.6c0.2-0.1,0.5,0,0.7,0.2s0,0.5-0.2,0.7
			l-2.8,1.6C116.5,137.1,116.4,137.1,116.4,137.1z"/>
	</g>
	<g>
		<path class="st0" d="M119.1,135.5c-0.3,0-0.5-0.2-0.5-0.5v-0.7c0-0.3,0.2-0.5,0.5-0.5s0.5,0.2,0.5,0.5v0.7
			C119.6,135.3,119.4,135.5,119.1,135.5z"/>
	</g>
	<g>
		<path class="st0" d="M89.6,77.4c-0.2,0-0.3-0.1-0.4-0.2c-0.1-0.2-0.1-0.5,0.2-0.7l2.1-1.2c0.2-0.1,0.5-0.1,0.7,0.2
			c0.1,0.2,0.1,0.5-0.2,0.7l-2.1,1.2C89.7,77.4,89.7,77.4,89.6,77.4z"/>
	</g>
	<g>
		<path class="st0" d="M92.5,77.4c-0.2,0-0.3-0.1-0.4-0.2L91.2,76c-0.2-0.2-0.1-0.5,0.1-0.7c0.2-0.2,0.5-0.1,0.7,0.1l0.9,1.2
			c0.2,0.2,0.1,0.5-0.1,0.7C92.7,77.4,92.6,77.4,92.5,77.4z"/>
	</g>
	<g>
		<path class="st0" d="M118.6,136.6c-0.2,0-0.4-0.1-0.4-0.3c-0.1-0.2,0-0.5,0.2-0.7l0.1,0c0,0,0-0.1,0-0.1l0.1-0.2V135
			c0-0.3,0.2-0.5,0.5-0.5s0.5,0.2,0.5,0.5v0.3c0,0.1,0,0.2-0.1,0.2l-0.1,0.3c0,0.2-0.1,0.4-0.3,0.4l-0.3,0.2
			C118.8,136.5,118.7,136.6,118.6,136.6z"/>
	</g>
	<g>
		<path class="st0" d="M91.7,76.2c-0.1,0-0.2,0-0.2-0.1l-5.7-3.3c-0.2-0.1-0.3-0.4-0.2-0.7c0.1-0.2,0.4-0.3,0.7-0.2l5.7,3.3
			c0.2,0.1,0.3,0.4,0.2,0.7C92,76.1,91.8,76.2,91.7,76.2z"/>
	</g>
	<g>
		<path class="st0" d="M103.1,115c-0.2,0-0.3-0.1-0.4-0.3c-0.1-0.2,0-0.5,0.2-0.7l4.7-2.6c0.2-0.1,0.5,0,0.7,0.2
			c0.1,0.2,0,0.5-0.2,0.7l-4.7,2.6C103.3,115,103.2,115,103.1,115z"/>
	</g>
	<g>
		<path class="st0" d="M102.4,112.9c-0.2,0-0.3-0.1-0.4-0.2c-0.1-0.2-0.1-0.5,0.2-0.7l3.5-2.1c0.2-0.1,0.5-0.1,0.7,0.2
			s0.1,0.5-0.2,0.7l-3.5,2.1C102.6,112.9,102.5,112.9,102.4,112.9z"/>
	</g>
	<g>
		<path class="st0" d="M107.8,111.9c-0.1,0-0.2,0-0.2-0.1l-1.9-1c-0.2-0.1-0.3-0.4-0.2-0.7c0.1-0.2,0.4-0.3,0.7-0.2l1.9,1
			c0.2,0.1,0.3,0.4,0.2,0.7C108.2,111.8,108,111.9,107.8,111.9z"/>
	</g>
	<g>
		<path class="st0" d="M54.4,156.4l-6-1.1c-0.3,0-0.5-0.3-0.4-0.6c0-0.3,0.3-0.5,0.6-0.4l5.9,1l5.7,0l5.3-0.5l2.3-0.7l2.2-0.9l3-1.7
			l2.3-2.3l1-2.1l0.5-2.5l-0.3-2.6l-1-2.9c-0.1-0.3,0-0.5,0.3-0.6c0.3-0.1,0.5,0,0.6,0.3l1,3c0,0,0,0.1,0,0.1l0.3,2.8
			c0,0.1,0,0.1,0,0.2l-0.5,2.6c0,0,0,0.1,0,0.1l-1,2.3c0,0.1-0.1,0.1-0.1,0.1l-2.4,2.4c0,0-0.1,0.1-0.1,0.1l-3.1,1.7l-2.3,0.9
			l-2.5,0.7l-5.5,0.5L54.4,156.4z"/>
	</g>
	<g>
		<path class="st0" d="M48.5,155.4c0,0-0.1,0-0.1,0l-3.7-0.9l-3.3-1.1l-2.6-1.1c-0.3-0.1-0.4-0.4-0.3-0.6c0.1-0.3,0.4-0.4,0.6-0.3
			l2.6,1l3.3,1l3.6,0.9c0.3,0.1,0.4,0.3,0.4,0.6C48.9,155.2,48.7,155.4,48.5,155.4z"/>
	</g>
	<g>
		<path class="st0" d="M5.9,69.9c-0.1,0-0.1,0-0.2,0c-0.3-0.1-0.4-0.4-0.3-0.6l0.3-1c0,0,0-0.1,0-0.1l1.9-3.3L9.7,62l2.3-2.5
			c0,0,0.1-0.1,0.1-0.1l2.3-1.2c0,0,0.1,0,0.1,0l1.4-0.3c0,0,0.1,0,0.1,0h1.4c0.1,0,0.1,0,0.2,0l2.4,1c0,0,0.1,0,0.1,0.1l2.4,2.1
			c0,0,0.1,0,0.1,0.1l2.3,3c0.2,0.2,0.1,0.5-0.1,0.7c-0.2,0.2-0.5,0.1-0.7-0.1l-2.2-2.9l-2.3-2l-2.3-1H16l-1.3,0.3l-2.1,1.1
			l-2.2,2.4l-1.9,2.7l-1.9,3.2l-0.3,1C6.3,69.8,6.1,69.9,5.9,69.9z"/>
	</g>
	<g>
		<path class="st0" d="M48.5,78.8c0,0-0.1,0-0.1,0l-3.7-0.9l-6.7-2.5l-3-1.4l-2.8-1.6l-2.5-1.8l-2.1-2l-1.9-1.9l-1.6-2.1
			c-0.2-0.2-0.1-0.5,0.1-0.7c0.2-0.2,0.5-0.1,0.7,0.1l1.6,2.1l1.9,1.9l2.1,1.9l2.4,1.7l2.7,1.5l2.9,1.4L45,77l3.6,0.9
			c0.3,0.1,0.4,0.3,0.4,0.6C48.9,78.7,48.7,78.8,48.5,78.8z"/>
	</g>
	<g>
		<path class="st0" d="M76,119.2c0,0-0.1,0-0.1,0c-0.3-0.1-0.4-0.3-0.4-0.6l1-5l0.2-5.1l-0.7-5.1l-1.7-5.1L72.1,94l-2.9-3.9L65.7,87
			L62,84.3l-4.6-2.6l-5-1.9l-3.9-1c-0.3-0.1-0.4-0.3-0.4-0.6c0.1-0.3,0.3-0.4,0.6-0.4l4,1l5.1,1.9l4.8,2.6l3.9,2.8l3.5,3.2
			c0,0,0,0,0.1,0.1l3,4l2.3,4.2L77,103l0.7,5.3l-0.2,5.3l-1.1,5.1C76.4,119,76.2,119.2,76,119.2z"/>
	</g>
	<g>
		<path class="st0" d="M76,139.5c-0.2,0-0.4-0.1-0.5-0.3l-0.7-2.1l-0.7-4.8l-0.2-2.5l0.2-2.7l0.7-5.6l0.7-3c0.1-0.3,0.3-0.4,0.6-0.4
			c0.3,0.1,0.4,0.3,0.4,0.6l-0.7,3l-0.7,5.5l-0.2,2.6l0.2,2.4l0.7,4.7l0.7,2c0.1,0.3-0.1,0.5-0.3,0.6C76.1,139.5,76,139.5,76,139.5z
			"/>
	</g>
	<g>
		<path class="st0" d="M15.1,58.6c-0.2,0-0.4-0.1-0.4-0.3c-0.1-0.2,0-0.5,0.2-0.7l0.3-0.2c0.2-0.1,0.5,0,0.7,0.2
			c0.1,0.2,0,0.5-0.2,0.7l-0.3,0.2C15.3,58.6,15.2,58.6,15.1,58.6z"/>
	</g>
	<g>
		<path class="st0" d="M82.4,118.8c-0.1,0-0.1,0-0.2,0l-0.4-0.1h-0.3c-0.1,0-0.2,0-0.2-0.1l-0.7-0.3c-0.2-0.1-0.3-0.4-0.2-0.7
			c0.1-0.2,0.4-0.3,0.7-0.2l0.6,0.3h0.2c0.1,0,0.1,0,0.2,0l0.4,0.1l0.4-0.1c0.1,0,0.1,0,0.2,0h0.2l0.6-0.3c0.2-0.1,0.5,0,0.7,0.2
			c0.1,0.2,0,0.5-0.2,0.7l-0.7,0.3c-0.1,0-0.1,0.1-0.2,0.1H83l-0.4,0.1C82.5,118.8,82.5,118.8,82.4,118.8z"/>
	</g>
	<g>
		<path class="st0" d="M80.9,118.3c-0.3,0-0.5-0.2-0.5-0.5l-0.2-3l-0.3-3.1l-0.7-3.3l-0.9-3.1l-1-3.3l-2.8-6.6l-1.7-3.1l-1.9-3.1
			l-2.1-2.9l-2.1-2.8l-2.4-2.6l-4.8-4.5l-2.4-1.9l-2.6-1.5c-0.2-0.1-0.3-0.4-0.2-0.7s0.4-0.3,0.7-0.2l2.6,1.6l2.5,1.9l4.9,4.5
			l2.5,2.6l2.1,2.8l2.1,3l1.9,3.2l1.8,3.1l2.8,6.7l1.1,3.3l0.9,3.1l0.7,3.3l0.4,3.2l0.2,3C81.4,118,81.2,118.3,80.9,118.3
			C80.9,118.3,80.9,118.3,80.9,118.3z"/>
	</g>
	<g>
		<path class="st0" d="M54.8,73.2c-0.3,0-0.5-0.2-0.5-0.5v-0.3c0-0.1,0-0.2,0.1-0.2l0.2-0.3l0.1-0.5l0.4-0.8c0,0,0.1-0.1,0.1-0.1
			l0.9-0.9c0.2-0.2,0.5-0.2,0.7,0c0.2,0.2,0.2,0.5,0,0.7l-0.8,0.8l-0.3,0.6l-0.3,0.8v0.2C55.3,73,55,73.2,54.8,73.2z"/>
	</g>
	<g>
		<path class="st0" d="M84,118.3c-0.3,0-0.5-0.2-0.5-0.5v-3l-0.3-3.1l-1.4-6.4l-1-3.3l-1.2-3.3L78,95.6l-1.6-3.1l-1.7-3.1l-2.1-3.1
			l-2.1-2.8l-2.2-2.8l-2.3-2.6l-2.4-2.2l-2.4-2.1l-2.6-1.9l-2.6-1.5c-0.2-0.1-0.3-0.4-0.2-0.7s0.4-0.3,0.7-0.2l2.6,1.6l2.6,1.9
			l2.5,2.1l2.5,2.3l2.3,2.6l2.3,2.8l2.1,2.8l2.1,3.2l1.8,3.2l1.6,3.2l1.6,3.3l1.2,3.3l1.1,3.3l1.4,6.5l0.4,3.2l0,3
			C84.5,118.1,84.3,118.3,84,118.3z"/>
	</g>
	<g>
		<path class="st0" d="M100.2,109.1c-0.3,0-0.5-0.2-0.5-0.5l-0.2-3l-0.3-3.1l-0.5-3.3L97.8,96l-1-3.3l-1.2-3.3l-1.4-3.1L92.6,83
			L90.7,80L88.8,77l-2.1-2.9l-2.2-2.8l-2.2-2.4l-2.4-2.4l-2.6-2.1l-2.4-1.7L72.2,61c-0.2-0.2-0.3-0.5-0.1-0.7
			c0.2-0.2,0.5-0.3,0.7-0.1l2.6,1.7l2.4,1.7l2.6,2.1l2.5,2.5l2.3,2.4l2.3,2.8l2.1,3l1.9,3l1.9,3.1l1.6,3.4l1.4,3.1l1.2,3.3l1.1,3.3
			l0.9,3.3l0.5,3.4l0.4,3.2l0.2,3C100.7,108.8,100.5,109.1,100.2,109.1C100.2,109.1,100.2,109.1,100.2,109.1z"/>
	</g>
	<g>
		<path class="st0" d="M84,118.3c-0.2,0-0.3-0.1-0.4-0.3c-0.1-0.2-0.1-0.5,0.2-0.7l16.2-9.2c0.2-0.1,0.5-0.1,0.7,0.2
			c0.1,0.2,0.1,0.5-0.2,0.7l-16.2,9.2C84.2,118.3,84.1,118.3,84,118.3z"/>
	</g>
	<g>
		<path class="st0" d="M56.3,70.5c-0.2,0-0.3-0.1-0.4-0.2c-0.1-0.2-0.1-0.5,0.2-0.7l16.2-9.4c0.2-0.1,0.5-0.1,0.7,0.2
			c0.1,0.2,0.1,0.5-0.2,0.7l-16.2,9.4C56.5,70.4,56.4,70.5,56.3,70.5z"/>
	</g>
	<g>
		<path class="st0" d="M80.9,138.7c-0.3,0-0.5-0.2-0.5-0.5v-20.4c0-0.3,0.2-0.5,0.5-0.5s0.5,0.2,0.5,0.5v20.4
			C81.4,138.4,81.1,138.7,80.9,138.7z"/>
	</g>
	<g>
		<path class="st0" d="M84,138.7c-0.3,0-0.5-0.2-0.5-0.5v-20.4c0-0.3,0.2-0.5,0.5-0.5s0.5,0.2,0.5,0.5v20.4
			C84.5,138.4,84.3,138.7,84,138.7z"/>
	</g>
	<g>
		<path class="st0" d="M83,139h-1c-0.1,0-0.2,0-0.2-0.1l-0.2-0.1h-0.2c-0.1,0-0.2,0-0.2-0.1l-0.3-0.2c-0.2-0.1-0.3-0.4-0.2-0.7
			c0.1-0.2,0.4-0.3,0.7-0.2l0.2,0.1h0.2c0.1,0,0.2,0,0.2,0.1L82,138h0.8l0.2-0.1c0.1,0,0.1-0.1,0.2-0.1h0.2l0.2-0.1
			c0.2-0.1,0.5,0,0.7,0.2c0.1,0.2,0,0.5-0.2,0.7l-0.3,0.2c-0.1,0-0.1,0.1-0.2,0.1h-0.2l-0.2,0.1C83.1,139,83,139,83,139z"/>
	</g>
	<g>
		<path class="st0" d="M54.8,73.2c-0.1,0-0.2,0-0.2-0.1l-24-13.7c-0.2-0.1-0.3-0.4-0.2-0.7c0.1-0.2,0.4-0.3,0.7-0.2l24,13.7
			c0.2,0.1,0.3,0.4,0.2,0.7C55.1,73.2,54.9,73.2,54.8,73.2z"/>
	</g>
	<g>
		<path class="st0" d="M30.8,59.5c-0.3,0-0.5-0.2-0.5-0.5v-0.5c0-0.1,0-0.2,0.1-0.2l0.3-0.7l0.1-0.5l0.2-0.4c0,0,0.1-0.1,0.1-0.1
			l0.3-0.3c0,0,0.1-0.1,0.1-0.1l0.3-0.1l0.3-0.3c0.2-0.2,0.5-0.2,0.7,0s0.2,0.5,0,0.7l-0.3,0.3c0,0-0.1,0.1-0.1,0.1L32.1,57
			l-0.2,0.2l-0.1,0.3l-0.1,0.5l-0.3,0.7V59C31.3,59.3,31,59.5,30.8,59.5z"/>
	</g>
	<g>
		<path class="st0" d="M56.3,70.5c-0.1,0-0.2,0-0.3-0.1L32.3,56.5c-0.2-0.1-0.3-0.4-0.2-0.7c0.1-0.2,0.4-0.3,0.7-0.2l23.8,13.9
			c0.2,0.1,0.3,0.4,0.2,0.7C56.7,70.4,56.5,70.5,56.3,70.5z"/>
	</g>
	<g>
		<path class="st0" d="M100.2,129.3c-0.3,0-0.5-0.2-0.5-0.5v-20.2c0-0.3,0.2-0.5,0.5-0.5s0.5,0.2,0.5,0.5v20.2
			C100.7,129,100.5,129.3,100.2,129.3z"/>
	</g>
	<g>
		<path class="st0" d="M84,138.7c-0.2,0-0.3-0.1-0.4-0.2c-0.1-0.2-0.1-0.5,0.2-0.7l16.2-9.4c0.2-0.1,0.5-0.1,0.7,0.2
			c0.1,0.2,0.1,0.5-0.2,0.7l-16.2,9.4C84.2,138.6,84.1,138.7,84,138.7z"/>
	</g>
	<g>
		<path class="st0" d="M32.5,56.5c-0.2,0-0.3-0.1-0.4-0.2c-0.1-0.2-0.1-0.5,0.2-0.7l16-9.2c0.2-0.1,0.5-0.1,0.7,0.2
			c0.1,0.2,0.1,0.5-0.2,0.7l-16,9.2C32.7,56.5,32.6,56.5,32.5,56.5z"/>
	</g>
	<g>
		<path class="st0" d="M72.5,61.1c-0.1,0-0.2,0-0.2-0.1l-24-13.7c-0.2-0.1-0.3-0.4-0.2-0.7c0.1-0.2,0.4-0.3,0.7-0.2l24,13.7
			c0.2,0.1,0.3,0.4,0.2,0.7C72.9,61,72.7,61.1,72.5,61.1z"/>
	</g>
	<g>
		<path class="st0" d="M97.2,142c-0.2,0-0.4-0.1-0.5-0.3c-0.1-0.3,0.1-0.5,0.3-0.6l38.3-12.4c0.3-0.1,0.5,0.1,0.6,0.3
			s-0.1,0.5-0.3,0.6l-38.3,12.4C97.3,141.9,97.3,142,97.2,142z"/>
	</g>
	<g>
		<path class="st0" d="M97.2,142c-0.1,0-0.1,0-0.2,0c-0.2-0.1-0.4-0.4-0.2-0.7l1.4-3l1.2-4.6l0.3-5c0-0.3,0.3-0.5,0.5-0.5
			c0.3,0,0.5,0.3,0.5,0.5l-0.3,5l-1.2,4.8l-1.4,3C97.6,141.8,97.4,142,97.2,142z"/>
	</g>
	<g>
		<path class="st0" d="M100.2,109.1c-0.2,0-0.4-0.1-0.5-0.3c-0.1-0.3,0-0.5,0.3-0.6l1.4-0.5c0.3-0.1,0.5,0,0.6,0.3
			c0.1,0.3,0,0.5-0.3,0.6l-1.4,0.5C100.3,109.1,100.2,109.1,100.2,109.1z"/>
	</g>
	<g>
		<path class="st0" d="M102.4,109.1c-0.1,0-0.3,0-0.4-0.1l-0.2-0.2c-0.1-0.1-0.1-0.1-0.1-0.2h-0.2c-0.3,0-0.5-0.2-0.5-0.5
			s0.2-0.5,0.5-0.5h0.5c0.1,0,0.3,0.1,0.4,0.1l0.2,0.2c0.1,0.1,0.1,0.2,0.1,0.3l0,0c0.2,0.2,0.2,0.5,0,0.7
			C102.7,109,102.6,109.1,102.4,109.1z"/>
	</g>
	<g>
		<path class="st0" d="M102.4,112.4c-0.3,0-0.5-0.2-0.5-0.5v-3.3c0-0.3,0.2-0.5,0.5-0.5s0.5,0.2,0.5,0.5v3.3
			C102.9,112.2,102.7,112.4,102.4,112.4z"/>
	</g>
	<g>
		<path class="st0" d="M108,117.3C108,117.3,108,117.3,108,117.3l-2.3-0.4c0,0-0.1,0-0.1,0l-1.9-0.9c-0.1,0-0.2-0.1-0.2-0.2l-1-1.6
			c0-0.1-0.1-0.1-0.1-0.2l-0.3-2.1c0-0.3,0.1-0.5,0.4-0.6c0.3,0,0.5,0.1,0.6,0.4l0.3,2l0.9,1.4l1.7,0.8l2.1,0.3l2-0.3
			c0.3,0,0.5,0.1,0.6,0.4s-0.1,0.5-0.4,0.6L108,117.3C108.1,117.3,108,117.3,108,117.3z"/>
	</g>
	<g>
		<path class="st0" d="M110.1,116.9c-0.2,0-0.4-0.1-0.5-0.4c-0.1-0.3,0.1-0.5,0.3-0.6l15.8-4.9c0.3-0.1,0.5,0.1,0.6,0.3
			c0.1,0.3-0.1,0.5-0.3,0.6l-15.8,4.9C110.2,116.9,110.1,116.9,110.1,116.9z"/>
	</g>
	<g>
		<path class="st0" d="M125.9,112c-0.2,0-0.4-0.1-0.5-0.3c-0.1-0.2,0-0.5,0.2-0.7l2.6-1.2l2.3-1.8l1.5-2.1l1-2.9
			c0.1-0.3,0.4-0.4,0.6-0.3c0.3,0.1,0.4,0.4,0.3,0.6l-0.2,0.5l-0.9,2.4c0,0,0,0.1-0.1,0.1l-1.6,2.3c0,0-0.1,0.1-0.1,0.1l-2.4,1.9
			c0,0-0.1,0-0.1,0.1l-2.6,1.2C126.1,112,126,112,125.9,112z"/>
	</g>
	<g>
		<path class="st0" d="M133.6,103.7c-0.3,0-0.5-0.2-0.5-0.5v-0.3c0-0.1,0.1-0.3,0.1-0.4l0.2-0.2c0,0,0.1-0.1,0.1-0.1l0.3-0.1
			l0.1-0.1c0.2-0.2,0.5-0.2,0.7,0s0.2,0.5,0,0.7l-0.2,0.2c0,0-0.1,0.1-0.1,0.1l-0.2,0.1v0.1C134.1,103.5,133.9,103.7,133.6,103.7z"
			/>
	</g>
	<g>
		<path class="st0" d="M134.3,102.8c-0.2,0-0.4-0.1-0.5-0.4c-0.1-0.3,0.1-0.5,0.3-0.6l4.7-1.4c0.3-0.1,0.5,0.1,0.6,0.3
			c0.1,0.3-0.1,0.5-0.3,0.6l-4.7,1.4C134.4,102.8,134.3,102.8,134.3,102.8z"/>
	</g>
	<g>
		<path class="st0" d="M135,129.6c-0.1,0-0.2,0-0.3-0.1c-0.2-0.2-0.3-0.5-0.1-0.7l1.5-2l1.5-3.4l0.7-4.3l0.2-5.8v-12.3
			c0-0.3,0.2-0.5,0.5-0.5s0.5,0.2,0.5,0.5v12.4l-0.2,5.9l-0.7,4.4c0,0,0,0.1,0,0.1l-1.6,3.5c0,0,0,0.1-0.1,0.1l-1.6,2.1
			C135.3,129.5,135.1,129.6,135,129.6z"/>
	</g>
	<g>
		<path class="st0" d="M101.6,108.6c-0.1,0-0.2,0-0.2-0.1l-1-0.5c-0.2-0.1-0.3-0.4-0.2-0.7c0.1-0.2,0.4-0.3,0.7-0.2l1,0.5
			c0.2,0.1,0.3,0.4,0.2,0.7C101.9,108.5,101.8,108.6,101.6,108.6z"/>
	</g>
	<g>
		<path class="st0" d="M100.5,108h-0.3c-0.3,0-0.5-0.2-0.5-0.5s0.2-0.5,0.5-0.5h0.3c0.3,0,0.5,0.2,0.5,0.5S100.8,108,100.5,108z"/>
	</g>
	<g>
		<path class="st0" d="M101,108h-0.5c-0.3,0-0.5-0.2-0.5-0.5s0.2-0.5,0.5-0.5h0.5c0.3,0,0.5,0.2,0.5,0.5S101.3,108,101,108z"/>
	</g>
	<g>
		<path class="st0" d="M92.2,147.2c-0.1,0-0.3-0.1-0.4-0.2c-0.2-0.2-0.1-0.5,0.1-0.7l2.7-2.2l2.2-2.9c0.2-0.2,0.5-0.3,0.7-0.1
			c0.2,0.2,0.3,0.5,0.1,0.7l-2.3,3c0,0-0.1,0.1-0.1,0.1l-2.8,2.3C92.4,147.1,92.3,147.2,92.2,147.2z"/>
	</g>
	<g>
		<path class="st0" d="M110.1,116.9c-0.1,0-0.2,0-0.2-0.1l-1.2-0.7c-0.2-0.1-0.3-0.4-0.2-0.7c0.1-0.2,0.4-0.3,0.7-0.2l1.2,0.7
			c0.2,0.1,0.3,0.4,0.2,0.7C110.4,116.8,110.3,116.9,110.1,116.9z"/>
	</g>
	<g>
		<path class="st0" d="M106.3,116.6c0,0-0.1,0-0.1,0l-2.1-0.5c-0.3-0.1-0.4-0.3-0.4-0.6c0.1-0.3,0.3-0.4,0.6-0.4l2,0.5l2.5-0.3
			c0.3,0,0.5,0.2,0.6,0.4c0,0.3-0.2,0.5-0.4,0.6L106.3,116.6C106.3,116.6,106.3,116.6,106.3,116.6z"/>
	</g>
	<g>
		<path class="st0" d="M15.3,58.6h-0.2c-0.3,0-0.5-0.2-0.5-0.5s0.2-0.5,0.5-0.5h0.2c0.3,0,0.5,0.2,0.5,0.5S15.6,58.6,15.3,58.6z"/>
	</g>
	<g>
		<path class="st0" d="M48.5,47.3c-0.1,0-0.2,0-0.2-0.1l-2.4-1.4l-2.5-1l-2.4-0.7l-2.4-0.5l-2.4-0.2l-2.2,0.2L32,44l-1.9,0.8
			l-0.8,0.5c-0.2,0.1-0.5,0.1-0.7-0.2c-0.1-0.2-0.1-0.5,0.2-0.7l0.9-0.5l2-0.9c0,0,0.1,0,0.1,0l2.1-0.3l2.3-0.2l2.5,0.2l2.5,0.5
			l2.5,0.7l2.7,1.1l2.5,1.4c0.2,0.1,0.3,0.4,0.2,0.7C48.9,47.2,48.7,47.3,48.5,47.3z"/>
	</g>
	<g>
		<path class="st0" d="M125.9,112c-0.1,0-0.2,0-0.2-0.1l-1-0.5c-0.2-0.1-0.3-0.4-0.2-0.7c0.1-0.2,0.4-0.3,0.7-0.2l1,0.5
			c0.2,0.1,0.3,0.4,0.2,0.7C126.3,111.9,126.1,112,125.9,112z"/>
	</g>
	<g>
		<path class="st0" d="M108.9,116.2c-0.2,0-0.4-0.1-0.5-0.4c-0.1-0.3,0.1-0.5,0.3-0.6l16-4.7c0.3-0.1,0.5,0.1,0.6,0.3
			c0.1,0.3-0.1,0.5-0.3,0.6l-16,4.7C109,116.2,108.9,116.2,108.9,116.2z"/>
	</g>
	<g>
		<path class="st0" d="M133.6,103.7c-0.1,0-0.2,0-0.3-0.1l-1-0.7c-0.2-0.2-0.3-0.5-0.1-0.7c0.2-0.2,0.5-0.3,0.7-0.1l1,0.7
			c0.2,0.2,0.3,0.5,0.1,0.7C133.9,103.6,133.7,103.7,133.6,103.7z"/>
	</g>
	<g>
		<path class="st0" d="M124.9,111.5c-0.2,0-0.4-0.1-0.5-0.3c-0.1-0.3,0-0.5,0.3-0.7l2-0.8l2.2-1.7l1.6-1.8l1.2-2.1l0.3-1.7
			c0.1-0.3,0.3-0.4,0.6-0.4c0.3,0.1,0.4,0.3,0.4,0.6l-0.3,1.7c0,0,0,0.1,0,0.1l-1.2,2.3c0,0,0,0.1-0.1,0.1l-1.7,1.9l-2.3,1.8
			c0,0-0.1,0-0.1,0.1l-2.1,0.9C125,111.5,124.9,111.5,124.9,111.5z"/>
	</g>
	<g>
		<path class="st0" d="M142.8,103c-0.2,0-0.3-0.1-0.4-0.3c-0.1-0.2,0-0.5,0.2-0.7l1.6-0.9c0.2-0.1,0.5,0,0.7,0.2
			c0.1,0.2,0,0.5-0.2,0.7l-1.6,0.9C143,103,142.9,103,142.8,103z"/>
	</g>
	<g>
		<path class="st0" d="M142.8,103c-0.1,0-0.2,0-0.2-0.1l-2.4-1.4c-0.2-0.1-0.3-0.4-0.2-0.7c0.1-0.2,0.4-0.3,0.7-0.2l2.4,1.4
			c0.2,0.1,0.3,0.4,0.2,0.7C143.1,102.9,143,103,142.8,103z"/>
	</g>
	<g>
		<path class="st0" d="M140.4,101.6h-0.2c-0.1,0-0.3-0.1-0.4-0.1l0,0H139c-0.3,0-0.5-0.2-0.5-0.5s0.2-0.5,0.5-0.5h1
			c0.1,0,0.3,0.1,0.4,0.1l0,0c0.3,0,0.5,0.2,0.5,0.5C140.9,101.4,140.6,101.6,140.4,101.6z"/>
	</g>
	<g>
		<path class="st0" d="M134.3,102.8c-0.1,0-0.2,0-0.2-0.1l-1-0.5c-0.2-0.1-0.3-0.4-0.2-0.7c0.1-0.2,0.4-0.3,0.7-0.2l1,0.5
			c0.2,0.1,0.3,0.4,0.2,0.7C134.6,102.7,134.5,102.8,134.3,102.8z"/>
	</g>
	<g>
		<path class="st0" d="M141.4,100.4c-0.1,0-0.3,0-0.4-0.1l0,0h-1c-0.3,0-0.5-0.2-0.5-0.5s0.2-0.5,0.5-0.5h1.2c0.1,0,0.3,0.1,0.4,0.1
			l0.2,0.2c0.2,0.2,0.2,0.5,0,0.7C141.7,100.3,141.5,100.4,141.4,100.4z"/>
	</g>
	<g>
		<path class="st0" d="M144.4,102.1c-0.1,0-0.2,0-0.3-0.1l-3-1.7c-0.2-0.1-0.3-0.4-0.2-0.7s0.4-0.3,0.7-0.2l3,1.7
			c0.2,0.1,0.3,0.4,0.2,0.7C144.7,102,144.5,102.1,144.4,102.1z"/>
	</g>
	<g>
		<path class="st0" d="M133.2,102.3c-0.2,0-0.4-0.1-0.5-0.4c-0.1-0.3,0.1-0.5,0.3-0.6l6.8-2.1c0.3-0.1,0.5,0.1,0.6,0.3
			c0.1,0.3-0.1,0.5-0.3,0.6l-6.8,2.1C133.3,102.3,133.3,102.3,133.2,102.3z"/>
	</g>
	<g>
		<path class="st0" d="M146.3,109.1c-0.2,0-0.4-0.2-0.5-0.4l-0.3-1.7l-0.7-1.7l-0.5-0.7l-1.2-1.2l-0.6-0.5c-0.2-0.2-0.3-0.5-0.1-0.7
			s0.5-0.3,0.7-0.1l0.7,0.5l1.3,1.3c0,0,0.1,0.1,0.1,0.1l0.5,0.9l0.7,1.8l0.4,1.8C146.8,108.8,146.6,109,146.3,109.1
			C146.3,109.1,146.3,109.1,146.3,109.1z"/>
	</g>
	<g>
		<path class="st0" d="M146.3,121.3c-0.3,0-0.5-0.2-0.5-0.5v-12.2c0-0.3,0.2-0.5,0.5-0.5s0.5,0.2,0.5,0.5v12.2
			C146.8,121,146.5,121.3,146.3,121.3z"/>
	</g>
	<g>
		<path class="st0" d="M144.2,132c-0.1,0-0.1,0-0.2,0c-0.3-0.1-0.4-0.4-0.3-0.7l0.5-1.2l1-3.8l0.3-2.7l0-1.3l0.2-1.6
			c0-0.3,0.3-0.5,0.6-0.4c0.3,0,0.5,0.3,0.4,0.6l-0.2,1.6l0,1.3l-0.4,2.8l-1.1,3.9l-0.5,1.3C144.6,131.9,144.4,132,144.2,132z"/>
	</g>
	<g>
		<path class="st0" d="M142.8,133.1h-0.9c-0.1,0-0.1,0-0.2,0l-0.5-0.2c0,0-0.1,0-0.1-0.1l-0.5-0.3c-0.2-0.2-0.3-0.5-0.1-0.7
			c0.2-0.2,0.5-0.3,0.7-0.1l0.5,0.3l0.4,0.1h0.7l0.6-0.2l0.1-0.2c0,0,0.1-0.1,0.1-0.1l0.3-0.3c0.2-0.2,0.5-0.2,0.7,0
			c0.2,0.2,0.2,0.5,0,0.7l-0.3,0.3l-0.1,0.3c0,0.1-0.1,0.2-0.2,0.2l-0.3,0.2l-0.6,0.2C142.9,133.1,142.8,133.1,142.8,133.1z"/>
	</g>
	<g>
		<path class="st0" d="M140.9,132.6c-0.1,0-0.2,0-0.2-0.1l-4.5-2.6c-0.2-0.1-0.3-0.4-0.2-0.7c0.1-0.2,0.4-0.3,0.7-0.2l4.5,2.6
			c0.2,0.1,0.3,0.4,0.2,0.7C141.2,132.5,141.1,132.6,140.9,132.6z"/>
	</g>
	<g>
		<path class="st0" d="M136.4,130c-0.1,0-0.2,0-0.3-0.1c-0.2-0.2-0.2-0.5-0.1-0.7l1.5-1.9l1.5-3.5l0.7-4.5l0.2-4.3l0-13.9
			c0-0.3,0.2-0.5,0.5-0.5s0.5,0.2,0.5,0.5V115l-0.2,4.4L140,124c0,0,0,0.1,0,0.1l-1.6,3.7c0,0,0,0.1-0.1,0.1l-1.6,1.9
			C136.6,129.9,136.5,130,136.4,130z"/>
	</g>
	<g>
		<path class="st0" d="M146.3,109.1c-0.2,0-0.3-0.1-0.4-0.2c-0.2-0.2-0.1-0.5,0.1-0.7l1.6-1c0.2-0.2,0.5-0.1,0.7,0.1
			s0.1,0.5-0.1,0.7l-1.6,1C146.5,109.1,146.4,109.1,146.3,109.1z"/>
	</g>
	<g>
		<path class="st0" d="M147.8,108c-0.3,0-0.5-0.2-0.5-0.5v-0.8l-0.2-0.6l-0.3-0.9l-0.5-0.6l-0.6-0.9l-0.5-0.7l-0.6-0.6l-0.6-0.3
			c-0.2-0.1-0.3-0.4-0.2-0.7c0.1-0.2,0.4-0.3,0.7-0.2l0.7,0.3c0,0,0.1,0.1,0.1,0.1l0.7,0.7l0.6,0.8l0.6,0.9l0.5,0.7
			c0,0,0.1,0.1,0.1,0.1l0.3,1l0.2,0.7c0,0,0,0.1,0,0.1v0.9C148.3,107.8,148.1,108,147.8,108z"/>
	</g>
	<g>
		<path class="st0" d="M136.4,130c-0.1,0-0.2,0-0.2-0.1l-0.3-0.2c-0.2-0.1-0.3-0.4-0.2-0.7s0.4-0.3,0.7-0.2l0.3,0.2
			c0.2,0.1,0.3,0.4,0.2,0.7C136.7,129.9,136.5,130,136.4,130z"/>
	</g>
	<g>
		<path class="st0" d="M136,129.8c-0.1,0-0.2,0-0.2-0.1l-0.2-0.1H135c-0.3,0-0.5-0.2-0.5-0.5s0.2-0.5,0.5-0.5h0.7
			c0.1,0,0.2,0,0.2,0.1l0.3,0.2c0.2,0.1,0.3,0.4,0.2,0.7C136.4,129.7,136.2,129.8,136,129.8z"/>
	</g>
	<g>
		<path class="st0" d="M132.5,103c-0.3,0-0.5-0.2-0.5-0.5v-0.2c0-0.1,0.1-0.3,0.1-0.4l0.5-0.5c0.1-0.1,0.2-0.1,0.4-0.1h0.2
			c0.3,0,0.5,0.2,0.5,0.5c0,0.3-0.2,0.5-0.5,0.5l-0.2,0.2C133,102.8,132.8,103,132.5,103z"/>
	</g>
	<g>
		<path class="st0" d="M146.3,121.3c-0.2,0-0.3-0.1-0.4-0.3c-0.1-0.2,0-0.5,0.2-0.7l1.6-0.9c0.2-0.1,0.5,0,0.7,0.2
			c0.1,0.2,0,0.5-0.2,0.7l-1.6,0.9C146.4,121.2,146.4,121.3,146.3,121.3z"/>
	</g>
	<g>
		<path class="st0" d="M147.8,120.4c-0.3,0-0.5-0.2-0.5-0.5v-12.4c0-0.3,0.2-0.5,0.5-0.5s0.5,0.2,0.5,0.5v12.4
			C148.3,120.2,148.1,120.4,147.8,120.4z"/>
	</g>
	<g>
		<path class="st0" d="M144.2,132c-0.2,0-0.3-0.1-0.4-0.2c-0.2-0.2-0.1-0.5,0.1-0.7l1.6-1c0.2-0.2,0.5-0.1,0.7,0.1
			c0.2,0.2,0.1,0.5-0.1,0.7l-1.6,1C144.4,132,144.3,132,144.2,132z"/>
	</g>
	<g>
		<path class="st0" d="M145.8,131c-0.1,0-0.2,0-0.2-0.1c-0.2-0.1-0.3-0.4-0.2-0.7l0.5-1l1-3.7l0.5-4.3l0-1.3c0-0.3,0.2-0.5,0.5-0.5
			s0.5,0.2,0.5,0.5v1.4l-0.5,4.4l-1.1,3.9l-0.6,1.1C146.1,130.9,145.9,131,145.8,131z"/>
	</g>
	<g>
		<path class="st0" d="M145.1,131.9c-0.1,0-0.3,0-0.4-0.1c-0.2-0.2-0.2-0.5,0-0.7l0.5-0.5l0.1-0.3c0.1-0.2,0.4-0.3,0.7-0.2
			s0.3,0.4,0.2,0.7l-0.2,0.3c0,0-0.1,0.1-0.1,0.1l-0.5,0.5C145.3,131.8,145.2,131.9,145.1,131.9z"/>
	</g>
	<g>
		<path class="st0" d="M42.8,44.7c-0.1,0-0.2,0-0.3-0.1c-0.2-0.2-0.3-0.5-0.1-0.7l0.3-0.5c0.2-0.2,0.5-0.3,0.7-0.1
			c0.2,0.2,0.3,0.5,0.1,0.7l-0.3,0.5C43.1,44.6,42.9,44.7,42.8,44.7z"/>
	</g>
	<g>
		<path class="st0" d="M40.5,44c-0.1,0-0.2,0-0.3-0.1L38,42.6c-0.2-0.1-0.3-0.5-0.2-0.7c0.1-0.2,0.5-0.3,0.7-0.2l2.3,1.4
			c0.2,0.1,0.3,0.5,0.2,0.7C40.8,43.9,40.7,44,40.5,44z"/>
	</g>
	<g>
		<path class="st0" d="M38.2,42.6c-0.2,0-0.3-0.1-0.4-0.3c-0.1-0.2,0-0.5,0.2-0.7l1.6-0.9c0.2-0.1,0.5,0,0.7,0.2
			c0.1,0.2,0,0.5-0.2,0.7l-1.6,0.9C38.4,42.6,38.3,42.6,38.2,42.6z"/>
	</g>
	<g>
		<path class="st0" d="M42.9,43.5c-0.1,0-0.2,0-0.2-0.1l-3.1-1.7c-0.2-0.1-0.3-0.4-0.2-0.7c0.1-0.2,0.4-0.3,0.7-0.2l3.1,1.7
			c0.2,0.1,0.3,0.4,0.2,0.7C43.3,43.4,43.1,43.5,42.9,43.5z"/>
	</g>
	<g>
		<path class="st0" d="M43.1,44.2c-0.1,0-0.3,0-0.4-0.1c-0.1-0.1-0.2-0.3-0.1-0.5c0,0,0-0.1,0-0.1l0,0c-0.2-0.2-0.2-0.5,0-0.7
			c0.2-0.2,0.5-0.2,0.7,0l0.2,0.2c0,0,0.1,0.1,0.1,0.1c0.1,0.1,0.2,0.2,0.2,0.4v0.2c0,0.1-0.1,0.3-0.1,0.4L43.5,44
			C43.4,44.1,43.2,44.2,43.1,44.2z"/>
	</g>
	<g>
		<path class="st0" d="M34.9,43.5c-0.1,0-0.3,0-0.4-0.1c-0.2-0.2-0.2-0.5,0-0.7l0.1-0.1l0.1-0.4c0-0.1,0.1-0.2,0.2-0.3l0.5-0.3
			c0,0,0.1,0,0.1-0.1l0.5-0.2c0.1,0,0.1,0,0.2,0h0.5c0,0,0.1,0,0.1,0l1.4,0.3c0.3,0.1,0.4,0.3,0.4,0.6c-0.1,0.3-0.3,0.4-0.6,0.4
			l-1.3-0.3h-0.4L36,42.4l-0.3,0.2L35.6,43c0,0.1-0.1,0.1-0.1,0.2l-0.2,0.2C35.2,43.4,35.1,43.5,34.9,43.5z"/>
	</g>
	<g>
		<path class="st0" d="M39.8,41.8c-0.1,0-0.2,0-0.3-0.1l-0.4-0.3l-0.6-0.1h-0.5l-0.4,0.3c-0.2,0.2-0.5,0.1-0.7-0.1s-0.1-0.5,0.1-0.7
			l0.5-0.3c0.1-0.1,0.2-0.1,0.3-0.1h0.7c0,0,0.1,0,0.1,0l0.7,0.2c0.1,0,0.1,0,0.2,0.1l0.5,0.3c0.2,0.2,0.3,0.5,0.1,0.7
			C40.1,41.7,40,41.8,39.8,41.8z"/>
	</g>
	<g>
		<path class="st0" d="M139.7,78.8c-0.1,0-0.2,0-0.3-0.1l-10.8-6.3c-0.2-0.1-0.3-0.4-0.2-0.7c0.1-0.2,0.4-0.3,0.7-0.2l10.8,6.3
			c0.2,0.1,0.3,0.4,0.2,0.7C140,78.7,139.8,78.8,139.7,78.8z"/>
	</g>
	<g>
		<path class="st0" d="M148.9,94.8c-0.3,0-0.5-0.2-0.5-0.5v-1.7l-0.3-1.8l-0.5-1.7l-1.7-3.8l-1-1.5l-1.4-1.7l-1.2-1.4l-1.3-1.1
			l-1.5-0.8c-0.2-0.1-0.3-0.4-0.2-0.7c0.1-0.2,0.4-0.3,0.7-0.2l1.6,0.9c0,0,0.1,0,0.1,0.1l1.4,1.2l1.3,1.4l1.4,1.8l1.1,1.6l1.8,3.9
			l0.5,1.8l0.4,2l0,1.8C149.4,94.6,149.2,94.8,148.9,94.8z"/>
	</g>
	<g>
		<path class="st0" d="M148.9,134.5c-0.3,0-0.5-0.2-0.5-0.5V94.3c0-0.3,0.2-0.5,0.5-0.5s0.5,0.2,0.5,0.5V134
			C149.4,134.3,149.2,134.5,148.9,134.5z"/>
	</g>
	<g>
		<path class="st0" d="M134.1,151.5l-2.2-0.4l-2.3-0.7l-2.5-1.1l-2.3-1.2c-0.2-0.1-0.3-0.4-0.2-0.7c0.1-0.2,0.4-0.3,0.7-0.2l2.3,1.2
			l2.4,1l2.2,0.7l2,0.3l2.2,0l1.9-0.2l1.8-0.5l1.6-0.8l1.5-1l1.3-1.3l1.2-1.7l1-1.7l0.8-2l0.5-2.3l0.3-2.4l0-2.5
			c0-0.3,0.2-0.5,0.5-0.5s0.5,0.2,0.5,0.5v2.6l-0.4,2.5l-0.5,2.5l-0.9,2.2l-1.1,1.8l-1.2,1.8l-1.4,1.5l-1.6,1.1l-1.8,0.9l-2,0.6
			l-2,0.2L134.1,151.5z"/>
	</g>
	<g>
		<path class="st0" d="M125.1,148.2c-0.1,0-0.2,0-0.2-0.1l-17-9.7c-0.2-0.1-0.3-0.4-0.2-0.7c0.1-0.2,0.4-0.3,0.7-0.2l17,9.7
			c0.2,0.1,0.3,0.4,0.2,0.7C125.4,148.1,125.2,148.2,125.1,148.2z"/>
	</g>
	<g>
		<path class="st0" d="M35.3,42.8c-0.3,0-0.5-0.2-0.5-0.5V28.7c0-0.3,0.2-0.5,0.5-0.5s0.5,0.2,0.5,0.5v13.6
			C35.8,42.6,35.6,42.8,35.3,42.8z"/>
	</g>
	<g>
		<path class="st0" d="M35.3,29.2C35.3,29.2,35.3,29.2,35.3,29.2c-0.3,0-0.5-0.3-0.5-0.6l0.2-1.6l0.4-1.6l0.6-1.3c0,0,0-0.1,0.1-0.1
			l0.7-0.9c0,0,0,0,0.1-0.1l1-0.9c0,0,0.1-0.1,0.2-0.1l1-0.3l1.3-0.2c0,0,0.1,0,0.1,0l1.4,0.2l1.5,0.4c0,0,0.1,0,0.1,0l1.4,0.7
			c0.2,0.1,0.3,0.4,0.2,0.7c-0.1,0.2-0.4,0.3-0.7,0.2l-1.3-0.7l-1.3-0.3l-1.3-0.2l-1.2,0.2l-0.9,0.3l-0.9,0.8l-0.6,0.8l-0.5,1.2
			L36,27.3l-0.2,1.5C35.8,29,35.5,29.2,35.3,29.2z"/>
	</g>
	<g>
		<path class="st0" d="M55.3,30.1c-0.1,0-0.2,0-0.3-0.1l-10.8-6.3c-0.2-0.1-0.3-0.4-0.2-0.7c0.1-0.2,0.4-0.3,0.7-0.2l10.8,6.3
			c0.2,0.1,0.3,0.4,0.2,0.7C55.6,30,55.5,30.1,55.3,30.1z"/>
	</g>
	<g>
		<path class="st0" d="M128.9,72.5c-0.2,0-0.3-0.1-0.4-0.2l-2.6-3.8l-2.8-3.8l-5.9-7.3l-3.1-3.3l-3.3-3.3l-3.3-3.1l-3.5-2.9
			l-3.5-2.6l-3.5-2.4l-3.5-2.3l-3.5-2.1l-3.6-1.7l-3.5-1.6l-3.5-1.4l-3.3-1L73.1,29l-3.3-0.5l-3.1-0.2l-3.1,0l-2.7,0.3l-2.8,0.5
			l-2.7,0.9c-0.3,0.1-0.5-0.1-0.6-0.3c-0.1-0.3,0.1-0.5,0.3-0.6l2.8-0.9l2.8-0.5l2.8-0.4l3.2,0l3.2,0.2l3.4,0.5l3.3,0.7l3.4,1.1
			l3.5,1.4l3.5,1.6l3.7,1.7l3.5,2.1l3.5,2.3l3.5,2.4l3.5,2.6l3.5,3l3.3,3.1l3.3,3.3l3.1,3.3l5.9,7.3l2.8,3.8l2.6,3.8
			c0.2,0.2,0.1,0.5-0.1,0.7C129.1,72.5,129,72.5,128.9,72.5z"/>
	</g>
	<g>
		<path class="st0" d="M137.1,143.2h-0.7c0,0-0.1,0-0.1,0l-0.7-0.2c0,0-0.1,0-0.1-0.1l-0.9-0.5c0,0-0.1,0-0.1-0.1l-0.7-0.7
			c0,0-0.1-0.1-0.1-0.1l-0.5-1l-0.5-0.8c0-0.1-0.1-0.1-0.1-0.2l-0.2-1l0-1c0,0,0-0.1,0-0.1l0.2-0.7c0-0.1,0.1-0.2,0.1-0.2l0.5-0.5
			c0.1-0.1,0.1-0.1,0.2-0.1l0.5-0.2c0.1,0,0.1,0,0.2,0h0.7c0.1,0,0.1,0,0.2,0l0.9,0.3c0.1,0,0.1,0.1,0.2,0.1l0.7,0.7l0.7,0.9
			l0.6,0.9c0,0,0,0.1,0,0.1l0.3,1l0.2,1.1c0,0.1,0,0.1,0,0.2l-0.2,0.7c0,0,0,0.1,0,0.1l-0.3,0.7c0,0.1-0.1,0.1-0.2,0.2l-0.5,0.3
			C137.2,143.1,137.2,143.2,137.1,143.2z M136.4,142.2h0.5l0.3-0.2l0.3-0.5l0.1-0.5l-0.2-0.9l-0.3-0.9l-0.5-0.8l-0.7-0.8l-0.6-0.6
			l-0.7-0.3h-0.5l-0.3,0.1l-0.3,0.3l-0.1,0.5v0.8l0.1,0.9l0.5,0.8l0.5,1l0.6,0.6l0.8,0.5L136.4,142.2z"/>
	</g>
	<g>
		<path class="st0" d="M142.4,90.1c-0.1,0-0.2,0-0.2-0.1l-0.7-0.3l-0.9-0.5c0,0-0.1,0-0.1-0.1l-0.7-0.7c0,0-0.1-0.1-0.1-0.1
			l-0.5-0.9l-0.5-1.1c0,0,0-0.1,0-0.1l-0.2-1l0-1c0,0,0-0.1,0-0.1l0.2-0.7c0-0.1,0.1-0.2,0.1-0.2l0.5-0.5c0.1-0.1,0.1-0.1,0.2-0.1
			l0.5-0.2c0.1,0,0.2,0,0.3,0l0.7,0.2l0.9,0.4c0,0,0.1,0,0.1,0.1l0.7,0.5c0,0,0.1,0.1,0.1,0.1l0.7,0.9c0,0,0,0.1,0.1,0.1l0.5,1
			l0.4,1.1l0.2,0.9c0,0.1,0,0.1,0,0.2l-0.2,0.9c0,0.1,0,0.1-0.1,0.2l-0.3,0.5c0,0.1-0.1,0.1-0.1,0.1l-0.5,0.3c0,0-0.1,0.1-0.2,0.1
			l-0.7,0.2C142.5,90.1,142.5,90.1,142.4,90.1z M141.2,88.4l1.3,0.7l0.4-0.1l0.4-0.2l0.2-0.4l0.1-0.7l-0.2-0.8l-0.3-1l-0.5-0.9
			l-0.6-0.8l-0.6-0.4l-0.8-0.3l-0.5-0.1l-0.3,0.1l-0.3,0.3l-0.1,0.5v0.8l0.2,0.9l0.5,1l0.5,0.8L141.2,88.4z"/>
	</g>
	<g>
		<path class="st0" d="M44.3,33.1h-0.5l-1-0.2c-0.1,0-0.1,0-0.2-0.1l-0.7-0.5l-0.7-0.7l-0.8-1.1c0,0,0-0.1,0-0.1L40,29.4l-0.4-1.1
			c0-0.1,0-0.1,0-0.2v-0.9c0-0.1,0-0.2,0.1-0.2l0.3-0.7l0.4-0.6c0.1-0.1,0.2-0.2,0.3-0.2l0.7-0.2c0,0,0.1,0,0.1,0h0.7
			c0.1,0,0.2,0,0.2,0.1l0.7,0.3c0,0,0.1,0,0.1,0.1l0.9,0.7c0,0,0.1,0.1,0.1,0.1l1,1.7c0,0,0,0.1,0,0.1l0.3,1l0.2,1.1
			c0,0.1,0,0.1,0,0.2l-0.2,0.7c0,0,0,0.1,0,0.1l-0.3,0.7c0,0.1-0.1,0.1-0.2,0.2L44.6,33C44.5,33,44.4,33.1,44.3,33.1z M43.2,31.9
			l0.8,0.2l0.3,0l0.3-0.2l0.3-0.5l0.1-0.5l-0.2-0.9l-0.3-0.9l-1-1.6l-0.8-0.6l-0.5-0.3h-0.5l-0.4,0.1l-0.2,0.4l-0.3,0.5v0.7l0.3,1
			l0.3,0.8l0.7,1l0.6,0.6L43.2,31.9z"/>
	</g>
	<g>
		<path class="st0" d="M136,99c-0.2,0-0.4-0.2-0.5-0.4l-1.7-7.8l-2.4-8c-0.1-0.3,0.1-0.5,0.3-0.6c0.3-0.1,0.5,0.1,0.6,0.3l2.4,8
			l1.7,7.9c0.1,0.3-0.1,0.5-0.4,0.6C136.1,99,136,99,136,99z"/>
	</g>
	<g>
		<path class="st0" d="M131.8,83.2c-0.2,0-0.4-0.1-0.5-0.3l-0.9-2.4l-1-2.2l-1-2.4l-1.2-2.2l-2.8-4.5l-1.4-2.1l-1.5-2.1
			c-0.2-0.2-0.1-0.5,0.1-0.7c0.2-0.2,0.5-0.1,0.7,0.1l1.6,2.1l1.4,2.1l2.8,4.5l1.2,2.3l1.1,2.5l1,2.2l0.9,2.5c0.1,0.3,0,0.5-0.3,0.6
			C131.9,83.1,131.9,83.2,131.8,83.2z"/>
	</g>
	<g>
		<path class="st0" d="M121.9,65.1c-0.1,0-0.3-0.1-0.4-0.2l-4.5-5.6l-4.8-5l-4.9-4.9l-5-4.1l-5.2-3.8l-5.2-3.3
			c-0.2-0.1-0.3-0.5-0.2-0.7c0.1-0.2,0.5-0.3,0.7-0.2l5.2,3.3l5.2,3.8l5.1,4.2l4.9,4.9l4.9,5.1l4.6,5.6c0.2,0.2,0.1,0.5-0.1,0.7
			C122.1,65,122,65.1,121.9,65.1z"/>
	</g>
	<g>
		<path class="st0" d="M92.2,38.3c-0.1,0-0.2,0-0.2-0.1l-5.2-2.6l-5.2-2.2l-5-1.5l-5-1l-4.6-0.3l-4.5,0.2c-0.3,0-0.5-0.2-0.5-0.5
			c0-0.3,0.2-0.5,0.5-0.5l4.5-0.2l4.8,0.3l5.1,1.1l5.1,1.6l5.3,2.3l5.2,2.6c0.2,0.1,0.3,0.4,0.2,0.7C92.5,38.2,92.4,38.3,92.2,38.3z
			"/>
	</g>
	<g>
		<path class="st0" d="M52.3,37.2c-0.1,0-0.2,0-0.3-0.1c-0.2-0.2-0.2-0.5-0.1-0.7l1-1.2l0.8-1.2l1.3-1.3l1.3-0.9l1.3-0.7l1.4-0.7
			c0,0,0.1,0,0.1,0l3.1-0.7c0.3-0.1,0.5,0.1,0.6,0.4s-0.1,0.5-0.4,0.6l-3.1,0.7L58.1,32l-1.2,0.7l-1.2,0.8l-1.2,1.2l-0.8,1.2
			l-1.1,1.3C52.6,37.2,52.5,37.2,52.3,37.2z"/>
	</g>
	<g>
		<path class="st0" d="M48.5,47.3c0,0-0.1,0-0.1,0C48.1,47.2,48,47,48,46.7l1.4-4.9l2.5-5.3c0.1-0.2,0.4-0.4,0.7-0.2
			c0.3,0.1,0.4,0.4,0.2,0.7l-2.4,5.2L49,47C48.9,47.2,48.7,47.3,48.5,47.3z"/>
	</g>
	<g>
		<path class="st0" d="M129.4,98.6c-0.3,0-0.5-0.2-0.5-0.5v-0.7c0-0.3,0.2-0.5,0.5-0.5s0.5,0.2,0.5,0.5v0.7
			C129.9,98.4,129.7,98.6,129.4,98.6z"/>
	</g>
	<g>
		<path class="st0" d="M135.5,101.6c-0.1,0-0.2,0-0.3-0.1l-6.1-3.7c-0.2-0.1-0.3-0.4-0.2-0.7c0.1-0.2,0.4-0.3,0.7-0.2l6.1,3.7
			c0.2,0.1,0.3,0.4,0.2,0.7C135.8,101.5,135.7,101.6,135.5,101.6z"/>
	</g>
	<g>
		<path class="st0" d="M136.2,101.3c-0.3,0-0.5-0.2-0.5-0.5l-0.2-2.3c0-0.3,0.2-0.5,0.5-0.5c0.3,0,0.5,0.2,0.5,0.5l0.2,2.3
			C136.7,101,136.5,101.2,136.2,101.3C136.2,101.3,136.2,101.3,136.2,101.3z"/>
	</g>
	<g>
		<path class="st0" d="M148.9,94.8c-0.2,0-0.4-0.1-0.4-0.3c-0.1-0.2,0-0.5,0.2-0.7l2.3-1.2c0.2-0.1,0.5,0,0.7,0.2
			c0.1,0.2,0,0.5-0.2,0.7l-2.3,1.2C149,94.8,149,94.8,148.9,94.8z"/>
	</g>
	<g>
		<path class="st0" d="M139.7,78.8c-0.2,0-0.4-0.1-0.4-0.3c-0.1-0.2,0-0.5,0.2-0.7l2.3-1.2c0.2-0.1,0.5,0,0.7,0.2s0,0.5-0.2,0.7
			l-2.3,1.2C139.8,78.8,139.7,78.8,139.7,78.8z"/>
	</g>
	<g>
		<path class="st0" d="M151.1,93.6c-0.3,0-0.5-0.2-0.5-0.5l-0.2-1.7l-0.3-1.9l-0.5-1.9l-0.7-1.7l-1-1.9l-1-1.7l-1.2-1.5l-1.4-1.3
			l-1.4-1.2l-1.3-0.8c-0.2-0.1-0.3-0.5-0.2-0.7c0.1-0.2,0.5-0.3,0.7-0.2l1.4,0.9l1.5,1.3l1.4,1.4l1.3,1.6l1.1,1.8l1.1,1.9l0.7,1.8
			l0.5,2l0.4,2l0.2,1.8C151.7,93.3,151.5,93.6,151.1,93.6C151.2,93.6,151.2,93.6,151.1,93.6z"/>
	</g>
	<g>
		<path class="st0" d="M74.1,31.3C74.1,31.3,74.1,31.3,74.1,31.3l-3-0.2L64.7,31h-3.5c-0.3,0-0.5-0.2-0.5-0.5s0.2-0.5,0.5-0.5h3.5
			l6.4,0.2l3,0.2c0.3,0,0.5,0.3,0.5,0.5C74.6,31.1,74.3,31.3,74.1,31.3z"/>
	</g>
	<g>
		<path class="st0" d="M133.7,98.6c-0.2,0-0.4-0.1-0.5-0.3l-1-2.7l-1.4-2l-1.8-2l-2.7-1.9l-3.3-1.7l-3.7-1.2l-4.1-1l-5.7-0.5
			l-3.6-0.2c-0.3,0-0.5-0.2-0.5-0.5s0.3-0.5,0.5-0.5l3.7,0.2l5.8,0.5l4.3,1.1l3.9,1.2l3.4,1.8l2.8,1.9c0,0,0.1,0,0.1,0.1l1.9,2.1
			l1.4,2.1c0,0,0,0.1,0.1,0.1l1,2.8c0.1,0.3,0,0.5-0.3,0.6C133.9,98.6,133.8,98.6,133.7,98.6z"/>
	</g>
	<g>
		<path class="st0" d="M128.9,72.5c-0.2,0-0.4-0.1-0.4-0.3c-0.1-0.2,0-0.5,0.2-0.7l2.3-1.2c0.2-0.1,0.5,0,0.7,0.2
			c0.1,0.2,0,0.5-0.2,0.7l-2.3,1.2C129,72.5,129,72.5,128.9,72.5z"/>
	</g>
	<g>
		<path class="st0" d="M55.3,30.1c-0.2,0-0.4-0.1-0.4-0.3c-0.1-0.2,0-0.5,0.2-0.7l2.3-1.2c0.2-0.1,0.5,0,0.7,0.2
			c0.1,0.2,0,0.5-0.2,0.7L55.5,30C55.5,30.1,55.4,30.1,55.3,30.1z"/>
	</g>
	<g>
		<path class="st0" d="M94.3,35.1c-0.1,0-0.2,0-0.2-0.1l-6.6-3.5l-6.7-2.4l-6.4-1.6l-6-0.7l-5.5,0.5l-5.1,1.4
			c-0.3,0.1-0.5-0.1-0.6-0.4c-0.1-0.3,0.1-0.5,0.4-0.6l5.2-1.4l5.6-0.5c0,0,0.1,0,0.1,0l6.1,0.7l6.5,1.6l6.8,2.5l6.7,3.5
			c0.2,0.1,0.3,0.4,0.2,0.7C94.6,35.1,94.4,35.1,94.3,35.1z"/>
	</g>
	<g>
		<path class="st0" d="M131.1,71.3c-0.2,0-0.3-0.1-0.4-0.2l-5.2-7.5l-5.7-6.9l-6.1-6.4l-6.4-5.7l-6.6-5.2L94,35.1
			c-0.2-0.1-0.3-0.5-0.2-0.7c0.1-0.2,0.5-0.3,0.7-0.2l6.8,4.3l6.6,5.2l6.5,5.8l6.1,6.5l5.8,7l5.2,7.5c0.2,0.2,0.1,0.5-0.1,0.7
			C131.3,71.3,131.2,71.3,131.1,71.3z"/>
	</g>
	<g>
		<path class="st0" d="M144,88.7c-0.1,0-0.3,0-0.4-0.1l-0.2-0.2l-0.6-0.5l-0.7-0.7l-0.7-0.9c0,0-0.1-0.1-0.1-0.2l-0.7-2.1
			c0-0.1,0-0.1,0-0.2V83c0-0.3,0.2-0.5,0.5-0.5s0.5,0.2,0.5,0.5v0.8l0.6,1.9l0.6,0.8l0.7,0.7l0.9,0.7c0.2,0.2,0.2,0.5,0,0.7
			C144.3,88.7,144.1,88.7,144,88.7z"/>
	</g>
	<g>
		<path class="st0" d="M141.9,77.6c-0.1,0-0.2,0-0.3-0.1l-10.8-6.3c-0.2-0.1-0.3-0.4-0.2-0.7c0.1-0.2,0.4-0.3,0.7-0.2l10.8,6.3
			c0.2,0.1,0.3,0.4,0.2,0.7C142.3,77.5,142.1,77.6,141.9,77.6z"/>
	</g>
	<g>
		<path class="st0" d="M148.9,134.5c-0.2,0-0.4-0.1-0.4-0.3c-0.1-0.2,0-0.5,0.2-0.7l2.3-1.2c0.2-0.1,0.5,0,0.7,0.2
			c0.1,0.2,0,0.5-0.2,0.7l-2.3,1.2C149,134.5,149,134.5,148.9,134.5z"/>
	</g>
	<g>
		<path class="st0" d="M151.1,133.3c-0.3,0-0.5-0.2-0.5-0.5V93.1c0-0.3,0.2-0.5,0.5-0.5s0.5,0.2,0.5,0.5v39.7
			C151.6,133,151.4,133.3,151.1,133.3z"/>
	</g>
	<g>
		<path class="st0" d="M131.1,71.3c-0.2,0-0.5-0.2-0.5-0.4c0-0.3,0.2-0.5,0.4-0.6l4.3-0.5l4.2-0.2l4-0.3l3.6-0.7l3-1.2l2.5-2
			l2.2-2.9l1.7-3.1l1.4-3.6l2.1-6.9c0.1-0.3,0.4-0.4,0.6-0.3c0.3,0.1,0.4,0.4,0.3,0.6l-2.1,7l-1.4,3.7l-1.8,3.2l-2.3,3
			c0,0-0.1,0.1-0.1,0.1l-2.6,2.1c0,0-0.1,0.1-0.1,0.1l-3.1,1.2l-3.7,0.7l-4.1,0.4l-4.2,0.2L131.1,71.3
			C131.2,71.3,131.2,71.3,131.1,71.3z"/>
	</g>
	<g>
		<path class="st0" d="M94.3,35.1c-0.2,0-0.4-0.1-0.4-0.3c-0.1-0.2,0-0.5,0.2-0.7l7.8-4l7.5-3.1l7.5-2.1l6.7-1.2l6.7-0.4l6.5,0.5
			l6.2,1.4c0.3,0.1,0.4,0.3,0.4,0.6c-0.1,0.3-0.3,0.4-0.6,0.4l-6.1-1.4l-6.4-0.5l-6.5,0.3l-6.5,1.2l-7.4,2.1l-7.4,3.1l-7.8,4
			C94.4,35.1,94.3,35.1,94.3,35.1z"/>
	</g>
	<g>
		<path class="st0" d="M160.5,49.6c-0.2,0-0.4-0.1-0.5-0.3l-1.7-4.3l-2.2-4.3l-2.9-4.5l-3.3-4l-3.6-3.4l-3.8-2.6
			c-0.2-0.2-0.3-0.5-0.1-0.7c0.2-0.2,0.5-0.3,0.7-0.1l3.8,2.6l3.7,3.5l3.3,4l3,4.6l2.3,4.4l1.8,4.4c0.1,0.3,0,0.5-0.3,0.6
			C160.7,49.6,160.6,49.6,160.5,49.6z"/>
	</g>
	<g>
		<path class="st0" d="M161.6,65.2c-0.1,0-0.1,0-0.2,0c-0.3-0.1-0.4-0.4-0.3-0.6l0.3-1l0.3-4.1l-0.3-4.4l-1.2-4.8l-0.2-1.1
			c0-0.3,0.1-0.5,0.4-0.6c0.3,0,0.5,0.1,0.6,0.4l0.2,1l1.2,4.8l0.4,4.6l-0.3,4.3c0,0,0,0.1,0,0.1l-0.3,1
			C162,65.1,161.8,65.2,161.6,65.2z"/>
	</g>
	<g>
		<path class="st0" d="M129.4,97.9c-0.2,0-0.4-0.1-0.4-0.3c-0.1-0.2,0-0.5,0.2-0.7l1.7-0.9c0.2-0.1,0.5,0,0.7,0.2
			c0.1,0.2,0,0.5-0.2,0.7l-1.7,0.9C129.6,97.9,129.5,97.9,129.4,97.9z"/>
	</g>
	<g>
		<path class="st0" d="M136.2,100c-0.1,0-0.2,0-0.3-0.1l-5-3c-0.2-0.1-0.3-0.4-0.2-0.7c0.1-0.2,0.4-0.3,0.7-0.2l5,3
			c0.2,0.1,0.3,0.4,0.2,0.7C136.5,99.9,136.4,100,136.2,100z"/>
	</g>
	<g>
		<path class="st0" d="M144.2,148.7c-0.1,0-0.3-0.1-0.4-0.2c-0.2-0.2-0.1-0.5,0.1-0.7l1.6-1.2l1.3-1.2l1.2-1.7l0.8-1.8l0.9-2.1
			l0.5-2.2l0.3-2.4l0.2-2.6c0-0.3,0.3-0.5,0.5-0.5c0.3,0,0.5,0.3,0.5,0.5l-0.2,2.6l-0.4,2.5l-0.5,2.3l-0.9,2.2l-0.9,1.9l-1.3,1.8
			c0,0-0.1,0.1-0.1,0.1l-1.4,1.2l-1.6,1.2C144.4,148.7,144.3,148.7,144.2,148.7z"/>
	</g>
	<g>
		<path class="st0" d="M142.8,26.3c-0.1,0-0.1,0-0.2,0l-3.8-1.7c-0.3,0-0.5-0.2-0.5-0.5s0.2-0.5,0.5-0.5h0.2c0.1,0,0.1,0,0.2,0
			l3.8,1.7c0.3,0.1,0.4,0.4,0.2,0.7C143.2,26.2,143,26.3,142.8,26.3z"/>
	</g>
	<g>
		<path class="st0" d="M138.1,141.8h-0.3c-0.1,0-0.2,0-0.3-0.1l-0.7-0.5c0,0-0.1-0.1-0.1-0.1l-1.4-1.7c0,0-0.1-0.1-0.1-0.2l-0.3-1
			l-0.3-0.8c0-0.1,0-0.1,0-0.2v-1c0-0.3,0.2-0.5,0.5-0.5s0.5,0.2,0.5,0.5v0.9l0.3,0.8l0.3,1l1.3,1.6l0.5,0.4h0.2
			c0.3,0,0.5,0.2,0.5,0.5S138.4,141.8,138.1,141.8z"/>
	</g>
	<g>
		<path class="st0" d="M52.3,37.2c-0.2,0-0.4-0.1-0.4-0.3c-0.1-0.2,0-0.5,0.2-0.7l1.7-0.9c0.2-0.1,0.5,0,0.7,0.2
			c0.1,0.2,0,0.5-0.2,0.7l-1.7,0.9C52.5,37.2,52.4,37.2,52.3,37.2z"/>
	</g>
	<g>
		<path class="st0" d="M54.1,36.4c-0.1,0-0.2,0-0.3-0.1c-0.2-0.1-0.3-0.5-0.2-0.7l0.9-1.4l1.1-1.3l1.1-1.1l1.3-0.9
			c0.2-0.2,0.5-0.1,0.7,0.1c0.2,0.2,0.1,0.5-0.1,0.7l-1.2,0.9l-1,1l-1,1.2l-0.8,1.3C54.4,36.3,54.2,36.4,54.1,36.4z"/>
	</g>
	<g>
		<path class="st0" d="M161.4,66.5c0,0-0.1,0-0.1,0c-0.3-0.1-0.4-0.3-0.4-0.6l0.5-1.9l0.3-2.2l0.2-2.2l-0.2-2.5l-0.3-2.6l-0.5-2.6
			l-1.7-5.3l-1.2-2.7l-1.4-2.6l-1.6-2.6l-1.6-2.4l-1.9-2.2l-1.9-2.1l-1.9-1.9l-2.1-1.7l-2-1.4l-2.1-1.2l-2.1-1l-2-0.7l-0.7-0.2
			c-0.3-0.1-0.4-0.3-0.4-0.6c0.1-0.3,0.3-0.4,0.6-0.4l0.7,0.2l2.1,0.7l2.2,1.1l2.1,1.2l2.1,1.4l2.1,1.8l1.9,1.9l1.9,2.1l1.9,2.3
			l1.6,2.5l1.6,2.6l1.4,2.6l1.2,2.8l0.9,2.7l0.9,2.8l0.5,2.7l0.4,2.6l0.2,2.6l-0.2,2.3l-0.4,2.3l-0.5,2
			C161.8,66.3,161.6,66.5,161.4,66.5z"/>
	</g>
	<g>
		<path class="st0" d="M141.8,25.6c-0.3,0-0.5-0.2-0.5-0.5v-0.2c0-0.1,0-0.1,0-0.2l0.3-0.9c0.1-0.3,0.4-0.4,0.6-0.3
			c0.3,0.1,0.4,0.4,0.3,0.7l-0.3,0.9C142.3,25.4,142,25.6,141.8,25.6z"/>
	</g>
	<g>
		<path class="st0" d="M145.6,28c-0.1,0-0.2,0-0.2-0.1c-0.2-0.1-0.3-0.4-0.2-0.7l0.1-0.3l0.2-0.8c0.1-0.3,0.3-0.4,0.6-0.4
			c0.3,0.1,0.4,0.3,0.4,0.6l-0.2,0.9c0,0,0,0.1,0,0.1l-0.2,0.3C145.9,27.9,145.8,28,145.6,28z"/>
	</g>
	<g>
		<path class="st0" d="M160.7,69.2c-0.1,0-0.2,0-0.3-0.1c-0.2-0.2-0.3-0.5-0.1-0.7l0.5-0.7l0.8-1.7l0.7-1.9l0.5-2l0.2-2.3l0-2.4
			l-0.3-2.4l-0.3-2.8l-0.7-2.5l-0.9-2.8l-1.2-2.5l-1.2-2.8l-1.4-2.6l-3.4-4.8l-3.8-4.1l-4.1-3.4c-0.2-0.2-0.2-0.5-0.1-0.7
			c0.2-0.2,0.5-0.2,0.7-0.1l4.2,3.5l3.9,4.2l3.5,4.9l1.4,2.7l1.2,2.8l1.2,2.6l0.9,2.8l0.7,2.6l0.7,5.3l0,2.5l-0.2,2.5l-0.5,2.2
			l-0.7,2l-0.9,1.8l-0.6,0.8C161,69.2,160.9,69.2,160.7,69.2z"/>
	</g>
	<g>
		<path class="st0" d="M142.1,24.5c-0.1,0-0.1,0-0.2,0l-2.1-0.7l-2.1-0.5l-1.9-0.3l-1.6,0c-0.3,0-0.5-0.2-0.5-0.5s0.2-0.5,0.5-0.5
			h1.7l2,0.4l2.1,0.5l2.1,0.7c0.3,0.1,0.4,0.4,0.3,0.6C142.5,24.4,142.3,24.5,142.1,24.5z"/>
	</g>
	<g>
		<path class="st0" d="M142.3,24.5h-0.2c-0.3,0-0.5-0.2-0.5-0.5s0.2-0.5,0.5-0.5h0.2c0.3,0,0.5,0.2,0.5,0.5S142.5,24.5,142.3,24.5z"
			/>
	</g>
	<g>
		<path class="st0" d="M146.1,26.8h-0.2c-0.3,0-0.5-0.2-0.5-0.5s0.2-0.5,0.5-0.5h0.2c0.3,0,0.5,0.2,0.5,0.5S146.4,26.8,146.1,26.8z"
			/>
	</g>
	<g>
		<path class="st0" d="M160.7,69.4c-0.1,0-0.2,0-0.3-0.1c-0.2-0.2-0.3-0.5-0.1-0.7l0.7-1l0.8-1.7l0.7-1.9l0.7-4.3l0-2.4l-0.3-2.5
			l-1-5.4l-1-2.5l-1-2.8l-1.2-2.6l-3.1-5.2l-1.7-2.2l-1.9-2.2l-1.9-2.1l-2-1.7l-2.1-1.5c-0.2-0.2-0.3-0.5-0.1-0.7s0.5-0.3,0.7-0.1
			l2.1,1.6l2.1,1.8l2,2.1l1.9,2.3l1.8,2.3l3.2,5.3l1.2,2.7l1.1,2.8l1,2.6l1.1,5.5l0.4,2.6l0,2.5l-0.7,4.4l-0.7,2l-0.9,1.8l-0.7,1.1
			C161,69.3,160.9,69.4,160.7,69.4z"/>
	</g>
	<g>
		<path class="st0" d="M142.3,24.5c-0.1,0-0.1,0-0.2,0l-2.1-0.9l-2-0.5l-1.8-0.2l-2,0c-0.3,0-0.5-0.2-0.5-0.5s0.2-0.5,0.5-0.5h2.1
			l2,0.2l2.2,0.5l2.2,0.9c0.3,0.1,0.4,0.4,0.3,0.7C142.7,24.4,142.5,24.5,142.3,24.5z"/>
	</g>
	<g>
		<path class="st0" d="M44.5,23.8c-0.2,0-0.4-0.1-0.4-0.3c-0.1-0.2,0-0.5,0.2-0.7l2.3-1.2c0.2-0.1,0.5,0,0.7,0.2
			c0.1,0.2,0,0.5-0.2,0.7l-2.3,1.2C44.7,23.8,44.6,23.8,44.5,23.8z"/>
	</g>
	<g>
		<path class="st0" d="M57.6,28.9c-0.1,0-0.2,0-0.3-0.1l-10.8-6.3c-0.2-0.1-0.3-0.4-0.2-0.7c0.1-0.2,0.4-0.3,0.7-0.2L57.8,28
			c0.2,0.1,0.3,0.4,0.2,0.7C57.9,28.8,57.7,28.9,57.6,28.9z"/>
	</g>
	<g>
		<path class="st0" d="M142.8,25.4c-0.1,0-0.1,0-0.2,0c-0.3-0.1-0.4-0.4-0.3-0.6l0.5-1.6c0.1-0.3,0.4-0.4,0.6-0.3
			c0.3,0.1,0.4,0.4,0.3,0.6l-0.5,1.6C143.2,25.3,143,25.4,142.8,25.4z"/>
	</g>
	<g>
		<path class="st0" d="M146.8,27.3c0,0-0.1,0-0.1,0c-0.3-0.1-0.4-0.4-0.3-0.6l0.3-1.2c0.1-0.3,0.4-0.4,0.6-0.3
			c0.3,0.1,0.4,0.4,0.3,0.6l-0.3,1.2C147.2,27.2,147,27.3,146.8,27.3z"/>
	</g>
	<g>
		<path class="st0" d="M160.4,70.3c-0.1,0-0.3,0-0.4-0.1c-0.2-0.2-0.2-0.5,0-0.7l1-1l1-1.3l0.8-1.7l0.7-1.9l0.5-2.2l0.2-2.2l0-2.4
			l-0.3-2.4l-0.3-2.8l-0.7-2.5l-0.9-2.8l-1.2-2.5l-1.2-2.8l-1.4-2.6l-3.4-4.8l-1.9-2.2l-1.9-1.9l-2.1-1.9l-2-1.5
			c-0.2-0.2-0.3-0.5-0.1-0.7c0.2-0.2,0.5-0.3,0.7-0.1l2.1,1.6l2.1,1.9l1.9,1.9l1.9,2.3l3.5,4.9l1.4,2.7l1.2,2.8l1.2,2.6l0.9,2.8
			l0.7,2.6l0.7,5.3l0,2.5l-0.2,2.3l-0.5,2.3l-0.7,2l-0.9,1.8l-1.1,1.5l-1.1,1.1C160.6,70.2,160.5,70.3,160.4,70.3z"/>
	</g>
	<g>
		<path class="st0" d="M143.3,23.8c-0.1,0-0.1,0-0.2,0l-4.1-1.4l-1.9-0.2l-1.9,0l-1.6,0.3l-0.3,0.1c-0.2,0.1-0.5,0-0.7-0.2
			s0-0.5,0.2-0.7l0.3-0.2c0,0,0.1,0,0.1,0l1.7-0.3l2,0l2,0.2c0,0,0.1,0,0.1,0l4.2,1.4c0.3,0.1,0.4,0.4,0.3,0.6
			C143.7,23.7,143.5,23.8,143.3,23.8z"/>
	</g>
	<g>
		<path class="st0" d="M143.5,23.8h-0.2c-0.3,0-0.5-0.2-0.5-0.5s0.2-0.5,0.5-0.5h0.2c0.3,0,0.5,0.2,0.5,0.5S143.8,23.8,143.5,23.8z"
			/>
	</g>
	<g>
		<path class="st0" d="M147.3,26.1h-0.2c-0.3,0-0.5-0.2-0.5-0.5s0.2-0.5,0.5-0.5h0.2c0.3,0,0.5,0.2,0.5,0.5S147.6,26.1,147.3,26.1z"
			/>
	</g>
	<g>
		<path class="st0" d="M160.4,70.3c-0.1,0-0.3-0.1-0.4-0.2c-0.2-0.2-0.2-0.5,0.1-0.7l1.2-1l1-1.5l0.8-1.7l0.7-1.9l0.7-4.3l0-2.4
			l-0.7-5.2l-0.7-2.7l-1-2.5l-1-2.8l-1.2-2.6l-3.1-5.2l-1.7-2.2l-1.9-2.2l-1.9-2.1l-2-1.7L147,26c-0.2-0.2-0.3-0.5-0.1-0.7
			c0.2-0.2,0.5-0.3,0.7-0.1l2.1,1.6l2.1,1.8l2,2.1l1.9,2.3l1.8,2.3l3.2,5.3l1.2,2.7l1.1,2.8l1,2.6l0.7,2.8l0.7,5.3l0,2.5l-0.7,4.4
			l-0.7,2l-0.9,1.8L162,69c0,0-0.1,0.1-0.1,0.1l-1.2,1C160.6,70.2,160.5,70.3,160.4,70.3z"/>
	</g>
	<g>
		<path class="st0" d="M143.5,23.8c-0.1,0-0.1,0-0.2,0l-2.1-0.9l-2-0.5l-1.8-0.2l-1.9,0l-1.6,0.3l-0.5,0.2c-0.3,0.1-0.5-0.1-0.6-0.3
			s0.1-0.5,0.3-0.6l0.5-0.2l1.8-0.4l2,0l2,0.2l2.2,0.5l2.2,0.9c0.3,0.1,0.4,0.4,0.3,0.7C143.9,23.7,143.7,23.8,143.5,23.8z"/>
	</g>
	<g>
		<path class="st0" d="M144,24.7c-0.3,0-0.5-0.2-0.5-0.5V24c0-0.1,0-0.1,0-0.2l0.5-1.4c0.1-0.3,0.4-0.4,0.6-0.3
			c0.3,0.1,0.4,0.4,0.3,0.6l-0.5,1.4C144.5,24.5,144.3,24.7,144,24.7z"/>
	</g>
	<g>
		<path class="st0" d="M148,26.6c0,0-0.1,0-0.1,0c-0.3-0.1-0.4-0.4-0.3-0.6l0.3-1.2c0.1-0.3,0.4-0.4,0.6-0.3
			c0.3,0.1,0.4,0.4,0.3,0.6l-0.3,1.2C148.4,26.5,148.2,26.6,148,26.6z"/>
	</g>
	<g>
		<path class="st0" d="M160.2,70.5c-0.2,0-0.3-0.1-0.4-0.3c-0.1-0.2-0.1-0.5,0.2-0.7l1.2-0.7l1.2-1.2l1-1.3l0.8-1.7l0.7-1.9l0.5-2.2
			l0.2-2.2l0-2.4l-0.7-5.2l-0.7-2.5l-0.9-2.8l-1.2-2.7l-1.2-2.6l-1.4-2.6l-3.4-4.8l-1.9-2.2l-1.9-1.9l-2.1-1.9l-2-1.5
			c-0.2-0.2-0.3-0.5-0.1-0.7c0.2-0.2,0.5-0.3,0.7-0.1l2.1,1.6l2.1,1.9l1.9,1.9l1.9,2.3l3.5,4.9l1.4,2.7l1.2,2.6l1.2,2.8l0.9,2.8
			l0.7,2.6l0.7,5.3l0,2.5l-0.2,2.3l-0.5,2.3l-0.7,2l-0.9,1.8l-1.1,1.5l-1.3,1.3c0,0-0.1,0.1-0.1,0.1l-1.2,0.7
			C160.4,70.4,160.3,70.5,160.2,70.5z"/>
	</g>
	<g>
		<path class="st0" d="M144.5,23.1c-0.1,0-0.1,0-0.2,0l-4.1-1.4l-1.9-0.2l-1.9,0l-1.6,0.3l-1.5,0.7l-0.6,0.2
			c-0.3,0.1-0.5-0.1-0.6-0.3c-0.1-0.3,0.1-0.5,0.3-0.6l0.5-0.2l1.5-0.7c0,0,0.1,0,0.1,0l1.7-0.3l2,0l2,0.2c0,0,0.1,0,0.1,0l4.2,1.4
			c0.3,0.1,0.4,0.4,0.3,0.6C144.9,23,144.7,23.1,144.5,23.1z"/>
	</g>
	<g>
		<path class="st0" d="M144.7,23.1h-0.2c-0.3,0-0.5-0.2-0.5-0.5s0.2-0.5,0.5-0.5h0.2c0.3,0,0.5,0.2,0.5,0.5S145,23.1,144.7,23.1z"/>
	</g>
	<g>
		<path class="st0" d="M148.5,25.4h-0.2c-0.3,0-0.5-0.2-0.5-0.5s0.2-0.5,0.5-0.5h0.2c0.3,0,0.5,0.2,0.5,0.5S148.8,25.4,148.5,25.4z"
			/>
	</g>
	<g>
		<path class="st0" d="M160.4,70.5c-0.1,0-0.3-0.1-0.4-0.2c-0.2-0.2-0.1-0.5,0.1-0.7l2.4-2l1-1.3l0.8-1.7l0.7-1.9l0.7-4.3l0-2.4
			l-0.7-5.2l-0.7-2.7l-0.9-2.6l-1.2-2.7l-1.2-2.6l-3.1-5.2l-1.7-2.2l-1.9-2.2l-1.9-2.1l-2-1.7l-2.1-1.5c-0.2-0.2-0.3-0.5-0.1-0.7
			c0.2-0.2,0.5-0.3,0.7-0.1l2.1,1.6l2.1,1.8l2,2.1l1.9,2.3l1.8,2.3l3.2,5.3l1.2,2.7l1.2,2.8l0.9,2.7l0.7,2.8l0.7,5.3l0,2.5l-0.7,4.4
			l-0.7,2l-0.9,1.8l-1.1,1.5c0,0,0,0.1-0.1,0.1l-2.4,2.1C160.6,70.4,160.5,70.5,160.4,70.5z"/>
	</g>
	<g>
		<path class="st0" d="M144.7,23.1c-0.1,0-0.1,0-0.2,0l-2.1-0.9l-2-0.5l-1.8-0.2l-1.9,0l-1.6,0.3l-1.4,0.5l-0.5,0.3
			c-0.2,0.2-0.5,0.1-0.7-0.1s-0.1-0.5,0.1-0.7l0.5-0.3c0,0,0.1,0,0.1-0.1l1.6-0.5l1.8-0.4l2,0l2,0.2l2.2,0.5l2.2,0.9
			c0.3,0.1,0.4,0.4,0.3,0.7C145.1,23,144.9,23.1,144.7,23.1z"/>
	</g>
	<g>
		<path class="st0" d="M145.2,24c-0.3,0-0.5-0.2-0.5-0.5v-0.2c0-0.1,0-0.1,0-0.2l0.5-1.4c0.1-0.3,0.4-0.4,0.6-0.3
			c0.3,0.1,0.4,0.4,0.3,0.6l-0.5,1.4C145.7,23.8,145.5,24,145.2,24z"/>
	</g>
	<g>
		<path class="st0" d="M149.2,25.9c-0.1,0-0.1,0-0.2,0c-0.3-0.1-0.4-0.4-0.3-0.7l0.5-1.2c0.1-0.3,0.4-0.4,0.7-0.3
			c0.3,0.1,0.4,0.4,0.3,0.7l-0.5,1.2C149.6,25.8,149.4,25.9,149.2,25.9z"/>
	</g>
	<g>
		<path class="st0" d="M160.9,70.1c-0.1,0-0.3,0-0.4-0.1c-0.2-0.2-0.2-0.5,0-0.7l0.2-0.2c0,0,0.1-0.1,0.1-0.1l1.5-0.8l1.2-1.2l1-1.5
			l0.8-1.5l0.7-1.8l0.5-2.2l0.2-2.2l0-2.4l-0.2-2.6l-0.5-2.5l-0.7-2.6l-0.9-2.8l-1.2-2.7l-1.2-2.6l-1.4-2.6l-3.4-4.8l-1.7-2.2
			l-2-1.9l-1.9-1.9l-2-1.5c-0.2-0.2-0.3-0.5-0.1-0.7c0.2-0.2,0.5-0.3,0.7-0.1l2.1,1.6l2,2l2.1,1.9l1.8,2.3l3.5,4.9l1.4,2.7l1.2,2.6
			l1.2,2.8l0.9,2.8l0.7,2.6l0.5,2.6l0.2,2.7l0,2.5l-0.2,2.3l-0.5,2.3l-0.7,2l-0.9,1.6l-1.1,1.6l-1.3,1.3c0,0-0.1,0.1-0.1,0.1l-1.6,1
			C161.1,70.1,161,70.1,160.9,70.1z"/>
	</g>
	<g>
		<path class="st0" d="M145.8,22.4c-0.1,0-0.1,0-0.2,0l-2.1-0.9l-2-0.5l-1.8-0.2l-1.9,0l-1.6,0.3l-1.5,0.7l-1,0.5
			c-0.2,0.1-0.5,0-0.7-0.2c-0.1-0.2,0-0.5,0.2-0.7l1-0.5l1.6-0.7c0,0,0.1,0,0.1,0l1.7-0.3l2,0l2,0.2l2.2,0.5l2.2,0.9
			c0.3,0.1,0.4,0.4,0.3,0.7C146.1,22.3,145.9,22.4,145.8,22.4z"/>
	</g>
	<g>
		<path class="st0" d="M145.9,22.4h-0.2c-0.3,0-0.5-0.2-0.5-0.5s0.2-0.5,0.5-0.5h0.2c0.3,0,0.5,0.2,0.5,0.5S146.2,22.4,145.9,22.4z"
			/>
	</g>
	<g>
		<path class="st0" d="M149.9,24.7h-0.2c-0.3,0-0.5-0.2-0.5-0.5s0.2-0.5,0.5-0.5h0.2c0.3,0,0.5,0.2,0.5,0.5S150.2,24.7,149.9,24.7z"
			/>
	</g>
	<g>
		<path class="st0" d="M161.6,69.8c-0.1,0-0.3-0.1-0.4-0.2c-0.2-0.2-0.1-0.5,0.1-0.7l2.4-2l1-1.3l0.8-1.7l0.7-1.9l0.7-4.3l0-2.4
			l-0.7-5.2l-0.7-2.7l-0.9-2.6l-1.2-2.7l-1.2-2.6l-3.1-5.2l-1.7-2.2l-1.9-2.2l-1.9-2.1l-2-1.7l-2.1-1.5c-0.2-0.2-0.3-0.5-0.1-0.7
			c0.2-0.2,0.5-0.3,0.7-0.1l2.1,1.6l2.1,1.8l2,2.1l1.9,2.3l1.8,2.3l3.2,5.3l1.2,2.7l1.2,2.8l0.9,2.7l0.7,2.8l0.7,5.3l0,2.5l-0.7,4.4
			l-0.7,2l-0.9,1.8l-1.1,1.5c0,0,0,0.1-0.1,0.1l-2.4,2.1C161.8,69.7,161.7,69.8,161.6,69.8z"/>
	</g>
	<g>
		<path class="st0" d="M145.9,22.4c-0.1,0-0.1,0-0.2,0l-2.1-0.9l-2-0.5l-1.8-0.3l-1.8,0.2l-1.7,0.3l-1.4,0.5l-0.5,0.3
			c-0.2,0.2-0.5,0.1-0.7-0.1c-0.2-0.2-0.1-0.5,0.1-0.7l0.5-0.3c0,0,0.1,0,0.1-0.1l1.6-0.5l1.8-0.4l2-0.2c0,0,0.1,0,0.1,0l1.9,0.3
			l2.1,0.5l2.2,0.9c0.3,0.1,0.4,0.4,0.3,0.7C146.3,22.3,146.1,22.4,145.9,22.4z"/>
	</g>
	<g>
		<path class="st0" d="M146.4,23.3c-0.3,0-0.5-0.2-0.5-0.5v-0.2c0-0.3,0.2-0.5,0.5-0.5s0.5,0.2,0.5,0.5v0.2
			C146.9,23.1,146.7,23.3,146.4,23.3z"/>
	</g>
	<g>
		<path class="st0" d="M49.9,47.3c0,0-0.1,0-0.1,0c-0.3-0.1-0.4-0.4-0.3-0.6l1.7-5.9l2.5-5.1c0.1-0.2,0.4-0.4,0.7-0.2
			c0.2,0.1,0.4,0.4,0.2,0.7l-2.4,5L50.4,47C50.3,47.2,50.1,47.3,49.9,47.3z"/>
	</g>
	<g>
		<path class="st0" d="M46.8,22.6c-0.1,0-0.2,0-0.2-0.1l-1.4-0.7l-1.4-0.5h-1.1l-1.1,0.2l-1.2,0.3c-0.3,0.1-0.5-0.1-0.6-0.3
			c-0.1-0.3,0.1-0.5,0.3-0.6l1.2-0.3l1.3-0.2l1.3,0c0.1,0,0.1,0,0.2,0l1.6,0.5l1.5,0.7c0.2,0.1,0.3,0.4,0.2,0.7
			C47.1,22.5,47,22.6,46.8,22.6z"/>
	</g>
	<g>
		<path class="st0" d="M45.4,31.7h-0.2c-0.1,0-0.2,0-0.3-0.1l-0.9-0.5C44,31,44,31,43.9,31l-0.7-0.9l-0.6-0.9l-0.5-1.1
			c0,0,0-0.1,0-0.1l-0.2-0.9l0-1.1c0-0.3,0.2-0.5,0.5-0.5s0.5,0.2,0.5,0.5v1l0.1,0.7l0.5,1l0.5,0.8l0.6,0.7l0.7,0.4
			c0.3,0,0.5,0.2,0.5,0.5S45.7,31.7,45.4,31.7z"/>
	</g>
	<g>
		<path class="st0" d="M142.3,25.9c-0.2,0-0.3-0.1-0.4-0.2c-0.1-0.2-0.1-0.5,0.2-0.7l4.7-2.8c0.2-0.1,0.5-0.1,0.7,0.2
			c0.1,0.2,0.1,0.5-0.2,0.7l-4.7,2.8C142.4,25.9,142.4,25.9,142.3,25.9z"/>
	</g>
	<g>
		<path class="st0" d="M146.1,22.6c-0.1,0-0.3,0-0.4-0.1l-0.2-0.2c-0.2-0.2-0.2-0.5,0-0.7c0.2-0.2,0.5-0.2,0.7,0l0.2,0.2
			c0.2,0.2,0.2,0.5,0,0.7C146.4,22.6,146.2,22.6,146.1,22.6z"/>
	</g>
	<g>
		<path class="st0" d="M146.4,23.3c-0.2,0-0.3-0.1-0.4-0.2l-0.3-0.5c-0.2-0.2-0.1-0.5,0.1-0.7c0.2-0.2,0.5-0.1,0.7,0.1l0.3,0.5
			c0.2,0.2,0.1,0.5-0.1,0.7C146.6,23.3,146.5,23.3,146.4,23.3z"/>
	</g>
	<g>
		<path class="st0" d="M145.2,24c-0.2,0-0.3-0.1-0.4-0.2l-0.5-0.9c-0.1-0.2-0.1-0.5,0.2-0.7c0.2-0.1,0.5-0.1,0.7,0.2l0.5,0.9
			c0.1,0.2,0.1,0.5-0.2,0.7C145.4,24,145.3,24,145.2,24z"/>
	</g>
	<g>
		<path class="st0" d="M144,24.7h-0.2c-0.2,0-0.4-0.1-0.5-0.3l-0.3-0.9c-0.1-0.3,0-0.5,0.3-0.6c0.3-0.1,0.5,0,0.6,0.3l0.2,0.6
			c0.2,0.1,0.3,0.3,0.3,0.5C144.5,24.5,144.3,24.7,144,24.7z"/>
	</g>
	<g>
		<path class="st0" d="M142.8,25.4h-0.2c-0.2,0-0.4-0.1-0.5-0.3l-0.3-0.9c-0.1-0.3,0-0.5,0.3-0.6c0.3-0.1,0.5,0,0.6,0.3l0.2,0.6
			c0.2,0.1,0.3,0.3,0.3,0.5C143.3,25.2,143.1,25.4,142.8,25.4z"/>
	</g>
	<g>
		<path class="st0" d="M49.9,48c-0.3,0-0.5-0.2-0.5-0.5v-0.7c0-0.3,0.2-0.5,0.5-0.5s0.5,0.2,0.5,0.5v0.7C50.4,47.8,50.2,48,49.9,48z
			"/>
	</g>
</g>
</svg>
