<?xml version="1.0" encoding="utf-8"?>
<!-- Generator: Adobe Illustrator 16.0.4, SVG Export Plug-In . SVG Version: 6.00 Build 0)  -->
<!DOCTYPE svg PUBLIC "-//W3C//DTD SVG 1.1//EN" "http://www.w3.org/Graphics/SVG/1.1/DTD/svg11.dtd">
<svg version="1.1" id="D2S-O" xmlns="http://www.w3.org/2000/svg" xmlns:xlink="http://www.w3.org/1999/xlink" x="0px" y="0px"
	 width="194.4px" height="165.6px" viewBox="0 0 194.4 165.6" style="enable-background:new 0 0 194.4 165.6;" xml:space="preserve"
	>
<style type="text/css">
<![CDATA[
	.st0{fill:none;stroke:#FFFFFF;stroke-linecap:round;stroke-linejoin:round;stroke-miterlimit:10;}
	.st1{fill:#FFFFFF;}
]]>
</style>
<g>
	<g>
		<path class="st1" d="M127.6,111.5c-0.1,0-0.2,0-0.2-0.1c-0.2-0.1-0.3-0.4-0.2-0.7l0.1-0.1c0-0.1,0.1-0.1,0.2-0.2l0.4-0.3
			c0.1-0.1,0.2-0.1,0.3-0.1h0.6c0,0,0.1,0,0.1,0l0.1,0c0.3,0.1,0.4,0.3,0.4,0.6c-0.1,0.3-0.3,0.4-0.6,0.4l-0.1,0h-0.4l-0.2,0.2
			C127.9,111.4,127.8,111.5,127.6,111.5z"/>
	</g>
	<g>
		<path class="st1" d="M153.3,3.2c-0.2,0-0.4-0.1-0.5-0.3c-0.1-0.3,0-0.5,0.3-0.6c0.1-0.1,0.2-0.1,0.3-0.1l0,0c0.2,0,0.3,0,0.4,0.1
			c0.2,0.2,0.2,0.5,0,0.7C153.8,3,153.8,3,153.7,3c0,0-0.1,0.1-0.2,0.1l-0.1,0C153.4,3.2,153.3,3.2,153.3,3.2z"/>
	</g>
	<g>
		<path class="st0" d="M188.8,67.4"/>
	</g>
	<g>
		<path class="st1" d="M190.8,65.6c-0.1,0-0.3,0-0.4-0.1c-0.2-0.2-0.2-0.5,0-0.7l0.1-0.1c0,0,0.1-0.1,0.1-0.1c0,0,0.1,0,0.1-0.1
			c0.3-0.2,0.8,0,0.8,0.4v0c0,0.2-0.2,0.4-0.4,0.5l0,0C191.1,65.6,191,65.6,190.8,65.6z"/>
	</g>
	<g>
		<path class="st1" d="M190.8,66.5c-0.1,0-0.2,0-0.3-0.1c-0.2-0.2-0.2-0.5,0-0.7c0.2-0.2,0.5-0.2,0.7,0c0.2,0.2,0.2,0.5,0,0.7l0,0
			C191.1,66.5,191,66.5,190.8,66.5z"/>
	</g>
	<g>
		<path class="st1" d="M181.5,67.7c-0.1,0-0.3,0-0.3-0.1c-0.2-0.2-0.2-0.5,0-0.7l0,0c0.1-0.1,0.1-0.1,0.2-0.1c0.1-0.1,0.3-0.1,0.4,0
			c0.2,0.1,0.4,0.4,0.2,0.6c-0.1,0.1-0.2,0.3-0.4,0.3C181.6,67.7,181.5,67.7,181.5,67.7z"/>
	</g>
	<g>
		<path class="st1" d="M153.3,3.2c-0.2,0-0.3-0.1-0.4-0.2l-0.2-0.2c-0.2,0-0.4-0.1-0.5-0.3C152,2.3,152,2,152.3,1.9
			c0.1,0,0.2-0.1,0.3-0.1h0.1c0.1,0,0.2,0,0.2,0l0.1,0c0,0,0.1,0,0.1,0.1l0.4,0.3c0,0,0,0.1,0.1,0.1l0.1,0.1
			c0.2,0.2,0.1,0.5-0.1,0.7C153.4,3.2,153.3,3.2,153.3,3.2z"/>
	</g>
	<g>
		<path class="st1" d="M146.9,9.9c-0.2,0-0.4-0.2-0.5-0.4l-0.2-0.8l-0.1-0.8c0,0,0-0.1,0-0.1l0-0.7c0,0,0-0.1,0-0.1l0.2-0.6l0.3-0.7
			c0,0,0-0.1,0.1-0.1l0.4-0.5l0.4-0.4c0.2-0.2,0.5-0.2,0.7,0c0.2,0.2,0.2,0.5,0,0.7l-0.4,0.3l-0.3,0.4l-0.3,0.5l-0.1,0.5l0,0.6
			l0.1,0.7l0.2,0.8c0.1,0.3-0.1,0.5-0.4,0.6C147,9.9,147,9.9,146.9,9.9z"/>
	</g>
	<g>
		<path class="st1" d="M147.6,10.1c-0.2,0-0.3-0.1-0.4-0.2c-0.2-0.2-0.1-0.5,0.1-0.7l1.6-1.1c0.2-0.2,0.5-0.1,0.7,0.1
			c0.2,0.2,0.1,0.5-0.1,0.7l-1.6,1.1C147.8,10.1,147.7,10.1,147.6,10.1z"/>
	</g>
	<g>
		<path class="st1" d="M150.8,4.6c-0.2,0-0.3-0.1-0.4-0.2l-0.2-0.2c-0.2,0-0.4-0.1-0.5-0.3c-0.1-0.2-0.1-0.5,0.2-0.7l0.1,0
			c0.1,0,0.1-0.1,0.2-0.1h0.1c0.1,0,0.2,0,0.2,0l0.1,0c0,0,0.1,0,0.1,0.1l0.1,0.1c0,0,0.1,0,0.1,0.1l0.2,0.2c0,0,0,0,0.1,0.1
			l0.1,0.1c0.2,0.2,0.1,0.5-0.1,0.7C151,4.6,150.9,4.6,150.8,4.6z"/>
	</g>
	<g>
		<path class="st1" d="M149.3,9.1c-0.2,0-0.4-0.1-0.4-0.3l-0.3-0.6l-0.2-0.8l-0.1-0.8l0-0.8l0.2-0.7c0,0,0-0.1,0-0.1l0.3-0.6
			c0,0,0-0.1,0.1-0.1l0.4-0.5l0.4-0.4c0.2-0.2,0.5-0.1,0.7,0.1c0.2,0.2,0.1,0.5-0.1,0.7l-0.4,0.3l-0.3,0.4l-0.2,0.5l-0.1,0.6l0,0.6
			l0.1,0.6l0.2,0.6l0.3,0.6c0.1,0.2,0,0.5-0.2,0.7C149.4,9,149.3,9.1,149.3,9.1z"/>
	</g>
	<g>
		<path class="st1" d="M149.8,9.9c-0.2,0-0.3-0.1-0.4-0.2l-0.5-0.8c-0.1-0.2-0.1-0.5,0.2-0.7c0.2-0.1,0.5-0.1,0.7,0.2l0.5,0.8
			c0.1,0.2,0.1,0.5-0.2,0.7C149.9,9.8,149.9,9.9,149.8,9.9z"/>
	</g>
	<g>
		<path class="st1" d="M156.4,8.5c-0.2,0-0.3-0.1-0.4-0.2L152.8,3c-0.1-0.2-0.1-0.5,0.2-0.7c0.2-0.1,0.5-0.1,0.7,0.2l3.2,5.3
			c0.1,0.2,0.1,0.5-0.2,0.7C156.6,8.5,156.5,8.5,156.4,8.5z"/>
	</g>
	<g>
		<path class="st1" d="M181.6,67.6c-0.2,0-0.3-0.1-0.4-0.2l-0.6-0.9c-0.1-0.2-0.1-0.5,0.2-0.7c0.2-0.1,0.5-0.1,0.7,0.2l0.6,0.9
			c0.1,0.2,0.1,0.5-0.2,0.7C181.8,67.6,181.7,67.6,181.6,67.6z"/>
	</g>
	<g>
		<path class="st1" d="M183.7,66.2c-0.2,0-0.3-0.1-0.4-0.2l-0.5-0.8c-0.1-0.2-0.1-0.5,0.2-0.7c0.2-0.1,0.5-0.1,0.7,0.2l0.5,0.8
			c0.1,0.2,0.1,0.5-0.2,0.7C183.9,66.2,183.8,66.2,183.7,66.2z"/>
	</g>
	<g>
		<path class="st1" d="M190.8,65.6c-0.2,0-0.3-0.1-0.4-0.2l-3.5-5.8c-0.1-0.2-0.1-0.5,0.2-0.7c0.2-0.1,0.5-0.1,0.7,0.2l3.5,5.8
			c0.1,0.2,0.1,0.5-0.2,0.7C191,65.6,190.9,65.6,190.8,65.6z"/>
	</g>
	<g>
		<path class="st1" d="M146.8,25.8c-0.2,0-0.4-0.1-0.4-0.3l-0.5-0.9c-0.1-0.2-0.1-0.5,0.2-0.7c0.2-0.1,0.5-0.1,0.7,0.2l0.5,0.9
			c0,0,0,0.1,0.1,0.1c0.1,0.2,0,0.5-0.2,0.7C146.9,25.8,146.9,25.8,146.8,25.8z"/>
	</g>
	<g>
		<path class="st1" d="M148,25.1c-0.2,0-0.4-0.1-0.5-0.3l0-0.1l-0.5-0.8c-0.1-0.2-0.1-0.5,0.2-0.7c0.2-0.1,0.5-0.1,0.7,0.2l0.5,0.9
			c0,0,0,0.1,0,0.1l0,0.1c0.1,0.3-0.1,0.5-0.3,0.6C148.1,25.1,148.1,25.1,148,25.1z"/>
	</g>
	<g>
		<path class="st1" d="M149.2,24.4c-0.2,0-0.4-0.1-0.4-0.3l-0.5-0.9c-0.1-0.2-0.1-0.5,0.2-0.7c0.2-0.1,0.5-0.1,0.7,0.2l0.5,0.9
			c0,0,0,0.1,0.1,0.1c0.1,0.2,0,0.5-0.2,0.7C149.4,24.4,149.3,24.4,149.2,24.4z"/>
	</g>
	<g>
		<path class="st1" d="M150.4,23.7c-0.2,0-0.3-0.1-0.4-0.2l-0.3-0.6c-0.1-0.2-0.1-0.5,0.2-0.7c0.2-0.1,0.5-0.1,0.7,0.2l0.3,0.5
			c0.2,0.2,0.1,0.5-0.1,0.7C150.6,23.7,150.5,23.7,150.4,23.7z"/>
	</g>
	<g>
		<path class="st1" d="M150,23c-0.2,0-0.4-0.1-0.5-0.3l-0.1-0.2c-0.1-0.3,0-0.5,0.3-0.7c0.3-0.1,0.5,0,0.7,0.3l0.1,0.2
			c0.1,0.3,0,0.5-0.3,0.7C150.2,23,150.1,23,150,23z"/>
	</g>
	<g>
		<path class="st1" d="M146.3,26.2c-0.2,0-0.3-0.1-0.4-0.2c-0.1-0.2-0.1-0.5,0.2-0.7l4.6-2.7c0.2-0.1,0.5-0.1,0.7,0.2
			c0.1,0.2,0.1,0.5-0.2,0.7l-4.6,2.7C146.5,26.2,146.4,26.2,146.3,26.2z"/>
	</g>
	<g>
		<path class="st1" d="M50.1,32c-0.1,0-0.2,0-0.2-0.1l-0.2-0.1l-0.8-0.5c0,0-0.1,0-0.1-0.1l-0.7-0.8l-0.7-1l-0.5-1.1l-0.2-1.1
			c0,0,0-0.1,0-0.1v-0.9c0-0.3,0.2-0.5,0.5-0.5s0.5,0.2,0.5,0.5v0.8l0.2,0.9l0.4,0.9l0.6,0.8l0.6,0.7l0.9,0.6
			c0.2,0.1,0.3,0.4,0.2,0.7C50.5,31.9,50.3,32,50.1,32z"/>
	</g>
	<g>
		<path class="st1" d="M51.5,22.9c-0.1,0-0.1,0-0.2-0.1l-1.4-0.7l-1.3-0.4l-1.3-0.1l-1.1,0.1l-1,0.4c-0.3,0.1-0.5,0-0.7-0.3
			c-0.1-0.3,0-0.5,0.3-0.7l1.1-0.5c0,0,0.1,0,0.1,0l1.2-0.1l1.5,0.1c0,0,0.1,0,0.1,0l1.4,0.4l1.5,0.7c0.2,0.1,0.4,0.4,0.2,0.7
			C51.9,22.8,51.7,22.9,51.5,22.9z"/>
	</g>
	<g>
		<path class="st1" d="M55.1,46c0,0-0.1,0-0.1,0c-0.3-0.1-0.4-0.4-0.3-0.6l1.2-4.3l2.4-5.1c0.1-0.2,0.4-0.4,0.7-0.2
			c0.2,0.1,0.4,0.4,0.2,0.7l-2.4,5.1l-1.2,4.2C55.5,45.9,55.3,46,55.1,46z"/>
	</g>
	<g>
		<path class="st1" d="M150.4,23.7C150.4,23.7,150.4,23.7,150.4,23.7c-0.4-0.1-0.5-0.3-0.5-0.6l0-0.2c0,0,0-0.1,0-0.1l0.1-0.1
			c0.1-0.2,0.4-0.3,0.7-0.2c0.2,0.1,0.3,0.4,0.2,0.7l-0.1,0.2C150.9,23.6,150.7,23.7,150.4,23.7z"/>
	</g>
	<g>
		<path class="st1" d="M149.9,22.8c-0.1,0-0.1,0-0.2,0l-2.1-0.8l-2-0.5l-1.9-0.2l-1.8,0l-1.6,0.3l-1.5,0.6l-0.4,0.2
			c-0.2,0.1-0.5,0-0.7-0.2s0-0.5,0.2-0.7l0.5-0.3l1.7-0.6l1.8-0.4l2,0l2,0.3l2.1,0.5l2.1,0.8c0.3,0.1,0.4,0.4,0.3,0.6
			C150.3,22.6,150.1,22.8,149.9,22.8z"/>
	</g>
	<g>
		<path class="st1" d="M165.5,69.7c-0.2,0-0.3-0.1-0.4-0.2c-0.1-0.2-0.1-0.5,0.1-0.7l1.1-0.7l1.2-1.1l1-1.4l0.8-1.6l0.6-1.8l0.5-2.1
			l0.2-2.2l0-2.4l-0.2-2.5l-0.5-2.6l-0.7-2.7l-0.9-2.7l-1.1-2.7l-1.2-2.6l-1.4-2.5l-1.6-2.5l-1.7-2.4l-1.8-2.2l-1.9-2l-2-1.8
			l-2.1-1.5c-0.2-0.2-0.3-0.5-0.1-0.7c0.2-0.2,0.5-0.3,0.7-0.1l2.1,1.5l2,1.8l2,2l1.9,2.2l1.8,2.4l1.6,2.5l1.5,2.6l1.3,2.7l1.1,2.7
			l0.9,2.7l0.7,2.7l0.5,2.7l0.3,2.6l0,2.5l-0.2,2.3l-0.5,2.2l-0.7,2l-0.9,1.8l-1.1,1.5l-1.3,1.3l-1.2,0.8
			C165.7,69.7,165.6,69.7,165.5,69.7z"/>
	</g>
	<g>
		<path class="st1" d="M153.6,25.1c-0.2,0-0.4-0.1-0.4-0.3c-0.1-0.2,0-0.5,0.2-0.7l0.1-0.1c0.2-0.1,0.5,0,0.7,0.2
			c0.1,0.2,0,0.5-0.2,0.7l-0.1,0.1C153.8,25.1,153.7,25.1,153.6,25.1z"/>
	</g>
	<g>
		<path class="st1" d="M149.8,22.8c-0.2,0-0.4-0.1-0.4-0.3c-0.1-0.2,0-0.5,0.2-0.7l0.1-0.1c0.2-0.1,0.5,0,0.7,0.2
			c0.1,0.2,0,0.5-0.2,0.7l-0.1,0.1C149.9,22.8,149.8,22.8,149.8,22.8z"/>
	</g>
	<g>
		<path class="st1" d="M149.8,22.8c-0.1,0-0.1,0-0.2,0l-2.1-0.8l-2-0.5l-1.9-0.2l-1.8,0l-1.6,0.3l-1.5,0.6l-0.9,0.5
			c-0.2,0.1-0.5,0.1-0.7-0.2c-0.1-0.2-0.1-0.5,0.2-0.7l1-0.6l1.7-0.6l1.8-0.4l2,0l2,0.3l2.1,0.6l2.1,0.8c0.3,0.1,0.4,0.4,0.3,0.6
			C150.2,22.7,150,22.8,149.8,22.8z"/>
	</g>
	<g>
		<path class="st1" d="M164.8,70.1c-0.2,0-0.4-0.1-0.4-0.3c-0.1-0.2,0-0.5,0.2-0.7l0.2-0.1l1.4-0.9l1.2-1.1l1-1.4l0.8-1.6l0.7-1.8
			l0.4-2.1l0.2-2.2l0-2.4l-0.2-2.5l-0.4-2.6l-0.7-2.7l-0.9-2.7l-1.1-2.7l-1.3-2.6l-1.4-2.6l-1.6-2.5l-1.7-2.4l-1.8-2.2l-1.9-2
			l-2-1.8l-2.1-1.6c-0.2-0.2-0.3-0.5-0.1-0.7c0.2-0.2,0.5-0.3,0.7-0.1l2.1,1.6l2,1.8l2,2l1.9,2.2l1.8,2.4l1.6,2.5l1.5,2.6l1.3,2.6
			l1.1,2.7l0.9,2.7l0.7,2.7l0.4,2.7l0.3,2.6l0,2.5l-0.2,2.3l-0.4,2.2l-0.7,2l-0.9,1.8l-1.1,1.5l-1.3,1.3L165,70
			C165,70.1,164.9,70.1,164.8,70.1z"/>
	</g>
	<g>
		<path class="st1" d="M153.3,26.3c-0.1,0-0.1,0-0.2,0c-0.3-0.1-0.4-0.4-0.3-0.6l0.4-1.2c0.1-0.3,0.4-0.4,0.6-0.3
			c0.3,0.1,0.4,0.4,0.3,0.6l-0.4,1.2C153.7,26.2,153.5,26.3,153.3,26.3z"/>
	</g>
	<g>
		<path class="st1" d="M149.2,24.4c0,0-0.1,0-0.1,0c-0.3-0.1-0.4-0.3-0.4-0.6l0-0.1l0.5-1.5c0.1-0.3,0.4-0.4,0.6-0.3
			c0.3,0.1,0.4,0.4,0.3,0.6l-0.5,1.5C149.7,24.3,149.4,24.4,149.2,24.4z"/>
	</g>
	<g>
		<path class="st1" d="M148.7,23.5c-0.1,0-0.1,0-0.2,0l-2.1-0.8l-2-0.5l-1.9-0.2l-1.8,0.1l-1.7,0.3l-1.9,0.8c-0.2,0.1-0.5,0-0.7-0.2
			s0-0.5,0.2-0.7l0.4-0.2l1.7-0.7l1.8-0.4l1.9-0.1l2,0.3l2.1,0.6l2.1,0.8c0.3,0.1,0.4,0.4,0.3,0.6C149.1,23.4,148.9,23.5,148.7,23.5
			z"/>
	</g>
	<g>
		<path class="st1" d="M164.3,70.4c-0.2,0-0.3-0.1-0.4-0.2c-0.2-0.2-0.1-0.5,0.1-0.7l1.1-0.8l1.2-1.1l1-1.4l0.8-1.6l0.7-1.9l0.4-2
			l0.2-2.2l0-2.4l-0.2-2.5l-0.4-2.6l-0.7-2.6l-0.9-2.7l-1.1-2.7l-1.3-2.6l-1.4-2.6l-1.6-2.5l-1.7-2.3l-1.8-2.2l-1.9-2l-2-1.8
			l-2.1-1.6c-0.2-0.2-0.3-0.5-0.1-0.7c0.2-0.2,0.5-0.3,0.7-0.1l2.1,1.6l2,1.8l2,2l1.9,2.2l1.7,2.4l1.6,2.5l1.5,2.6l1.3,2.7l1.1,2.7
			l0.9,2.7l0.7,2.7l0.4,2.7l0.3,2.6l0,2.5l-0.2,2.3l-0.4,2.1l-0.7,2l-0.9,1.8l-1.1,1.5l-1.3,1.2l-1.2,0.8
			C164.5,70.4,164.4,70.4,164.3,70.4z"/>
	</g>
	<g>
		<path class="st1" d="M152.4,25.8c-0.2,0-0.4-0.1-0.4-0.3c-0.1-0.2,0-0.5,0.2-0.7l0.1-0.1c0.2-0.1,0.5,0,0.7,0.2
			c0.1,0.2,0,0.5-0.2,0.7l-0.1,0.1C152.6,25.8,152.5,25.8,152.4,25.8z"/>
	</g>
	<g>
		<path class="st1" d="M148.5,23.6c-0.2,0-0.4-0.1-0.4-0.3c-0.1-0.2,0-0.5,0.2-0.7l0.1-0.1c0.2-0.1,0.5,0,0.7,0.2
			c0.1,0.2,0,0.5-0.2,0.7l-0.1,0.1C148.7,23.5,148.6,23.6,148.5,23.6z"/>
	</g>
	<g>
		<path class="st1" d="M148.5,23.6c-0.1,0-0.1,0-0.2,0l-2.1-0.8l-2-0.5l-1.9-0.2l-1.8,0.1l-1.7,0.3l-1.5,0.6l-0.4,0.2
			c-0.2,0.1-0.5,0.1-0.7-0.2c-0.1-0.2-0.1-0.5,0.2-0.7L137,22l1.7-0.7l1.8-0.4l1.9-0.1l2,0.3l2.1,0.6l2.1,0.8
			c0.3,0.1,0.4,0.4,0.3,0.7C148.9,23.4,148.7,23.6,148.5,23.6z"/>
	</g>
	<g>
		<path class="st1" d="M164.2,70.5c-0.2,0-0.3-0.1-0.4-0.2c-0.2-0.2-0.1-0.5,0.1-0.7l1.1-0.7l1.2-1.2l1-1.4l0.8-1.6l0.7-1.8l0.4-2.1
			l0.2-2.2l0-2.4l-0.2-2.5l-0.5-2.6l-0.7-2.7l-0.9-2.7l-1.1-2.7l-1.3-2.6l-1.4-2.6l-1.6-2.5l-1.7-2.3l-1.8-2.2l-1.9-2l-2-1.8
			l-2.1-1.6c-0.2-0.2-0.3-0.5-0.1-0.7c0.2-0.2,0.5-0.3,0.7-0.1l2.1,1.6l2,1.8l2,2l1.9,2.2l1.7,2.4l1.6,2.5l1.5,2.6l1.3,2.7l1.1,2.7
			l0.9,2.7l0.7,2.7l0.5,2.7l0.2,2.6l0,2.5l-0.2,2.3l-0.4,2.2l-0.7,2l-0.9,1.7l-1.1,1.5l-1.3,1.3l-1.2,0.8
			C164.3,70.5,164.2,70.5,164.2,70.5z"/>
	</g>
	<g>
		<path class="st1" d="M152,27c-0.1,0-0.1,0-0.2,0c-0.3-0.1-0.4-0.4-0.3-0.6l0.4-1.2c0.1-0.3,0.4-0.4,0.6-0.3
			c0.3,0.1,0.4,0.4,0.3,0.6l-0.4,1.2C152.4,26.8,152.2,27,152,27z"/>
	</g>
	<g>
		<path class="st1" d="M148,25.1c-0.1,0-0.1,0-0.2,0c-0.3-0.1-0.4-0.4-0.3-0.6l0.1-0.2l0.5-1.4c0.1-0.3,0.4-0.4,0.6-0.3
			c0.3,0.1,0.4,0.4,0.3,0.6l-0.5,1.6C148.4,25,148.2,25.1,148,25.1z"/>
	</g>
	<g>
		<path class="st1" d="M147.5,24.2c-0.1,0-0.1,0-0.2,0l-2.1-0.8l-2-0.5l-1.9-0.2l-1.8,0l-2.1,0.5c-0.3,0.1-0.5-0.1-0.6-0.3
			c-0.1-0.3,0.1-0.5,0.3-0.6l0.5-0.1l1.8-0.4l2,0l2,0.3l2.1,0.6l2.1,0.8c0.3,0.1,0.4,0.4,0.3,0.6C147.9,24,147.7,24.2,147.5,24.2z"
			/>
	</g>
	<g>
		<path class="st1" d="M164.3,70.3c-0.1,0-0.3-0.1-0.4-0.2c-0.2-0.2-0.2-0.5,0-0.7l1.2-1.1l1-1.4l0.8-1.6l0.7-1.8l0.4-2.1l0.2-2.2
			l0-2.4l-0.2-2.5l-0.4-2.6l-0.7-2.7l-0.9-2.7l-1.1-2.7l-1.3-2.6l-1.4-2.5l-1.6-2.5l-1.7-2.4l-1.8-2.2l-1.9-2l-2-1.8l-2.1-1.5
			c-0.2-0.2-0.3-0.5-0.1-0.7c0.2-0.2,0.5-0.3,0.7-0.1l2.1,1.5l2,1.8l2,2l1.9,2.2l1.8,2.4l1.6,2.5l1.5,2.6l1.3,2.7l1.1,2.7l0.9,2.7
			l0.7,2.7l0.4,2.7l0.3,2.5l0,2.5l-0.2,2.3l-0.4,2.2l-0.7,2l-0.9,1.8l-1.1,1.5l-1.2,1.1C164.5,70.2,164.4,70.3,164.3,70.3z"/>
	</g>
	<g>
		<path class="st1" d="M151.2,26.5c-0.2,0-0.3-0.1-0.4-0.2c-0.2-0.2-0.1-0.5,0.1-0.7l0.1-0.1c0.2-0.2,0.5-0.1,0.7,0.1
			c0.2,0.2,0.1,0.5-0.1,0.7l-0.1,0.1C151.4,26.5,151.3,26.5,151.2,26.5z"/>
	</g>
	<g>
		<path class="st1" d="M147.3,24.3c-0.2,0-0.3-0.1-0.4-0.2c-0.2-0.2-0.1-0.5,0.1-0.7l0.1-0.1c0.2-0.2,0.5-0.1,0.7,0.1
			c0.2,0.2,0.1,0.5-0.1,0.7l-0.1,0.1C147.5,24.2,147.4,24.3,147.3,24.3z"/>
	</g>
	<g>
		<path class="st1" d="M147.3,24.3c-0.1,0-0.1,0-0.2,0l-2.1-0.8l-2-0.5l-1.9-0.2l-1.8,0l-1.9,0.4c-0.3,0.1-0.5-0.1-0.6-0.3
			c-0.1-0.3,0.1-0.5,0.3-0.6l0.3-0.1l1.8-0.4l1.9,0l2.1,0.3l2.1,0.6l2.1,0.8c0.3,0.1,0.4,0.4,0.3,0.7
			C147.7,24.2,147.5,24.3,147.3,24.3z"/>
	</g>
	<g>
		<path class="st1" d="M164.3,70.3c-0.1,0-0.3,0-0.4-0.1c-0.2-0.2-0.2-0.5,0-0.7l1-1l1-1.4l0.9-1.6l0.6-1.8l0.4-2.1l0.2-2.2l0-2.4
			l-0.2-2.5l-0.5-2.6l-0.7-2.6l-0.9-2.7l-1.1-2.7l-1.2-2.6l-1.5-2.6l-1.6-2.5l-1.7-2.3l-1.8-2.2l-1.9-1.9l-2-1.8l-2-1.6
			c-0.2-0.2-0.3-0.5-0.1-0.7s0.5-0.3,0.7-0.1l2,1.6l2,1.8l2,2l1.9,2.2l1.8,2.4l1.6,2.5l1.5,2.6l1.3,2.7l1.1,2.7l0.9,2.8l0.7,2.7
			l0.5,2.7l0.2,2.6l0,2.5l-0.2,2.3l-0.4,2.2l-0.7,2l-0.9,1.8l-1.1,1.5l-1.1,1.1C164.5,70.2,164.4,70.3,164.3,70.3z"/>
	</g>
	<g>
		<path class="st1" d="M150.8,27.7c-0.1,0-0.1,0-0.2,0c-0.3-0.1-0.4-0.4-0.3-0.6l0.4-1.2c0.1-0.3,0.4-0.4,0.6-0.3
			c0.3,0.1,0.4,0.4,0.3,0.6l-0.4,1.2C151.2,27.6,151,27.7,150.8,27.7z"/>
	</g>
	<g>
		<path class="st1" d="M146.8,25.8c-0.1,0-0.2,0-0.2-0.1c-0.2-0.1-0.3-0.4-0.2-0.7l0.1-0.1l0.4-1.3c0.1-0.3,0.4-0.4,0.6-0.3
			c0.3,0.1,0.4,0.4,0.3,0.6l-0.6,1.6C147.1,25.7,147,25.8,146.8,25.8z"/>
	</g>
	<g>
		<path class="st1" d="M62.2,29.1c-0.1,0-0.2,0-0.2-0.1l-10.7-6.2c-0.2-0.1-0.3-0.4-0.2-0.7c0.1-0.2,0.4-0.3,0.7-0.2l10.7,6.2
			c0.2,0.1,0.3,0.4,0.2,0.7C62.6,29,62.4,29.1,62.2,29.1z"/>
	</g>
	<g>
		<path class="st1" d="M49.3,24.2c-0.2,0-0.3-0.1-0.4-0.2c-0.1-0.2-0.1-0.5,0.2-0.7l2.2-1.3c0.2-0.1,0.5-0.1,0.7,0.2
			c0.1,0.2,0.1,0.5-0.2,0.7l-2.2,1.3C49.5,24.2,49.4,24.2,49.3,24.2z"/>
	</g>
	<g>
		<path class="st1" d="M146.2,24.9c-0.1,0-0.1,0-0.2,0L144,24l-2-0.5l-1.9-0.2l-1.9,0.1c-0.3,0-0.5-0.2-0.5-0.5s0.2-0.5,0.5-0.5h0.2
			l1.8-0.1l2,0.3l2.1,0.6l2.1,0.8c0.3,0.1,0.4,0.4,0.3,0.7C146.6,24.8,146.4,24.9,146.2,24.9z"/>
	</g>
	<g>
		<path class="st1" d="M164.6,69.4c-0.1,0-0.2,0-0.3-0.1c-0.2-0.2-0.3-0.5-0.1-0.7l0.7-1l0.9-1.6l0.6-1.9l0.4-2l0.2-2.2l0-2.4
			l-0.2-2.5l-0.5-2.6l-0.7-2.6l-0.9-2.7l-1.1-2.7l-1.2-2.6l-1.5-2.6l-1.6-2.5l-1.7-2.3l-1.8-2.2l-2-2l-2-1.8l-2-1.6
			c-0.2-0.2-0.3-0.5-0.1-0.7c0.2-0.2,0.5-0.3,0.7-0.1l2.1,1.6l2,1.8l2,2l1.9,2.2l1.8,2.4l1.6,2.5l1.5,2.6l1.3,2.7l1.1,2.7l0.9,2.7
			l0.7,2.7l0.5,2.7l0.2,2.6l0,2.5l-0.2,2.3l-0.4,2.1l-0.7,2l-0.9,1.8l-0.7,1C164.9,69.3,164.7,69.4,164.6,69.4z"/>
	</g>
	<g>
		<path class="st1" d="M150,27.2c-0.2,0-0.3-0.1-0.4-0.2c-0.2-0.2-0.1-0.5,0.1-0.7l0.1-0.1c0.2-0.2,0.5-0.1,0.7,0.1
			c0.2,0.2,0.1,0.5-0.1,0.7l-0.1,0.1C150.2,27.2,150.1,27.2,150,27.2z"/>
	</g>
	<g>
		<path class="st1" d="M146.1,25c-0.2,0-0.3-0.1-0.4-0.2c-0.2-0.2-0.1-0.5,0.1-0.7L146,24c0.2-0.2,0.5-0.1,0.7,0.1
			c0.2,0.2,0.1,0.5-0.1,0.7l-0.1,0.1C146.3,24.9,146.2,25,146.1,25z"/>
	</g>
	<g>
		<path class="st1" d="M146.1,25c-0.1,0-0.1,0-0.2,0l-2.1-0.8l-2-0.5l-1.9-0.2l-1.6,0c-0.3,0-0.5-0.2-0.5-0.5c0-0.3,0.2-0.5,0.5-0.5
			l1.7,0l2.1,0.3l2.1,0.6l2.1,0.8c0.3,0.1,0.4,0.4,0.3,0.6C146.5,24.8,146.3,25,146.1,25z"/>
	</g>
	<g>
		<path class="st1" d="M164.6,69.3c-0.1,0-0.2,0-0.3-0.1c-0.2-0.2-0.3-0.5-0.1-0.7l0.5-0.8l0.9-1.6l0.6-1.8l0.5-2.1l0.2-2.2l0-2.4
			l-0.2-2.5l-0.5-2.6l-0.7-2.7l-0.9-2.7l-1.1-2.7l-1.2-2.6l-1.5-2.6l-1.6-2.5l-1.7-2.3l-1.8-2.2l-1.9-2l-2-1.8l-2-1.5
			c-0.2-0.2-0.3-0.5-0.1-0.7c0.2-0.2,0.5-0.3,0.7-0.1l2.1,1.5l2.1,1.8l2,2l1.9,2.2l1.8,2.4l1.6,2.5l1.5,2.6l1.3,2.7l1.1,2.7l0.9,2.7
			l0.7,2.7l0.5,2.7l0.2,2.6l0,2.5l-0.2,2.3l-0.5,2.2l-0.7,2l-0.9,1.8L165,69C164.9,69.2,164.8,69.3,164.6,69.3z"/>
	</g>
	<g>
		<path class="st1" d="M149.6,28.3c-0.1,0-0.1,0-0.2,0c-0.3-0.1-0.4-0.4-0.3-0.6l0.4-1.1c0.1-0.3,0.4-0.4,0.6-0.3
			c0.3,0.1,0.4,0.4,0.3,0.6l-0.4,1.1C150,28.2,149.8,28.3,149.6,28.3z"/>
	</g>
	<g>
		<path class="st1" d="M145.8,26c-0.1,0-0.1,0-0.2,0c-0.3-0.1-0.4-0.4-0.3-0.6l0.4-1c0.1-0.3,0.4-0.4,0.6-0.3
			c0.3,0.1,0.4,0.4,0.3,0.6l-0.4,1C146.2,25.8,146,26,145.8,26z"/>
	</g>
	<g>
		<path class="st1" d="M165.3,66.4c0,0-0.1,0-0.1,0c-0.3-0.1-0.4-0.4-0.3-0.6l0.5-1.9l0.3-2.1l0.1-2.3l-0.1-2.4l-0.3-2.5l-0.6-2.6
			l-0.7-2.7l-1-2.7l-1.1-2.6l-1.4-2.6l-1.5-2.5l-1.6-2.4l-1.8-2.2l-1.9-2.1l-2-1.9l-2-1.7l-2-1.5l-2-1.2l-2-0.9l-2-0.7l-0.7-0.1
			c-0.3-0.1-0.4-0.3-0.4-0.6s0.3-0.4,0.6-0.4l0.7,0.1l2.1,0.7l2.1,1l2.1,1.2l2.1,1.5l2.1,1.7l2,1.9l1.9,2.1l1.8,2.3l1.7,2.4l1.5,2.6
			l1.4,2.6l1.2,2.7l1,2.7l0.8,2.7l0.6,2.7l0.3,2.6l0.1,2.5l-0.1,2.4l-0.3,2.2l-0.6,1.9C165.7,66.3,165.5,66.4,165.3,66.4z"/>
	</g>
	<g>
		<path class="st1" d="M58.7,36.6c-0.1,0-0.2,0-0.3-0.1c-0.2-0.2-0.3-0.5-0.1-0.7l0.9-1.3l1-1.2l1.1-1.1l1.2-0.9
			c0.2-0.2,0.5-0.1,0.7,0.1s0.1,0.5-0.1,0.7L62,33l-1,1L60,35.1l-0.9,1.3C59,36.5,58.9,36.6,58.7,36.6z"/>
	</g>
	<g>
		<path class="st1" d="M57.1,37.5c-0.2,0-0.3-0.1-0.4-0.2c-0.1-0.2-0.1-0.5,0.2-0.7l1.6-0.9c0.2-0.1,0.5-0.1,0.7,0.2
			c0.1,0.2,0.1,0.5-0.2,0.7l-1.6,0.9C57.3,37.5,57.2,37.5,57.1,37.5z"/>
	</g>
	<g>
		<path class="st1" d="M142.1,141.3c-0.1,0-0.1,0-0.2,0l-0.2-0.1c0,0-0.1,0-0.1-0.1l-0.8-0.5l-0.8-0.8c0,0,0-0.1-0.1-0.1l-0.6-0.9
			l-0.5-1l-0.2-1.1c0,0,0-0.1,0-0.1v-0.9c0-0.3,0.2-0.5,0.5-0.5s0.5,0.2,0.5,0.5v0.9l0.2,0.9l0.4,0.9l0.5,0.8l0.7,0.7l0.8,0.5
			c0.3,0.1,0.4,0.4,0.3,0.6C142.5,141.1,142.3,141.3,142.1,141.3z"/>
	</g>
	<g>
		<path class="st1" d="M146.9,26.7c-0.1,0-0.1,0-0.2,0l-3.8-1.8c-0.3-0.1-0.4-0.3-0.4-0.6s0.3-0.4,0.6-0.4l0.2,0c0,0,0.1,0,0.1,0
			l3.8,1.8c0.2,0.1,0.4,0.4,0.2,0.7C147.2,26.6,147,26.7,146.9,26.7z"/>
	</g>
	<g>
		<path class="st1" d="M148.1,148.1c-0.2,0-0.3-0.1-0.4-0.2c-0.2-0.2-0.1-0.5,0.1-0.7l1.6-1.1l1.3-1.3l1.2-1.6l0.9-1.8l0.8-2
			l0.6-2.2l0.3-2.4l0.1-2.6c0-0.3,0.2-0.5,0.5-0.5c0.3,0,0.5,0.2,0.5,0.5l-0.1,2.6l-0.4,2.5l-0.6,2.3l-0.8,2.1l-1,1.9l-1.3,1.7
			l-1.4,1.4l-1.7,1.1C148.3,148.1,148.2,148.1,148.1,148.1z"/>
	</g>
	<g>
		<path class="st1" d="M140.2,99.7c-0.1,0-0.2,0-0.2-0.1l-5-2.9c-0.2-0.1-0.3-0.4-0.2-0.7c0.1-0.2,0.4-0.3,0.7-0.2l5,2.9
			c0.2,0.1,0.3,0.4,0.2,0.7C140.5,99.6,140.4,99.7,140.2,99.7z"/>
	</g>
	<g>
		<path class="st1" d="M133.6,97.8c-0.2,0-0.3-0.1-0.4-0.2c-0.1-0.2-0.1-0.5,0.2-0.7l1.6-0.9c0.2-0.1,0.5-0.1,0.7,0.2
			c0.1,0.2,0.1,0.5-0.2,0.7l-1.6,0.9C133.8,97.8,133.7,97.8,133.6,97.8z"/>
	</g>
	<g>
		<path class="st1" d="M165.4,65.3c0,0-0.1,0-0.1,0c-0.3-0.1-0.4-0.4-0.3-0.6l0.3-1l0.4-4.1l-0.4-4.5l-1.1-4.7l-0.3-0.9
			c-0.1-0.3,0-0.5,0.3-0.6c0.3-0.1,0.5,0,0.6,0.3l0.3,0.9l1.1,4.9l0.4,4.6l-0.4,4.2c0,0,0,0.1,0,0.1l-0.3,1.1
			C165.9,65.2,165.7,65.3,165.4,65.3z"/>
	</g>
	<g>
		<path class="st1" d="M164.4,49.8c-0.2,0-0.4-0.1-0.5-0.3l-1.7-4.4l-2.2-4.3l-2.9-4.4l-3.3-3.9l-3.6-3.3l-3.7-2.5
			c-0.2-0.2-0.3-0.5-0.1-0.7c0.2-0.2,0.5-0.3,0.7-0.1l3.8,2.6l3.7,3.4l3.4,4l2.9,4.5l2.2,4.4l1.7,4.4c0.1,0.3,0,0.5-0.3,0.6
			C164.5,49.8,164.4,49.8,164.4,49.8z"/>
	</g>
	<g>
		<path class="st1" d="M98.7,35.5c-0.2,0-0.4-0.1-0.4-0.3c-0.1-0.2,0-0.5,0.2-0.7l7.7-4l7.6-3.1l7.3-2.2l6.8-1.2l6.6-0.3l6.4,0.5
			l6.2,1.5c0.3,0.1,0.4,0.3,0.4,0.6c-0.1,0.3-0.3,0.4-0.6,0.4l-6.1-1.4l-6.2-0.5L128,25l-6.7,1.1l-7.2,2.1l-7.5,3.1l-7.7,4
			C98.9,35.4,98.8,35.5,98.7,35.5z"/>
	</g>
	<g>
		<path class="st1" d="M135.2,71.3c-0.3,0-0.5-0.2-0.5-0.5c0-0.3,0.2-0.5,0.5-0.5l4.4-0.4l4.2-0.3l3.9-0.4l3.5-0.7l3-1.2l2.6-2
			l2.1-2.7l1.7-3.2l1.3-3.4l1.1-3.5l0.9-3.4c0.1-0.3,0.3-0.4,0.6-0.4c0.3,0.1,0.4,0.3,0.4,0.6l-0.9,3.4l-1.1,3.6l-1.4,3.5l-1.7,3.3
			l-2.2,2.8c0,0-0.1,0.1-0.1,0.1l-2.7,2.1c0,0-0.1,0.1-0.1,0.1l-3.1,1.2l-3.6,0.7l-4,0.4l-4.2,0.3L135.2,71.3
			C135.3,71.3,135.2,71.3,135.2,71.3z"/>
	</g>
	<g>
		<path class="st1" d="M155.1,132.7c-0.3,0-0.5-0.2-0.5-0.5V92.9c0-0.3,0.2-0.5,0.5-0.5s0.5,0.2,0.5,0.5v39.3
			C155.6,132.5,155.4,132.7,155.1,132.7z"/>
	</g>
	<g>
		<path class="st1" d="M153,134c-0.2,0-0.3-0.1-0.4-0.2c-0.1-0.2-0.1-0.5,0.2-0.7l2.2-1.3c0.2-0.1,0.5-0.1,0.7,0.2
			c0.1,0.2,0.1,0.5-0.2,0.7l-2.2,1.3C153.1,134,153.1,134,153,134z"/>
	</g>
	<g>
		<path class="st1" d="M145.9,77.5c-0.1,0-0.2,0-0.2-0.1L135,71.2c-0.2-0.1-0.3-0.4-0.2-0.7c0.1-0.2,0.4-0.3,0.7-0.2l10.7,6.2
			c0.2,0.1,0.3,0.4,0.2,0.7C146.3,77.4,146.1,77.5,145.9,77.5z"/>
	</g>
	<g>
		<path class="st1" d="M148.1,88.5c-0.1,0-0.1,0-0.2,0l-0.2-0.1c0,0-0.1,0-0.1-0.1l-0.8-0.5l-0.8-0.8c0,0,0-0.1-0.1-0.1l-0.6-0.9
			l-0.5-1l-0.2-1.1c0,0,0-0.1,0-0.1v-0.9c0-0.3,0.2-0.5,0.5-0.5s0.5,0.2,0.5,0.5v0.9l0.2,0.9l0.4,0.9l0.5,0.8l0.7,0.7l0.8,0.5
			c0.3,0.1,0.4,0.4,0.3,0.6C148.5,88.4,148.3,88.5,148.1,88.5z"/>
	</g>
	<g>
		<path class="st1" d="M135.2,71.3c-0.2,0-0.3-0.1-0.4-0.2l-5.1-7.3l-5.6-6.9l-6.1-6.4l-6.3-5.8l-6.6-5l-6.7-4.3
			c-0.2-0.1-0.3-0.5-0.1-0.7c0.1-0.2,0.5-0.3,0.7-0.1l6.7,4.3l6.6,5.1l6.4,5.8l6.1,6.4l5.7,6.9l5.2,7.4c0.2,0.2,0.1,0.5-0.1,0.7
			C135.4,71.3,135.3,71.3,135.2,71.3z"/>
	</g>
	<g>
		<path class="st1" d="M98.7,35.5c-0.1,0-0.2,0-0.2-0.1L91.8,32l-6.5-2.5l-6.3-1.6l-6-0.6l-5.6,0.4l-5,1.4c-0.3,0.1-0.5-0.1-0.6-0.4
			c-0.1-0.3,0.1-0.5,0.4-0.6l5.1-1.4l5.7-0.4l6.1,0.6l6.5,1.6l6.6,2.5l6.7,3.4c0.2,0.1,0.3,0.4,0.2,0.7
			C99.1,35.4,98.9,35.5,98.7,35.5z"/>
	</g>
	<g>
		<path class="st1" d="M60.1,30.4c-0.2,0-0.3-0.1-0.4-0.2c-0.1-0.2-0.1-0.5,0.2-0.7l2.2-1.3c0.2-0.1,0.5-0.1,0.7,0.2
			c0.1,0.2,0.1,0.5-0.2,0.7l-2.2,1.3C60.2,30.4,60.1,30.4,60.1,30.4z"/>
	</g>
	<g>
		<path class="st1" d="M133,72.5c-0.2,0-0.3-0.1-0.4-0.3c-0.1-0.2-0.1-0.5,0.2-0.7l2.2-1.3c0.2-0.1,0.5-0.1,0.7,0.2
			c0.1,0.2,0.1,0.5-0.2,0.7l-2.2,1.3C133.2,72.5,133.1,72.5,133,72.5z"/>
	</g>
	<g>
		<path class="st1" d="M137.8,98.4c-0.2,0-0.4-0.1-0.5-0.3l-1-2.7l-1.4-2.1l-1.8-1.9l-2.7-1.9l-3.3-1.6l-3.7-1.2l-4-0.9l-5.7-0.7
			l-3.4-0.1c-0.3,0-0.5-0.2-0.5-0.5c0-0.3,0.2-0.5,0.5-0.5l3.5,0.1l5.8,0.7l4.1,0.9l3.8,1.3l3.4,1.7l2.8,2c0,0,0.1,0,0.1,0.1l1.9,2
			l1.5,2.2c0,0,0,0.1,0.1,0.1l1,2.7c0.1,0.3,0,0.5-0.3,0.6C137.9,98.4,137.9,98.4,137.8,98.4z"/>
	</g>
	<g>
		<path class="st1" d="M78.7,31.6C78.7,31.6,78.7,31.6,78.7,31.6l-3-0.1l-6.4-0.2l-3.4,0.1c-0.3,0-0.5-0.2-0.5-0.5
			c0-0.3,0.2-0.5,0.5-0.5l3.5-0.1l9.4,0.4c0.3,0,0.5,0.2,0.5,0.5C79.2,31.4,79,31.6,78.7,31.6z"/>
	</g>
	<g>
		<path class="st1" d="M155.1,93.4c-0.3,0-0.5-0.2-0.5-0.5l-0.1-1.7l-0.4-1.7l-0.5-1.8l-0.7-1.8L152,84l-1.1-1.6l-1.2-1.6l-1.3-1.4
			l-1.4-1.2l-1.4-0.9c-0.2-0.2-0.3-0.5-0.1-0.7c0.2-0.2,0.5-0.3,0.7-0.1l1.4,0.9l1.5,1.3l1.4,1.4l1.3,1.6l1.1,1.7l1,1.9l0.8,1.9
			l0.6,1.9l0.4,1.8l0.1,1.8C155.6,93.1,155.4,93.3,155.1,93.4C155.1,93.4,155.1,93.4,155.1,93.4z"/>
	</g>
	<g>
		<path class="st1" d="M143.8,78.7c-0.2,0-0.3-0.1-0.4-0.3c-0.1-0.2-0.1-0.5,0.2-0.7l2.2-1.2c0.2-0.1,0.5-0.1,0.7,0.2
			c0.1,0.2,0.1,0.5-0.2,0.7l-2.2,1.2C143.9,78.7,143.8,78.7,143.8,78.7z"/>
	</g>
	<g>
		<path class="st1" d="M153,94.6c-0.2,0-0.3-0.1-0.4-0.2c-0.1-0.2-0.1-0.5,0.2-0.7l2.2-1.3c0.2-0.1,0.5-0.1,0.7,0.2
			c0.1,0.2,0.1,0.5-0.2,0.7l-2.2,1.3C153.1,94.6,153.1,94.6,153,94.6z"/>
	</g>
	<g>
		<path class="st1" d="M140.3,101.1c-0.2,0-0.5-0.2-0.5-0.4l-0.3-2.4c0-0.3,0.2-0.5,0.4-0.6c0.3,0,0.5,0.2,0.6,0.4l0.3,2.4
			C140.9,100.8,140.7,101.1,140.3,101.1C140.4,101.1,140.4,101.1,140.3,101.1z"/>
	</g>
	<g>
		<path class="st1" d="M139.7,101.3c-0.1,0-0.2,0-0.3-0.1l-6.1-3.5c-0.2-0.1-0.3-0.4-0.2-0.7c0.1-0.2,0.4-0.3,0.7-0.2l6.1,3.5
			c0.2,0.1,0.3,0.4,0.2,0.7C140,101.2,139.8,101.3,139.7,101.3z"/>
	</g>
	<g>
		<path class="st1" d="M133.6,98.4c-0.3,0-0.5-0.2-0.5-0.5v-0.6c0-0.3,0.2-0.5,0.5-0.5s0.5,0.2,0.5,0.5v0.6
			C134.1,98.2,133.9,98.4,133.6,98.4z"/>
	</g>
	<g>
		<path class="st1" d="M53.8,45.7c0,0-0.1,0-0.1,0c-0.3-0.1-0.4-0.3-0.4-0.6l0.8-3.1l2.5-5.2c0.1-0.2,0.4-0.4,0.7-0.2
			s0.4,0.4,0.2,0.7l-2.4,5.1l-0.8,3C54.2,45.5,54,45.7,53.8,45.7z"/>
	</g>
	<g>
		<path class="st1" d="M57.1,37.5c-0.1,0-0.2,0-0.3-0.1c-0.2-0.2-0.3-0.5-0.1-0.7l0.9-1.3l1-1.3l1.2-1.1l1.2-0.9l1.3-0.8l1.4-0.6
			l1.5-0.5l1.6-0.3c0.3-0.1,0.5,0.1,0.6,0.4c0.1,0.3-0.1,0.5-0.4,0.6l-1.5,0.3l-1.4,0.4l-1.3,0.6L61.6,33l-1.1,0.9l-1.1,1l-1,1.2
			l-0.9,1.3C57.4,37.5,57.3,37.5,57.1,37.5z"/>
	</g>
	<g>
		<path class="st1" d="M96.6,38.6c-0.1,0-0.2,0-0.2-0.1l-5.2-2.7l-5.1-2.1l-5-1.6l-4.9-1l-4.7-0.4L67,31c-0.3,0-0.5-0.2-0.5-0.5
			c0-0.3,0.2-0.5,0.5-0.5l4.5-0.3l4.8,0.4l5,1.1l5.1,1.6l5.2,2.2l5.2,2.8c0.2,0.1,0.3,0.4,0.2,0.7C96.9,38.5,96.7,38.6,96.6,38.6z"
			/>
	</g>
	<g>
		<path class="st1" d="M126.1,65.1c-0.1,0-0.3-0.1-0.4-0.2l-4.5-5.5l-4.7-5l-4.9-4.7l-5-4.2l-5.1-3.7l-5.2-3.3
			c-0.2-0.1-0.3-0.5-0.2-0.7c0.1-0.2,0.5-0.3,0.7-0.2l5.2,3.3l5.2,3.8l5.1,4.3l5,4.7l4.8,5.1l4.5,5.5c0.2,0.2,0.1,0.5-0.1,0.7
			C126.4,65.1,126.2,65.1,126.1,65.1z"/>
	</g>
	<g>
		<path class="st1" d="M136,83.1c-0.2,0-0.4-0.1-0.5-0.3l-0.9-2.4l-1-2.3l-1.1-2.3l-1.2-2.3l-1.3-2.3l-1.4-2.2l-1.5-2.1l-1.5-2
			c-0.2-0.2-0.1-0.5,0.1-0.7c0.2-0.2,0.5-0.1,0.7,0.1l1.5,2l1.5,2.1l1.4,2.2l1.3,2.3l1.2,2.3l1.1,2.4l1,2.4l0.9,2.4
			c0.1,0.3,0,0.5-0.3,0.6C136.1,83.1,136.1,83.1,136,83.1z"/>
	</g>
	<g>
		<path class="st1" d="M140.1,98.7c-0.2,0-0.4-0.2-0.5-0.4l-1.6-7.8l-2.4-7.8c-0.1-0.3,0.1-0.5,0.3-0.6c0.3-0.1,0.5,0.1,0.6,0.3
			l2.4,7.9l1.6,7.8c0.1,0.3-0.1,0.5-0.4,0.6C140.1,98.7,140.1,98.7,140.1,98.7z"/>
	</g>
	<g>
		<path class="st1" d="M48.5,33.4c0,0-0.1,0-0.1,0l-0.8-0.2c-0.1,0-0.1,0-0.2-0.1l-0.8-0.5l-0.8-0.8l-0.7-1l-0.5-1.1l-0.3-1
			c0,0,0-0.1,0-0.1v-0.9c0-0.1,0-0.1,0-0.2l0.3-0.7c0-0.1,0.1-0.1,0.1-0.2l0.4-0.5c0.1-0.1,0.1-0.1,0.2-0.2l0.6-0.2
			c0.1,0,0.1,0,0.2,0l0.7,0.1c0.1,0,0.1,0,0.2,0.1l0.8,0.4l0.8,0.7l0.8,0.9c0,0,0,0.1,0.1,0.1l0.5,1l0.4,1.1c0,0,0,0.1,0,0.1
			l0.1,0.9c0,0,0,0.1,0,0.1l-0.1,0.8c0,0.1,0,0.1-0.1,0.2l-0.4,0.6c0,0.1-0.1,0.1-0.1,0.2l-0.5,0.4c-0.1,0.1-0.2,0.1-0.3,0.1
			L48.5,33.4C48.5,33.4,48.5,33.4,48.5,33.4z M48,32.2l0.6,0.2l0.5,0l0.3-0.2l0.3-0.4l0.1-0.7l-0.1-0.8l-0.3-1l-0.5-0.9l-0.7-0.8
			l-0.7-0.5l-0.6-0.3l-0.5-0.1L46,26.8l-0.3,0.3l-0.2,0.5v0.8l0.2,0.9l0.4,0.9l0.6,0.8l0.7,0.6L48,32.2z"/>
	</g>
	<g>
		<path class="st1" d="M146.5,90c-0.1,0-0.1,0-0.2,0l-0.8-0.3c0,0-0.1,0-0.1-0.1l-0.8-0.5c0,0-0.1,0-0.1-0.1l-0.7-0.8l-0.7-1l-0.5-1
			l-0.3-1.1c0,0,0-0.1,0-0.1v-0.9c0-0.1,0-0.1,0-0.2l0.3-0.7c0-0.1,0.1-0.1,0.1-0.2l0.4-0.5c0.1-0.1,0.1-0.1,0.2-0.1l0.6-0.2
			c0.1,0,0.2,0,0.2,0l0.7,0.1c0,0,0.1,0,0.1,0l0.8,0.4c0,0,0.1,0,0.1,0.1l0.8,0.6l0.7,0.9l0.6,1l0.4,1.1c0,0,0,0.1,0,0.1l0.1,1
			c0,0,0,0.1,0,0.1l-0.1,0.8c0,0.1,0,0.1-0.1,0.2l-0.4,0.6c0,0.1-0.1,0.1-0.1,0.2l-0.5,0.4c-0.1,0-0.2,0.1-0.2,0.1L146.5,90
			C146.5,90,146.5,90,146.5,90z M146,88.7l0.6,0.2l0.4,0l0.3-0.2l0.3-0.4l0.1-0.6l-0.1-0.9l-0.3-1l-0.5-0.9l-0.6-0.7l-0.6-0.5
			l-0.6-0.3l-0.5-0.1l-0.4,0.1l-0.3,0.3l-0.2,0.5V85l0.2,0.9l0.4,0.9l0.6,0.8l0.6,0.6L146,88.7z"/>
	</g>
	<g>
		<path class="st1" d="M140.5,142.7c-0.1,0-0.1,0-0.2,0l-0.8-0.3c0,0-0.1,0-0.1-0.1l-0.8-0.5c0,0-0.1,0-0.1-0.1l-0.7-0.8l-0.7-1
			l-0.5-1.1c0,0,0-0.1,0-0.1l-0.2-1c0,0,0-0.1,0-0.1v-0.9c0,0,0-0.1,0-0.1l0.2-0.7c0-0.1,0.1-0.1,0.1-0.2l0.4-0.5
			c0.1-0.1,0.1-0.1,0.2-0.1l0.6-0.2c0.1,0,0.2,0,0.2,0l0.7,0.1c0,0,0.1,0,0.1,0l0.8,0.4c0,0,0.1,0,0.1,0.1l0.8,0.6l0.7,0.9
			c0,0,0,0.1,0.1,0.1l0.5,1l0.4,1c0,0,0,0.1,0,0.1l0.1,1c0,0,0,0.1,0,0.1l-0.1,0.8c0,0.1,0,0.1-0.1,0.2l-0.4,0.6
			c0,0.1-0.1,0.1-0.1,0.2l-0.5,0.4c-0.1,0-0.2,0.1-0.2,0.1L140.5,142.7C140.5,142.7,140.5,142.7,140.5,142.7z M140,141.5l0.6,0.2
			l0.4,0l0.3-0.2l0.3-0.4l0.1-0.6l-0.1-0.8l-0.3-0.9l-0.5-0.9l-0.6-0.8l-0.6-0.5l-0.6-0.3l-0.5-0.1l-0.4,0.1l-0.3,0.3l-0.2,0.5v0.8
			l0.2,0.9l0.4,0.9l0.6,0.8l0.6,0.7L140,141.5z"/>
	</g>
	<g>
		<path class="st1" d="M133,72.5c-0.2,0-0.3-0.1-0.4-0.2l-2.6-3.9l-2.8-3.7l-2.9-3.7l-3-3.5l-3.1-3.4L115,51l-3.3-3l-3.4-2.9
			l-3.4-2.7l-3.4-2.4L98,37.7l-3.5-2l-3.5-1.8l-3.5-1.5l-3.4-1.3l-3.4-1l-3.3-0.7l-3.2-0.5l-3.1-0.2l-3,0L65.5,29l-2.7,0.6l-2.6,0.8
			c-0.3,0.1-0.5-0.1-0.6-0.3c-0.1-0.3,0.1-0.5,0.3-0.6l2.6-0.8l2.8-0.6l2.9-0.3l3.1,0l3.2,0.2l3.3,0.5l3.3,0.8l3.4,1.1l3.4,1.3
			l3.5,1.5l3.5,1.8l3.5,2l3.5,2.3l3.5,2.5l3.4,2.7l3.4,2.9l3.3,3.1l3.3,3.3l3.1,3.4l3,3.5l2.9,3.7l2.8,3.8l2.6,3.9
			c0.2,0.2,0.1,0.5-0.1,0.7C133.2,72.5,133.1,72.5,133,72.5z"/>
	</g>
	<g>
		<path class="st1" d="M60.1,30.4c-0.1,0-0.2,0-0.2-0.1l-10.7-6.2c-0.2-0.1-0.3-0.4-0.2-0.7c0.1-0.2,0.4-0.3,0.7-0.2l10.7,6.2
			c0.2,0.1,0.3,0.4,0.2,0.7C60.4,30.3,60.2,30.4,60.1,30.4z"/>
	</g>
	<g>
		<path class="st1" d="M40.2,29.5C40.2,29.5,40.1,29.5,40.2,29.5c-0.3,0-0.5-0.3-0.5-0.5l0.1-1.6l0.3-1.5c0,0,0-0.1,0-0.1l0.6-1.2
			c0,0,0-0.1,0.1-0.1l0.8-1c0,0,0.1-0.1,0.1-0.1l0.9-0.7c0,0,0.1-0.1,0.1-0.1l1.1-0.4c0,0,0.1,0,0.1,0l1.2-0.2c0,0,0.1,0,0.1,0
			l1.3,0.1l1.5,0.5l1.5,0.7c0.2,0.1,0.4,0.4,0.2,0.7c-0.1,0.2-0.4,0.4-0.7,0.2l-1.4-0.7l-1.3-0.4l-1.2-0.1l-1.1,0.2l-1,0.4l-0.8,0.6
			L41.6,25l-0.5,1.1l-0.3,1.4l-0.1,1.5C40.7,29.3,40.4,29.5,40.2,29.5z"/>
	</g>
	<g>
		<path class="st1" d="M40.2,43.1c-0.3,0-0.5-0.2-0.5-0.5V29c0-0.3,0.2-0.5,0.5-0.5s0.5,0.2,0.5,0.5v13.6
			C40.7,42.9,40.4,43.1,40.2,43.1z"/>
	</g>
	<g>
		<path class="st1" d="M129.2,147.7c-0.1,0-0.2,0-0.2-0.1l-16.9-9.7c-0.2-0.1-0.3-0.4-0.2-0.7c0.1-0.2,0.4-0.3,0.7-0.2l16.9,9.7
			c0.2,0.1,0.3,0.4,0.2,0.7C129.5,147.6,129.3,147.7,129.2,147.7z"/>
	</g>
	<g>
		<path class="st1" d="M140.4,150.9l-2.2-0.1l-2.3-0.4l-2.3-0.7l-2.4-1l-2.4-1.2c-0.2-0.1-0.3-0.4-0.2-0.7c0.1-0.2,0.4-0.3,0.7-0.2
			l2.3,1.2l2.3,1l2.2,0.6l2.1,0.3l2.1,0.1l1.9-0.2l1.8-0.5l1.6-0.8l1.5-1l1.3-1.3l1.2-1.6l0.9-1.8l0.8-2l0.6-2.2l0.3-2.4l0.1-2.6
			c0-0.3,0.3-0.5,0.5-0.5c0.3,0,0.5,0.3,0.5,0.5l-0.1,2.6l-0.3,2.5l-0.6,2.4l-0.8,2.1l-1,1.9l-1.3,1.7l-1.4,1.4l-1.7,1.1l-1.8,0.9
			l-2,0.5L140.4,150.9z"/>
	</g>
	<g>
		<path class="st1" d="M153,134c-0.3,0-0.5-0.2-0.5-0.5V94.1c0-0.3,0.2-0.5,0.5-0.5s0.5,0.2,0.5,0.5v39.3
			C153.5,133.8,153.2,134,153,134z"/>
	</g>
	<g>
		<path class="st1" d="M153,94.6c-0.3,0-0.5-0.2-0.5-0.5l-0.1-1.7l-0.4-1.7l-0.5-1.8l-0.7-1.8l-0.9-1.8l-1.1-1.6l-1.2-1.6l-1.3-1.4
			l-1.4-1.1l-1.4-0.9c-0.2-0.2-0.3-0.5-0.1-0.7c0.2-0.2,0.5-0.3,0.7-0.1l1.4,1l1.4,1.2l1.4,1.5l1.3,1.6l1.1,1.7l1,1.8l0.8,1.9
			l0.6,1.9l0.4,1.8l0.1,1.8C153.5,94.4,153.3,94.6,153,94.6C153,94.6,153,94.6,153,94.6z"/>
	</g>
	<g>
		<path class="st1" d="M143.8,78.7c-0.1,0-0.2,0-0.2-0.1l-10.7-6.2c-0.2-0.1-0.3-0.4-0.2-0.7c0.1-0.2,0.4-0.3,0.7-0.2l10.7,6.2
			c0.2,0.1,0.3,0.4,0.2,0.7C144.1,78.6,143.9,78.7,143.8,78.7z"/>
	</g>
	<g>
		<path class="st1" d="M44.7,42c-0.1,0-0.1,0-0.2,0l-0.6-0.3l-0.5-0.1l-0.4,0l-0.5,0.2c-0.3,0.1-0.5-0.1-0.6-0.3
			c-0.1-0.3,0.1-0.5,0.3-0.6l0.5-0.2c0,0,0.1,0,0.1,0l0.6,0c0,0,0.1,0,0.1,0l0.6,0.1c0,0,0.1,0,0.1,0l0.7,0.3
			c0.2,0.1,0.4,0.4,0.2,0.7C45.1,41.9,44.9,42,44.7,42z"/>
	</g>
	<g>
		<path class="st1" d="M39.2,44.9c-0.1,0-0.2,0-0.2-0.1c-0.2-0.1-0.3-0.4-0.2-0.7l1-1.9c0-0.1,0.1-0.1,0.1-0.1l0.4-0.4
			c0,0,0.1-0.1,0.2-0.1l0.5-0.2c0,0,0.1,0,0.1,0l0.6,0c0,0,0.1,0,0.1,0l0.6,0.1c0,0,0.1,0,0.1,0l0.7,0.3c0.2,0.1,0.4,0.4,0.2,0.7
			c-0.1,0.3-0.4,0.4-0.7,0.2l-0.6-0.3l-0.5-0.1l-0.4,0l-0.4,0.1l-0.3,0.2l-0.2,0.4l-0.7,1.4C39.5,44.8,39.4,44.9,39.2,44.9z"/>
	</g>
	<g>
		<path class="st1" d="M47.9,44.5c-0.1,0-0.2,0-0.3-0.1c-0.2-0.2-0.3-0.5-0.1-0.7l0,0l0,0c-0.2-0.1-0.3-0.4-0.2-0.7
			c0.1-0.2,0.4-0.3,0.7-0.2l0.1,0.1c0.1,0,0.1,0.1,0.2,0.2l0.1,0.2c0,0,0.1,0.1,0.1,0.1l0.1,0.2c0,0.1,0,0.2,0,0.3L48.4,44
			c0,0,0,0.1-0.1,0.1l-0.1,0.1C48.2,44.4,48.1,44.5,47.9,44.5z"/>
	</g>
	<g>
		<path class="st1" d="M47.7,43.7c-0.1,0-0.2,0-0.2-0.1l-3-1.7c-0.2-0.1-0.3-0.4-0.2-0.7c0.1-0.2,0.4-0.3,0.7-0.2l3,1.7
			c0.2,0.1,0.3,0.4,0.2,0.7C48,43.6,47.9,43.7,47.7,43.7z"/>
	</g>
	<g>
		<path class="st1" d="M43.1,42.9c-0.2,0-0.3-0.1-0.4-0.2c-0.1-0.2-0.1-0.5,0.2-0.7l1.6-0.9c0.2-0.1,0.5-0.1,0.7,0.2
			c0.1,0.2,0.1,0.5-0.2,0.7l-1.6,0.9C43.3,42.9,43.2,42.9,43.1,42.9z"/>
	</g>
	<g>
		<path class="st1" d="M45.5,44.3c-0.1,0-0.2,0-0.3-0.1l-2.4-1.4c-0.2-0.1-0.3-0.4-0.2-0.7c0.1-0.2,0.4-0.3,0.7-0.2l2.4,1.4
			c0.2,0.1,0.3,0.4,0.2,0.7C45.8,44.2,45.6,44.3,45.5,44.3z"/>
	</g>
	<g>
		<path class="st1" d="M149,131.4c-0.2,0-0.3-0.1-0.4-0.2c-0.2-0.2-0.1-0.5,0.1-0.7l0.4-0.3l0.2-0.3c0.1-0.2,0.4-0.3,0.7-0.2
			c0.2,0.1,0.3,0.4,0.2,0.7l-0.2,0.4c0,0.1-0.1,0.1-0.1,0.1l-0.6,0.5C149.2,131.4,149.1,131.4,149,131.4z"/>
	</g>
	<g>
		<path class="st1" d="M149.8,130.6c-0.1,0-0.1,0-0.2,0c-0.3-0.1-0.4-0.4-0.3-0.7l0.9-2.3l0.3-1.2l0.3-1.3l0.2-1.3l0.2-2.8l0-1.5
			c0-0.3,0.3-0.5,0.5-0.5c0.3,0,0.5,0.2,0.5,0.5l0,1.5l-0.3,2.9l-0.2,1.4l-0.3,1.3l-0.4,1.3l-0.9,2.4
			C150.2,130.5,150,130.6,149.8,130.6z"/>
	</g>
	<g>
		<path class="st1" d="M148.2,131.5c-0.2,0-0.3-0.1-0.4-0.2c-0.1-0.2-0.1-0.5,0.2-0.7l1.6-0.9c0.2-0.1,0.5-0.1,0.7,0.2
			c0.1,0.2,0.1,0.5-0.2,0.7l-1.6,0.9C148.4,131.5,148.3,131.5,148.2,131.5z"/>
	</g>
	<g>
		<path class="st1" d="M151.9,120c-0.3,0-0.5-0.2-0.5-0.5v-12.2c0-0.3,0.2-0.5,0.5-0.5s0.5,0.2,0.5,0.5v12.2
			C152.4,119.8,152.1,120,151.9,120z"/>
	</g>
	<g>
		<path class="st1" d="M150.2,120.9c-0.2,0-0.3-0.1-0.4-0.2c-0.1-0.2-0.1-0.5,0.2-0.7l1.6-0.9c0.2-0.1,0.5-0.1,0.7,0.2
			c0.1,0.2,0.1,0.5-0.2,0.7l-1.6,0.9C150.4,120.9,150.3,120.9,150.2,120.9z"/>
	</g>
	<g>
		<path class="st1" d="M136.6,102.8C136.6,102.8,136.5,102.8,136.6,102.8c-0.4-0.1-0.5-0.3-0.5-0.6l0-0.2c0-0.1,0-0.1,0.1-0.2
			l0.1-0.2l0.2-0.3c0,0,0.1-0.1,0.1-0.1l0.4-0.2c0.2-0.1,0.5,0,0.7,0.2c0.1,0.2,0,0.5-0.2,0.7l-0.3,0.1l-0.1,0.2l0,0.1
			C137.1,102.6,136.8,102.8,136.6,102.8z"/>
	</g>
	<g>
		<path class="st1" d="M140.1,129.4c-0.1,0-0.2,0-0.2-0.1l-0.3-0.1l-0.2,0l-0.2,0c-0.3,0-0.5-0.2-0.6-0.4c0-0.3,0.2-0.5,0.4-0.6
			l0.3,0c0.1,0,0.1,0,0.2,0l0.4,0.1c0,0,0.1,0,0.1,0l0.4,0.2c0.2,0.1,0.3,0.4,0.2,0.7C140.5,129.3,140.3,129.4,140.1,129.4z"/>
	</g>
	<g>
		<path class="st1" d="M140.5,129.5c-0.1,0-0.1,0-0.2,0l-0.4-0.1c-0.3-0.1-0.4-0.4-0.3-0.6c0.1-0.3,0.4-0.4,0.6-0.3l0.4,0.1
			c0.3,0.1,0.4,0.4,0.3,0.6C140.9,129.4,140.7,129.5,140.5,129.5z"/>
	</g>
	<g>
		<path class="st1" d="M151.9,107.8c-0.3,0-0.5-0.2-0.5-0.5l-0.1-0.8l-0.2-0.8l-0.3-0.8l-0.4-0.8l-0.5-0.8l-0.6-0.7l-0.6-0.5
			l-0.6-0.4c-0.2-0.2-0.3-0.5-0.1-0.7c0.2-0.2,0.5-0.3,0.7-0.1l0.6,0.5l0.7,0.6l0.7,0.8l0.5,0.8l0.5,0.9l0.4,1l0.2,0.9l0.1,0.9
			C152.4,107.5,152.2,107.8,151.9,107.8C151.9,107.8,151.9,107.8,151.9,107.8z"/>
	</g>
	<g>
		<path class="st1" d="M150.2,108.7c-0.2,0-0.3-0.1-0.4-0.2c-0.1-0.2-0.1-0.5,0.2-0.7l1.6-0.9c0.2-0.1,0.5-0.1,0.7,0.2
			c0.1,0.2,0.1,0.5-0.2,0.7l-1.6,0.9C150.4,108.7,150.3,108.7,150.2,108.7z"/>
	</g>
	<g>
		<path class="st1" d="M140.5,129.5c-0.1,0-0.2,0-0.3-0.1c-0.2-0.2-0.3-0.5-0.1-0.7l1.4-1.8l1.5-3.6l0.8-4.3l0.1-4.3l0-4.4v-9.4
			c0-0.3,0.2-0.5,0.5-0.5s0.5,0.2,0.5,0.5l0,13.8l-0.1,4.4l-0.8,4.5c0,0,0,0.1,0,0.1l-1.6,3.7c0,0,0,0.1-0.1,0.1l-1.4,1.9
			C140.8,129.4,140.7,129.5,140.5,129.5z"/>
	</g>
	<g>
		<path class="st1" d="M145,132.1c-0.1,0-0.2,0-0.3-0.1l-4.5-2.6c-0.2-0.1-0.3-0.4-0.2-0.7c0.1-0.2,0.4-0.3,0.7-0.2l4.5,2.6
			c0.2,0.1,0.3,0.4,0.2,0.7C145.4,132.1,145.2,132.1,145,132.1z"/>
	</g>
	<g>
		<path class="st1" d="M146.5,132.6C146.4,132.6,146.4,132.6,146.5,132.6l-0.5-0.1l-0.5-0.2l-0.6-0.3c-0.2-0.1-0.3-0.4-0.2-0.7
			s0.4-0.4,0.7-0.2l0.5,0.2l0.7,0.2l0.3,0l0.3-0.1l0.2-0.2l0.2-0.2l0.2-0.3c0.1-0.2,0.5-0.3,0.7-0.2c0.2,0.1,0.3,0.5,0.2,0.7
			l-0.3,0.4c0,0,0,0.1-0.1,0.1l-0.3,0.3c0,0,0,0-0.1,0.1l-0.3,0.2c0,0-0.1,0-0.1,0.1l-0.4,0.1c0,0-0.1,0-0.1,0L146.5,132.6
			C146.5,132.6,146.5,132.6,146.5,132.6z"/>
	</g>
	<g>
		<path class="st1" d="M148.2,131.5c-0.1,0-0.1,0-0.2,0c-0.3-0.1-0.4-0.4-0.3-0.7l0.9-2.3l0.6-2.5l0.2-1.3l0.2-2.8l0-1.5
			c0-0.3,0.3-0.5,0.5-0.5c0.3,0,0.5,0.2,0.5,0.5l0,1.5l-0.3,2.9l-0.3,1.4l-0.6,2.6l-0.9,2.4C148.6,131.4,148.4,131.5,148.2,131.5z"
			/>
	</g>
	<g>
		<path class="st1" d="M150.2,120.9c-0.3,0-0.5-0.2-0.5-0.5v-12.2c0-0.3,0.2-0.5,0.5-0.5s0.5,0.2,0.5,0.5v12.2
			C150.7,120.7,150.5,120.9,150.2,120.9z"/>
	</g>
	<g>
		<path class="st1" d="M150.2,108.7c-0.3,0-0.5-0.2-0.5-0.5l-0.1-0.8l-0.2-0.8l-0.3-0.8l-0.4-0.8l-0.5-0.7l-0.6-0.7l-0.6-0.5
			l-0.6-0.4c-0.2-0.2-0.3-0.5-0.1-0.7c0.2-0.2,0.5-0.3,0.7-0.1l0.7,0.5l0.7,0.6l0.6,0.8l0.6,0.8l0.5,0.9l0.3,0.9l0.2,0.9l0.1,0.9
			C150.8,108.5,150.6,108.7,150.2,108.7C150.3,108.7,150.2,108.7,150.2,108.7z"/>
	</g>
	<g>
		<path class="st1" d="M137.3,102c-0.2,0-0.4-0.1-0.5-0.4c-0.1-0.3,0.1-0.5,0.3-0.6l6.8-2c0.3-0.1,0.5,0.1,0.6,0.3
			c0.1,0.3-0.1,0.5-0.3,0.6l-6.8,2C137.4,102,137.4,102,137.3,102z"/>
	</g>
	<g>
		<path class="st1" d="M148.4,101.9c-0.1,0-0.2,0-0.3-0.1l-3-1.8c-0.2-0.1-0.3-0.4-0.2-0.7s0.4-0.3,0.7-0.2l3,1.8
			c0.2,0.1,0.3,0.4,0.2,0.7C148.8,101.8,148.6,101.9,148.4,101.9z"/>
	</g>
	<g>
		<path class="st1" d="M145.4,100.1c0,0-0.1,0-0.1,0l-0.1,0c0,0-0.1,0-0.1,0l-0.3-0.1l-0.5,0.1c-0.3,0.1-0.5-0.1-0.6-0.4
			c-0.1-0.3,0.1-0.5,0.4-0.6l0.3-0.1c0,0,0.1,0,0.1,0h0.4c0,0,0.1,0,0.1,0l0.4,0.1c0,0,0.1,0,0.1,0l0.2,0.1c0.3,0.1,0.4,0.3,0.4,0.6
			C145.8,99.9,145.6,100.1,145.4,100.1z"/>
	</g>
	<g>
		<path class="st1" d="M138.4,102.6c-0.1,0-0.2,0-0.3-0.1l-1.1-0.6c-0.2-0.1-0.3-0.4-0.2-0.7c0.1-0.2,0.4-0.3,0.7-0.2l1.1,0.6
			c0.2,0.1,0.3,0.4,0.2,0.7C138.7,102.6,138.6,102.6,138.4,102.6z"/>
	</g>
	<g>
		<path class="st1" d="M144.4,101.4c-0.1,0-0.2,0-0.2-0.1l-0.5-0.2l-0.5,0.1c-0.3,0.1-0.5-0.1-0.6-0.4s0.1-0.5,0.4-0.6l0.8-0.1
			l0.5,0.1c0,0,0.1,0,0.1,0l0.3,0.1c0.2,0.1,0.3,0.4,0.2,0.7C144.7,101.3,144.6,101.4,144.4,101.4z"/>
	</g>
	<g>
		<path class="st1" d="M146.8,102.8c-0.1,0-0.2,0-0.3-0.1l-2.4-1.4c-0.2-0.1-0.3-0.4-0.2-0.7c0.1-0.2,0.4-0.3,0.7-0.2l2.4,1.4
			c0.2,0.1,0.3,0.4,0.2,0.7C147.1,102.7,147,102.8,146.8,102.8z"/>
	</g>
	<g>
		<path class="st1" d="M146.8,102.8c-0.2,0-0.3-0.1-0.4-0.3c-0.1-0.2-0.1-0.5,0.2-0.7l1.7-0.9c0.2-0.1,0.5-0.1,0.7,0.2
			c0.1,0.2,0.1,0.5-0.2,0.7l-1.7,0.9C146.9,102.8,146.9,102.8,146.8,102.8z"/>
	</g>
	<g>
		<path class="st1" d="M129,111.1c-0.2,0-0.4-0.1-0.5-0.3c-0.1-0.3,0-0.5,0.3-0.7l1.9-0.8l2.2-1.6l1.7-1.9l1.1-2.1l0.3-1.6
			c0.1-0.3,0.3-0.4,0.6-0.4c0.3,0.1,0.4,0.3,0.4,0.6l-0.4,1.7c0,0,0,0.1,0,0.1l-1.2,2.2c0,0,0,0.1-0.1,0.1l-1.8,2
			c0,0-0.1,0.1-0.1,0.1l-2.3,1.6c0,0-0.1,0-0.1,0.1l-2,0.8C129.2,111.1,129.1,111.1,129,111.1z"/>
	</g>
	<g>
		<path class="st1" d="M137.7,103.4c-0.1,0-0.2,0-0.2-0.1l-1.1-0.6c-0.2-0.1-0.3-0.4-0.2-0.7c0.1-0.2,0.4-0.3,0.7-0.2l1.1,0.6
			c0.2,0.1,0.3,0.4,0.2,0.7C138,103.3,137.9,103.4,137.7,103.4z"/>
	</g>
	<g>
		<path class="st1" d="M113.2,115.8c-0.2,0-0.4-0.1-0.5-0.4c-0.1-0.3,0.1-0.5,0.3-0.6l15.8-4.7c0.3-0.1,0.5,0.1,0.6,0.3
			c0.1,0.3-0.1,0.5-0.3,0.6l-15.8,4.7C113.3,115.8,113.3,115.8,113.2,115.8z"/>
	</g>
	<g>
		<path class="st1" d="M130.1,111.7c-0.1,0-0.2,0-0.2-0.1l-1.1-0.6c-0.2-0.1-0.3-0.4-0.2-0.7c0.1-0.2,0.4-0.3,0.7-0.2l1.1,0.6
			c0.2,0.1,0.3,0.4,0.2,0.7C130.5,111.7,130.3,111.7,130.1,111.7z"/>
	</g>
	<g>
		<path class="st1" d="M110.6,116.2c0,0-0.1,0-0.1,0l-2.1-0.5c-0.3-0.1-0.4-0.3-0.4-0.6c0.1-0.3,0.3-0.4,0.6-0.4l2,0.4l2.5-0.4
			c0.3,0,0.5,0.1,0.6,0.4c0,0.3-0.1,0.5-0.4,0.6L110.6,116.2C110.6,116.2,110.6,116.2,110.6,116.2z"/>
	</g>
	<g>
		<path class="st1" d="M114.3,116.5c-0.1,0-0.2,0-0.3-0.1l-1.1-0.6c-0.2-0.1-0.3-0.4-0.2-0.7c0.1-0.2,0.4-0.3,0.7-0.2l1.1,0.6
			c0.2,0.1,0.3,0.4,0.2,0.7C114.6,116.4,114.5,116.5,114.3,116.5z"/>
	</g>
	<g>
		<path class="st1" d="M139.1,129.2c-0.1,0-0.2,0-0.3-0.1c-0.2-0.2-0.3-0.5-0.1-0.7l1.5-1.9l1.5-3.4l0.7-4.2l0.2-5.9l-0.1-6.1v-6
			c0-0.3,0.2-0.5,0.5-0.5s0.5,0.2,0.5,0.5v6l0.1,6.1l-0.2,6l-0.8,4.3c0,0,0,0.1,0,0.1l-1.5,3.6c0,0,0,0.1-0.1,0.1l-1.5,2
			C139.4,129.1,139.2,129.2,139.1,129.2z"/>
	</g>
	<g>
		<path class="st1" d="M138.4,102.6c-0.2,0-0.4-0.1-0.5-0.4c-0.1-0.3,0.1-0.5,0.3-0.6l4.6-1.4c0.3-0.1,0.5,0.1,0.6,0.3
			s-0.1,0.5-0.3,0.6l-4.6,1.4C138.5,102.6,138.4,102.6,138.4,102.6z"/>
	</g>
	<g>
		<path class="st1" d="M137.7,103.4c-0.3,0-0.5-0.2-0.5-0.5c0-0.1,0-0.1,0-0.2l0.1-0.2c0-0.1,0-0.1,0.1-0.2l0.2-0.2l0.3-0.2
			c0,0,0.1-0.1,0.1-0.1l0.3-0.1c0.3-0.1,0.5,0,0.7,0.3c0.1,0.3,0,0.5-0.3,0.7l-0.2,0.1l-0.2,0.2l0,0.1
			C138.1,103.2,137.9,103.4,137.7,103.4z"/>
	</g>
	<g>
		<path class="st1" d="M130.1,111.7c-0.2,0-0.4-0.1-0.5-0.3c-0.1-0.3,0-0.5,0.2-0.7l2.5-1.2l2.2-1.8l1.6-2.2l0.8-2.3l0.1-0.6
			c0-0.3,0.3-0.5,0.6-0.4c0.3,0,0.5,0.3,0.4,0.6l-0.1,0.6c0,0,0,0.1,0,0.1l-0.9,2.4c0,0,0,0.1-0.1,0.1l-1.7,2.3c0,0-0.1,0.1-0.1,0.1
			l-2.3,1.9c0,0-0.1,0-0.1,0.1l-2.6,1.2C130.3,111.7,130.2,111.7,130.1,111.7z"/>
	</g>
	<g>
		<path class="st1" d="M114.3,116.5c-0.2,0-0.4-0.1-0.5-0.4c-0.1-0.3,0.1-0.5,0.3-0.6l15.8-4.7c0.3-0.1,0.5,0.1,0.6,0.3
			c0.1,0.3-0.1,0.5-0.3,0.6l-15.8,4.7C114.4,116.5,114.3,116.5,114.3,116.5z"/>
	</g>
	<g>
		<path class="st1" d="M112.3,116.9C112.3,116.9,112.2,116.9,112.3,116.9l-2.4-0.3c-0.1,0-0.1,0-0.2-0.1l-1.8-1
			c-0.1,0-0.1-0.1-0.2-0.1l-1.1-1.5c0-0.1-0.1-0.1-0.1-0.2l-0.4-2c-0.1-0.3,0.1-0.5,0.4-0.6c0.3-0.1,0.5,0.1,0.6,0.4l0.4,1.9l1,1.4
			l1.6,0.9l2.1,0.2l1.9-0.3c0.3,0,0.5,0.1,0.6,0.4c0,0.3-0.1,0.5-0.4,0.6L112.3,116.9C112.3,116.9,112.3,116.9,112.3,116.9z"/>
	</g>
	<g>
		<path class="st1" d="M106.7,112.1c-0.3,0-0.5-0.2-0.5-0.5v-3.3c0-0.3,0.2-0.5,0.5-0.5s0.5,0.2,0.5,0.5v3.3
			C107.2,111.9,107,112.1,106.7,112.1z"/>
	</g>
	<g>
		<path class="st1" d="M106.7,108.8c-0.2,0-0.4-0.2-0.5-0.4l0-0.1l-0.1,0c-0.3,0.1-0.5-0.1-0.6-0.4c-0.1-0.3,0.1-0.5,0.4-0.6l0.2,0
			c0.1,0,0.1,0,0.2,0l0.2,0c0.1,0,0.1,0,0.2,0.1l0.2,0.1c0.1,0,0.1,0.1,0.1,0.1l0.1,0.1c0,0.1,0.1,0.1,0.1,0.2l0,0.2
			C107.3,108.4,107.1,108.7,106.7,108.8C106.8,108.8,106.7,108.8,106.7,108.8z"/>
	</g>
	<g>
		<path class="st1" d="M104.2,108.7c-0.2,0-0.4-0.2-0.5-0.4c-0.1-0.3,0.1-0.5,0.4-0.6l1.7-0.4c0.3-0.1,0.5,0.1,0.6,0.4
			c0.1,0.3-0.1,0.5-0.4,0.6l-1.7,0.4C104.3,108.7,104.3,108.7,104.2,108.7z"/>
	</g>
	<g>
		<path class="st1" d="M102,141.2c-0.2,0-0.4-0.1-0.5-0.3c-0.1-0.3,0.1-0.5,0.3-0.6l37.5-12.1c0.3-0.1,0.5,0.1,0.6,0.3
			s-0.1,0.5-0.3,0.6l-37.5,12.1C102.1,141.2,102,141.2,102,141.2z"/>
	</g>
	<g>
		<path class="st1" d="M112.1,111.6c-0.1,0-0.2,0-0.3-0.1l-1.8-1c-0.2-0.1-0.3-0.4-0.2-0.7c0.1-0.2,0.4-0.3,0.7-0.2l1.8,1
			c0.2,0.1,0.3,0.4,0.2,0.7C112.4,111.6,112.3,111.6,112.1,111.6z"/>
	</g>
	<g>
		<path class="st1" d="M106.8,112.6c-0.2,0-0.3-0.1-0.4-0.3c-0.1-0.2-0.1-0.5,0.2-0.7l3.5-2c0.2-0.1,0.5-0.1,0.7,0.2
			c0.1,0.2,0.1,0.5-0.2,0.7l-3.5,2C107,112.6,106.9,112.6,106.8,112.6z"/>
	</g>
	<g>
		<path class="st1" d="M107.5,114.7c-0.2,0-0.3-0.1-0.4-0.2c-0.1-0.2-0.1-0.5,0.2-0.7l4.6-2.7c0.2-0.1,0.5-0.1,0.7,0.2
			c0.1,0.2,0.1,0.5-0.2,0.7l-4.6,2.7C107.7,114.7,107.6,114.7,107.5,114.7z"/>
	</g>
	<g>
		<path class="st1" d="M96.1,76.2c-0.1,0-0.2,0-0.2-0.1l-9.8-5.4c-0.2-0.1-0.3-0.4-0.2-0.7c0.1-0.2,0.4-0.3,0.7-0.2l9.8,5.4
			c0.2,0.1,0.3,0.4,0.2,0.7C96.5,76.1,96.3,76.2,96.1,76.2z"/>
	</g>
	<g>
		<path class="st1" d="M122.9,136.1c-0.2,0-0.3-0.1-0.4-0.2c-0.2-0.2-0.1-0.5,0.1-0.7l0.2-0.2l0.1-0.5c0-0.3,0.3-0.5,0.5-0.4
			c0.3,0,0.5,0.3,0.4,0.5l-0.1,0.7c0,0,0,0.1-0.1,0.1l-0.1,0.2c0,0.1-0.1,0.1-0.2,0.2l-0.2,0.1C123.1,136,123,136.1,122.9,136.1z"/>
	</g>
	<g>
		<path class="st1" d="M97,77.3c-0.2,0-0.3-0.1-0.4-0.2L95.7,76c-0.2-0.2-0.1-0.5,0.1-0.7c0.2-0.2,0.5-0.1,0.7,0.1l0.8,1.1
			c0.2,0.2,0.1,0.5-0.1,0.7C97.2,77.3,97.1,77.3,97,77.3z"/>
	</g>
	<g>
		<path class="st1" d="M91.5,78.3c-0.2,0-0.4-0.1-0.5-0.3c-0.1-0.3,0-0.5,0.2-0.7l4.6-2.1c0.3-0.1,0.5,0,0.7,0.2
			c0.1,0.3,0,0.5-0.2,0.7l-4.6,2.1C91.7,78.3,91.6,78.3,91.5,78.3z"/>
	</g>
	<g>
		<path class="st1" d="M123.4,135c-0.3,0-0.5-0.2-0.5-0.5v-0.6c0-0.3,0.2-0.5,0.5-0.5s0.5,0.2,0.5,0.5v0.6
			C123.9,134.8,123.6,135,123.4,135z"/>
	</g>
	<g>
		<path class="st1" d="M120.7,136.6c-0.2,0-0.3-0.1-0.4-0.2c-0.1-0.2-0.1-0.5,0.2-0.7l2.7-1.6c0.2-0.1,0.5-0.1,0.7,0.2
			c0.1,0.2,0.1,0.5-0.2,0.7l-2.7,1.6C120.8,136.6,120.8,136.6,120.7,136.6z"/>
	</g>
	<g>
		<path class="st1" d="M96.5,87.6c-0.1,0-0.2,0-0.3-0.1C96,87.3,96,87,96.1,86.8l4.4-5.6c0.2-0.2,0.5-0.3,0.7-0.1
			c0.2,0.2,0.3,0.5,0.1,0.7l-4.4,5.6C96.8,87.5,96.7,87.6,96.5,87.6z"/>
	</g>
	<g>
		<path class="st1" d="M113.7,105.1c-0.2,0-0.4-0.1-0.4-0.3c-0.1-0.2,0-0.5,0.2-0.7l0.5-0.3c0.2-0.1,0.5,0,0.7,0.2
			c0.1,0.2,0,0.5-0.2,0.7L114,105C113.9,105,113.8,105.1,113.7,105.1z"/>
	</g>
	<g>
		<path class="st1" d="M114.3,104.8c-0.2,0-0.3-0.1-0.4-0.2c-0.2-0.2-0.1-0.5,0.1-0.7l0.3-0.2l0.5-0.6l0.4-0.7l0.1-0.3l0.1-0.7
			c0-0.3,0.3-0.5,0.5-0.4c0.3,0,0.5,0.3,0.4,0.5l-0.1,0.8l-0.2,0.5l-0.5,0.9l-0.6,0.7c0,0,0,0-0.1,0.1l-0.3,0.2
			C114.5,104.7,114.4,104.8,114.3,104.8z"/>
	</g>
	<g>
		<path class="st1" d="M121.1,108.7c-0.1,0-0.2,0-0.2-0.1l-6.9-4c-0.2-0.1-0.3-0.4-0.2-0.7c0.1-0.2,0.4-0.3,0.7-0.2l6.9,4
			c0.2,0.1,0.3,0.4,0.2,0.7C121.5,108.6,121.3,108.7,121.1,108.7z"/>
	</g>
	<g>
		<path class="st1" d="M120.6,109.1c-0.1,0-0.2,0-0.3-0.1l-6.9-4c-0.2-0.1-0.3-0.4-0.2-0.7c0.1-0.2,0.4-0.3,0.7-0.2l6.9,4
			c0.2,0.1,0.3,0.4,0.2,0.7C120.9,109,120.8,109.1,120.6,109.1z"/>
	</g>
	<g>
		<path class="st1" d="M112.1,107.9C112.1,107.9,112.1,107.9,112.1,107.9c-0.3,0-0.5-0.3-0.5-0.5l0.1-0.8l0.2-0.5l0.3-0.5l0.6-0.8
			l0.7-0.6c0.2-0.2,0.5-0.1,0.7,0.1c0.2,0.2,0.1,0.5-0.1,0.7l-0.6,0.5l-0.5,0.6l-0.2,0.3l-0.2,0.7l0,0.4
			C112.6,107.7,112.4,107.9,112.1,107.9z"/>
	</g>
	<g>
		<path class="st1" d="M119,137.5c-0.1,0-0.2,0-0.2-0.1l-1.9-1.1c-0.2-0.1-0.3-0.4-0.2-0.7c0.1-0.2,0.4-0.3,0.7-0.2l1.9,1.1
			c0.2,0.1,0.3,0.4,0.2,0.7C119.4,137.4,119.2,137.5,119,137.5z"/>
	</g>
	<g>
		<path class="st1" d="M119.7,137.8c0,0-0.1,0-0.1,0l-0.3-0.1l-0.4-0.2c-0.3-0.1-0.4-0.4-0.3-0.7c0.1-0.3,0.4-0.4,0.7-0.3l0.4,0.2
			l0.3,0l0.1-0.1l0.1-0.5c0-0.3,0.3-0.5,0.6-0.4c0.3,0,0.5,0.3,0.4,0.6l-0.1,0.7c0,0.1,0,0.1-0.1,0.2l-0.1,0.2c0,0-0.1,0.1-0.1,0.1
			l-0.2,0.2c-0.1,0-0.1,0.1-0.2,0.1L119.7,137.8C119.7,137.8,119.7,137.8,119.7,137.8z"/>
	</g>
	<g>
		<path class="st1" d="M120.7,136.6c-0.3,0-0.5-0.2-0.5-0.5v-1.4c0-0.3,0.2-0.5,0.5-0.5s0.5,0.2,0.5,0.5v1.4
			C121.2,136.4,120.9,136.6,120.7,136.6z"/>
	</g>
	<g>
		<path class="st1" d="M119,111.9c-0.1,0-0.2,0-0.2-0.1l-6.9-4c-0.2-0.1-0.3-0.4-0.2-0.7c0.1-0.2,0.4-0.3,0.7-0.2l6.9,4
			c0.2,0.1,0.3,0.4,0.2,0.7C119.3,111.8,119.1,111.9,119,111.9z"/>
	</g>
	<g>
		<path class="st1" d="M112.1,116c-0.3,0-0.5-0.2-0.5-0.5v-8.1c0-0.3,0.2-0.5,0.5-0.5s0.5,0.2,0.5,0.5v8.1
			C112.6,115.8,112.4,116,112.1,116z"/>
	</g>
	<g>
		<path class="st1" d="M120.6,109.1c-0.2,0-0.3-0.1-0.4-0.2c-0.1-0.2-0.1-0.5,0.2-0.7l0.5-0.3c0.2-0.1,0.5-0.1,0.7,0.2
			c0.1,0.2,0.1,0.5-0.2,0.7l-0.5,0.3C120.8,109,120.7,109.1,120.6,109.1z"/>
	</g>
	<g>
		<path class="st1" d="M119,111.9C119,111.9,118.9,111.9,119,111.9c-0.3,0-0.5-0.3-0.5-0.5l0.1-0.8l0.2-0.5l0.3-0.5l0.3-0.4l0.6-0.7
			c0,0,0.1,0,0.1-0.1l0.3-0.2c0.2-0.2,0.5-0.1,0.7,0.1c0.2,0.2,0.1,0.5-0.1,0.7l-0.3,0.2l-0.5,0.6l-0.4,0.7l-0.2,0.7l0,0.3
			C119.5,111.7,119.2,111.9,119,111.9z"/>
	</g>
	<g>
		<path class="st1" d="M119,114.1c-0.3,0-0.5-0.2-0.5-0.5v-2.3c0-0.3,0.2-0.5,0.5-0.5s0.5,0.2,0.5,0.5v2.3
			C119.5,113.9,119.3,114.1,119,114.1z"/>
	</g>
	<g>
		<path class="st1" d="M121.7,113.3c-0.3,0-0.5-0.2-0.5-0.5v-0.5c0-0.3,0.2-0.5,0.5-0.5s0.5,0.2,0.5,0.5v0.5
			C122.2,113.1,122,113.3,121.7,113.3z"/>
	</g>
	<g>
		<path class="st1" d="M121.7,112.8c-0.3,0-0.5-0.2-0.5-0.5V112c0,0,0-0.1,0-0.1l0.3-1l0.4-0.7l0.5-0.6c0.2-0.2,0.5-0.2,0.7-0.1
			c0.2,0.2,0.2,0.5,0.1,0.7l-0.6,0.8l-0.2,0.3l-0.2,0.8v0.2C122.2,112.6,122,112.8,121.7,112.8z"/>
	</g>
	<g>
		<path class="st1" d="M121.1,108.7c-0.2,0-0.3-0.1-0.4-0.2c-0.2-0.2-0.1-0.5,0.1-0.7l0.3-0.2l0.5-0.5l0.5-1l0.1-0.7
			c0-0.3,0.3-0.5,0.5-0.5c0.3,0,0.5,0.3,0.5,0.5l-0.1,0.8c0,0,0,0.1,0,0.1l-0.4,0.8l-0.3,0.5l-0.6,0.7l-0.4,0.3
			C121.3,108.7,121.2,108.7,121.1,108.7z"/>
	</g>
	<g>
		<path class="st1" d="M138.9,101.5c-0.1,0-0.2,0-0.2-0.1l-42-24.2c-0.2-0.1-0.3-0.4-0.2-0.7c0.1-0.2,0.4-0.3,0.7-0.2l42,24.2
			c0.2,0.1,0.3,0.4,0.2,0.7C139.3,101.4,139.1,101.5,138.9,101.5z"/>
	</g>
	<g>
		<path class="st1" d="M92.4,79.5c-0.2,0-0.4-0.1-0.5-0.3c-0.1-0.2,0-0.5,0.2-0.7l4.6-2.2c0.3-0.1,0.5,0,0.7,0.2
			c0.1,0.2,0,0.5-0.2,0.7l-4.6,2.2C92.5,79.4,92.5,79.5,92.4,79.5z"/>
	</g>
	<g>
		<path class="st1" d="M100.9,82c-0.1,0-0.2,0-0.3-0.1l-6.1-3.6c-0.2-0.1-0.3-0.4-0.2-0.7c0.1-0.2,0.4-0.3,0.7-0.2l6.1,3.6
			c0.2,0.1,0.3,0.4,0.2,0.7C101.2,81.9,101.1,82,100.9,82z"/>
	</g>
	<g>
		<path class="st1" d="M132.1,109.6c-0.1,0-0.3,0-0.4-0.1l-0.4-0.4l-0.8-0.6l-0.7-0.3l-0.7-0.1l-0.6,0.2c-0.3,0.1-0.5-0.1-0.6-0.3
			c-0.1-0.3,0.1-0.5,0.3-0.6l0.7-0.2c0.1,0,0.1,0,0.2,0l0.8,0.1c0.1,0,0.1,0,0.1,0l0.9,0.4c0,0,0.1,0,0.1,0.1l0.9,0.6l0.5,0.5
			c0.2,0.2,0.2,0.5,0,0.7C132.4,109.5,132.2,109.6,132.1,109.6z"/>
	</g>
	<g>
		<path class="st1" d="M136.6,102.7c-0.1,0-0.2,0-0.2-0.1L100.6,82c-0.2-0.1-0.3-0.4-0.2-0.7s0.4-0.3,0.7-0.2l35.8,20.6
			c0.2,0.1,0.3,0.4,0.2,0.7C137,102.6,136.8,102.7,136.6,102.7z"/>
	</g>
	<g>
		<path class="st1" d="M100.9,92.2c-0.3,0-0.5-0.2-0.5-0.5V81.5c0-0.3,0.2-0.5,0.5-0.5s0.5,0.2,0.5,0.5v10.2
			C101.4,92,101.2,92.2,100.9,92.2z"/>
	</g>
	<g>
		<path class="st1" d="M115.9,100.7c-0.1,0-0.2,0-0.2-0.1l-17.6-9.8c-0.2-0.1-0.3-0.4-0.2-0.7c0.1-0.2,0.4-0.3,0.7-0.2l17.6,9.8
			c0.2,0.1,0.3,0.4,0.2,0.7C116.2,100.6,116.1,100.7,115.9,100.7z"/>
	</g>
	<g>
		<path class="st1" d="M115.9,102c-0.3,0-0.5-0.2-0.5-0.5v-1.3c0-0.3,0.2-0.5,0.5-0.5s0.5,0.2,0.5,0.5v1.3
			C116.4,101.7,116.2,102,115.9,102z"/>
	</g>
	<g>
		<path class="st1" d="M122.8,105.9c-0.1,0-0.2,0-0.2-0.1l-6.9-4c-0.2-0.1-0.3-0.4-0.2-0.7c0.1-0.2,0.4-0.3,0.7-0.2l6.9,4
			c0.2,0.1,0.3,0.4,0.2,0.7C123.1,105.8,122.9,105.9,122.8,105.9z"/>
	</g>
	<g>
		<path class="st1" d="M122.8,110.4c-0.3,0-0.5-0.2-0.5-0.5v-4.5c0-0.3,0.2-0.5,0.5-0.5s0.5,0.2,0.5,0.5v4.5
			C123.3,110.2,123,110.4,122.8,110.4z"/>
	</g>
	<g>
		<path class="st1" d="M124.3,111.3c-0.1,0-0.2,0-0.3-0.1l-1.5-0.9c-0.2-0.1-0.3-0.4-0.2-0.7c0.1-0.2,0.4-0.3,0.7-0.2l1.5,0.9
			c0.2,0.1,0.3,0.4,0.2,0.7C124.6,111.2,124.5,111.3,124.3,111.3z"/>
	</g>
	<g>
		<path class="st1" d="M124.7,112.4c-0.2,0-0.4-0.1-0.5-0.4l-0.4-1.2c-0.1-0.3,0.1-0.5,0.3-0.6c0.3-0.1,0.5,0.1,0.6,0.3l0.4,1.2
			c0.1,0.3-0.1,0.5-0.3,0.6C124.8,112.4,124.7,112.4,124.7,112.4z"/>
	</g>
	<g>
		<path class="st1" d="M168.4,77c-0.2,0-0.3-0.1-0.4-0.2c-0.1-0.2-0.1-0.5,0.2-0.7l10.5-6.1c0.2-0.1,0.5-0.1,0.7,0.2
			c0.1,0.2,0.1,0.5-0.2,0.7L168.7,77C168.6,77,168.5,77,168.4,77z"/>
	</g>
	<g>
		<path class="st1" d="M164.3,79.4c-0.2,0-0.3-0.1-0.4-0.2c-0.1-0.2-0.1-0.5,0.2-0.7l4.2-2.4c0.2-0.1,0.5-0.1,0.7,0.2
			c0.1,0.2,0.1,0.5-0.2,0.7l-4.2,2.4C164.4,79.4,164.3,79.4,164.3,79.4z"/>
	</g>
	<g>
		<path class="st1" d="M148.7,10.6c-0.1,0-0.2,0-0.2-0.1l-0.7-0.4l-0.6-0.2l-0.6-0.2L146,9.7l-0.5,0l-0.5,0.1l-0.4,0.1l-0.4,0.2
			c-0.2,0.1-0.5,0-0.7-0.2s0-0.5,0.2-0.7l0.5-0.3c0,0,0.1,0,0.1,0l0.5-0.1l0.7-0.1l0.7,0l0.7,0.1l0.7,0.2l0.7,0.3l0.7,0.4
			c0.2,0.1,0.3,0.4,0.2,0.7C149.1,10.5,148.9,10.6,148.7,10.6z"/>
	</g>
	<g>
		<path class="st1" d="M139.7,12.6c-0.2,0-0.3-0.1-0.4-0.2c-0.1-0.2-0.1-0.5,0.2-0.7l4.2-2.4c0.2-0.1,0.5-0.1,0.7,0.2
			c0.1,0.2,0.1,0.5-0.2,0.7l-4.2,2.4C139.9,12.6,139.8,12.6,139.7,12.6z"/>
	</g>
	<g>
		<path class="st1" d="M178.9,71c-0.2,0-0.3-0.1-0.4-0.2c-0.2-0.2-0.1-0.5,0.1-0.7l0.5-0.3l0.3-0.3l0.3-0.4l0.2-0.5l0.2-0.5l0.2-0.6
			l0.1-1.4c0-0.3,0.2-0.5,0.5-0.5c0.3,0,0.5,0.2,0.5,0.5l-0.1,1.5l-0.2,0.8l-0.2,0.6l-0.3,0.6l-0.4,0.5l-0.4,0.4l-0.5,0.4
			C179.1,70.9,179,71,178.9,71z"/>
	</g>
	<g>
		<path class="st1" d="M174.8,73.4c-0.2,0-0.3-0.1-0.4-0.2c-0.1-0.2-0.1-0.5,0.2-0.7l4.1-2.4c0.2-0.1,0.5-0.1,0.7,0.2
			c0.1,0.2,0.1,0.5-0.2,0.7l-4.1,2.4C175,73.3,174.9,73.4,174.8,73.4z"/>
	</g>
	<g>
		<path class="st1" d="M163.6,19.2c-0.1,0-0.2,0-0.2-0.1l-14.9-8.6c-0.2-0.1-0.3-0.4-0.2-0.7c0.1-0.2,0.4-0.3,0.7-0.2l14.9,8.6
			c0.2,0.1,0.3,0.4,0.2,0.7C163.9,19.1,163.7,19.2,163.6,19.2z"/>
	</g>
	<g>
		<path class="st1" d="M144.5,13.1c-0.2,0-0.3-0.1-0.4-0.2c-0.1-0.2-0.1-0.5,0.2-0.7l4.2-2.4c0.2-0.1,0.5-0.1,0.7,0.2
			c0.1,0.2,0.1,0.5-0.2,0.7l-4.2,2.4C144.7,13,144.6,13.1,144.5,13.1z"/>
	</g>
	<g>
		<path class="st1" d="M180.9,66.5c-0.3,0-0.5-0.2-0.5-0.5V48.8c0-0.3,0.2-0.5,0.5-0.5s0.5,0.2,0.5,0.5V66
			C181.4,66.3,181.2,66.5,180.9,66.5z"/>
	</g>
	<g>
		<path class="st1" d="M176.8,68.9c-0.2,0-0.3-0.1-0.4-0.2c-0.1-0.2-0.1-0.5,0.2-0.7l4.1-2.4c0.2-0.1,0.5-0.1,0.7,0.2
			c0.1,0.2,0.1,0.5-0.2,0.7l-4.1,2.4C177,68.9,176.9,68.9,176.8,68.9z"/>
	</g>
	<g>
		<path class="st1" d="M168.4,24.3c-0.2,0-0.3-0.1-0.4-0.2l-1-1.6l-1.1-1.4l-1.3-1.2l-1.3-0.8c-0.2-0.1-0.3-0.5-0.2-0.7
			c0.1-0.2,0.5-0.3,0.7-0.2l0.7,0.4l0.7,0.5l0.7,0.6l0.7,0.7l0.6,0.7l0.6,0.7l1.1,1.6c0.1,0.2,0.1,0.5-0.2,0.7
			C168.6,24.3,168.5,24.3,168.4,24.3z"/>
	</g>
	<g>
		<path class="st1" d="M159.4,21.6c-0.2,0-0.3-0.1-0.4-0.2c-0.1-0.2-0.1-0.5,0.2-0.7l4.2-2.4c0.2-0.1,0.5-0.1,0.7,0.2
			c0.1,0.2,0.1,0.5-0.2,0.7l-4.2,2.4C159.6,21.6,159.5,21.6,159.4,21.6z"/>
	</g>
	<g>
		<path class="st1" d="M180.9,49.3c-0.3,0-0.5-0.2-0.5-0.5l-0.1-1.6l-0.4-1.6l-0.3-0.8l-0.7-1.7l-0.4-0.8c-0.1-0.2-0.1-0.5,0.2-0.7
			c0.2-0.1,0.5-0.1,0.7,0.2l0.5,0.8l0.8,1.8l0.3,0.9l0.4,1.8l0.1,1.7C181.5,49.1,181.2,49.3,180.9,49.3
			C181,49.3,181,49.3,180.9,49.3z"/>
	</g>
	<g>
		<path class="st1" d="M176.8,51.8c-0.2,0-0.3-0.1-0.4-0.2c-0.1-0.2-0.1-0.5,0.2-0.7l4.1-2.4c0.2-0.1,0.5-0.1,0.7,0.2
			c0.1,0.2,0.1,0.5-0.2,0.7l-4.1,2.4C177,51.7,176.9,51.8,176.8,51.8z"/>
	</g>
	<g>
		<path class="st1" d="M178.9,42.6c-0.2,0-0.3-0.1-0.4-0.2L168,24.1c-0.1-0.2-0.1-0.5,0.2-0.7c0.2-0.1,0.5-0.1,0.7,0.2l10.5,18.2
			c0.1,0.2,0.1,0.5-0.2,0.7C179.1,42.6,179,42.6,178.9,42.6z"/>
	</g>
	<g>
		<path class="st1" d="M164.3,26.8c-0.2,0-0.3-0.1-0.4-0.2c-0.1-0.2-0.1-0.5,0.2-0.7l4.2-2.4c0.2-0.1,0.5-0.1,0.7,0.2
			c0.1,0.2,0.1,0.5-0.2,0.7l-4.2,2.4C164.4,26.7,164.3,26.8,164.3,26.8z"/>
	</g>
	<g>
		<path class="st1" d="M174.8,45c-0.2,0-0.3-0.1-0.4-0.3c-0.1-0.2-0.1-0.5,0.2-0.7l4.1-2.4c0.2-0.1,0.5-0.1,0.7,0.2
			c0.1,0.2,0.1,0.5-0.2,0.7l-4.1,2.4C175,44.9,174.9,45,174.8,45z"/>
	</g>
	<g>
		<path class="st1" d="M129.2,18.6c-0.2,0-0.3-0.1-0.4-0.3c-0.1-0.2-0.1-0.5,0.2-0.7l10.5-6c0.2-0.1,0.5-0.1,0.7,0.2
			c0.1,0.2,0.1,0.5-0.2,0.7l-10.5,6C129.3,18.6,129.2,18.6,129.2,18.6z"/>
	</g>
	<g>
		<path class="st1" d="M127.4,21.2c-0.1,0-0.1,0-0.2,0c-0.3-0.1-0.4-0.4-0.3-0.6l0.3-0.8l0.3-0.6l0.4-0.5l0.4-0.4l0.5-0.4
			c0.2-0.2,0.5-0.1,0.7,0.1c0.2,0.2,0.1,0.5-0.1,0.7l-0.4,0.3l-0.3,0.3l-0.3,0.4l-0.2,0.5l-0.3,0.7C127.8,21,127.6,21.2,127.4,21.2z
			"/>
	</g>
	<g>
		<path class="st1" d="M162,79.9l-0.6-0.1c-0.3-0.1-0.4-0.3-0.4-0.6c0.1-0.3,0.3-0.4,0.6-0.4l0.5,0.1l0.5,0l0.5-0.1l0.5-0.1l0.4-0.2
			c0.3-0.1,0.5,0,0.7,0.3c0.1,0.3,0,0.5-0.3,0.7l-0.5,0.2l-0.6,0.2l-0.6,0.1L162,79.9z"/>
	</g>
	<g>
		<path class="st1" d="M164.3,79.4c-0.2,0-0.3-0.1-0.4-0.2c-0.1-0.2-0.1-0.5,0.2-0.7l10.5-6.1c0.2-0.1,0.5-0.1,0.7,0.2
			c0.1,0.2,0.1,0.5-0.2,0.7l-10.5,6.1C164.4,79.4,164.3,79.4,164.3,79.4z"/>
	</g>
	<g>
		<path class="st1" d="M174.8,73.4c-0.2,0-0.3-0.1-0.4-0.2c-0.2-0.2-0.1-0.5,0.1-0.7l0.4-0.3l0.3-0.3l0.3-0.4l0.2-0.5l0.4-1.2
			l0.1-0.7l0-0.7c0-0.3,0.3-0.5,0.5-0.5c0.3,0,0.5,0.2,0.5,0.5l0,0.8l-0.1,0.8l-0.4,1.3l-0.3,0.6l-0.4,0.5l-0.4,0.4l-0.5,0.4
			C175,73.3,174.9,73.4,174.8,73.4z"/>
	</g>
	<g>
		<path class="st1" d="M176.8,68.9c-0.3,0-0.5-0.2-0.5-0.5V51.3c0-0.3,0.2-0.5,0.5-0.5s0.5,0.2,0.5,0.5v17.2
			C177.3,68.7,177.1,68.9,176.8,68.9z"/>
	</g>
	<g>
		<path class="st1" d="M176.8,51.8c-0.3,0-0.5-0.2-0.5-0.5l0-0.8l-0.1-0.8l-0.4-1.6l-0.3-0.8l-0.7-1.7l-0.4-0.8
			c-0.1-0.2,0-0.5,0.2-0.7c0.2-0.1,0.5,0,0.7,0.2l0.8,1.7l0.4,0.9l0.3,0.9l0.4,1.7l0.1,0.9l0,0.9C177.3,51.5,177.1,51.7,176.8,51.8
			C176.8,51.8,176.8,51.8,176.8,51.8z"/>
	</g>
	<g>
		<path class="st1" d="M174.8,45c-0.2,0-0.3-0.1-0.4-0.2l-10.5-18.2c-0.1-0.2-0.1-0.5,0.2-0.7c0.2-0.1,0.5-0.1,0.7,0.2l10.5,18.2
			c0.1,0.2,0.1,0.5-0.2,0.7C175,44.9,174.9,45,174.8,45z"/>
	</g>
	<g>
		<path class="st1" d="M164.3,26.8c-0.2,0-0.3-0.1-0.4-0.2l-1-1.6l-1.1-1.4l-0.6-0.6l-1.3-1l-0.6-0.4c-0.2-0.1-0.3-0.4-0.2-0.7
			s0.4-0.3,0.7-0.2l0.7,0.4l1.4,1.1l1.3,1.4l0.6,0.7l1.1,1.6c0.1,0.2,0.1,0.5-0.2,0.7C164.4,26.7,164.4,26.8,164.3,26.8z"/>
	</g>
	<g>
		<path class="st1" d="M159.4,21.6c-0.1,0-0.2,0-0.2-0.1L144.3,13c-0.2-0.1-0.3-0.4-0.2-0.7c0.1-0.2,0.4-0.3,0.7-0.2l14.9,8.6
			c0.2,0.1,0.3,0.4,0.2,0.7C159.7,21.6,159.6,21.6,159.4,21.6z"/>
	</g>
	<g>
		<path class="st1" d="M144.5,13.1c-0.1,0-0.2,0-0.2-0.1l-0.7-0.4l-1.2-0.4l-0.5-0.1l-0.5,0l-0.5,0.1l-0.4,0.1l-0.5,0.2
			c-0.2,0.1-0.5,0-0.7-0.2s0-0.5,0.2-0.7l0.5-0.3c0,0,0.1,0,0.1,0l0.5-0.1l0.6-0.1l0.7,0l0.7,0.1l0.7,0.2l0.7,0.3l0.7,0.4
			c0.2,0.1,0.3,0.4,0.2,0.7C144.9,13,144.7,13.1,144.5,13.1z"/>
	</g>
	<g>
		<path class="st1" d="M153.6,25.2c-0.1,0-0.2,0-0.3-0.1l-1.6-1l-1.8-0.9c-0.2-0.1-0.3-0.4-0.2-0.7c0.1-0.2,0.4-0.3,0.7-0.2l1.9,0.9
			l1.7,1.1c0.2,0.1,0.3,0.5,0.1,0.7C153.9,25.1,153.8,25.2,153.6,25.2z"/>
	</g>
	<g>
		<path class="st1" d="M188.8,67.9c-0.3,0-0.5-0.2-0.5-0.5s0.2-0.5,0.5-0.5h0c0.3,0,0.5,0.2,0.5,0.5S189.1,67.9,188.8,67.9z"/>
	</g>
	<g>
		<path class="st0" d="M186.3,68.8"/>
	</g>
	<g>
		<path class="st1" d="M186.3,69.3c-0.2,0-0.3-0.1-0.4-0.3c-0.1-0.2-0.1-0.5,0.2-0.7l2.5-1.4c0.2-0.1,0.5-0.1,0.7,0.2
			c0.1,0.2,0.1,0.5-0.2,0.7l-2.5,1.4C186.4,69.3,186.4,69.3,186.3,69.3z"/>
	</g>
	<g>
		<path class="st1" d="M188.8,67.9c-0.2,0-0.3-0.1-0.4-0.2c-0.2-0.2-0.1-0.5,0.1-0.7l2.1-1.3c0.2-0.1,0.5-0.1,0.7,0.1
			c0.2,0.2,0.1,0.5-0.1,0.7l-2.1,1.3C189,67.8,188.9,67.9,188.8,67.9z"/>
	</g>
	<g>
		<path class="st1" d="M188.4,68c-0.2,0-0.3-0.1-0.4-0.2c-0.1-0.2-0.1-0.5,0.2-0.7l2.5-1.4c0.2-0.1,0.5-0.1,0.7,0.2
			c0.1,0.2,0.1,0.5-0.2,0.7l-2.5,1.4C188.5,68,188.4,68,188.4,68z"/>
	</g>
	<g>
		<path class="st1" d="M190.8,66.5c-0.1,0-0.3,0-0.3-0.1c-0.2-0.2-0.2-0.5,0-0.7l0,0l-0.1-0.2l-0.1-0.2c-0.1-0.3,0.1-0.5,0.3-0.6
			c0.3-0.1,0.5,0.1,0.6,0.3l0.1,0.2c0,0,0,0.1,0,0.1l0,0.1c0,0,0,0.1,0,0.1v0.3c0,0.1,0,0.1,0,0.2l0,0.1c0,0-0.1,0.1-0.1,0.1
			c0,0-0.1,0.1-0.1,0.1l-0.1,0.1C191.1,66.5,191,66.5,190.8,66.5z"/>
	</g>
	<g>
		<path class="st0" d="M150,3.7"/>
	</g>
	<g>
		<path class="st1" d="M149.9,4.3c-0.2,0-0.4-0.1-0.4-0.3c-0.1-0.2,0-0.5,0.2-0.7l0.1-0.1c0.2-0.1,0.5,0,0.7,0.2
			c0.1,0.2,0,0.5-0.2,0.7l-0.1,0.1C150,4.3,149.9,4.3,149.9,4.3z"/>
	</g>
	<g>
		<path class="st1" d="M149.3,9.1c-0.2,0-0.4-0.1-0.5-0.3c-0.1-0.3,0.1-0.5,0.3-0.6c0,0,0.1-0.1,0.1-0.1l0.7-0.4
			c0.2-0.2,0.5-0.1,0.7,0.1c0.2,0.2,0.1,0.5-0.1,0.7l-0.8,0.4c-0.1,0.1-0.1,0.1-0.2,0.1l-0.1,0C149.4,9.1,149.3,9.1,149.3,9.1z"/>
	</g>
	<g>
		<path class="st1" d="M150.7,9.3c-0.2,0-0.3-0.1-0.4-0.3l-0.5-0.8c-0.1-0.2-0.1-0.5,0.2-0.7s0.5,0,0.7,0.2l0.5,0.8
			c0.1,0.2,0.1,0.5-0.2,0.7C150.8,9.3,150.7,9.3,150.7,9.3z"/>
	</g>
	<g>
		<path class="st1" d="M150.8,4.6c-0.2,0-0.3-0.1-0.4-0.2c-0.1-0.2-0.1-0.5,0.2-0.7l2.5-1.4c0.2-0.1,0.5-0.1,0.7,0.2
			c0.1,0.2,0.1,0.5-0.2,0.7L151,4.6C150.9,4.6,150.9,4.6,150.8,4.6z"/>
	</g>
	<g>
		<path class="st1" d="M150.2,8.5c-0.2,0-0.4-0.1-0.4-0.3l-0.3-0.5c0,0,0-0.1,0-0.1l-0.3-1.2c0,0,0-0.1,0-0.1l0-0.5c0,0,0-0.1,0-0.1
			l0.1-0.5l0.2-0.5c0,0,0-0.1,0.1-0.1l0.3-0.4c0,0,0.1-0.1,0.1-0.1l0.4-0.3c0.2-0.2,0.5-0.1,0.7,0.1s0.1,0.5-0.1,0.7l-0.3,0.2
			l-0.2,0.3l-0.2,0.4l-0.1,0.4l0,0.4l0.2,1l0.3,0.5c0.1,0.2,0,0.5-0.2,0.7C150.4,8.5,150.3,8.5,150.2,8.5z"/>
	</g>
	<g>
		<path class="st1" d="M181.6,67.6c-0.2,0-0.3-0.1-0.4-0.2c-0.1-0.2-0.1-0.5,0.2-0.7l2.1-1.3c0.2-0.1,0.5-0.1,0.7,0.2
			c0.1,0.2,0.1,0.5-0.2,0.7l-2.1,1.3C181.8,67.6,181.7,67.6,181.6,67.6z"/>
	</g>
	<g>
		<path class="st1" d="M185.1,69.7C185.1,69.7,185.1,69.7,185.1,69.7l-0.7,0c0,0-0.1,0-0.1,0l-0.6-0.2l-0.7-0.3l-0.7-0.5
			c0,0-0.1,0-0.1-0.1l-0.5-0.5l-0.5-0.6c-0.2-0.2-0.1-0.5,0.1-0.7c0.2-0.2,0.5-0.1,0.7,0.1l0.5,0.6l0.4,0.5l0.6,0.4l0.5,0.2l0.5,0.1
			l0.5,0l0.5-0.1l0.5-0.2c0.2-0.1,0.5,0,0.7,0.2c0.1,0.2,0,0.5-0.2,0.7l-0.5,0.3c0,0-0.1,0-0.1,0L185.1,69.7
			C185.1,69.7,185.1,69.7,185.1,69.7z"/>
	</g>
	<g>
		<path class="st1" d="M186.3,69.3c-0.2,0-0.3-0.1-0.4-0.2c-0.1-0.2-0.1-0.5,0.2-0.7l2.1-1.3c0.2-0.1,0.5-0.1,0.7,0.2
			c0.1,0.2,0.1,0.5-0.2,0.7l-2.1,1.3C186.5,69.3,186.4,69.3,186.3,69.3z"/>
	</g>
	<g>
		<path class="st1" d="M184.6,65.7c-0.2,0-0.3-0.1-0.4-0.2l-0.5-0.8c-0.1-0.2-0.1-0.5,0.2-0.7c0.2-0.1,0.5-0.1,0.7,0.2l0.5,0.8
			c0.1,0.2,0.1,0.5-0.2,0.7C184.8,65.7,184.7,65.7,184.6,65.7z"/>
	</g>
	<g>
		<path class="st1" d="M188.3,67.1c-0.2,0-0.3-0.1-0.4-0.3c-0.1-0.2-0.1-0.5,0.2-0.7l2.5-1.4c0.2-0.1,0.5-0.1,0.7,0.2
			c0.1,0.2,0.1,0.5-0.2,0.7l-2.5,1.4C188.5,67.1,188.4,67.1,188.3,67.1z"/>
	</g>
	<g>
		<path class="st1" d="M183.7,66.2c-0.1,0-0.3,0-0.4-0.1c-0.2-0.2-0.2-0.5,0-0.7l0.1-0.1c0.1-0.1,0.1-0.1,0.2-0.1l0.3-0.2
			c0,0,0.1-0.1,0.1-0.1l0.3-0.2c0.2-0.2,0.5-0.1,0.7,0.1c0.2,0.2,0.1,0.5-0.1,0.7l-0.4,0.3c0,0-0.1,0.1-0.1,0.1l-0.2,0.1
			c0,0-0.1,0-0.1,0.1C183.9,66.2,183.8,66.2,183.7,66.2z"/>
	</g>
	<g>
		<path class="st1" d="M187.2,68.3C187.2,68.3,187.2,68.3,187.2,68.3l-0.7,0l-0.7-0.2c0,0-0.1,0-0.1,0l-0.6-0.3l-0.7-0.5l-0.6-0.5
			c0,0,0,0-0.1-0.1l-0.4-0.6c-0.2-0.2-0.1-0.5,0.1-0.7c0.2-0.2,0.5-0.1,0.7,0.1l0.4,0.6l0.5,0.5l0.5,0.4l0.5,0.2l0.6,0.1l0.5,0
			l0.6-0.1l0.5-0.2c0.3-0.1,0.5,0,0.6,0.3c0.1,0.3,0,0.5-0.3,0.6l-0.6,0.2L187.2,68.3C187.2,68.3,187.2,68.3,187.2,68.3z"/>
	</g>
	<g>
		<path class="st1" d="M188.4,68c-0.1,0-0.3,0-0.4-0.1c-0.2-0.2-0.2-0.5,0-0.7l-0.1-0.3c-0.2-0.2-0.1-0.5,0.1-0.7
			c0.2-0.2,0.5-0.1,0.7,0.1l0.2,0.3c0,0,0,0.1,0,0.1l0,0.1c0,0,0,0.1,0,0.1v0.3c0,0.1,0,0.1,0,0.2l0,0.1c0,0-0.1,0.1-0.1,0.1
			c0,0-0.1,0.1-0.1,0.1l-0.1,0.1C188.6,67.9,188.5,68,188.4,68z"/>
	</g>
	<g>
		<path class="st1" d="M186.9,67.3c0,0-0.1,0-0.1,0l-0.5-0.1c0,0-0.1,0-0.1,0l-0.5-0.3l-0.5-0.4l-0.5-0.5l-0.4-0.6
			c-0.2-0.2-0.1-0.5,0.1-0.7c0.2-0.2,0.5-0.1,0.7,0.1l0.4,0.5l0.4,0.4l0.4,0.3l0.4,0.2l0.4,0.1h0.4l0.4-0.1l0.4-0.2
			c0.3-0.1,0.5,0,0.7,0.3c0.1,0.3,0,0.5-0.3,0.7l-0.4,0.2c0,0-0.1,0-0.1,0l-0.5,0.1L186.9,67.3z"/>
	</g>
	<g>
		<path class="st1" d="M151.7,9.6c-0.1,0-0.1,0-0.2,0l-0.2-0.1L151,9.5l-0.3,0l-0.3,0.1c-0.3,0.1-0.5-0.1-0.6-0.3
			c-0.1-0.3,0.1-0.5,0.3-0.6l0.3-0.1c0,0,0.1,0,0.1,0l0.5,0c0,0,0.1,0,0.1,0l0.8,0.2c0.3,0.1,0.4,0.4,0.3,0.7
			C152.1,9.5,151.9,9.6,151.7,9.6z"/>
	</g>
	<g>
		<path class="st1" d="M150.3,9.6c-0.2,0-0.3-0.1-0.4-0.3c-0.1-0.2,0-0.5,0.2-0.7l0.4-0.2c0.2-0.1,0.5,0,0.7,0.2
			c0.1,0.2,0,0.5-0.2,0.7l-0.4,0.2C150.4,9.5,150.3,9.6,150.3,9.6z"/>
	</g>
	<g>
		<path class="st1" d="M183.6,65.2c-0.1,0-0.3,0-0.4-0.1c-0.2-0.2-0.2-0.5,0-0.7l0.2-0.2l0.2-0.3l0.1-0.5l0-0.5
			c0-0.3,0.3-0.5,0.5-0.5c0.3,0,0.5,0.3,0.5,0.5l0,0.6l-0.1,0.6c0,0.1,0,0.1-0.1,0.2l-0.3,0.4c0,0,0,0.1-0.1,0.1l-0.3,0.3
			C183.8,65.1,183.7,65.2,183.6,65.2z"/>
	</g>
	<g>
		<path class="st1" d="M183.8,65.1c-0.2,0-0.4-0.1-0.4-0.3c-0.1-0.2,0-0.5,0.2-0.7l0.4-0.2c0.2-0.1,0.5,0,0.7,0.2
			c0.1,0.2,0,0.5-0.2,0.7L184,65C183.9,65,183.8,65.1,183.8,65.1z"/>
	</g>
	<g>
		<path class="st1" d="M183.6,65.2c-0.2,0-0.4-0.1-0.4-0.3c-0.1-0.2,0-0.5,0.2-0.7l0.5-0.3c0.2-0.1,0.5,0,0.7,0.2
			c0.1,0.2,0,0.5-0.2,0.7l-0.5,0.3C183.7,65.1,183.7,65.2,183.6,65.2z"/>
	</g>
	<g>
		<path class="st1" d="M157.4,9.4c-0.1,0-0.3,0-0.4-0.1l-0.8-0.8l-0.6-0.4L155.1,8l-0.6,0.1c-0.3,0.1-0.5,0-0.7-0.3
			c-0.1-0.3,0-0.5,0.3-0.7l0.2-0.1c0,0,0.1,0,0.1,0l0.6-0.1c0.1,0,0.1,0,0.2,0l0.8,0.2c0.1,0,0.1,0,0.1,0.1l0.8,0.5
			c0,0,0.1,0,0.1,0.1l0.8,0.8c0.2,0.2,0.2,0.5,0,0.7C157.6,9.3,157.5,9.4,157.4,9.4z"/>
	</g>
	<g>
		<path class="st1" d="M186.6,62c-0.1,0-0.3-0.1-0.4-0.2c-0.2-0.2-0.2-0.5,0.1-0.7l0.2-0.2l0.3-0.4l0.1-0.6l-0.1-0.8l-0.4-1.2
			c-0.1-0.3,0-0.5,0.3-0.7c0.3-0.1,0.5,0,0.7,0.3l0.1,0.3l0.3,1c0,0,0,0.1,0,0.1l0.1,0.9c0,0,0,0.1,0,0.1l-0.1,0.8
			c0,0.1,0,0.1-0.1,0.2l-0.4,0.5c0,0-0.1,0.1-0.1,0.1l-0.3,0.2C186.8,62,186.7,62,186.6,62z"/>
	</g>
	<g>
		<path class="st1" d="M163.1,11.1c-0.2,0-0.4-0.1-0.5-0.3l-0.4-0.8l-0.6-0.8L161,8.7l-0.6-0.4l-0.6-0.1l-0.4,0.1
			c-0.2,0.2-0.5,0.1-0.7,0c-0.2-0.2-0.2-0.5,0-0.7l0.1-0.1c0.1-0.1,0.2-0.1,0.3-0.1l0.6-0.1c0.1,0,0.1,0,0.2,0l0.7,0.2
			c0,0,0.1,0,0.1,0.1l0.8,0.4c0,0,0.1,0,0.1,0.1l0.7,0.7l0.7,0.9c0,0,0,0.1,0.1,0.1l0.4,0.8c0.1,0.2,0,0.5-0.2,0.7
			C163.3,11.1,163.2,11.1,163.1,11.1z"/>
	</g>
	<g>
		<path class="st1" d="M188.5,57.4c-0.1,0-0.3-0.1-0.4-0.2c-0.2-0.2-0.1-0.5,0.1-0.7l0.1-0.1l0.3-0.4l0.1-0.6l0-0.8l-0.3-0.9
			l-0.4-0.9l-0.6-0.8c-0.2-0.2-0.1-0.5,0.1-0.7c0.2-0.2,0.5-0.1,0.7,0.1l0.6,0.9l0.5,1l0.3,1.1c0,0,0,0.1,0,0.1l0,0.9
			c0,0,0,0.1,0,0.1l-0.2,0.7c0,0.1,0,0.1-0.1,0.2l-0.4,0.5c0,0-0.1,0.1-0.1,0.1l-0.2,0.1C188.7,57.3,188.6,57.4,188.5,57.4z"/>
	</g>
	<g>
		<path class="st1" d="M168.8,14.6c-0.2,0-0.5-0.2-0.5-0.4l-0.1-0.4l-0.3-0.9l-0.4-0.8l-0.6-0.8l-0.6-0.5l-0.6-0.4l-0.5-0.1
			l-0.5,0.1c-0.3,0.1-0.6-0.2-0.6-0.5c0-0.3,0.2-0.5,0.5-0.5l0.6-0.1c0.1,0,0.1,0,0.2,0l0.7,0.1c0.1,0,0.1,0,0.2,0.1l0.8,0.4
			c0,0,0.1,0,0.1,0.1l0.7,0.6l0.7,0.9c0,0,0,0.1,0.1,0.1l0.5,0.9l0.4,1l0.1,0.5C169.3,14.3,169.1,14.5,168.8,14.6
			C168.8,14.6,168.8,14.6,168.8,14.6z"/>
	</g>
	<g>
		<path class="st1" d="M189,51.6c-0.2,0-0.3-0.1-0.4-0.2c-0.2-0.2-0.1-0.5,0.1-0.7l0.1-0.1l0.3-0.4l0.2-0.5l0-0.8L189,48l-0.4-0.8
			l-0.6-0.8l-0.7-0.6l-0.4-0.2c-0.2-0.2-0.3-0.5-0.1-0.7c0.2-0.2,0.5-0.3,0.7-0.1l0.4,0.3l0.8,0.8l0.7,1l0.5,1l0.3,1.1
			c0,0,0,0.1,0,0.1l0,0.9c0,0.1,0,0.1,0,0.2l-0.2,0.7c0,0.1,0,0.1-0.1,0.2l-0.4,0.5c0,0-0.1,0.1-0.1,0.1l-0.1,0.1
			C189.2,51.5,189.1,51.6,189,51.6z"/>
	</g>
	<g>
		<path class="st1" d="M167.6,23.1c-0.2,0-0.3-0.1-0.4-0.2c-0.1-0.2-0.1-0.5,0.2-0.7l6.3-3.7c0.2-0.1,0.5-0.1,0.7,0.2
			c0.1,0.2,0.1,0.5-0.2,0.7l-6.3,3.7C167.8,23.1,167.7,23.1,167.6,23.1z"/>
	</g>
	<g>
		<path class="st1" d="M173.9,19.5C173.9,19.5,173.9,19.5,173.9,19.5c-0.3,0-0.5-0.3-0.5-0.6l0.1-0.7l-0.1-0.8l-0.3-0.9l-0.5-0.9
			l-0.6-0.7l-0.7-0.6l-0.6-0.3l-0.5-0.1l-0.5,0.1c-0.3,0.1-0.5-0.1-0.6-0.4c-0.1-0.3,0.1-0.5,0.4-0.6l0.6-0.1c0.1,0,0.1,0,0.2,0
			L171,13c0.1,0,0.1,0,0.2,0.1l0.8,0.4l0.8,0.7c0,0,0.1,0.1,0.1,0.1l0.6,0.8l0.6,1l0.4,1.1c0,0,0,0.1,0,0.1l0.1,0.9c0,0,0,0.1,0,0.1
			l-0.1,0.8C174.4,19.3,174.2,19.5,173.9,19.5z"/>
	</g>
	<g>
		<path class="st1" d="M178.8,25.3c-0.2,0-0.4-0.1-0.5-0.3c-0.1-0.1-0.1-0.1-0.1-0.2c0-0.1-0.1-0.2-0.1-0.3c0-0.3,0.2-0.5,0.5-0.5h0
			c0.2,0,0.4,0.2,0.5,0.4c0,0,0,0,0,0c0,0,0,0,0,0c0.1,0.1,0.1,0.2,0.1,0.3C179.3,25.1,179.1,25.3,178.8,25.3z"/>
	</g>
	<g>
		<path class="st1" d="M182.7,31.7c-0.2,0-0.4-0.1-0.5-0.3c0,0,0,0,0,0c0,0,0,0,0-0.1c0-0.1-0.1-0.1-0.1-0.2c0-0.2,0-0.3,0.1-0.5
			c0.2-0.2,0.5-0.2,0.7,0l0,0c0.1,0.1,0.1,0.1,0.1,0.2c0,0,0,0,0,0c0,0,0,0,0,0.1c0,0.1,0.1,0.2,0.1,0.2
			C183.2,31.5,183,31.7,182.7,31.7z"/>
	</g>
	<g>
		<path class="st1" d="M188.2,45c-0.2,0-0.4-0.1-0.5-0.3c-0.1-0.2-0.1-0.5,0.2-0.6l0.3-0.3l0.2-0.5l0-0.7l-0.2-0.9l-0.4-0.9
			l-0.6-0.8l-0.6-0.7l-0.6-0.4l-0.7-0.2c-0.3-0.1-0.4-0.4-0.3-0.6c0.1-0.3,0.4-0.4,0.6-0.3l0.8,0.3c0,0,0.1,0,0.1,0.1l0.8,0.5
			c0,0,0.1,0,0.1,0.1l0.7,0.8l0.6,0.9c0,0,0,0.1,0.1,0.1l0.4,1l0.3,1c0,0,0,0.1,0,0.1l0,0.9c0,0,0,0.1,0,0.1l-0.2,0.7
			c0,0.1-0.1,0.1-0.1,0.2l-0.4,0.5c0,0-0.1,0.1-0.1,0.1C188.4,44.9,188.3,45,188.2,45z"/>
	</g>
	<g>
		<path class="st1" d="M178.9,42.4c-0.2,0-0.3-0.1-0.4-0.2c-0.1-0.2-0.1-0.5,0.2-0.7l6.6-3.8c0.2-0.1,0.5-0.1,0.7,0.2
			c0.1,0.2,0.1,0.5-0.2,0.7l-6.6,3.8C179,42.4,178.9,42.4,178.9,42.4z"/>
	</g>
	<g>
		<path class="st1" d="M171.3,29.3c-0.2,0-0.3-0.1-0.4-0.3c-0.1-0.2-0.1-0.5,0.2-0.7l7.4-4.2c0.2-0.1,0.5-0.1,0.7,0.2
			c0.1,0.2,0.1,0.5-0.2,0.7l-7.4,4.2C171.4,29.3,171.4,29.3,171.3,29.3z"/>
	</g>
	<g>
		<path class="st1" d="M178.6,25.1c-0.1,0-0.1,0-0.2,0c-0.3-0.1-0.4-0.4-0.3-0.7l0.3-0.6l0.1-0.7l-0.1-0.8l-0.3-0.9l-0.5-0.9
			l-0.6-0.7l-0.7-0.5l-0.6-0.3l-0.5-0.1l-0.4,0.1c-0.3,0.1-0.5-0.1-0.6-0.3c-0.1-0.3,0.1-0.5,0.3-0.6L175,18c0.1,0,0.1,0,0.2,0
			l0.7,0.1c0,0,0.1,0,0.1,0l0.8,0.3c0,0,0.1,0,0.1,0.1l0.8,0.6c0,0,0.1,0,0.1,0.1l0.6,0.8l0.6,1l0.4,1c0,0,0,0.1,0,0.1l0.1,0.9
			c0,0,0,0.1,0,0.1l-0.1,0.8c0,0,0,0.1,0,0.1l-0.3,0.6C179,25,178.8,25.1,178.6,25.1z"/>
	</g>
	<g>
		<path class="st1" d="M186,38.1c-0.3,0-0.5-0.2-0.5-0.5c0-0.1,0.1-0.3,0.1-0.4l0.4-0.4l0.2-0.5l0-0.7l-0.2-0.9l-0.4-0.9l-0.5-0.8
			l-0.6-0.6l-0.7-0.5l-0.6-0.2h-0.6c-0.3,0-0.5-0.2-0.5-0.5s0.2-0.5,0.5-0.5h0.7c0.1,0,0.1,0,0.2,0l0.8,0.3c0,0,0.1,0,0.1,0.1
			l0.8,0.5c0,0,0.1,0,0.1,0.1l0.7,0.8l0.6,1l0.4,1.1l0.2,1c0,0,0,0.1,0,0.1l0,0.9c0,0.1,0,0.1,0,0.2l-0.3,0.7c0,0.1-0.1,0.1-0.1,0.2
			l-0.4,0.4C186.3,38.1,186.1,38.1,186,38.1z"/>
	</g>
	<g>
		<path class="st1" d="M175.2,36.1c-0.2,0-0.3-0.1-0.4-0.2c-0.1-0.2-0.1-0.5,0.2-0.7l7.5-4.3c0.2-0.1,0.5-0.1,0.7,0.2
			c0.1,0.2,0.1,0.5-0.2,0.7l-7.5,4.3C175.4,36,175.3,36.1,175.2,36.1z"/>
	</g>
	<g>
		<path class="st1" d="M182.6,31.4c-0.1,0-0.3-0.1-0.4-0.2c-0.2-0.2-0.2-0.5,0-0.7l0.3-0.3l0.2-0.5l0.1-0.7l-0.2-0.9l-0.4-0.9
			l-0.5-0.8l-0.6-0.7l-0.6-0.5l-0.6-0.3l-0.5,0l-0.3,0.1c-0.3,0.1-0.5-0.1-0.6-0.3c-0.1-0.3,0.1-0.5,0.3-0.6l0.4-0.1
			c0.1,0,0.1,0,0.2,0l0.7,0c0.1,0,0.1,0,0.2,0l0.8,0.3c0,0,0.1,0,0.1,0.1l0.7,0.6l0.7,0.8c0,0,0,0.1,0.1,0.1l0.5,0.9l0.4,1l0.2,1
			c0,0,0,0.1,0,0.1l-0.1,0.9c0,0.1,0,0.1,0,0.2l-0.3,0.6c0,0.1-0.1,0.1-0.1,0.2l-0.4,0.4C182.8,31.4,182.7,31.4,182.6,31.4z"/>
	</g>
	<g>
		<path class="st1" d="M174.7,35.2c-0.3,0-0.5-0.2-0.5-0.5v-0.6l-0.2-0.8l-0.3-0.9l-0.5-0.9l-0.6-0.7l-1-0.7
			c-0.2-0.1-0.3-0.5-0.2-0.7c0.1-0.2,0.4-0.3,0.7-0.2l0.4,0.2l0.8,0.6c0,0,0.1,0,0.1,0.1l0.7,0.8l0.6,1l0.4,1l0.2,1l0,0.7
			C175.2,34.9,175,35.2,174.7,35.2z"/>
	</g>
	<g>
		<path class="st1" d="M170.1,27.3c-0.2,0-0.4-0.1-0.5-0.3l-0.3-0.6l-0.5-0.9l-0.4-0.5c-0.2-0.2-0.1-0.5,0.1-0.7
			c0.2-0.2,0.5-0.1,0.7,0.1l0.4,0.5l0.6,1l0.3,0.7c0.1,0.3,0,0.5-0.3,0.7C170.3,27.3,170.2,27.3,170.1,27.3z"/>
	</g>
	<g>
		<path class="st1" d="M158.4,16.3c-0.1,0-0.2,0-0.3-0.1l-0.6-0.5l-0.6-0.4l-0.4-0.1c-0.3-0.1-0.4-0.3-0.4-0.6s0.3-0.4,0.6-0.4
			l0.4,0.1c0,0,0.1,0,0.1,0.1l0.8,0.4l0.6,0.5c0.2,0.2,0.2,0.5,0.1,0.7C158.7,16.2,158.6,16.3,158.4,16.3z"/>
	</g>
	<g>
		<path class="st1" d="M180.9,55.8c0,0-0.1,0-0.1,0c-0.3-0.1-0.4-0.3-0.4-0.6l0.1-0.5l0-0.8l-0.1-0.5c-0.1-0.3,0.1-0.5,0.4-0.6
			c0.3-0.1,0.5,0.1,0.6,0.4l0.1,0.5l0,1c0,0,0,0.1,0,0.1l-0.1,0.6C181.4,55.7,181.2,55.8,180.9,55.8z"/>
	</g>
	<g>
		<path class="st1" d="M178,41c-0.2,0-0.4-0.2-0.5-0.4l-0.2-0.8l-0.4-0.9l-0.5-0.9l-0.6-0.7l-0.2-0.2c-0.2-0.2-0.3-0.5-0.1-0.7
			s0.5-0.3,0.7-0.1l0.3,0.2l0.8,0.8l0.6,1l0.4,1l0.2,0.9c0.1,0.3-0.1,0.5-0.4,0.6C178.1,41,178.1,41,178,41z"/>
	</g>
	<g>
		<path class="st1" d="M42.9,23.6c-0.2,0-0.3-0.1-0.4-0.3c-0.1-0.2-0.1-0.5,0.2-0.7l2.2-1.2c0.2-0.1,0.5-0.1,0.7,0.2
			c0.1,0.2,0.1,0.5-0.2,0.7l-2.2,1.2C43,23.5,43,23.6,42.9,23.6z"/>
	</g>
	<g>
		<path class="st1" d="M138.1,22.5c-0.2,0-0.3-0.1-0.4-0.2c-0.2-0.2-0.1-0.5,0.1-0.7l0.1-0.1c0.2-0.2,0.5-0.1,0.7,0.1
			c0.2,0.2,0.1,0.5-0.1,0.7l-0.1,0.1C138.3,22.5,138.2,22.5,138.1,22.5z"/>
	</g>
	<g>
		<path class="st1" d="M165.4,69.8c-0.1,0-0.3,0-0.4-0.1c-0.2-0.2-0.2-0.5,0-0.7l0.1-0.1c0.2-0.2,0.5-0.2,0.7,0s0.2,0.5,0,0.7
			l-0.1,0.1C165.6,69.8,165.5,69.8,165.4,69.8z"/>
	</g>
	<g>
		<path class="st1" d="M66.6,27.9c-0.2,0-0.4-0.2-0.5-0.4c-0.1-0.3,0.1-0.5,0.4-0.6l3.9-0.8l7-1.5l8-1.8l4.4-0.9l4.6-0.9l4.6-0.7
			l5.6-0.6l4.2-0.3l3.9-0.1l3.2,0l3,0.1l5.4,0.5l2.5,0.3l2.7,0.4l4.1,0.8l3.7,0.9l2.7,0.7l3.2,1c0.3,0.1,0.4,0.4,0.3,0.6
			c-0.1,0.3-0.4,0.4-0.6,0.3l-3.1-1l-2.6-0.7l-3.7-0.9l-4-0.7l-2.6-0.4l-4.7-0.5l-3.2-0.3l-2.9-0.1l-3.2,0l-3.9,0.1l-4.2,0.3
			l-5.5,0.6L94.6,22l-4.6,0.9l-8.3,1.8l-8.1,1.8l-3.1,0.6L66.6,27.9C66.7,27.9,66.7,27.9,66.6,27.9z"/>
	</g>
	<g>
		<path class="st1" d="M146,149.4c-0.2,0-0.3-0.1-0.4-0.2c-0.1-0.2-0.1-0.5,0.2-0.7l2.2-1.3c0.2-0.1,0.5-0.1,0.7,0.2
			c0.1,0.2,0.1,0.5-0.2,0.7l-2.2,1.3C146.2,149.3,146.1,149.4,146,149.4z"/>
	</g>
	<g>
		<path class="st1" d="M155.1,96c-0.1,0-0.1,0-0.2,0c-0.2-0.1-0.4-0.4-0.2-0.7l1-2.2l1.8-4.1l1.4-3.6l1.5-4.4l1-3.2l1.1-3.8l2.5-9.3
			c0.1-0.3,0.3-0.4,0.6-0.4c0.3,0.1,0.4,0.3,0.4,0.6l-2.5,9.3l-1.1,3.8l-1,3.2l-1.6,4.5l-1.4,3.7l-1.8,4.1l-1.1,2.2
			C155.5,95.9,155.3,96,155.1,96z"/>
	</g>
	<g>
		<path class="st1" d="M40.6,42.7c-0.2,0-0.3-0.1-0.4-0.2c-0.1-0.2-0.1-0.5,0.2-0.7l1.6-0.9c0.2-0.1,0.5-0.1,0.7,0.2
			s0.1,0.5-0.2,0.7l-1.6,0.9C40.8,42.6,40.7,42.7,40.6,42.7z"/>
	</g>
	<g>
		<path class="st1" d="M48,44.6c-0.3,0-0.5-0.2-0.5-0.5v-0.4c0-0.3,0.2-0.5,0.5-0.5s0.5,0.2,0.5,0.5v0.4
			C48.5,44.3,48.3,44.6,48,44.6z"/>
	</g>
	<g>
		<path class="st1" d="M147.4,132.4c-0.2,0-0.3-0.1-0.4-0.2c-0.1-0.2-0.1-0.5,0.2-0.7l1.6-0.9c0.2-0.1,0.5-0.1,0.7,0.2
			c0.1,0.2,0.1,0.5-0.2,0.7l-1.6,0.9C147.6,132.3,147.5,132.4,147.4,132.4z"/>
	</g>
	<g>
		<path class="st1" d="M106.6,108.5c-0.1,0-0.1,0-0.2,0l-2.6-1.2c-0.3-0.1-0.4-0.4-0.2-0.7c0.1-0.3,0.4-0.4,0.7-0.2l2.6,1.2
			c0.3,0.1,0.4,0.4,0.2,0.7C107,108.4,106.8,108.5,106.6,108.5z"/>
	</g>
	<g>
		<path class="st1" d="M120.2,137.6c-0.2,0-0.3-0.1-0.4-0.2c-0.1-0.2-0.1-0.5,0.2-0.7l2.7-1.6c0.2-0.1,0.5-0.1,0.7,0.2
			c0.1,0.2,0.1,0.5-0.2,0.7l-2.7,1.6C120.4,137.6,120.3,137.6,120.2,137.6z"/>
	</g>
	<g>
		<path class="st1" d="M126.7,111.8c-0.2,0-0.5-0.2-0.5-0.4l0-0.3c0,0,0-0.1,0-0.1l0.1-0.9c0,0,0-0.1,0-0.1l0.3-0.9
			c0,0,0-0.1,0.1-0.1l0.5-0.8c0,0,0.1-0.1,0.1-0.1l0.7-0.6c0,0,0.1-0.1,0.1-0.1l0.2-0.1c0.2-0.1,0.5,0,0.7,0.2
			c0.1,0.2,0,0.5-0.2,0.7l-0.2,0.1l-0.6,0.5l-0.4,0.6l-0.2,0.7l-0.1,0.8l0,0.2C127.3,111.5,127.1,111.8,126.7,111.8
			C126.8,111.8,126.8,111.8,126.7,111.8z"/>
	</g>
	<g>
		<path class="st1" d="M188.8,67.9c-0.3,0-0.5-0.2-0.5-0.5s0.2-0.5,0.5-0.5h0c0.3,0,0.5,0.2,0.5,0.5S189.1,67.9,188.8,67.9z"/>
	</g>
	<g>
		<path class="st1" d="M186.3,69.3c-0.2,0-0.3-0.1-0.4-0.2c-0.1-0.2-0.1-0.5,0.2-0.7l2.5-1.4c0.2-0.1,0.5-0.1,0.7,0.2
			c0.1,0.2,0.1,0.5-0.2,0.7l-2.5,1.4C186.4,69.3,186.4,69.3,186.3,69.3z"/>
	</g>
	<g>
		<path class="st1" d="M153.5,3.1c-0.2,0-0.3-0.1-0.4-0.2l-0.2-0.1l-0.2,0.1c-0.2,0.1-0.5,0-0.7-0.2c-0.1-0.2,0-0.5,0.2-0.7l0.1-0.1
			c0,0,0.1,0,0.1,0l0.1,0c0,0,0.1,0,0.1,0h0.3c0.1,0,0.2,0,0.2,0.1l0.3,0.1c0,0,0.1,0.1,0.1,0.1l0.1,0.1c0,0,0,0.1,0.1,0.1l0.1,0.1
			c0.2,0.2,0.1,0.5-0.1,0.7C153.7,3,153.6,3.1,153.5,3.1z"/>
	</g>
	<g>
		<path class="st1" d="M146.9,10c-0.2,0-0.4-0.1-0.5-0.3L146.1,9c0,0,0-0.1,0-0.1l-0.1-1c0,0,0-0.1,0-0.1l0.1-0.9c0,0,0-0.1,0-0.1
			l0.3-0.8c0-0.1,0-0.1,0.1-0.1l0.6-0.7c0,0,0.1-0.1,0.1-0.1l0.4-0.3c0.2-0.2,0.5-0.1,0.7,0.1s0.1,0.5-0.1,0.7l-0.4,0.3l-0.5,0.6
			L147.1,7L147,7.8l0.1,0.9l0.2,0.6c0.1,0.3,0,0.5-0.3,0.6C147,10,146.9,10,146.9,10z"/>
	</g>
	<g>
		<path class="st1" d="M157.3,9.3c-0.2,0-0.3-0.1-0.4-0.2l-3.7-6.2c-0.1-0.2-0.1-0.5,0.2-0.7c0.2-0.1,0.5-0.1,0.7,0.2l3.7,6.2
			c0.1,0.2,0.1,0.5-0.2,0.7C157.5,9.3,157.4,9.3,157.3,9.3z"/>
	</g>
	<g>
		<path class="st1" d="M188.8,67.9c-0.2,0-0.3-0.1-0.4-0.2c-0.2-0.2-0.1-0.5,0.1-0.7l2.1-1.4c0.2-0.2,0.5-0.1,0.7,0.1
			c0.2,0.2,0.1,0.5-0.1,0.7l-2.1,1.4C189,67.8,188.9,67.9,188.8,67.9z"/>
	</g>
	<g>
		<path class="st1" d="M191.1,65.5c-0.2,0-0.3-0.1-0.4-0.2l-4.1-6.8c-0.1-0.2-0.1-0.5,0.2-0.7c0.2-0.1,0.5-0.1,0.7,0.2l4.1,6.8
			c0.1,0.2,0.1,0.5-0.2,0.7C191.3,65.4,191.2,65.5,191.1,65.5z"/>
	</g>
	<g>
		<path class="st1" d="M190.9,66.5c-0.2,0-0.3-0.1-0.4-0.2c-0.2-0.2-0.1-0.5,0.1-0.7l0.1-0.1l-0.1-0.3c-0.1-0.2,0-0.5,0.2-0.7
			c0.2-0.1,0.5,0,0.7,0.2l0.1,0.1c0,0,0,0.1,0,0.1l0,0.1c0,0,0,0.1,0,0.1v0.3c0,0,0,0.1,0,0.1l0,0.1c0,0,0,0.1,0,0.1l-0.1,0.1
			c0,0-0.1,0.1-0.1,0.1l-0.3,0.2C191.1,66.5,191,66.5,190.9,66.5z"/>
	</g>
	<g>
		<path class="st1" d="M181.5,67.7c-0.2,0-0.3-0.1-0.4-0.2l-0.5-0.9c-0.1-0.2-0.1-0.5,0.2-0.7c0.2-0.1,0.5-0.1,0.7,0.2l0.5,0.9
			c0.1,0.2,0.1,0.5-0.2,0.7C181.7,67.7,181.6,67.7,181.5,67.7z"/>
	</g>
	<g>
		<path class="st1" d="M185.3,69.7h-0.9c0,0-0.1,0-0.1,0l-1-0.2c0,0-0.1,0-0.1-0.1l-0.9-0.5c0,0-0.1,0-0.1-0.1l-0.8-0.7
			c0,0,0,0-0.1-0.1l-0.3-0.5c-0.2-0.2-0.1-0.5,0.1-0.7c0.2-0.2,0.5-0.1,0.7,0.1l0.3,0.4l0.7,0.6l0.8,0.5l0.8,0.2h0.8l0.7-0.3
			c0.2-0.2,0.5-0.1,0.7,0.1c0.2,0.2,0.1,0.5-0.1,0.7l-0.1,0.1c0,0-0.1,0-0.1,0.1l-0.8,0.3C185.4,69.7,185.4,69.7,185.3,69.7z"/>
	</g>
	<g>
		<path class="st1" d="M150,4.2c-0.2,0-0.3-0.1-0.4-0.2c-0.1-0.2-0.1-0.5,0.2-0.7l2.5-1.4c0.2-0.1,0.5-0.1,0.7,0.2
			c0.1,0.2,0.1,0.5-0.2,0.7l-2.5,1.4C150.2,4.2,150.1,4.2,150,4.2z"/>
	</g>
	<g>
		<path class="st1" d="M147.8,5.6c-0.2,0-0.3-0.1-0.4-0.2c-0.2-0.2-0.1-0.5,0.1-0.7l2.1-1.3c0.2-0.2,0.5-0.1,0.7,0.1
			s0.1,0.5-0.1,0.7l-2.1,1.3C148,5.6,147.9,5.6,147.8,5.6z"/>
	</g>
	<g>
		<path class="st1" d="M148.5,10.6c-0.2,0-0.3-0.1-0.4-0.2c-0.1-0.2-0.1-0.5,0.2-0.7l1.7-1c0.2-0.1,0.5-0.1,0.7,0.2
			c0.1,0.2,0.1,0.5-0.2,0.7l-1.7,1C148.7,10.5,148.6,10.6,148.5,10.6z"/>
	</g>
	<g>
		<path class="st1" d="M180.9,66.7c-0.2,0-0.3-0.1-0.4-0.2c-0.1-0.2-0.1-0.5,0.2-0.7l2.8-1.6c0.2-0.1,0.5-0.1,0.7,0.2
			c0.1,0.2,0.1,0.5-0.2,0.7l-2.8,1.6C181.1,66.7,181,66.7,180.9,66.7z"/>
	</g>
	<g>
		<path class="st1" d="M149.3,11c-0.2,0-0.3-0.1-0.4-0.2c-0.1-0.2-0.1-0.5,0.2-0.7l5-2.9c0.2-0.1,0.5-0.1,0.7,0.2
			c0.1,0.2,0.1,0.5-0.2,0.7l-5,2.9C149.5,11,149.4,11,149.3,11z"/>
	</g>
	<g>
		<path class="st1" d="M180.9,65.3c-0.2,0-0.3-0.1-0.4-0.3c-0.1-0.2-0.1-0.5,0.2-0.7l5.6-3.2c0.2-0.1,0.5-0.1,0.7,0.2
			c0.1,0.2,0.1,0.5-0.2,0.7l-5.6,3.2C181.1,65.3,181,65.3,180.9,65.3z"/>
	</g>
	<g>
		<path class="st1" d="M152,12.5c-0.2,0-0.3-0.1-0.4-0.3c-0.1-0.2-0.1-0.5,0.2-0.7l7.2-4.1c0.2-0.1,0.5-0.1,0.7,0.2
			c0.1,0.2,0.1,0.5-0.2,0.7l-7.2,4.1C152.1,12.5,152,12.5,152,12.5z"/>
	</g>
	<g>
		<path class="st1" d="M180.9,61.7c-0.2,0-0.3-0.1-0.4-0.2c-0.1-0.2-0.1-0.5,0.2-0.7l7.6-4.4c0.2-0.1,0.5-0.1,0.7,0.2
			c0.1,0.2,0.1,0.5-0.2,0.7l-7.6,4.4C181.1,61.7,181,61.7,180.9,61.7z"/>
	</g>
	<g>
		<path class="st1" d="M156.3,15.1c-0.2,0-0.3-0.1-0.4-0.2c-0.1-0.2-0.1-0.5,0.2-0.7l8.1-4.7c0.2-0.1,0.5-0.1,0.7,0.2
			c0.1,0.2,0.1,0.5-0.2,0.7l-8.1,4.7C156.5,15,156.4,15.1,156.3,15.1z"/>
	</g>
	<g>
		<path class="st1" d="M180.9,56.2c-0.2,0-0.3-0.1-0.4-0.3c-0.1-0.2-0.1-0.5,0.2-0.7l8.1-4.6c0.2-0.1,0.5-0.1,0.7,0.2
			c0.1,0.2,0.1,0.5-0.2,0.7l-8.1,4.6C181.1,56.2,181,56.2,180.9,56.2z"/>
	</g>
	<g>
		<path class="st1" d="M162.2,18.4c-0.2,0-0.3-0.1-0.4-0.2c-0.1-0.2-0.1-0.5,0.2-0.7l7.5-4.4c0.2-0.1,0.5-0.1,0.7,0.2
			c0.1,0.2,0.1,0.5-0.2,0.7l-7.5,4.4C162.3,18.4,162.3,18.4,162.2,18.4z"/>
	</g>
	<g>
		<path class="st1" d="M180.9,49.2c-0.2,0-0.3-0.1-0.4-0.2c-0.1-0.2-0.1-0.5,0.2-0.7l7.2-4.2c0.2-0.1,0.5-0.1,0.7,0.2
			c0.1,0.2,0.1,0.5-0.2,0.7l-7.2,4.2C181.1,49.1,181,49.2,180.9,49.2z"/>
	</g>
	<g>
		<path class="st1" d="M167.7,23.2c-0.2,0-0.3-0.1-0.4-0.2c-0.1-0.2-0.1-0.5,0.2-0.7l7-4.1c0.2-0.1,0.5-0.1,0.7,0.2
			c0.1,0.2,0.1,0.5-0.2,0.7l-7,4.1C167.8,23.1,167.8,23.2,167.7,23.2z"/>
	</g>
	<g>
		<path class="st1" d="M178.8,42.3c-0.2,0-0.3-0.1-0.4-0.3c-0.1-0.2-0.1-0.5,0.2-0.7l7.2-4.1c0.2-0.1,0.5-0.1,0.7,0.2
			c0.1,0.2,0.1,0.5-0.2,0.7l-7.2,4.1C179,42.3,178.9,42.3,178.8,42.3z"/>
	</g>
	<g>
		<path class="st1" d="M171.4,29.6c-0.2,0-0.3-0.1-0.4-0.2c-0.1-0.2-0.1-0.5,0.2-0.7l7.6-4.4c0.2-0.1,0.5-0.1,0.7,0.2
			c0.1,0.2,0.1,0.5-0.2,0.7l-7.6,4.4C171.6,29.5,171.5,29.6,171.4,29.6z"/>
	</g>
	<g>
		<path class="st1" d="M175.1,35.8c-0.2,0-0.3-0.1-0.4-0.2c-0.1-0.2-0.1-0.5,0.2-0.7l7.6-4.4c0.2-0.1,0.5-0.1,0.7,0.2
			c0.1,0.2,0.1,0.5-0.2,0.7l-7.6,4.4C175.2,35.8,175.1,35.8,175.1,35.8z"/>
	</g>
	<g>
		<path class="st1" d="M15.5,57.7c-0.2,0-0.3-0.1-0.4-0.2c-0.1-0.2-0.1-0.5,0.2-0.7l18.3-10.7c0.2-0.1,0.5-0.1,0.7,0.2
			c0.1,0.2,0.1,0.5-0.2,0.7L15.8,57.6C15.7,57.7,15.6,57.7,15.5,57.7z"/>
	</g>
	<g>
		<path class="st1" d="M75.3,161c-0.2,0-0.3-0.1-0.4-0.3c-0.1-0.2-0.1-0.5,0.2-0.7l18.3-10.5c0.2-0.1,0.5-0.1,0.7,0.2
			c0.1,0.2,0.1,0.5-0.2,0.7L75.6,161C75.5,161,75.4,161,75.3,161z"/>
	</g>
	<g>
		<path class="st1" d="M93,151c-0.2,0-0.3-0.1-0.4-0.3c-0.1-0.2-0.1-0.5,0.2-0.7l1.4-0.8c0.2-0.1,0.5-0.1,0.7,0.2
			c0.1,0.2,0.1,0.5-0.2,0.7l-1.4,0.8C93.1,150.9,93.1,151,93,151z"/>
	</g>
	<g>
		<path class="st1" d="M6.7,94.7c-0.3,0-0.5-0.2-0.5-0.5v-4.1c0,0,0-0.1,0-0.1l0.2-0.8v-1.6c0,0,0-0.1,0-0.1l0.2-0.8v-0.6
			c0,0,0-0.1,0-0.1l0.2-0.8v-0.8c0,0,0-0.1,0-0.1L7,83.6v-0.8c0-0.1,0-0.1,0-0.2l0.2-0.6l0.4-1.5v-0.8c0-0.1,0-0.1,0-0.2L7.9,79
			l0.4-1.6l0.2-0.7l0.4-1.6c0-0.1,0-0.1,0.1-0.2l0.4-0.6c0.2-0.2,0.5-0.3,0.7-0.1s0.3,0.5,0.1,0.7l-0.4,0.5L9.4,77l-0.2,0.7
			l-0.6,2.2v0.7c0,0,0,0.1,0,0.1L8,83v0.7c0,0,0,0.1,0,0.1l-0.2,0.8v0.8c0,0,0,0.1,0,0.1l-0.2,0.8v0.6c0,0,0,0.1,0,0.1l-0.2,0.8v1.6
			c0,0,0,0.1,0,0.1l-0.2,0.8v4C7.2,94.5,7,94.7,6.7,94.7z"/>
	</g>
	<g>
		<path class="st1" d="M57,157.3h-0.2c0,0-0.1,0-0.1,0l-1.6-0.4l-0.7-0.2l-1.6-0.4l-0.7-0.2l-1.6-0.4c-0.1,0-0.1,0-0.2-0.1l-0.5-0.4
			l-1.6-0.4l-0.7-0.2l-0.9-0.4l-0.6-0.2l-0.9-0.4l-0.6-0.2l-0.9-0.4l-0.6-0.4l-0.7-0.2c-0.1,0-0.1,0-0.2-0.1l-0.6-0.4l-0.8-0.4
			l-0.5-0.2c0,0-0.1,0-0.1-0.1l-0.6-0.4l-0.8-0.4l-1.3-0.9l-0.8-0.4L35,148l-0.8-0.4c0,0-0.1-0.1-0.1-0.1l-0.6-0.6l-1.8-1.2
			l-0.7-0.7l-0.5-0.4l-0.7-0.7l-1.2-0.8l-1.3-1.3l-0.5-0.3c-0.1,0-0.1-0.1-0.1-0.1l-0.4-0.5l-0.5-0.4l-1.3-1.3l-0.4-0.6l-0.5-0.4
			c-0.1,0-0.1-0.1-0.1-0.1l-0.4-0.6l-1.2-1.2l-0.9-1.3l-0.6-0.5l-0.5-0.7l-0.6-0.5l-1.3-1.9l-0.6-0.5c0,0-0.1-0.1-0.1-0.1l-0.4-0.8
			l-1.2-1.8l-0.4-0.9l-0.8-1.2l-0.4-0.9l-0.4-0.6c0,0,0-0.1-0.1-0.1l-0.2-0.6l-0.4-0.8l-0.4-0.6c0,0-0.1-0.1-0.1-0.2l-0.2-0.7
			l-0.4-0.5l-0.4-0.9l-0.2-0.7l-0.4-0.8l-0.2-0.7l-0.4-0.8l-0.2-0.7l-0.4-1.6l-0.4-0.5c0,0-0.1-0.1-0.1-0.2l-1.8-7c0,0,0-0.1,0-0.1
			v-0.6l-0.6-2.4c0,0,0-0.1,0-0.1v-0.7L6.6,103c0-0.1,0-0.1,0-0.2V102l-0.2-0.8c0,0,0-0.1,0-0.1v-1.6l-0.2-0.5c0-0.1,0-0.1,0-0.2
			v-4.7c0-0.3,0.2-0.5,0.5-0.5s0.5,0.2,0.5,0.5v4.6l0.2,0.5c0,0.1,0,0.1,0,0.2v1.6l0.2,0.8c0,0,0,0.1,0,0.1v0.7l0.2,0.5
			c0,0.1,0,0.1,0,0.2v0.8l0.6,2.4c0,0,0,0.1,0,0.1v0.6l1.8,6.8l0.4,0.5c0,0,0.1,0.1,0.1,0.2l0.6,2.2l0.4,0.8l0.2,0.7l0.4,0.8
			l0.2,0.7l0.4,0.8l0.4,0.6c0,0,0.1,0.1,0.1,0.2l0.2,0.7l0.4,0.5l0.4,0.9l0.2,0.6l0.4,0.6l0.4,0.9l0.8,1.2l0.4,0.9l1.2,1.8l0.4,0.8
			l0.6,0.6l1.3,1.9l0.6,0.5l0.5,0.7l0.6,0.5l0.9,1.3l1.2,1.2l0.4,0.6l0.5,0.4c0.1,0,0.1,0.1,0.1,0.1l0.4,0.6l1.2,1.2l0.5,0.3
			c0.1,0,0.1,0.1,0.1,0.1l0.4,0.5l0.5,0.4l1.3,1.3l1.2,0.8l0.7,0.7l0.5,0.4l0.7,0.7l1.8,1.2l0.6,0.6l0.8,0.4l1.9,1.3l0.8,0.4
			l1.3,0.9l0.8,0.4l0.6,0.4l0.6,0.2l0.9,0.4l0.6,0.4l0.7,0.2c0.1,0,0.1,0,0.2,0.1l0.6,0.4l0.8,0.4l0.6,0.2l0.9,0.4l0.6,0.2l0.9,0.4
			l0.6,0.2l1.6,0.4c0.1,0,0.1,0,0.2,0.1l0.5,0.4l1.6,0.4l0.7,0.2l1.6,0.4l0.7,0.2l1.7,0.4c0.3,0,0.5,0.2,0.5,0.5
			S57.3,157.3,57,157.3z"/>
	</g>
	<g>
		<path class="st1" d="M45.5,158.2c-0.1,0-0.2,0-0.3-0.1L42,156l-3.3-2.3l-6.2-5.4l-3.1-3.1l-3.1-3.3l-2.7-3.3l-2.9-3.7l-0.3-0.5
			c-0.1-0.2,0-0.5,0.2-0.7c0.2-0.1,0.5,0,0.7,0.2l0.2,0.4l2.8,3.6l2.7,3.3l3.1,3.3l3.1,3.1l6.1,5.3l3.2,2.2l3.3,2
			c0.2,0.1,0.3,0.5,0.2,0.7C45.8,158.1,45.7,158.2,45.5,158.2z"/>
	</g>
	<g>
		<path class="st1" d="M64.2,163.9l-2.9-0.2l-3.1-0.6l-3.1-0.8l-3.3-1l-3.3-1.5l-3.1-1.7c-0.2-0.1-0.3-0.4-0.2-0.7
			c0.1-0.2,0.4-0.3,0.7-0.2l3.1,1.6l3.3,1.4l3.2,1l3.1,0.8l3.1,0.6l2.8,0.2l2.8-0.2l2.6-0.4l2.4-0.8l2.4-1l2.2-1.4l2-1.6l1.8-2
			l1.6-2.2l1.4-2.4l1.2-2.8l1-2.8l1.2-6.7l0.2-3.4l0-3.7l-0.2-3.9l-1.2-8l-1-4.1l-1.2-4.1l-1.4-4.3l-1.6-4.1l-1.8-4.1l-2-4.1
			l-2.2-3.9l-4.9-7.8l-2.6-3.5l-2.9-3.5L61,73.2l-3.1-3.1l-3.1-2.9l-3.2-2.4l-3.3-2.2l-3.1-2.1L42,58.9l-3.3-1.4l-3.1-1.2l-3-0.8
			l-3-0.4l-3-0.2L24,55l-2.8,0.4l-2.4,0.8l-2.4,1l-2.2,1.4l-2,1.6l-1.8,2l-1.6,2.2l-1.4,2.4l-1.2,2.6l-1,3l-1.2,6.5l-0.2,3.6l0,3.7
			l0.2,3.9l1.2,8l1,4.1l1.2,4.1l1.4,4.1l1.6,4.3l1,2.5c0.1,0.3,0,0.5-0.3,0.7c-0.3,0.1-0.5,0-0.7-0.3l-1-2.5l-1.6-4.3l-1.4-4.1
			l-1.2-4.1l-1-4.1l-1.2-8.1l-0.2-4l0-3.7l0.2-3.7l1.2-6.6l1-3.1l1.3-2.7l1.5-2.5l1.7-2.3l1.9-2.1l2.1-1.7l2.3-1.5l2.5-1.1l2.5-0.8
			l3-0.4l2.7-0.2l3.2,0.2l3.1,0.4l3.1,0.8l3.1,1.3l3.3,1.4l3.3,1.7l3.1,2.1l3.3,2.3l3.3,2.5l3.1,2.9l3.1,3.1l2.9,3.1l2.9,3.5
			l2.7,3.5l5,7.8l2.3,3.9l2.1,4.1l1.9,4.1l1.7,4.1l1.4,4.3l1.2,4.1l1,4.1l1.2,8.1l0.2,4l0,3.7l-0.2,3.5l-1.2,6.8l-1,3l-1.2,2.9
			l-1.5,2.5l-1.7,2.3l-1.9,2.1l-2.1,1.7l-2.3,1.5l-2.5,1.1l-2.5,0.8l-2.8,0.4L64.2,163.9z"/>
	</g>
	<g>
		<path class="st1" d="M94.2,82.6c-0.2,0-0.3-0.1-0.4-0.2l-2.5-3.9l-2.5-3.7l-2.7-3.7l-2.7-3.5l-2.9-3.5l-3-3l-3.1-2.9l-3.1-2.7
			l-3.3-2.4L65,50.8L61.9,49l-6.5-2.8l-3-0.8l-3.1-0.6l-3-0.4l-2.8,0l-2.8,0.2l-2.4,0.6l-2.6,1L34,47c-0.2,0.1-0.5,0-0.7-0.2
			c-0.1-0.2,0-0.5,0.2-0.7l1.6-0.8l2.7-1l2.5-0.6l3-0.2l2.9,0l3.1,0.4l3.1,0.6l3.1,0.8l6.6,2.9l3.1,1.9l3.3,2.3l3.3,2.5l3.1,2.7
			l3.1,2.9l3.1,3.1l2.9,3.5l2.7,3.5l2.7,3.7l2.5,3.7l2.5,3.9c0.1,0.2,0.1,0.5-0.2,0.7C94.4,82.5,94.3,82.6,94.2,82.6z"/>
	</g>
	<g>
		<path class="st1" d="M105.9,123.8c-0.3,0-0.5-0.2-0.5-0.5v-3.7l-0.4-4.1l-0.6-4.1l-0.8-4.1l-1-4.1l-2.9-8.6l-1.8-4.1l-2-4.3
			l-2-4.1c-0.1-0.2,0-0.5,0.2-0.7c0.2-0.1,0.5,0,0.7,0.2l2.1,4.1l2.1,4.3l1.9,4.1l2.9,8.7l1,4.1l0.8,4.1l0.6,4.1l0.4,4.1l0,3.7
			C106.4,123.6,106.2,123.8,105.9,123.8z"/>
	</g>
	<g>
		<path class="st1" d="M94.2,150.1c-0.2,0-0.3-0.1-0.4-0.2c-0.2-0.2-0.1-0.5,0.1-0.7l2.5-1.8l2.4-2.4l1.8-2.8l1.8-3l1.2-3.4l1-3.9
			l0.6-4.1l0.2-4.5c0-0.3,0.2-0.5,0.5-0.5c0.3,0,0.5,0.2,0.5,0.5l-0.2,4.5l-0.6,4.2l-1,4l-1.2,3.5c0,0,0,0.1,0,0.1l-1.8,3.1
			l-1.9,2.9c0,0,0,0.1-0.1,0.1l-2.5,2.5l-2.5,1.9C94.4,150.1,94.3,150.1,94.2,150.1z"/>
	</g>
	<g>
		<path class="st1" d="M93.6,150.6c-0.2,0-0.3-0.1-0.4-0.2c-0.2-0.2-0.1-0.5,0.1-0.7l0.6-0.4c0.2-0.2,0.5-0.1,0.7,0.1
			c0.2,0.2,0.1,0.5-0.1,0.7l-0.6,0.4C93.8,150.5,93.7,150.6,93.6,150.6z"/>
	</g>
	<g>
		<path class="st1" d="M7.7,83.8c-0.3,0-0.5-0.2-0.5-0.5v-0.6l0.4-3.3l0.6-3.1l1-2.9l1.2-2.7L12,68l1.5-2.1l1.9-1.9l2.1-1.5l2.3-1.3
			l2.5-1l2.5-0.6l2.8-0.2l2.7,0l2.9,0.4l3.1,0.8l3.1,1l3.1,1.2l3.1,1.7c0.2,0.1,0.3,0.4,0.2,0.7c-0.1,0.2-0.4,0.3-0.7,0.2l-3.1-1.6
			l-3-1.2l-3.1-1l-3.1-0.8l-2.8-0.4l-2.6,0L25,60.6l-2.4,0.6l-2.4,1L18,63.4l-2,1.4l-1.8,1.8l-1.4,2L11.4,71l-1.2,2.6l-1,2.8l-0.6,3
			l-0.4,3.3l0,0.6C8.2,83.6,8,83.8,7.7,83.8z"/>
	</g>
	<g>
		<path class="st1" d="M62,158.4l-2.9-0.2l-2.9-0.6l-3.1-0.8l-4.6-1.9c-0.3-0.1-0.4-0.4-0.3-0.7c0.1-0.3,0.4-0.4,0.7-0.3l1.4,0.6
			l3.1,1.2l3,0.8l2.9,0.6l2.8,0.2l2.6-0.2l2.6-0.4l2.4-0.8l2.2-1l2-1.2l2-1.8l1.6-1.8l1.4-2.2l1.4-2.4l1-2.8l0.8-2.8l0.8-6.5l0-3.4
			l-0.2-3.7l-0.4-3.9l-0.6-3.9l-2-7.8l-1.4-4.1l-1.6-3.9l-1.8-3.9l-2-3.9l-2.2-3.9l-2.2-3.5l-2.5-3.5L63,80.7l-2.8-3l-2.9-2.9
			l-3.1-2.9l-2.9-2.5l-3.1-2.2l-3-1.8c-0.2-0.1-0.3-0.4-0.2-0.7c0.1-0.2,0.4-0.3,0.7-0.2l3.1,1.8l3.1,2.3l2.9,2.5l3.1,2.9l2.9,2.9
			l2.9,3.1l2.7,3.5l2.5,3.5l2.3,3.5l2.3,3.9l2.1,3.9l1.9,3.9l1.7,3.9l1.4,4.1l2.1,7.8l0.6,4l0.4,3.9l0.2,3.7l0,3.5l-0.8,6.6l-0.8,3
			l-1,2.9l-1.5,2.5l-1.4,2.3l-1.7,1.9l-2.1,1.9l-2.1,1.3l-2.3,1.1l-2.5,0.8l-2.8,0.4L62,158.4z"/>
	</g>
	<g>
		<path class="st1" d="M9.8,75.2c-0.3,0-0.5-0.2-0.5-0.5v-0.2c0-0.1,0-0.1,0-0.2l1-2.7l1.5-2.7l1.5-2.3l1.7-1.9l2.1-1.7l1.4-1.2
			c0.2-0.2,0.5-0.2,0.7,0.1c0.2,0.2,0.2,0.5-0.1,0.7l-1.4,1.2l-2.1,1.7l-1.6,1.8l-1.4,2.2L11.2,72l-1,2.6
			C10.3,74.9,10.1,75.2,9.8,75.2z"/>
	</g>
	<g>
		<path class="st1" d="M61.1,158l-3.1-0.4l-0.9-0.2c-0.3-0.1-0.4-0.3-0.4-0.6c0.1-0.3,0.3-0.4,0.6-0.4l0.8,0.2l3,0.4l2.6,0l2.6-0.2
			l2.4-0.6l2.4-0.8l1.2-0.6c0.2-0.1,0.5,0,0.7,0.2c0.1,0.2,0,0.5-0.2,0.7l-1.2,0.6l-2.5,0.8l-2.5,0.6l-2.8,0.2L61.1,158z"/>
	</g>
</g>
</svg>
