<?xml version="1.0" encoding="utf-8"?>
<!-- Generator: Adobe Illustrator 16.0.4, SVG Export Plug-In . SVG Version: 6.00 Build 0)  -->
<!DOCTYPE svg PUBLIC "-//W3C//DTD SVG 1.1//EN" "http://www.w3.org/Graphics/SVG/1.1/DTD/svg11.dtd">
<svg version="1.1" id="Layer_3" xmlns="http://www.w3.org/2000/svg" xmlns:xlink="http://www.w3.org/1999/xlink" x="0px" y="0px"
	 width="60px" height="60px" viewBox="0 0 60 60" style="enable-background:new 0 0 60 60;" xml:space="preserve">
<style type="text/css">
<![CDATA[
	.st0{fill:#CCCCCC;}
]]>
</style>
<path class="st0" d="M30,7C17.3,7,7,17.3,7,30c0,12.6,10.3,23,23,23c12.6,0,23-10.4,23-23C53,17.3,42.6,7,30,7z M49.6,30
	c0,4.5-1.5,8.6-4.1,12c-0.7-0.5-1.5-2.1-0.8-3.7c0.7-1.6,0.9-5.2,0.8-6.7c-0.2-1.5-0.9-4.8-2.9-4.9c-2,0-3.4-0.7-4.6-3.1
	c-2.5-5,4.7-5.9,2.1-8.7c-0.7-0.8-4.3,3.1-4.8-2.1c0-0.4,0.3-0.9,0.8-1.5C44,14.1,49.6,21.3,49.6,30z M27.3,10.6
	c-0.5,0.9-1.7,1.3-2.5,2c-1.6,1.5-2.4,1.3-3.2,2.7c-0.9,1.5-3.8,3.5-3.8,4.5c0,1,1.5,2.2,2.2,2c0.7-0.2,2.6-0.2,3.8,0.2
	s9.4,0.8,6.7,7.7c-0.8,2.2-4.5,1.8-5.4,5.5c-0.2,0.5-0.6,2.8-0.7,3.6c-0.1,1.1,0.8,5.5-0.3,5.5S20,40.4,20,39.7
	c0-0.7-0.8-3.2-0.8-5.4c0-2.1-3.6-2.1-3.6-4.9c0-2.5,2-3.8,1.5-5.1c-0.5-1.2-3.9-1.3-5.4-1.4C14.2,16.4,20.2,11.6,27.3,10.6z
	 M23.9,48.6c1.2-0.6,1.3-1.4,2.4-1.4c1.2-0.1,2.2-0.5,3.6-0.8c1.2-0.2,3.4-1.5,5.4-1.7c1.6-0.1,4.8,0.1,5.7,1.7
	c-3.1,2.1-6.8,3.3-10.8,3.3C27.9,49.6,25.8,49.2,23.9,48.6z"/>
<g>
</g>
<g>
</g>
<g>
</g>
<g>
</g>
<g>
</g>
<g>
</g>
</svg>
