<?xml version="1.0" encoding="utf-8"?>
<!-- Generator: Adobe Illustrator 16.0.4, SVG Export Plug-In . SVG Version: 6.00 Build 0)  -->
<!DOCTYPE svg PUBLIC "-//W3C//DTD SVG 1.1//EN" "http://www.w3.org/Graphics/SVG/1.1/DTD/svg11.dtd">
<svg version="1.1" id="_x28__x3F__x29_" xmlns="http://www.w3.org/2000/svg" xmlns:xlink="http://www.w3.org/1999/xlink" x="0px"
	 y="0px" width="60px" height="60px" viewBox="0 0 60 60" style="enable-background:new 0 0 60 60;" xml:space="preserve">
<style type="text/css">
<![CDATA[
	.st0{fill:#FFFFFF;}
	.st1{fill:#4575D9;}
]]>
</style>
<circle class="st1" cx="30" cy="30" r="30"/>
<g>
	<path class="st0" d="M25.7,36.3c-0.3-0.9-0.8-1.5-0.8-3c0-1.8,1.1-3.8,3.5-5.7l2.5-2.1c1.5-1.2,2.4-2.4,2.4-4.4
		c0-2.4-1.8-3.8-4.4-3.8c-3.1,0-6.2,1.7-7.8,3.4l-2.1-5.9c2.2-1.9,5.7-3.8,11-3.8c6.8,0,10.9,4,10.9,9.6c0,4.7-2.4,6.5-4.7,8.4
		l-2.9,2.3c-1.2,1-1.6,1.5-1.6,2.8c0,0.7,0.2,1.7,0.4,2.2H25.7z M28.8,39.9c3,0,4.7,1.7,4.7,4.6S31.8,49,28.8,49
		c-3,0-4.6-1.6-4.6-4.5S25.9,39.9,28.8,39.9z"/>
</g>
</svg>
