<!-- Generator: Adobe Illustrator 18.1.1, SVG Export Plug-In . SVG Version: 6.00 Build 0)  -->
<svg version="1.1" id="Layer_7" xmlns="http://www.w3.org/2000/svg" xmlns:xlink="http://www.w3.org/1999/xlink" x="0px" y="0px"
	 viewBox="0 0 60 60" enable-background="new 0 0 60 60" xml:space="preserve">

	<style>
    	#animateIcon-circle {
        	fill: #ffffff;
        	-webkit-animation: circlefill 3s infinite; /* Chrome, Safari, Opera */
    		animation: circlefill 3s;
    	}
    	/* Chrome, Safari, Opera */
    	@-webkit-keyframes circlefill {
    	    0% {fill: #ffffff;}
    	    50% {fill: #ea5f03;}
    	    100% {fill: #ffffff;}
    	}

    	/* Standard syntax */
    	@keyframes circlefill {
    	    0% {fill: #ffffff;}
    	    50% {fill: #ea5f03;}
    	    100% {fill: #ffffff;}
    	}

    	#animateIcon-dashes {
        	fill: #ea5f03;
        	-webkit-animation: dashes 3s infinite; /* Chrome, Safari, Opera */
    		animation: dashes 3s;
    	}
    	/* Chrome, Safari, Opera */
    	@-webkit-keyframes dashes {
    	    0% {fill: #ea5f03;}
    	    50% {fill: #ffffff;}
    	    100% {fill: #ea5f03;}
    	}

    	/* Standard syntax */
    	@keyframes dashes {
    	    0% {fill: #ea5f03;}
    	    50% {fill: #ffffff;}
    	    100% {fill: #ea5f03;}
    	}
	</style>

<path id="animateIcon-dashes" d="M30,0c-0.014,0-0.029,0-0.043,0c-0.014,0-0.028,0-0.042,0c-0.001,0-0.003,0-0.004,0
	c-0.004,0-0.008,0-0.011,0c-0.01,0-0.021,0-0.031,0c-0.001,0-0.001,0-0.002,0c-0.001,0-0.002,0-0.003,0c-0.007,0-0.014,0-0.021,0
	c-0.011,0-0.021,0-0.032,0c-0.002,0-0.003,0-0.004,0c-0.001,0-0.001,0-0.002,0c-0.007,0-0.015,0-0.022,0c-0.003,0-0.007,0-0.01,0
	c-0.001,0-0.001,0-0.002,0c-0.003,0-0.005,0-0.008,0c-0.002,0-0.003,0-0.004,0c-0.016,0-0.032,0-0.048,0l0,0
	c-0.015,0-0.032,0-0.047,0c-0.001,0-0.001,0-0.002,0c-0.002,0-0.004,0-0.006,0c-0.002,0-0.004,0-0.006,0c-0.002,0-0.004,0-0.006,0
	c-0.002,0-0.004,0-0.006,0c-0.008,0-0.015,0-0.023,0c-0.001,0-0.001,0-0.001,0c-0.003,0-0.006,0-0.009,0c-0.001,0-0.002,0-0.003,0
	c-0.002,0-0.005,0-0.007,0c-0.002,0-0.003,0-0.005,0c-0.002,0-0.005,0-0.007,0c-0.002,0-0.003,0-0.005,0c-0.002,0-0.004,0-0.006,0
	c-0.002,0-0.004,0-0.006,0c-0.002,0-0.005,0-0.007,0c-0.002,0-0.003,0-0.005,0c-0.003,0-0.005,0-0.008,0c-0.002,0-0.003,0-0.004,0
	c-0.003,0-0.007,0-0.01,0c-0.001,0-0.001,0-0.002,0c-0.002,0-0.005,0-0.007,0c-0.002,0-0.003,0-0.005,0c-0.003,0-0.005,0-0.008,0
	c-0.002,0-0.003,0-0.004,0c-0.007,0-0.015,0-0.022,0c-0.001,0-0.001,0-0.002,0c-0.002,0-0.003,0-0.005,0c-0.002,0-0.005,0-0.007,0
	l-0.001,0c-0.012,0-0.024,0-0.035,0.001c-0.001,0-0.003,0-0.004,0c-0.003,0-0.005,0-0.008,0c-0.002,0-0.003,0-0.005,0
	c-0.002,0-0.005,0-0.007,0c-0.001,0-0.003,0-0.004,0c-0.003,0-0.006,0-0.009,0l-0.001,0c-0.004,0-0.007,0-0.011,0
	c-0.001,0-0.001,0-0.002,0c-0.003,0-0.006,0-0.01,0c-0.001,0-0.003,0-0.004,0c-0.003,0-0.006,0-0.009,0c-0.001,0-0.001,0-0.002,0
	c-0.004,0-0.007,0-0.01,0c-0.002,0-0.004,0-0.006,0c-0.002,0-0.004,0-0.006,0c-0.002,0-0.004,0-0.006,0c-0.002,0-0.004,0-0.006,0
	c-0.003,0-0.006,0-0.009,0c-0.001,0-0.002,0-0.003,0c-0.003,0-0.006,0-0.009,0c-0.001,0-0.002,0-0.003,0c-0.003,0-0.006,0-0.009,0
	c-0.001,0-0.002,0-0.003,0c-0.012,0-0.023,0.001-0.035,0.001c0,0-0.001,0-0.001,0c-0.004,0-0.008,0-0.012,0l0,0
	c-0.003,0-0.006,0-0.009,0c-0.001,0-0.002,0-0.003,0c-0.004,0-0.007,0-0.011,0c-0.001,0-0.001,0-0.001,0c-0.003,0-0.006,0-0.009,0
	c-0.001,0-0.002,0-0.003,0c-0.003,0-0.004,0-0.007,0c-0.002,0-0.003,0-0.005,0c-0.003,0-0.006,0-0.009,0c-0.001,0-0.002,0-0.003,0
	c-0.003,0-0.006,0-0.009,0c-0.001,0-0.002,0-0.003,0c-0.003,0-0.005,0-0.008,0c-0.002,0-0.002,0-0.004,0c-0.003,0-0.005,0-0.008,0
	c-0.002,0-0.003,0-0.004,0c-0.003,0-0.005,0-0.008,0c-0.002,0-0.003,0-0.004,0c-0.003,0-0.006,0-0.009,0c-0.001,0-0.002,0-0.003,0
	c-0.003,0-0.006,0-0.009,0c-0.001,0-0.002,0-0.003,0c-0.003,0-0.007,0-0.01,0c-0.001,0-0.001,0-0.002,0c-0.003,0-0.005,0-0.008,0
	c-0.001,0-0.002,0-0.004,0c-0.003,0-0.006,0-0.009,0c-0.001,0-0.002,0-0.003,0c-0.003,0-0.005,0-0.008,0c-0.002,0-0.003,0-0.004,0
	c-0.003,0-0.007,0-0.01,0c-0.001,0-0.002,0-0.002,0c-0.003,0-0.006,0-0.009,0c-0.001,0-0.002,0-0.003,0c-0.003,0-0.006,0-0.009,0
	c-0.001,0-0.002,0-0.003,0c-0.002,0-0.004,0-0.006,0c-0.002,0-0.004,0-0.006,0c-0.002,0-0.004,0-0.006,0c-0.002,0-0.004,0-0.006,0
	c-0.002,0-0.005,0-0.007,0c-0.002,0-0.003,0-0.005,0c-0.002,0-0.004,0-0.006,0c-0.002,0-0.004,0-0.006,0c-0.002,0-0.003,0-0.005,0
	c-0.003,0-0.005,0-0.007,0c-0.002,0-0.002,0-0.004,0c-0.003,0-0.005,0-0.008,0c-0.001,0-0.002,0-0.003,0c-0.003,0-0.006,0-0.009,0
	c-0.001,0-0.003,0-0.004,0c-0.003,0-0.006,0-0.009,0c-0.001,0-0.001,0-0.002,0c-0.003,0-0.006,0-0.01,0c-0.001,0-0.002,0-0.003,0
	c-0.007,0-0.014,0.001-0.021,0.001c-0.002,0-0.004,0-0.006,0c-0.002,0-0.004,0-0.005,0c-0.002,0-0.004,0-0.006,0
	c-0.002,0-0.004,0-0.007,0c-0.002,0-0.003,0-0.005,0c-0.002,0-0.005,0-0.007,0c-0.002,0-0.003,0-0.005,0c-0.002,0-0.005,0-0.007,0
	c-0.002,0-0.004,0-0.006,0c-0.002,0-0.004,0-0.006,0c-0.003,0-0.005,0-0.008,0c-0.001,0-0.003,0-0.004,0c-0.003,0-0.006,0-0.009,0
	c-0.001,0-0.002,0-0.003,0c-0.003,0-0.005,0-0.008,0c-0.002,0-0.003,0-0.005,0c-0.003,0-0.005,0-0.008,0c-0.001,0-0.003,0-0.004,0
	c-0.002,0-0.005,0-0.007,0c-0.002,0-0.003,0-0.005,0c-0.002,0-0.004,0-0.006,0c-0.002,0-0.004,0-0.006,0c-0.002,0-0.003,0-0.005,0
	c-0.003,0-0.005,0-0.007,0c-0.002,0-0.003,0-0.005,0c-0.003,0-0.005,0-0.007,0c-0.002,0-0.002,0-0.004,0c-0.003,0-0.005,0-0.008,0
	c-0.001,0-0.003,0-0.004,0c-0.003,0-0.006,0-0.008,0c-0.001,0-0.003,0-0.004,0c-0.003,0-0.005,0-0.008,0c-0.002,0-0.002,0-0.004,0
	c-0.003,0-0.005,0-0.008,0c-0.002,0-0.002,0-0.004,0c-0.003,0-0.005,0-0.008,0c-0.001,0-0.003,0-0.004,0c-0.003,0-0.005,0-0.008,0
	c-0.001,0-0.001,0-0.002,0c-0.003,0-0.006,0-0.009,0c-0.002,0-0.002,0-0.004,0c-0.003,0-0.005,0-0.008,0c-0.002,0-0.002,0-0.004,0
	c-0.003,0-0.005,0-0.008,0c-0.002,0-0.002,0-0.004,0c-0.003,0-0.005,0-0.008,0c-0.002,0-0.004,0-0.006,0s-0.004,0-0.006,0
	c-0.002,0-0.004,0-0.006,0c-0.002,0-0.004,0-0.006,0c-0.002,0-0.003,0-0.005,0c-0.002,0-0.005,0-0.007,0c-0.003,0-0.004,0-0.007,0
	c-0.001,0-0.003,0-0.004,0c-0.002,0-0.005,0-0.007,0c-0.002,0-0.004,0-0.005,0c-0.002,0-0.002,0-0.004,0c-0.003,0-0.005,0-0.008,0
	c-0.001,0,0,0-0.001,0c-0.003,0-0.007,0-0.01,0.001c-0.001,0-0.003,0-0.004,0c-0.003,0-0.006,0-0.009,0c-0.001,0-0.002,0-0.003,0
	c-0.003,0-0.006,0-0.009,0c-0.002,0-0.002,0-0.004,0c-0.003,0-0.005,0-0.008,0c-0.001,0-0.001,0-0.002,0c-0.003,0-0.006,0-0.009,0
	c-0.002,0-0.002,0-0.004,0c-0.003,0-0.005,0-0.008,0c-0.001,0-0.001,0-0.002,0c-0.003,0-0.006,0-0.01,0c-0.002,0-0.004,0-0.006,0
	c-0.002,0-0.004,0-0.006,0c-0.002,0-0.005,0-0.007,0c-0.002,0-0.004,0-0.006,0c-0.002,0-0.002,0-0.004,0c-0.003,0-0.005,0-0.008,0
	c-0.001,0-0.002,0-0.003,0c-0.003,0-0.006,0-0.009,0c-0.001,0-0.002,0-0.003,0c-0.003,0-0.006,0-0.009,0c-0.001,0-0.001,0-0.002,0
	c-0.003,0-0.007,0-0.01,0.001c-0.001,0,0,0-0.001,0c-0.007,0-0.015,0.001-0.023,0.001c-0.002,0-0.002,0-0.004,0
	c-0.003,0-0.005,0-0.008,0c-0.001,0-0.002,0-0.003,0c-0.003,0-0.006,0-0.009,0c-0.001,0-0.001,0-0.002,0
	c-0.003,0-0.007,0-0.01,0.001c-0.001,0-0.001,0-0.002,0c-0.003,0-0.006,0-0.01,0.001c-0.002,0-0.003,0-0.005,0
	c-0.002,0-0.005,0-0.007,0c-0.002,0-0.002,0-0.004,0c-0.002,0-0.005,0-0.008,0c-0.002,0-0.002,0-0.004,0c-0.003,0-0.005,0-0.008,0
	c-0.001,0-0.003,0-0.004,0c-0.003,0-0.005,0-0.008,0c-0.002,0-0.002,0-0.004,0c-0.002,0-0.005,0-0.008,0c-0.002,0-0.002,0-0.004,0
	c-0.002,0-0.005,0-0.008,0c-0.002,0-0.003,0-0.005,0c-0.002,0-0.005,0-0.007,0c-0.002,0-0.003,0-0.005,0c-0.002,0-0.005,0-0.007,0
	c-0.002,0-0.003,0-0.005,0c-0.002,0-0.005,0-0.008,0c-0.001,0-0.001,0-0.002,0c-0.003,0-0.006,0-0.01,0.001
	c-0.001,0-0.002,0-0.003,0c-0.003,0-0.006,0-0.009,0.001c-0.001,0-0.002,0-0.003,0c-0.003,0-0.006,0-0.009,0.001
	c-0.001,0-0.002,0-0.003,0c-0.003,0-0.006,0-0.009,0.001c-0.001,0,0,0-0.001,0c-0.003,0-0.007,0-0.01,0.001
	c-0.001,0-0.002,0-0.003,0c-0.003,0-0.006,0-0.008,0.001c-0.002,0-0.002,0-0.004,0c-0.003,0-0.005,0-0.008,0.001
	c-0.001,0-0.002,0-0.003,0c-0.003,0-0.006,0-0.008,0.001c-0.002,0-0.002,0-0.004,0c-0.002,0-0.005,0-0.007,0
	c-0.002,0-0.002,0-0.004,0c-0.003,0-0.006,0-0.008,0.001c-0.001,0,0,0-0.001,0c-0.003,0-0.007,0-0.01,0.001
	c-0.002,0-0.002,0-0.004,0c-0.003,0-0.006,0-0.008,0.001c-0.001,0-0.002,0-0.003,0c-0.003,0-0.006,0-0.009,0.001
	c-0.001,0-0.003,0-0.004,0c-0.003,0-0.006,0-0.009,0.001c-0.001,0-0.001,0-0.002,0c-0.003,0-0.006,0-0.009,0.001
	c-0.001,0-0.002,0-0.003,0c-0.003,0-0.006,0-0.009,0.001c-0.002,0-0.002,0-0.004,0c-0.003,0-0.005,0-0.008,0.001
	c-0.001,0-0.002,0-0.003,0c-0.003,0-0.006,0-0.01,0.001c-0.001,0,0,0-0.001,0c-0.004,0-0.007,0-0.011,0.001
	c-0.001,0-0.002,0-0.003,0c-0.003,0-0.006,0-0.01,0.001c-0.001,0,0,0-0.001,0c-0.003,0-0.007,0-0.01,0.001c-0.002,0-0.002,0-0.004,0
	c-0.002,0-0.005,0-0.008,0.001c-0.002,0-0.003,0-0.005,0c-0.002,0-0.005,0-0.007,0c-0.002,0-0.002,0-0.004,0
	c-0.002,0-0.005,0-0.007,0.001c-0.002,0-0.003,0-0.005,0c-0.002,0-0.005,0-0.008,0.001c-0.001,0-0.003,0-0.004,0
	c-0.003,0-0.006,0-0.009,0.001c-0.001,0-0.001,0-0.002,0c-0.003,0-0.006,0-0.009,0.001c-0.001,0-0.002,0-0.003,0
	c-0.003,0-0.006,0-0.009,0.001c-0.001,0-0.002,0-0.003,0c-0.003,0-0.006,0-0.009,0.001c-0.001,0-0.002,0-0.003,0
	c-0.003,0-0.006,0-0.009,0.001c-0.001,0-0.002,0-0.003,0c-0.003,0-0.006,0-0.009,0.001c-0.001,0-0.001,0-0.002,0
	c-0.003,0-0.007,0-0.01,0.001c-0.001,0,0.001,0,0,0c-0.004,0-0.008,0.001-0.011,0.001c-0.001,0,0,0-0.001,0
	c-0.004,0-0.007,0.001-0.011,0.001c-0.001,0,0,0-0.001,0c-0.003,0-0.007,0.001-0.011,0.001c-0.001,0-0.001,0-0.002,0
	c-0.003,0-0.006,0-0.01,0.001c-0.001,0-0.001,0-0.002,0c-0.003,0-0.006,0-0.01,0.001c-0.001,0-0.002,0-0.003,0
	c-0.003,0-0.006,0-0.009,0.001c-0.001,0-0.001,0-0.002,0c-0.003,0-0.007,0-0.01,0.001c-0.001,0-0.001,0-0.002,0
	c-0.003,0-0.006,0-0.01,0.001c-0.001,0-0.002,0-0.003,0c-0.003,0-0.006,0-0.009,0.001c-0.002,0-0.002,0-0.004,0
	c-0.003,0-0.006,0-0.008,0.001c-0.001,0-0.002,0-0.003,0c-0.003,0-0.006,0-0.009,0.001c-0.002,0-0.002,0-0.004,0
	c-0.003,0-0.006,0-0.008,0.001c-0.001,0-0.002,0-0.003,0c-0.003,0-0.006,0-0.009,0.001c-0.001,0-0.001,0-0.002,0
	c-0.003,0-0.007,0.001-0.011,0.001c-0.001,0,0.001,0,0,0c-0.004,0-0.007,0.001-0.011,0.001c-0.001,0,0,0-0.001,0
	c-0.004,0-0.007,0.001-0.011,0.001c-0.001,0-0.001,0-0.002,0c-0.003,0-0.006,0-0.01,0.001c-0.001,0-0.001,0-0.002,0
	c-0.003,0-0.006,0.001-0.01,0.001c-0.001,0-0.001,0-0.002,0c-0.003,0-0.007,0.001-0.01,0.001c-0.001,0-0.001,0-0.002,0
	c-0.003,0-0.007,0.001-0.009,0.001c-0.001,0-0.002,0-0.003,0c-0.003,0-0.006,0-0.009,0.001c-0.001,0-0.002,0-0.003,0
	c-0.003,0-0.006,0-0.009,0.001c-0.001,0-0.002,0-0.003,0c-0.003,0-0.006,0-0.009,0.001c-0.001,0-0.001,0-0.002,0
	c-0.003,0-0.006,0.001-0.01,0.001c-0.001,0-0.001,0-0.002,0c-0.003,0-0.007,0.001-0.01,0.001c-0.001,0-0.001,0-0.002,0
	c-0.003,0-0.007,0.001-0.01,0.001c-0.001,0-0.001,0-0.002,0c-0.003,0-0.006,0.001-0.01,0.001c-0.001,0-0.001,0-0.002,0
	c-0.003,0-0.007,0.001-0.01,0.001c-0.001,0,0,0-0.001,0c-0.003,0-0.007,0.001-0.01,0.001c-0.001,0-0.001,0-0.002,0
	c-0.003,0-0.006,0.001-0.01,0.001c-0.001,0-0.001,0-0.002,0c-0.003,0-0.006,0.001-0.009,0.001c-0.001,0-0.002,0-0.003,0
	c-0.003,0-0.006,0-0.009,0.001c-0.001,0-0.001,0-0.002,0c-0.003,0-0.006,0.001-0.01,0.001c-0.001,0-0.001,0-0.002,0
	c-0.003,0-0.007,0.001-0.01,0.001c-0.001,0,0,0-0.001,0c-0.004,0-0.007,0.001-0.011,0.001c-0.001,0-0.001,0-0.002,0
	c-0.003,0-0.007,0.001-0.01,0.001c-0.001,0-0.002,0-0.003,0c-0.003,0-0.006,0.001-0.009,0.001c-0.001,0-0.001,0-0.002,0
	c-0.003,0-0.007,0.001-0.01,0.001l-0.001,0c-0.004,0-0.007,0.001-0.011,0.001c-0.001,0-0.001,0-0.002,0
	c-0.003,0-0.007,0.001-0.01,0.001c-0.001,0-0.001,0-0.002,0c-0.003,0-0.006,0.001-0.01,0.001c-0.001,0-0.001,0-0.002,0
	c-0.007,0.001-0.015,0.001-0.022,0.002l-0.001,0c-0.004,0-0.007,0.001-0.011,0.001c-0.001,0-0.001,0-0.002,0
	c-0.003,0-0.006,0.001-0.01,0.001c-0.001,0-0.001,0-0.002,0c-0.003,0-0.006,0.001-0.01,0.001c-0.001,0-0.001,0-0.002,0
	c-0.003,0-0.007,0.001-0.01,0.001c-0.001,0-0.001,0-0.002,0c-0.003,0-0.007,0.001-0.01,0.001l0,0c-0.004,0-0.007,0.001-0.011,0.001
	l-0.001,0c-0.003,0-0.007,0.001-0.01,0.001l-0.001,0c-0.003,0-0.007,0.001-0.01,0.001c-0.001,0-0.001,0-0.002,0
	c-0.003,0-0.006,0.001-0.01,0.001c-0.001,0-0.001,0-0.002,0c-0.003,0-0.007,0.001-0.01,0.001l-0.001,0
	c-0.008,0.001-0.015,0.001-0.023,0.002l-0.001,0c-0.004,0-0.007,0.001-0.011,0.001l-0.001,0c-0.008,0.001-0.015,0.001-0.023,0.002
	l0,0c-0.004,0-0.008,0.001-0.012,0.001l0,0c-0.004,0-0.008,0.001-0.012,0.001l0,0c-0.004,0-0.008,0.001-0.012,0.001l-0.001,0
	c-0.004,0-0.007,0.001-0.011,0.001l-0.001,0c-0.012,0.001-0.023,0.002-0.035,0.003l0,0c-0.004,0-0.008,0.001-0.012,0.001l0,0
	c-0.004,0-0.008,0.001-0.012,0.001l0,0c-0.004,0-0.008,0.001-0.012,0.001l-0.001,0c-0.027,0.003-0.055,0.005-0.082,0.008l0,0
	c-0.02,0.002-0.039,0.004-0.059,0.006l0,0c-0.004,0-0.008,0.001-0.012,0.001l-0.001,0c-0.004,0-0.007,0.001-0.011,0.001l0,0
	c-0.004,0-0.008,0.001-0.012,0.001l0,0c-0.004,0-0.007,0.001-0.011,0.001l-0.001,0c-0.004,0-0.007,0.001-0.011,0.001l-0.001,0
	c-0.004,0-0.008,0.001-0.011,0.001l0,0c-0.004,0-0.007,0.001-0.011,0.001l-0.002,0c-0.003,0-0.006,0.001-0.01,0.001l-0.001,0
	c-0.003,0-0.007,0.001-0.011,0.001l-0.001,0c-0.004,0-0.007,0.001-0.011,0.001l-0.001,0c-0.004,0-0.007,0.001-0.011,0.001l0,0
	c-0.004,0-0.008,0.001-0.011,0.001l0,0c-0.004,0-0.008,0.001-0.011,0.001l0,0c-0.051,0.006-0.102,0.011-0.153,0.017l-0.001,0
	c-0.004,0-0.007,0.001-0.011,0.001l-0.001,0c-0.004,0-0.007,0.001-0.011,0.001l-0.001,0c-0.004,0-0.007,0.001-0.011,0.001l-0.001,0
	c-0.004,0-0.007,0.001-0.011,0.001l-0.001,0c-0.004,0-0.008,0.001-0.011,0.001l-0.001,0c-0.004,0-0.008,0.001-0.011,0.001l0,0
	c-0.004,0-0.008,0.001-0.012,0.001l0,0c-0.004,0-0.008,0.001-0.012,0.001l0,0c-0.004,0-0.007,0.001-0.011,0.001l-0.001,0
	c-0.004,0-0.007,0.001-0.011,0.001l-0.001,0c-0.004,0-0.007,0.001-0.011,0.001l-0.001,0c-0.008,0.001-0.015,0.002-0.023,0.003l0,0
	c-0.004,0-0.007,0.001-0.011,0.001l-0.001,0c-0.004,0-0.008,0.001-0.011,0.001l0,0c-0.008,0.001-0.015,0.002-0.023,0.003h0
	c-0.051,0.006-0.102,0.012-0.153,0.019l0,0c-0.004,0-0.008,0.001-0.012,0.001l0,0c-0.008,0.001-0.015,0.002-0.023,0.003l-0.001,0
	c-0.004,0-0.007,0.001-0.011,0.001l-0.001,0c-0.004,0-0.007,0.001-0.011,0.001l-0.001,0c-0.008,0.001-0.015,0.002-0.023,0.003
	l-0.001,0c-0.004,0-0.007,0.001-0.011,0.001l-0.001,0c-0.004,0-0.007,0.001-0.011,0.001l-0.001,0c-0.004,0-0.007,0.001-0.011,0.001
	l0,0c-0.004,0.001-0.007,0.001-0.011,0.001l0,0c-0.004,0.001-0.007,0.001-0.011,0.001l0,0c-0.004,0.001-0.008,0.001-0.012,0.002l0,0
	c-0.086,0.011-0.172,0.023-0.258,0.035l0,0c-0.004,0.001-0.008,0.001-0.012,0.002l0,0c-0.004,0.001-0.008,0.001-0.012,0.002l0,0
	c-0.031,0.004-0.062,0.009-0.093,0.013l0,0c-0.004,0.001-0.008,0.001-0.011,0.002l0,0c-0.004,0.001-0.008,0.001-0.012,0.002l0,0
	c-0.054,0.008-0.109,0.016-0.163,0.024l0,0c-0.117,0.018-0.233,0.036-0.349,0.055l0,0c-0.101,0.016-0.201,0.033-0.301,0.051l0,0
	c-0.004,0.001-0.007,0.001-0.011,0.002l0,0c-0.004,0.001-0.007,0.001-0.011,0.002l-0.001,0c-0.004,0.001-0.007,0.001-0.011,0.002
	l0,0c-0.004,0.001-0.007,0.001-0.011,0.002l0,0c-0.008,0.001-0.015,0.003-0.023,0.004l0,0c-0.062,0.011-0.123,0.022-0.185,0.033l0,0
	c-0.023,0.004-0.046,0.008-0.069,0.013l0,0c-0.015,0.003-0.031,0.006-0.046,0.008l0,0c-0.008,0.001-0.015,0.003-0.023,0.004l0,0
	c-0.223,0.042-0.444,0.086-0.665,0.132l0,0c-0.015,0.003-0.03,0.006-0.045,0.01l0,0c-0.038,0.008-0.076,0.016-0.114,0.024l0,0
	c-0.008,0.002-0.015,0.003-0.022,0.005l0,0c-0.008,0.002-0.015,0.003-0.022,0.005c-0.001,0,0,0-0.001,0
	c-0.007,0.002-0.015,0.003-0.022,0.005l0,0c-0.008,0.002-0.015,0.003-0.023,0.005l0,0c-0.023,0.005-0.045,0.01-0.068,0.015l0,0
	c-0.008,0.002-0.015,0.003-0.023,0.005l0,0c-0.008,0.002-0.015,0.003-0.022,0.005l0,0c-0.008,0.002-0.015,0.003-0.022,0.005
	c-0.001,0,0,0-0.001,0c-0.004,0.001-0.007,0.002-0.011,0.002c-0.001,0,0,0-0.001,0c-0.004,0.001-0.007,0.002-0.011,0.002
	c-0.001,0,0,0-0.001,0c-0.004,0.001-0.007,0.002-0.01,0.002l0,0c-0.004,0.001-0.007,0.002-0.011,0.002c-0.001,0,0,0-0.001,0
	c-0.003,0.001-0.006,0.001-0.01,0.002c-0.001,0-0.001,0-0.002,0c-0.003,0.001-0.007,0.002-0.01,0.002c-0.001,0-0.001,0-0.002,0
	c-0.004,0.001-0.007,0.001-0.01,0.002c-0.001,0,0,0-0.001,0c-0.003,0.001-0.007,0.002-0.01,0.002c-0.001,0,0,0-0.001,0
	c-0.003,0.001-0.007,0.002-0.01,0.002c-0.001,0,0,0-0.001,0c-0.003,0.001-0.007,0.002-0.01,0.002c-0.001,0,0,0-0.001,0
	c-0.003,0.001-0.007,0.002-0.01,0.002c-0.001,0,0,0-0.001,0c-0.003,0.001-0.007,0.002-0.01,0.002c-0.001,0,0,0-0.001,0
	c-0.004,0.001-0.007,0.002-0.01,0.002c-0.001,0,0,0-0.001,0c-0.003,0.001-0.007,0.002-0.011,0.002c-0.001,0,0,0-0.001,0
	c-0.004,0.001-0.007,0.002-0.01,0.002c-0.001,0,0.001,0,0,0c-0.004,0.001-0.007,0.002-0.011,0.002c-0.001,0,0,0-0.001,0
	c-0.004,0.001-0.007,0.002-0.01,0.002c-0.001,0,0,0-0.001,0c-0.004,0.001-0.007,0.002-0.011,0.002c-0.001,0,0,0-0.001,0
	c-0.004,0.001-0.007,0.002-0.01,0.002c-0.001,0,0,0-0.001,0c-0.003,0.001-0.007,0.002-0.01,0.002c-0.001,0-0.001,0-0.002,0
	c-0.003,0.001-0.006,0.001-0.009,0.002c-0.001,0-0.001,0-0.002,0c-0.003,0.001-0.006,0.001-0.01,0.002c-0.001,0-0.001,0-0.002,0
	c-0.003,0.001-0.006,0.002-0.01,0.002c-0.001,0,0,0-0.001,0c-0.003,0.001-0.007,0.002-0.01,0.002c-0.001,0-0.001,0-0.002,0.001
	c-0.003,0.001-0.006,0.001-0.009,0.002c-0.001,0-0.001,0-0.002,0.001c-0.003,0.001-0.006,0.001-0.009,0.002
	c-0.001,0-0.002,0-0.002,0.001c-0.003,0.001-0.006,0.001-0.009,0.002c-0.001,0-0.001,0-0.002,0c-0.003,0.001-0.007,0.002-0.01,0.002
	c-0.001,0,0,0-0.001,0c-0.004,0.001-0.007,0.002-0.01,0.002c-0.001,0,0,0-0.001,0c-0.003,0.001-0.007,0.002-0.01,0.002
	c-0.001,0-0.001,0-0.001,0c-0.003,0.001-0.006,0.002-0.01,0.002c-0.001,0-0.001,0-0.002,0c-0.003,0.001-0.006,0.001-0.009,0.002
	c-0.001,0-0.001,0-0.002,0.001c-0.003,0.001-0.006,0.001-0.009,0.002c-0.001,0-0.001,0-0.002,0
	c-0.003,0.001-0.006,0.002-0.009,0.002c-0.001,0-0.001,0-0.002,0c-0.004,0.001-0.007,0.002-0.01,0.002c-0.001,0,0,0-0.001,0
	c-0.003,0.001-0.007,0.002-0.01,0.002c-0.001,0-0.001,0-0.002,0.001c-0.003,0.001-0.006,0.001-0.009,0.002
	c-0.001,0-0.001,0-0.002,0.001c-0.003,0.001-0.006,0.002-0.01,0.002c-0.001,0,0,0-0.001,0c-0.004,0.001-0.007,0.002-0.01,0.002
	c-0.001,0,0.001,0,0,0c-0.004,0.001-0.007,0.002-0.01,0.002c-0.001,0-0.002,0-0.003,0.001c-0.003,0.001-0.006,0.001-0.008,0.002
	c-0.001,0-0.002,0-0.003,0.001c-0.003,0.001-0.006,0.001-0.009,0.002c-0.001,0-0.001,0-0.002,0.001
	c-0.003,0.001-0.006,0.001-0.009,0.002c-0.001,0-0.001,0-0.002,0c-0.003,0.001-0.006,0.002-0.009,0.002
	c-0.001,0-0.001,0-0.002,0.001c-0.003,0.001-0.006,0.001-0.009,0.002c-0.001,0-0.002,0-0.003,0.001
	c-0.003,0.001-0.006,0.001-0.009,0.002c-0.001,0-0.001,0-0.002,0.001c-0.003,0.001-0.006,0.002-0.009,0.002
	c-0.001,0-0.001,0-0.002,0c-0.003,0.001-0.006,0.001-0.009,0.002c-0.001,0-0.002,0-0.003,0.001
	c-0.003,0.001-0.006,0.001-0.008,0.002c-0.001,0-0.002,0.001-0.003,0.001C22.843,0.859,22.84,0.86,22.837,0.86
	c-0.001,0-0.002,0-0.003,0.001c-0.003,0.001-0.005,0.001-0.009,0.002c-0.001,0-0.002,0-0.003,0.001
	c-0.003,0.001-0.006,0.001-0.009,0.002c-0.001,0-0.002,0-0.003,0.001c-0.003,0.001-0.006,0.001-0.009,0.002
	c-0.001,0-0.001,0-0.002,0.001c-0.003,0.001-0.006,0.001-0.009,0.002c-0.001,0-0.002,0-0.002,0.001
	c-0.003,0.001-0.006,0.001-0.009,0.002c-0.001,0-0.001,0-0.002,0.001c-0.003,0.001-0.006,0.001-0.009,0.002
	c-0.001,0-0.002,0.001-0.003,0.001c-0.003,0.001-0.005,0.001-0.008,0.002c-0.001,0-0.002,0.001-0.003,0.001
	c-0.003,0.001-0.005,0.001-0.008,0.002c-0.001,0-0.002,0.001-0.003,0.001c-0.003,0.001-0.006,0.001-0.008,0.002
	c-0.001,0-0.002,0-0.003,0.001c-0.003,0.001-0.005,0.001-0.008,0.002c-0.001,0-0.003,0.001-0.004,0.001
	c-0.003,0.001-0.005,0.001-0.008,0.002c-0.001,0-0.002,0.001-0.003,0.001c-0.003,0.001-0.006,0.001-0.008,0.002
	c-0.001,0-0.002,0.001-0.003,0.001c-0.003,0.001-0.006,0.001-0.009,0.002c-0.001,0-0.001,0-0.002,0
	c-0.003,0.001-0.006,0.002-0.009,0.002c-0.001,0-0.002,0.001-0.003,0.001c-0.003,0.001-0.006,0.001-0.008,0.002
	c-0.001,0-0.002,0-0.003,0.001c-0.003,0.001-0.006,0.001-0.008,0.002c-0.001,0-0.002,0.001-0.003,0.001
	c-0.003,0.001-0.006,0.001-0.008,0.002c-0.001,0-0.002,0-0.003,0.001C22.64,0.91,22.637,0.91,22.634,0.911
	c-0.001,0-0.002,0.001-0.003,0.001c-0.003,0.001-0.006,0.001-0.008,0.002c-0.001,0-0.002,0-0.003,0.001
	c-0.003,0.001-0.005,0.001-0.008,0.002c-0.001,0-0.002,0.001-0.003,0.001c-0.003,0.001-0.005,0.001-0.008,0.002
	c-0.001,0-0.002,0.001-0.003,0.001c-0.003,0.001-0.006,0.001-0.008,0.002c-0.001,0-0.003,0.001-0.004,0.001
	c-0.003,0.001-0.005,0.001-0.008,0.002c-0.001,0-0.003,0.001-0.004,0.001c-0.003,0.001-0.005,0.001-0.008,0.002
	c-0.001,0-0.002,0-0.003,0.001c-0.003,0.001-0.006,0.002-0.009,0.002c-0.001,0-0.001,0-0.002,0
	c-0.003,0.001-0.006,0.002-0.009,0.002c-0.001,0-0.002,0-0.003,0.001c-0.003,0.001-0.006,0.001-0.008,0.002
	c-0.001,0-0.002,0-0.003,0.001c-0.003,0.001-0.006,0.002-0.009,0.002c-0.001,0-0.002,0-0.003,0.001
	c-0.003,0.001-0.006,0.001-0.009,0.002c-0.001,0-0.002,0-0.003,0.001c-0.003,0.001-0.006,0.001-0.008,0.002
	c-0.001,0-0.003,0.001-0.004,0.001c-0.003,0.001-0.005,0.001-0.007,0.002c-0.001,0-0.003,0.001-0.004,0.001
	c-0.003,0.001-0.005,0.001-0.008,0.002c-0.001,0-0.002,0.001-0.003,0.001c-0.003,0.001-0.006,0.001-0.008,0.002
	c-0.001,0-0.002,0-0.003,0.001c-0.003,0.001-0.005,0.001-0.008,0.002c-0.002,0-0.002,0.001-0.004,0.001
	c-0.002,0.001-0.005,0.001-0.007,0.002c-0.001,0-0.003,0.001-0.004,0.001c-0.003,0.001-0.005,0.001-0.008,0.002
	c-0.001,0-0.003,0.001-0.004,0.001c-0.003,0.001-0.005,0.001-0.008,0.002c-0.001,0-0.002,0.001-0.003,0.001
	c-0.003,0.001-0.006,0.001-0.008,0.002c-0.001,0-0.002,0.001-0.003,0.001c-0.003,0.001-0.005,0.001-0.008,0.002
	c-0.001,0-0.002,0.001-0.003,0.001c-0.003,0.001-0.005,0.001-0.008,0.002c-0.001,0-0.003,0.001-0.004,0.001
	c-0.003,0.001-0.005,0.001-0.007,0.002c-0.001,0-0.002,0.001-0.003,0.001C22.37,0.979,22.367,0.98,22.365,0.98
	c-0.001,0-0.003,0.001-0.004,0.001c-0.003,0.001-0.005,0.001-0.008,0.002c-0.001,0-0.003,0.001-0.004,0.001
	c-0.003,0.001-0.005,0.001-0.007,0.002c-0.002,0-0.002,0.001-0.004,0.001c-0.003,0.001-0.005,0.001-0.007,0.002
	c-0.001,0-0.003,0.001-0.003,0.001c-0.003,0.001-0.005,0.001-0.008,0.002c-0.002,0-0.002,0.001-0.004,0.001
	c-0.002,0.001-0.005,0.001-0.007,0.002c-0.002,0-0.003,0.001-0.005,0.001c-0.002,0.001-0.005,0.001-0.007,0.002
	c-0.002,0-0.003,0.001-0.005,0.001C22.291,1,22.289,1,22.287,1.001c-0.002,0-0.002,0.001-0.004,0.001
	c-0.002,0.001-0.005,0.001-0.007,0.002c-0.002,0-0.003,0.001-0.004,0.001c-0.002,0.001-0.005,0.001-0.007,0.002
	c-0.001,0-0.003,0.001-0.004,0.001c-0.003,0.001-0.005,0.001-0.007,0.002c-0.002,0-0.002,0.001-0.004,0.001
	c-0.002,0.001-0.005,0.001-0.007,0.002c-0.001,0-0.003,0.001-0.004,0.001c-0.003,0.001-0.005,0.001-0.008,0.002
	c-0.002,0-0.002,0.001-0.004,0.001c-0.003,0.001-0.005,0.001-0.007,0.002c-0.001,0-0.003,0.001-0.004,0.001
	c-0.002,0.001-0.005,0.001-0.007,0.002c-0.002,0-0.003,0.001-0.004,0.001c-0.002,0.001-0.005,0.001-0.007,0.002
	c-0.002,0.001-0.002,0.001-0.004,0.001c-0.002,0.001-0.005,0.001-0.007,0.002c-0.002,0.001-0.003,0.001-0.005,0.001
	c-0.002,0.001-0.005,0.001-0.007,0.002c-0.002,0.001-0.002,0.001-0.004,0.001c-0.002,0.001-0.005,0.001-0.007,0.002
	c-0.002,0.001-0.003,0.001-0.005,0.001c-0.002,0.001-0.005,0.001-0.007,0.002c-0.002,0.001-0.002,0.001-0.004,0.001
	c-0.002,0.001-0.005,0.001-0.007,0.002c-0.002,0.001-0.003,0.001-0.005,0.001c-0.002,0.001-0.004,0.001-0.007,0.002
	c-0.002,0.001-0.002,0.001-0.004,0.001c-0.002,0.001-0.004,0.001-0.007,0.002c-0.002,0.001-0.003,0.001-0.005,0.001
	c-0.002,0.001-0.004,0.001-0.006,0.002c-0.002,0.001-0.003,0.001-0.004,0.001c-0.002,0.001-0.005,0.001-0.007,0.002
	c-0.002,0.001-0.003,0.001-0.005,0.001c-0.002,0.001-0.004,0.001-0.007,0.002c-0.002,0.001-0.002,0.001-0.004,0.001
	c-0.002,0.001-0.005,0.001-0.007,0.002c-0.002,0.001-0.003,0.001-0.005,0.001c-0.002,0.001-0.004,0.001-0.007,0.002
	c-0.002,0.001-0.003,0.001-0.005,0.001c-0.002,0.001-0.004,0.001-0.006,0.002c-0.002,0.001-0.004,0.001-0.006,0.002
	c-0.002,0-0.004,0.001-0.005,0.001c-0.002,0.001-0.004,0.001-0.006,0.002S22.032,1.07,22.03,1.07
	c-0.002,0.001-0.004,0.001-0.006,0.002c-0.002,0.001-0.004,0.001-0.006,0.002c-0.002,0.001-0.004,0.001-0.005,0.002
	c-0.002,0.001-0.004,0.001-0.006,0.002c-0.002,0.001-0.004,0.001-0.006,0.002C22,1.078,21.998,1.079,21.996,1.079
	c-0.002,0.001-0.004,0.001-0.006,0.002c-0.002,0.001-0.004,0.001-0.006,0.002c-0.002,0.001-0.003,0.001-0.005,0.001
	c-0.002,0.001-0.004,0.001-0.006,0.002c-0.002,0.001-0.003,0.001-0.005,0.001c-0.002,0.001-0.004,0.001-0.006,0.002
	c-0.002,0.001-0.003,0.001-0.005,0.001c-0.002,0.001-0.004,0.001-0.006,0.002c-0.002,0.001-0.003,0.001-0.005,0.001
	c-0.002,0.001-0.004,0.001-0.006,0.002c-0.002,0.001-0.003,0.001-0.005,0.001c-0.002,0.001-0.004,0.001-0.006,0.002
	c-0.002,0.001-0.003,0.001-0.005,0.001C21.922,1.1,21.92,1.101,21.918,1.101c-0.002,0.001-0.004,0.001-0.006,0.002
	c-0.002,0-0.004,0.001-0.005,0.002c-0.002,0.001-0.004,0.001-0.006,0.002c-0.002,0-0.004,0.001-0.005,0.002
	c-0.002,0.001-0.004,0.001-0.006,0.002c-0.002,0.001-0.004,0.001-0.006,0.002c-0.002,0.001-0.003,0.001-0.005,0.001
	c-0.002,0.001-0.004,0.001-0.006,0.002c-0.002,0.001-0.004,0.001-0.006,0.002c-0.002,0-0.003,0.001-0.005,0.001
	c-0.002,0.001-0.004,0.001-0.006,0.002c-0.002,0-0.004,0.001-0.005,0.002c-0.002,0.001-0.004,0.001-0.005,0.002
	c-0.002,0.001-0.004,0.001-0.006,0.002c-0.002,0.001-0.003,0.001-0.005,0.001c-0.002,0.001-0.004,0.001-0.006,0.002
	c-0.002,0.001-0.004,0.001-0.006,0.002c-0.002,0-0.003,0.001-0.005,0.001c-0.002,0.001-0.004,0.001-0.006,0.002
	c-0.002,0-0.004,0.001-0.005,0.002c-0.002,0.001-0.004,0.001-0.006,0.002c-0.002,0-0.004,0.001-0.005,0.002
	c-0.002,0.001-0.004,0.001-0.005,0.002c-0.002,0.001-0.004,0.001-0.006,0.002c-0.002,0.001-0.004,0.001-0.006,0.002
	c-0.002,0-0.003,0.001-0.005,0.001c-0.002,0.001-0.004,0.001-0.006,0.002c-0.002,0-0.003,0.001-0.005,0.001
	c-0.002,0.001-0.004,0.001-0.006,0.002c-0.002,0-0.003,0.001-0.005,0.001c-0.002,0.001-0.004,0.001-0.006,0.002
	c-0.002,0-0.003,0.001-0.005,0.001c-0.002,0.001-0.005,0.001-0.007,0.002c-0.002,0-0.003,0.001-0.004,0.001
	c-0.002,0.001-0.004,0.001-0.006,0.002c-0.002,0-0.003,0.001-0.005,0.001c-0.002,0.001-0.004,0.001-0.006,0.002
	c-0.002,0-0.003,0.001-0.005,0.001c-0.002,0.001-0.004,0.001-0.006,0.002c-0.002,0.001-0.003,0.001-0.005,0.002
	c-0.002,0.001-0.005,0.001-0.006,0.002c-0.002,0-0.003,0.001-0.004,0.001c-0.002,0.001-0.005,0.001-0.007,0.002
	c-0.002,0-0.003,0.001-0.005,0.001c-0.002,0.001-0.005,0.001-0.006,0.002c-0.002,0-0.003,0.001-0.005,0.001
	c-0.002,0.001-0.004,0.001-0.006,0.002c-0.002,0-0.003,0.001-0.005,0.001c-0.002,0.001-0.005,0.001-0.007,0.002
	c-0.002,0-0.003,0.001-0.004,0.001c-0.002,0.001-0.004,0.001-0.006,0.002c-0.002,0-0.003,0.001-0.005,0.001
	c-0.002,0.001-0.004,0.001-0.006,0.002c-0.002,0-0.003,0.001-0.005,0.001c-0.002,0.001-0.004,0.001-0.006,0.002
	c-0.002,0.001-0.004,0.001-0.006,0.002c-0.002,0.001-0.004,0.001-0.006,0.002c-0.002,0-0.004,0.001-0.005,0.002
	c-0.002,0.001-0.004,0.001-0.005,0.002c-0.002,0.001-0.004,0.001-0.006,0.002c-0.002,0.001-0.004,0.001-0.006,0.002
	c-0.002,0.001-0.004,0.001-0.006,0.002C21.572,1.2,21.57,1.201,21.568,1.201c-0.002,0.001-0.004,0.001-0.006,0.002
	s-0.004,0.001-0.006,0.002c-0.002,0-0.004,0.001-0.006,0.002c-0.002,0.001-0.003,0.001-0.005,0.002
	c-0.002,0.001-0.004,0.001-0.006,0.002s-0.004,0.001-0.006,0.002c-0.002,0-0.004,0.001-0.005,0.002
	c-0.002,0.001-0.004,0.001-0.006,0.002c-0.002,0.001-0.003,0.001-0.005,0.002c-0.002,0.001-0.005,0.001-0.007,0.002
	c-0.002,0-0.003,0.001-0.004,0.001c-0.002,0.001-0.005,0.001-0.007,0.002c-0.001,0-0.003,0.001-0.004,0.001
	c-0.002,0.001-0.005,0.001-0.007,0.002c-0.002,0-0.003,0.001-0.005,0.001c-0.002,0.001-0.004,0.001-0.006,0.002
	c-0.002,0.001-0.003,0.001-0.005,0.002c-0.002,0.001-0.005,0.001-0.007,0.002c-0.002,0-0.003,0.001-0.005,0.001
	c-0.002,0.001-0.004,0.001-0.006,0.002c-0.002,0.001-0.004,0.001-0.005,0.002c-0.002,0.001-0.004,0.001-0.006,0.002
	c-0.002,0-0.003,0.001-0.005,0.001c-0.002,0.001-0.004,0.001-0.006,0.002c-0.001,0-0.003,0.001-0.005,0.001
	c-0.002,0.001-0.005,0.002-0.007,0.002c-0.001,0-0.003,0.001-0.004,0.001c-0.002,0.001-0.005,0.001-0.007,0.002
	c-0.002,0-0.003,0.001-0.005,0.001c-0.002,0.001-0.005,0.001-0.007,0.002c-0.001,0-0.003,0.001-0.004,0.001
	c-0.002,0.001-0.005,0.002-0.007,0.002c-0.001,0-0.002,0.001-0.004,0.001c-0.002,0.001-0.006,0.002-0.008,0.002
	c-0.001,0-0.002,0.001-0.003,0.001c-0.002,0.001-0.006,0.002-0.008,0.002c-0.001,0-0.002,0.001-0.003,0.001
	c-0.002,0.001-0.006,0.002-0.008,0.002c-0.001,0-0.002,0.001-0.003,0.001c-0.002,0.001-0.005,0.002-0.007,0.002
	c-0.001,0-0.003,0.001-0.004,0.001c-0.002,0.001-0.006,0.002-0.008,0.002c-0.001,0-0.002,0.001-0.003,0.001
	c-0.002,0.001-0.006,0.002-0.008,0.002c-0.001,0-0.002,0.001-0.003,0.001c-0.002,0.001-0.006,0.002-0.008,0.002
	c-0.001,0-0.002,0.001-0.003,0.001c-0.002,0.001-0.006,0.002-0.008,0.002c-0.001,0-0.002,0.001-0.003,0.001
	c-0.003,0.001-0.006,0.002-0.008,0.003c-0.001,0-0.002,0.001-0.002,0.001c-0.003,0.001-0.005,0.002-0.008,0.002
	c-0.001,0-0.002,0.001-0.004,0.001c-0.002,0.001-0.006,0.002-0.008,0.002c-0.001,0-0.002,0.001-0.003,0.001
	c-0.002,0.001-0.006,0.002-0.008,0.002c-0.001,0-0.002,0.001-0.003,0.001c-0.002,0.001-0.006,0.002-0.008,0.002
	c-0.001,0-0.002,0.001-0.003,0.001c-0.002,0.001-0.006,0.002-0.008,0.002c-0.001,0-0.002,0.001-0.003,0.001
	c-0.002,0.001-0.006,0.002-0.008,0.002c-0.001,0-0.002,0.001-0.003,0.001c-0.002,0.001-0.006,0.002-0.007,0.002
	c-0.001,0-0.002,0.001-0.004,0.001c-0.002,0.001-0.006,0.002-0.008,0.002c-0.001,0-0.002,0.001-0.003,0.001
	c-0.003,0.001-0.005,0.002-0.008,0.003c-0.001,0-0.002,0.001-0.003,0.001c-0.004,0.001-0.005,0.001-0.009,0.003
	c-0.001,0-0.002,0-0.002,0.001c-0.004,0.001-0.005,0.002-0.009,0.003c-0.001,0-0.002,0-0.002,0.001
	c-0.004,0.001-0.005,0.002-0.009,0.003c-0.001,0-0.001,0-0.002,0.001c-0.003,0.001-0.006,0.002-0.009,0.003
	c-0.001,0-0.002,0.001-0.003,0.001C21.14,1.33,21.139,1.33,21.135,1.331c-0.001,0-0.002,0-0.002,0.001
	c-0.004,0.001-0.005,0.002-0.009,0.003c-0.001,0-0.002,0-0.002,0.001c-0.004,0.001-0.005,0.002-0.009,0.003
	c-0.001,0-0.002,0-0.002,0.001c-0.004,0.001-0.005,0.002-0.009,0.003c-0.001,0-0.002,0-0.003,0.001
	c-0.004,0.001-0.005,0.002-0.009,0.003c-0.001,0-0.002,0-0.002,0.001c-0.003,0.001-0.006,0.002-0.008,0.003
	c-0.001,0-0.002,0.001-0.003,0.001c-0.004,0.001-0.005,0.002-0.009,0.003c0,0-0.001,0-0.002,0c-0.004,0.001-0.006,0.002-0.009,0.003
	c0,0-0.001,0-0.002,0.001c-0.004,0.001-0.006,0.002-0.009,0.003c0,0-0.001,0-0.002,0c-0.004,0.001-0.006,0.002-0.009,0.003
	c0,0-0.001,0-0.002,0.001c-0.004,0.001-0.006,0.002-0.01,0.003c0,0-0.001,0-0.001,0c-0.004,0.001-0.006,0.002-0.01,0.003
	c-0.001,0-0.001,0-0.002,0.001c-0.004,0.001-0.005,0.002-0.009,0.003c-0.001,0-0.001,0-0.002,0.001
	c-0.004,0.001-0.005,0.002-0.009,0.003c-0.001,0-0.001,0-0.002,0.001c-0.004,0.001-0.006,0.002-0.01,0.003c0,0-0.001,0-0.001,0
	c-0.004,0.001-0.006,0.002-0.01,0.003c0,0-0.001,0-0.002,0c-0.004,0.001-0.006,0.002-0.009,0.003c0,0-0.001,0-0.002,0.001
	c-0.004,0.001-0.005,0.002-0.009,0.003c-0.001,0-0.001,0-0.002,0.001c-0.004,0.001-0.006,0.002-0.009,0.003c0,0-0.001,0-0.001,0
	c-0.004,0.001-0.006,0.002-0.009,0.003c0,0-0.001,0-0.002,0.001C20.92,1.399,20.918,1.399,20.915,1.4c0,0-0.001,0-0.002,0.001
	c-0.004,0.001-0.005,0.002-0.009,0.003c0,0-0.002,0-0.002,0.001c-0.004,0.001-0.006,0.002-0.01,0.003c0,0-0.001,0-0.001,0
	c-0.004,0.001-0.006,0.002-0.009,0.003c-0.001,0-0.001,0-0.002,0.001c-0.004,0.001-0.005,0.002-0.009,0.003
	c-0.001,0-0.001,0-0.002,0.001c-0.004,0.001-0.005,0.002-0.009,0.003c-0.001,0-0.001,0-0.002,0.001
	c-0.004,0.001-0.006,0.002-0.01,0.003c0,0,0,0-0.001,0c-0.004,0.001-0.006,0.002-0.01,0.003c0,0-0.001,0-0.001,0
	c-0.004,0.001-0.006,0.002-0.01,0.003c0,0-0.001,0-0.001,0c-0.004,0.001-0.006,0.002-0.01,0.003c0,0-0.001,0-0.002,0
	c-0.004,0.001-0.006,0.002-0.01,0.003l-0.001,0c-0.004,0.001-0.007,0.002-0.01,0.003c0,0,0,0-0.001,0
	c-0.004,0.001-0.007,0.002-0.01,0.003l0,0c-0.004,0.001-0.007,0.002-0.01,0.003c0,0-0.001,0-0.001,0
	c-0.007,0.002-0.014,0.004-0.021,0.007c0,0,0,0-0.001,0c-0.004,0.001-0.007,0.002-0.01,0.003l-0.001,0
	c-0.004,0.001-0.007,0.002-0.01,0.003c0,0,0,0-0.001,0c-0.007,0.002-0.014,0.005-0.021,0.007l0,0
	c-0.007,0.002-0.014,0.005-0.022,0.007l0,0c-0.007,0.002-0.014,0.005-0.022,0.007l-0.001,0c-0.007,0.002-0.014,0.005-0.021,0.007
	c0,0,0,0,0,0c-0.015,0.005-0.029,0.009-0.043,0.014l0,0c-0.775,0.256-1.535,0.541-2.28,0.857l1.559,3.684
	C23.079,4.688,26.486,4,30,4V0L30,0L30,0z M8.481,9.097c-0.79,0.813-1.535,1.671-2.229,2.57l-0.001,0.001
	c-0.004,0.006-0.009,0.012-0.014,0.018l-0.001,0.001c-0.004,0.006-0.009,0.012-0.013,0.017c-0.001,0.001-0.001,0.001-0.001,0.001
	c-0.004,0.006-0.009,0.011-0.013,0.017c-0.001,0.001-0.001,0.001-0.001,0.002C6.204,11.729,6.2,11.734,6.195,11.74l-0.001,0.002
	c-0.004,0.006-0.009,0.011-0.013,0.017L6.18,11.76c-0.004,0.006-0.009,0.011-0.013,0.017c-0.001,0.001-0.001,0.001-0.001,0.002
	c-0.004,0.006-0.009,0.011-0.013,0.017c-0.001,0.001,0,0-0.001,0.001c-0.004,0.006-0.009,0.011-0.013,0.017l-0.001,0.001
	c-0.005,0.006-0.009,0.012-0.014,0.018l0,0c-0.005,0.006-0.009,0.012-0.014,0.018c-0.001,0.001,0,0-0.001,0.001
	c-0.009,0.012-0.019,0.024-0.028,0.037l0,0.001c-0.005,0.006-0.009,0.012-0.014,0.018c-0.001,0.001,0,0-0.001,0.001
	c-0.004,0.006-0.009,0.011-0.013,0.017c-0.001,0.001-0.001,0.001-0.002,0.002c-0.004,0.005-0.008,0.011-0.012,0.016
	c-0.001,0.001-0.001,0.001-0.001,0.002c-0.004,0.005-0.008,0.011-0.012,0.016c-0.001,0.001-0.001,0.002-0.002,0.002
	c-0.004,0.005-0.008,0.011-0.012,0.016c-0.001,0.001-0.001,0.001-0.002,0.002C6.006,11.989,6.002,11.994,5.998,12
	c-0.001,0.002-0.001,0.001-0.002,0.002c-0.004,0.005-0.008,0.011-0.012,0.016c-0.001,0.001-0.001,0.001-0.002,0.002
	c-0.004,0.005-0.008,0.011-0.012,0.017c-0.001,0.001-0.001,0.001-0.002,0.002c-0.004,0.005-0.008,0.011-0.012,0.017
	c-0.001,0.001-0.001,0.001-0.001,0.002c-0.004,0.005-0.008,0.011-0.012,0.016c-0.001,0.002-0.001,0.001-0.002,0.003
	c-0.004,0.005-0.008,0.011-0.012,0.017c-0.001,0.001-0.001,0.001-0.001,0.002c-0.004,0.006-0.008,0.011-0.013,0.017
	c-0.001,0.001-0.001,0.001-0.001,0.002c-0.004,0.006-0.009,0.012-0.013,0.018l-0.001,0.002c-0.004,0.006-0.008,0.011-0.012,0.017
	c-0.001,0.001-0.002,0.002-0.002,0.003c-0.004,0.005-0.008,0.01-0.012,0.016c-0.001,0.001-0.001,0.002-0.002,0.003
	c-0.004,0.005-0.008,0.01-0.012,0.016c-0.001,0.002-0.001,0.002-0.003,0.003c-0.004,0.005-0.008,0.01-0.011,0.015
	c-0.001,0.002-0.002,0.002-0.003,0.004c-0.004,0.005-0.007,0.01-0.011,0.015c-0.001,0.002-0.002,0.003-0.003,0.004
	c-0.004,0.005-0.007,0.009-0.011,0.014c-0.001,0.002-0.002,0.003-0.003,0.004c-0.003,0.005-0.007,0.01-0.011,0.015
	c-0.001,0.002-0.002,0.002-0.003,0.004c-0.004,0.005-0.007,0.01-0.011,0.015c-0.001,0.002-0.002,0.003-0.003,0.004
	c-0.003,0.005-0.007,0.009-0.01,0.014c-0.001,0.002-0.002,0.003-0.003,0.005c-0.004,0.005-0.007,0.009-0.01,0.014
	c-0.001,0.002-0.002,0.003-0.003,0.004c-0.004,0.005-0.007,0.01-0.011,0.015c-0.001,0.002-0.002,0.002-0.003,0.004
	c-0.004,0.005-0.007,0.01-0.011,0.015c-0.001,0.002-0.003,0.003-0.004,0.005c-0.003,0.005-0.006,0.009-0.01,0.013
	c-0.002,0.002-0.003,0.004-0.005,0.007c-0.003,0.004-0.006,0.008-0.009,0.012c-0.002,0.002-0.003,0.005-0.005,0.007
	c-0.003,0.004-0.006,0.008-0.009,0.013c-0.002,0.002-0.003,0.004-0.005,0.006c-0.003,0.004-0.006,0.008-0.009,0.012
	c-0.002,0.002-0.003,0.005-0.005,0.007c-0.003,0.004-0.006,0.008-0.009,0.013c-0.002,0.002-0.003,0.004-0.004,0.006
	c-0.003,0.004-0.006,0.008-0.009,0.013c-0.002,0.002-0.003,0.003-0.004,0.006c-0.003,0.004-0.006,0.009-0.009,0.013
	c-0.002,0.002-0.003,0.004-0.004,0.006c-0.003,0.004-0.006,0.008-0.009,0.012c-0.002,0.002-0.003,0.004-0.005,0.007
	c-0.003,0.004-0.006,0.008-0.009,0.012c-0.002,0.002-0.003,0.005-0.005,0.007c-0.003,0.004-0.005,0.008-0.008,0.012
	c-0.002,0.002-0.003,0.005-0.005,0.007c-0.003,0.004-0.006,0.008-0.009,0.012c-0.002,0.002-0.003,0.004-0.005,0.007
	c-0.003,0.004-0.006,0.008-0.009,0.012c-0.002,0.002-0.003,0.005-0.005,0.007c-0.003,0.004-0.006,0.008-0.008,0.012
	c-0.002,0.003-0.003,0.005-0.006,0.008c-0.003,0.004-0.005,0.008-0.008,0.011c-0.002,0.002-0.004,0.005-0.005,0.007
	c-0.003,0.004-0.006,0.008-0.009,0.012c-0.002,0.002-0.004,0.005-0.005,0.008c-0.003,0.004-0.005,0.007-0.008,0.011
	c-0.002,0.003-0.004,0.005-0.006,0.008c-0.002,0.003-0.005,0.007-0.007,0.01c-0.002,0.003-0.004,0.006-0.007,0.009
	c-0.002,0.003-0.005,0.007-0.007,0.01c-0.002,0.003-0.004,0.006-0.006,0.009c-0.002,0.003-0.005,0.007-0.007,0.011
	c-0.002,0.003-0.004,0.005-0.006,0.008c-0.003,0.004-0.005,0.008-0.008,0.012c-0.002,0.002-0.004,0.005-0.005,0.007
	c-0.003,0.004-0.005,0.008-0.008,0.011c-0.002,0.002-0.004,0.005-0.005,0.008c-0.003,0.004-0.005,0.007-0.008,0.011
	c-0.002,0.002-0.004,0.005-0.005,0.007c-0.003,0.004-0.005,0.008-0.008,0.011c-0.002,0.003-0.003,0.005-0.005,0.008
	c-0.003,0.004-0.005,0.007-0.008,0.011c-0.002,0.003-0.004,0.005-0.006,0.008c-0.002,0.003-0.005,0.007-0.007,0.01
	c-0.003,0.004-0.005,0.007-0.008,0.011c-0.002,0.003-0.004,0.006-0.006,0.008c-0.002,0.003-0.005,0.007-0.007,0.01
	c-0.002,0.003-0.004,0.006-0.007,0.009c-0.003,0.004-0.005,0.007-0.007,0.011c-0.002,0.003-0.004,0.005-0.006,0.008
	c-0.003,0.004-0.005,0.008-0.008,0.011c-0.002,0.002-0.003,0.005-0.005,0.007c-0.003,0.004-0.006,0.008-0.008,0.012
	c-0.002,0.003-0.004,0.005-0.005,0.008c-0.003,0.004-0.005,0.007-0.008,0.011c-0.002,0.002-0.003,0.005-0.005,0.007
	c-0.003,0.004-0.006,0.009-0.009,0.012c-0.002,0.002-0.003,0.005-0.005,0.007c-0.003,0.004-0.006,0.008-0.008,0.012
	c-0.002,0.002-0.003,0.004-0.005,0.007c-0.003,0.004-0.006,0.009-0.009,0.012c-0.002,0.002-0.003,0.005-0.005,0.007
	c-0.003,0.004-0.005,0.008-0.008,0.012c-0.002,0.002-0.003,0.005-0.005,0.007c-0.003,0.004-0.006,0.008-0.008,0.012
	c-0.002,0.003-0.005,0.007-0.007,0.01c-0.002,0.003-0.004,0.006-0.006,0.009c-0.002,0.003-0.005,0.007-0.007,0.01
	c-0.003,0.004-0.004,0.006-0.007,0.01c-0.002,0.003-0.004,0.006-0.006,0.009c-0.003,0.004-0.004,0.006-0.007,0.01
	c-0.002,0.003-0.004,0.006-0.006,0.009c-0.003,0.005-0.006,0.009-0.009,0.013c-0.001,0.002-0.002,0.004-0.004,0.005
	c-0.004,0.005-0.006,0.009-0.01,0.015c-0.001,0.001-0.002,0.003-0.003,0.004c-0.004,0.005-0.006,0.009-0.01,0.014
	c-0.001,0.002-0.002,0.003-0.004,0.005c-0.003,0.005-0.006,0.009-0.009,0.013c-0.001,0.002-0.003,0.004-0.004,0.006
	c-0.003,0.005-0.006,0.009-0.009,0.013c-0.001,0.002-0.003,0.004-0.004,0.006c-0.003,0.005-0.006,0.008-0.009,0.013
	c-0.001,0.002-0.003,0.004-0.004,0.006c-0.003,0.005-0.006,0.008-0.009,0.013c-0.002,0.002-0.003,0.004-0.004,0.006
	c-0.003,0.004-0.006,0.009-0.009,0.013c-0.001,0.002-0.002,0.003-0.003,0.005c-0.004,0.005-0.006,0.009-0.01,0.014
	c-0.001,0.002-0.002,0.003-0.003,0.005c-0.003,0.005-0.007,0.01-0.01,0.015c-0.001,0.001-0.001,0.002-0.002,0.002
	c-0.004,0.005-0.008,0.011-0.011,0.017c0,0.001-0.001,0.001-0.001,0.002c-0.018,0.027-0.037,0.055-0.055,0.082c0,0,0,0-0.001,0.001
	c-0.004,0.006-0.008,0.012-0.012,0.018c0,0,0,0-0.001,0.001C5,13.411,4.996,13.417,4.992,13.423l0,0
	c-0.017,0.025-0.033,0.05-0.05,0.075l0,0c-1.158,1.754-2.136,3.637-2.909,5.623l3.728,1.451c1.265-3.25,3.146-6.174,5.59-8.689
	L8.481,9.097L8.481,9.097z M4.011,30.757l-3.998,0.114c0.029,1.001,0.106,1.99,0.23,2.964l0,0.001c0,0.004,0.001,0.007,0.001,0.011
	l0,0.001c0,0.004,0.001,0.007,0.001,0.011l0,0.001c0,0.004,0.001,0.007,0.001,0.011l0,0.001c0,0.003,0.001,0.007,0.001,0.011
	c0,0.001,0,0.002,0,0.003c0,0.003,0.001,0.006,0.001,0.009c0,0.001,0,0.002,0,0.003c0,0.003,0.001,0.006,0.001,0.009l0,0.002
	c0,0.003,0.001,0.007,0.001,0.01l0,0.002c0,0.003,0.001,0.006,0.001,0.01c0,0.001,0,0.002,0,0.003c0,0.003,0.001,0.006,0.001,0.009
	c0,0.001,0,0.001,0,0.002c0,0.003,0.001,0.006,0.001,0.01c0,0.001,0,0.001,0,0.002c0,0.003,0.001,0.006,0.001,0.01l0,0.002
	c0,0.003,0.001,0.007,0.001,0.01c0,0.001,0,0.001,0,0.002c0,0.003,0.001,0.007,0.001,0.01l0,0.002c0,0.003,0.001,0.007,0.001,0.01
	l0,0.001c0,0.004,0.001,0.007,0.001,0.011l0,0c0,0.004,0.001,0.007,0.001,0.011c0,0.001,0,0.001,0,0.002
	c0,0.003,0.001,0.006,0.001,0.01l0,0.001c0,0.003,0.001,0.007,0.001,0.01c0,0.001,0,0.001,0,0.002c0,0.003,0.001,0.007,0.001,0.01
	c0,0.001,0,0,0,0.001c0,0.003,0.001,0.007,0.001,0.01c0,0.001,0,0.002,0,0.003c0,0.003,0.001,0.006,0.001,0.01
	c0,0.001,0,0.001,0,0.002c0,0.003,0.001,0.007,0.001,0.01c0,0.001,0,0.001,0,0.002c0,0.003,0.001,0.006,0.001,0.009
	c0,0.001,0,0.002,0,0.003c0,0.003,0.001,0.006,0.001,0.008c0,0.001,0,0.003,0.001,0.004c0,0.002,0.001,0.005,0.001,0.008
	c0,0.001,0,0.003,0,0.004c0,0.003,0.001,0.005,0.001,0.008c0,0.001,0,0.002,0,0.003c0,0.003,0.001,0.006,0.001,0.009
	c0,0.001,0,0.001,0,0.002c0,0.003,0.001,0.006,0.001,0.009c0,0.001,0,0.002,0,0.003c0,0.003,0.001,0.006,0.001,0.009
	c0,0.001,0,0.002,0,0.003c0,0.003,0.001,0.006,0.001,0.009c0,0.001,0,0.002,0,0.003c0,0.003,0.001,0.006,0.001,0.009
	c0,0.001,0,0.002,0,0.003c0,0.003,0.001,0.006,0.001,0.008c0,0.001,0,0.003,0.001,0.004c0,0.003,0.001,0.005,0.001,0.008
	c0,0.001,0,0.003,0.001,0.004c0,0.003,0.001,0.005,0.001,0.008c0,0.001,0,0.003,0.001,0.004c0,0.003,0.001,0.005,0.001,0.008
	c0,0.001,0,0.003,0.001,0.004c0,0.002,0.001,0.005,0.001,0.007c0,0.002,0,0.003,0.001,0.005c0,0.002,0.001,0.005,0.001,0.007
	c0,0.001,0,0.003,0.001,0.004c0,0.002,0.001,0.005,0.001,0.007c0,0.001,0.001,0.004,0.001,0.005c0,0.002,0.001,0.005,0.001,0.007
	c0,0.002,0,0.003,0.001,0.005c0,0.002,0.001,0.005,0.001,0.007c0,0.002,0.001,0.004,0.001,0.006c0,0.002,0.001,0.004,0.001,0.006
	c0,0.002,0.001,0.004,0.001,0.006c0,0.002,0.001,0.004,0.001,0.006c0,0.002,0,0.003,0.001,0.005c0,0.002,0.001,0.005,0.001,0.007
	c0,0.002,0,0.003,0.001,0.005c0,0.002,0.001,0.005,0.001,0.007c0,0.002,0,0.002,0.001,0.004c0,0.003,0.001,0.005,0.001,0.008
	c0,0.001,0,0.002,0,0.003c0,0.003,0.001,0.006,0.001,0.009c0,0.001,0,0.002,0,0.003c0,0.003,0.001,0.006,0.001,0.009
	c0,0.001,0,0.002,0,0.003c0,0.003,0.001,0.005,0.001,0.008c0,0.001,0,0.003,0.001,0.004c0,0.003,0.001,0.006,0.001,0.008
	c0,0.001,0,0.002,0,0.003c0,0.003,0.001,0.006,0.001,0.009c0,0.001,0,0.002,0,0.003c0,0.003,0.001,0.006,0.001,0.009
	c0,0.001,0,0.001,0,0.002c0,0.003,0.001,0.006,0.001,0.009c0,0.001,0,0.002,0,0.003c0,0.003,0.001,0.006,0.001,0.009
	c0,0.001,0,0.002,0,0.003c0,0.003,0.001,0.006,0.001,0.009c0,0.001,0,0.002,0,0.003c0,0.003,0.001,0.005,0.001,0.008
	c0,0.002,0,0.002,0.001,0.004c0,0.002,0.001,0.005,0.001,0.007c0,0.002,0,0.003,0.001,0.005c0,0.003,0.001,0.005,0.001,0.008
	c0,0.002,0,0.002,0.001,0.004c0,0.003,0.001,0.005,0.001,0.008c0,0.001,0,0.002,0,0.003c0,0.003,0.001,0.006,0.001,0.009l0,0.002
	c0,0.003,0.001,0.006,0.001,0.009l0,0.003c0,0.003,0.001,0.006,0.001,0.009l0,0.002c0.001,0.003,0.001,0.006,0.001,0.01l0,0.002
	c0.001,0.003,0.001,0.006,0.001,0.01l0,0.002c0,0.003,0.001,0.006,0.001,0.009c0,0.002,0,0.001,0.001,0.003
	c0,0.003,0.001,0.006,0.001,0.009c0,0.001,0,0.002,0,0.003c0,0.003,0.001,0.006,0.001,0.009c0,0.001,0,0.002,0,0.003
	c0,0.003,0.001,0.005,0.001,0.008c0,0.001,0,0.003,0.001,0.004c0,0.003,0.001,0.005,0.001,0.008c0,0.002,0,0.002,0.001,0.004
	c0,0.003,0.001,0.005,0.001,0.008c0,0.001,0,0.003,0.001,0.003c0,0.003,0.001,0.005,0.001,0.008c0,0.002,0,0.002,0.001,0.004
	c0,0.003,0.001,0.005,0.001,0.008c0,0.002,0,0.002,0.001,0.004c0,0.002,0.001,0.005,0.001,0.007c0,0.002,0,0.003,0.001,0.005
	c0,0.002,0.001,0.005,0.001,0.007c0,0.002,0,0.002,0.001,0.004c0,0.002,0.001,0.005,0.001,0.008c0,0.001,0,0.003,0.001,0.004
	c0,0.003,0.001,0.006,0.001,0.008c0,0.001,0,0.003,0.001,0.004c0,0.003,0.001,0.005,0.001,0.008c0,0.002,0,0.002,0.001,0.004
	c0,0.003,0.001,0.005,0.001,0.008c0,0.001,0,0.003,0.001,0.004c0,0.003,0.001,0.005,0.001,0.008c0,0.001,0,0.003,0.001,0.003
	c0,0.003,0.001,0.006,0.001,0.008c0,0.001,0,0.003,0.001,0.004c0,0.002,0.001,0.005,0.001,0.007c0,0.002,0,0.003,0.001,0.004
	c0,0.003,0.001,0.005,0.001,0.008c0,0.001,0,0.002,0.001,0.003c0,0.003,0.001,0.006,0.001,0.008c0,0.001,0,0.002,0.001,0.003
	c0,0.003,0.001,0.006,0.001,0.008c0,0.001,0,0.003,0.001,0.004c0,0.002,0.001,0.005,0.001,0.007c0,0.002,0,0.003,0.001,0.005
	c0,0.003,0.001,0.005,0.001,0.007c0,0.001,0,0.003,0.001,0.004c0,0.003,0.001,0.005,0.001,0.008c0,0.001,0,0.003,0.001,0.004
	c0,0.002,0.001,0.005,0.001,0.008c0,0.001,0.001,0.003,0.001,0.004c0,0.002,0.001,0.004,0.001,0.006
	c0,0.002,0.001,0.004,0.001,0.006c0,0.002,0.001,0.004,0.001,0.006c0,0.002,0.001,0.003,0.001,0.005
	c0,0.002,0.001,0.005,0.001,0.006c0,0.002,0.001,0.003,0.001,0.005c0,0.002,0.001,0.005,0.001,0.007c0,0.001,0,0.003,0.001,0.004
	c0,0.002,0.001,0.005,0.001,0.008c0,0.001,0.001,0.003,0.001,0.004c0,0.003,0.001,0.005,0.001,0.008c0,0.001,0,0.003,0.001,0.003
	c0,0.003,0.001,0.006,0.001,0.008c0,0.001,0,0.002,0,0.003c0,0.003,0.001,0.006,0.001,0.009c0,0.001,0,0.002,0,0.003
	c0,0.003,0.001,0.005,0.001,0.008c0,0.001,0,0.003,0.001,0.004c0,0.003,0.001,0.006,0.001,0.008c0,0.001,0,0.002,0.001,0.003
	c0,0.003,0.001,0.005,0.001,0.008c0,0.001,0,0.002,0.001,0.003c0,0.003,0.001,0.005,0.001,0.008c0,0.001,0,0.003,0.001,0.004
	c0,0.002,0.001,0.005,0.001,0.007c0,0.001,0.001,0.004,0.001,0.005c0,0.003,0.001,0.005,0.001,0.008c0,0.001,0,0.003,0.001,0.004
	c0,0.003,0.001,0.005,0.001,0.008c0,0.001,0,0.003,0.001,0.004c0,0.003,0.001,0.005,0.001,0.008c0,0.001,0.001,0.003,0.001,0.004
	c0,0.002,0.001,0.004,0.001,0.007c0,0.001,0.001,0.004,0.001,0.005c0,0.002,0.001,0.004,0.001,0.006
	c0,0.001,0.001,0.004,0.001,0.005c0,0.002,0.001,0.004,0.001,0.007c0,0.001,0.001,0.004,0.001,0.005
	c0,0.002,0.001,0.005,0.001,0.007c0,0.001,0.001,0.003,0.001,0.004c0,0.002,0.001,0.005,0.001,0.007
	c0,0.001,0.001,0.004,0.001,0.004c0,0.002,0.001,0.005,0.001,0.008c0,0.001,0,0.003,0.001,0.004c0,0.003,0.001,0.005,0.001,0.008
	c0,0.001,0,0.002,0.001,0.003c0.001,0.003,0.001,0.006,0.002,0.009c0,0.001,0,0.002,0.001,0.003c0,0.002,0.001,0.005,0.001,0.007
	c0,0.001,0.001,0.004,0.001,0.004c0,0.002,0.001,0.005,0.001,0.008c0,0.001,0,0.003,0.001,0.004c0,0.003,0.001,0.005,0.001,0.008
	c0,0.001,0,0.003,0.001,0.004c0.001,0.003,0.001,0.005,0.001,0.008c0,0.001,0,0.002,0.001,0.003c0,0.002,0.001,0.005,0.001,0.007
	c0,0.001,0.001,0.003,0.001,0.004c0,0.002,0.001,0.005,0.001,0.007c0,0.001,0.001,0.004,0.001,0.005
	c0,0.002,0.001,0.005,0.001,0.007c0,0.001,0.001,0.003,0.001,0.004c0,0.003,0.001,0.005,0.001,0.008c0,0.001,0,0.003,0.001,0.004
	c0,0.002,0.001,0.005,0.001,0.007c0,0.002,0,0.003,0.001,0.004c0,0.003,0.001,0.005,0.001,0.008c0,0.001,0,0.003,0.001,0.004
	c0.001,0.003,0.001,0.006,0.002,0.009l0,0.002c0.001,0.003,0.001,0.006,0.002,0.009l0,0.002c0,0.003,0.001,0.006,0.002,0.009
	c0,0.001,0,0.002,0.001,0.003c0.001,0.003,0.001,0.006,0.002,0.009l0,0.002c0.001,0.003,0.001,0.007,0.002,0.01l0,0.002
	c0.001,0.003,0.001,0.006,0.002,0.01l0,0.002c0,0.003,0.001,0.006,0.002,0.009c0,0.002,0,0.001,0.001,0.003
	c0.001,0.003,0.001,0.006,0.002,0.009c0,0.002,0,0.001,0.001,0.003c0,0.003,0.001,0.006,0.001,0.008c0,0.002,0,0.001,0.001,0.003
	c0,0.002,0.001,0.005,0.001,0.008c0,0.002,0,0.002,0.001,0.004c0,0.002,0.001,0.004,0.001,0.006c0,0.002,0.001,0.004,0.001,0.006
	c0,0.002,0.001,0.004,0.001,0.006c0,0.002,0.001,0.004,0.001,0.006c0,0.002,0.001,0.005,0.001,0.007c0,0.002,0,0.002,0.001,0.004
	c0,0.002,0.001,0.005,0.001,0.008c0,0.002,0,0.002,0.001,0.004c0,0.002,0.001,0.003,0.001,0.005
	c0.001,0.003,0.001,0.004,0.001,0.007c0,0.001,0.001,0.003,0.001,0.004c0.001,0.003,0.001,0.004,0.001,0.007
	c0,0.002,0.001,0.005,0.001,0.007c0,0.002,0,0.003,0.001,0.004c0,0.003,0.001,0.005,0.001,0.008c0,0.002,0,0.002,0.001,0.004
	c0,0.002,0.001,0.005,0.001,0.007c0,0.002,0.001,0.003,0.001,0.005c0,0.002,0.001,0.005,0.001,0.007c0,0.002,0,0.002,0.001,0.004
	c0.001,0.007,0.003,0.014,0.004,0.021c0,0.001,0,0.001,0,0.002c0,0.002,0.001,0.005,0.001,0.007c0,0.002,0.001,0.003,0.001,0.005
	c0,0.002,0.001,0.005,0.001,0.008c0,0.001,0,0.003,0.001,0.004c0.001,0.003,0.001,0.007,0.002,0.01c0,0.001,0,0.001,0,0.001
	c0.001,0.003,0.001,0.006,0.002,0.009c0,0.001,0,0.002,0,0.003c0.001,0.003,0.001,0.006,0.002,0.009c0,0.001,0,0.002,0.001,0.003
	c0.003,0.014,0.005,0.028,0.008,0.042c0,0.002,0.001,0.003,0.001,0.005c0,0.001,0.001,0.003,0.001,0.004
	c0.001,0.003,0.001,0.004,0.001,0.007c0.008,0.042,0.016,0.084,0.024,0.127c0,0.001,0,0.001,0,0.002
	c0.003,0.015,0.006,0.029,0.008,0.044c0,0.002,0.001,0.004,0.001,0.006c0,0.002,0.001,0.004,0.001,0.006c0,0.001,0,0.001,0,0.002
	c0.001,0.007,0.003,0.014,0.004,0.022l0,0c0.01,0.05,0.02,0.1,0.03,0.149c0,0.001,0,0,0,0.001c0.006,0.03,0.012,0.061,0.019,0.091
	l0,0c0.002,0.011,0.005,0.023,0.007,0.034l0,0.001c0.001,0.004,0.001,0.007,0.002,0.011l0,0.001c0.001,0.004,0.001,0.007,0.002,0.01
	l0,0.001c0.001,0.003,0.001,0.007,0.002,0.01l0,0.001c0.001,0.003,0.002,0.007,0.002,0.011l0,0.002
	c0.001,0.003,0.001,0.006,0.002,0.009c0,0.001,0.001,0.003,0.001,0.004c0.001,0.003,0.001,0.005,0.002,0.008l0,0.002
	c0.001,0.003,0.001,0.006,0.002,0.009l0,0.002c0.001,0.003,0.001,0.007,0.002,0.01l0,0.002c0.001,0.003,0.001,0.006,0.002,0.009
	l0,0.002c0.001,0.003,0.001,0.006,0.002,0.009l0,0.001c0.001,0.004,0.002,0.007,0.002,0.011l0,0.001
	c0.001,0.004,0.002,0.007,0.002,0.011l0,0.001c0.001,0.003,0.001,0.007,0.002,0.01c0,0.001,0,0.002,0.001,0.003
	c0.001,0.003,0.001,0.006,0.002,0.009l0,0.002c0.001,0.003,0.001,0.006,0.002,0.009c0,0.001,0,0.001,0,0.002
	c0.001,0.003,0.001,0.006,0.002,0.009l0,0.001c0.001,0.003,0.001,0.007,0.002,0.01l0,0.002c0.001,0.003,0.001,0.007,0.002,0.01l0,0
	c0.001,0.004,0.002,0.007,0.002,0.011l0,0c0.001,0.004,0.002,0.007,0.002,0.011l0,0.001c0.001,0.003,0.001,0.007,0.002,0.01
	c0,0.001,0,0.002,0.001,0.003c0.001,0.003,0.001,0.006,0.002,0.009c0,0.001,0,0.001,0,0.002c0.001,0.003,0.001,0.007,0.002,0.01
	c0,0.001,0,0.001,0,0.002c0.001,0.003,0.001,0.007,0.002,0.01l0,0.001c0.001,0.003,0.001,0.007,0.002,0.01c0,0.001,0,0.001,0,0.002
	c0.001,0.003,0.001,0.006,0.002,0.01l0,0.001c0.001,0.004,0.002,0.007,0.002,0.011l0,0.001c0.001,0.003,0.002,0.007,0.002,0.01
	c0,0.001,0,0.001,0,0.001c0.001,0.003,0.001,0.006,0.002,0.01c0,0.001,0,0.001,0.001,0.002c0.001,0.003,0.001,0.006,0.002,0.009
	c0,0.001,0,0.001,0,0.002c0.001,0.003,0.001,0.007,0.002,0.01c0,0.001,0,0,0,0.001c0.001,0.004,0.002,0.007,0.002,0.01l0,0.001
	c0.001,0.003,0.002,0.007,0.002,0.01c0,0.001,0,0.001,0,0.002c0.001,0.003,0.001,0.006,0.002,0.01c0,0.001,0,0,0,0.001
	c0.001,0.003,0.001,0.007,0.002,0.01c0,0.001,0,0.001,0,0.002c0.001,0.003,0.001,0.006,0.002,0.01c0,0.001,0,0.001,0,0.002
	c0.001,0.003,0.001,0.006,0.002,0.009c0,0.001,0.001,0.003,0.001,0.004c0.001,0.003,0.001,0.005,0.002,0.008
	c0,0.001,0,0.001,0.001,0.002c0.001,0.003,0.001,0.006,0.002,0.009c0,0.001,0,0.001,0,0.002c0.001,0.003,0.001,0.006,0.002,0.009
	c0,0.001,0,0.001,0,0.002c0.001,0.003,0.001,0.006,0.002,0.009c0,0.001,0,0.001,0,0.002c0.001,0.003,0.001,0.006,0.002,0.01
	c0,0.001,0,0,0,0.001c0.001,0.003,0.002,0.007,0.002,0.01c0,0.001,0,0.001,0,0.002c0.001,0.003,0.001,0.006,0.002,0.009
	c0,0.001,0,0.001,0.001,0.002c0.001,0.003,0.001,0.006,0.002,0.009c0,0.001,0.001,0.002,0.001,0.003
	c0.001,0.003,0.001,0.006,0.002,0.008c0,0.001,0,0.001,0,0.002c0.001,0.003,0.001,0.006,0.002,0.009c0,0.001,0,0.001,0,0.002
	c0.001,0.003,0.001,0.006,0.002,0.009c0,0.001,0,0.001,0.001,0.002c0.001,0.003,0.001,0.006,0.002,0.009
	c0,0.001,0,0.002,0.001,0.003c0.001,0.003,0.001,0.006,0.002,0.009c0,0.001,0,0,0,0.001c0.001,0.003,0.002,0.007,0.002,0.01
	c0,0.001,0,0.001,0,0.002c0.001,0.003,0.001,0.007,0.002,0.01c0,0.001,0,0.001,0,0.001c0.001,0.003,0.001,0.006,0.002,0.009
	c0,0.001,0,0.002,0.001,0.003c0.001,0.003,0.001,0.006,0.002,0.009c0,0.001,0,0.001,0,0.002c0.001,0.003,0.001,0.006,0.002,0.01
	c0,0.001,0,0.001,0,0.002c0.001,0.003,0.001,0.007,0.002,0.01l0,0.001c0.001,0.003,0.002,0.007,0.002,0.01l0,0.001
	c0.002,0.007,0.003,0.015,0.005,0.022l0,0c0.001,0.004,0.002,0.007,0.003,0.011l0,0.001c0.001,0.003,0.002,0.007,0.002,0.01l0,0.002
	c0.001,0.004,0.002,0.007,0.002,0.01l0,0.001c0.001,0.004,0.002,0.007,0.002,0.01l0,0.002c0.001,0.003,0.001,0.006,0.002,0.009
	l0.001,0.002c0.001,0.003,0.001,0.006,0.002,0.009c0,0.001,0,0.002,0.001,0.002c0.001,0.003,0.001,0.006,0.002,0.009l0,0.001
	c0.001,0.003,0.002,0.006,0.002,0.01l0.001,0.002c0.001,0.003,0.001,0.006,0.002,0.009l0.001,0.003
	c0.001,0.003,0.001,0.006,0.002,0.008c0,0.002,0,0.002,0.001,0.004c0.001,0.003,0.001,0.006,0.002,0.008l0,0.002
	C0.8,36.91,0.8,36.913,0.801,36.916l0,0.001c0.001,0.004,0.002,0.007,0.002,0.011l0,0.001c0.001,0.004,0.002,0.007,0.002,0.01
	l0,0.002c0.001,0.004,0.002,0.007,0.002,0.01l0,0c0.001,0.004,0.002,0.007,0.003,0.011l0,0.001c0.001,0.003,0.002,0.007,0.002,0.01
	l0,0.001c0.001,0.003,0.002,0.007,0.002,0.01l0,0.002c0.001,0.003,0.002,0.006,0.002,0.01l0,0.001
	c0.001,0.003,0.002,0.007,0.002,0.01l0,0.001c0.001,0.003,0.002,0.007,0.002,0.01l0,0.001c0.001,0.003,0.002,0.007,0.002,0.01
	l0,0.001c0.002,0.007,0.003,0.015,0.005,0.022l0,0.001c0.001,0.004,0.002,0.007,0.003,0.011l0,0.001
	c0.001,0.003,0.002,0.007,0.002,0.01c0,0.001,0,0,0,0.001c0.002,0.007,0.004,0.015,0.005,0.022l0,0
	c0.006,0.023,0.011,0.045,0.017,0.068l0,0c0.007,0.03,0.015,0.06,0.022,0.09c0,0.001,0,0,0,0.001
	c0.45,1.812,1.065,3.558,1.828,5.223l3.637-1.666C4.897,37.648,4.111,34.264,4.011,30.757L4.011,30.757z M12.433,49.168L9.73,52.116
	c0.003,0.003,0.004,0.003,0.006,0.006c0.001,0.001,0.002,0.002,0.003,0.003c0.005,0.004,0.009,0.008,0.014,0.013
	c0.001,0.001,0.002,0.002,0.004,0.003c0.005,0.004,0.008,0.008,0.013,0.012c0.001,0.001,0.002,0.002,0.003,0.003
	c0.005,0.004,0.009,0.008,0.014,0.013c0,0,0.001,0.001,0.001,0.001c0.006,0.005,0.01,0.009,0.016,0.014
	c0.001,0.001,0.001,0.001,0.002,0.002c0.005,0.004,0.01,0.009,0.015,0.014c0.003,0.002,0.006,0.005,0.008,0.007
	c0.004,0.004,0.008,0.008,0.012,0.011c0.001,0.001,0.003,0.003,0.004,0.004c0.005,0.004,0.009,0.009,0.014,0.013
	c0.001,0.001,0.002,0.002,0.002,0.002c0.005,0.004,0.009,0.008,0.014,0.013c0.001,0.001,0.002,0.002,0.003,0.003
	c0.005,0.004,0.008,0.007,0.013,0.012c0.001,0.001,0.003,0.003,0.004,0.004c0.004,0.004,0.009,0.009,0.014,0.012
	c0.001,0.001,0.002,0.002,0.003,0.003c0.005,0.004,0.009,0.008,0.014,0.013c0.001,0.001,0.002,0.002,0.003,0.002
	c0.004,0.004,0.01,0.009,0.014,0.013c0.001,0.001,0.002,0.002,0.003,0.002c0.004,0.004,0.01,0.009,0.014,0.012
	c0.001,0.001,0.002,0.002,0.003,0.003c0.005,0.004,0.01,0.009,0.015,0.013c0.001,0,0.001,0.001,0.001,0.001
	c0.006,0.005,0.01,0.009,0.016,0.014c0,0,0.001,0.001,0.001,0.001c0.011,0.01,0.022,0.019,0.033,0.029l0,0
	c2.863,2.556,6.22,4.571,9.909,5.884l1.341-3.768C17.995,53.333,15.018,51.539,12.433,49.168L12.433,49.168z M41.496,53.328
	c-3.127,1.544-6.486,2.429-9.983,2.629l0.228,3.993c3.571-0.204,6.976-1.033,10.105-2.38l0,0c0.028-0.012,0.056-0.024,0.084-0.036
	l0,0c0.007-0.003,0.014-0.006,0.021-0.009l0,0c0.003-0.002,0.006-0.003,0.01-0.004c0,0,0.001,0,0.001,0
	c0.003-0.002,0.005-0.002,0.009-0.004c0.001,0,0.001-0.001,0.002-0.001c0.003-0.002,0.005-0.002,0.009-0.004
	c0,0,0.001,0,0.001-0.001c0.003-0.001,0.006-0.002,0.008-0.004c0.001,0,0.002-0.001,0.003-0.001
	c0.003-0.001,0.005-0.002,0.008-0.003c0.001,0,0.002-0.001,0.003-0.001c0.002-0.001,0.005-0.002,0.007-0.003
	c0.001-0.001,0.003-0.001,0.004-0.002c0.002-0.001,0.005-0.002,0.007-0.003c0.001,0,0.002-0.001,0.003-0.002
	c0.002-0.001,0.005-0.002,0.007-0.003c0.001,0,0.002-0.001,0.004-0.002c0.002-0.001,0.005-0.002,0.007-0.003
	c0.001-0.001,0.003-0.001,0.004-0.002c0.002-0.001,0.004-0.002,0.006-0.003c0.001-0.001,0.003-0.001,0.004-0.002
	c0.002-0.001,0.005-0.002,0.007-0.003c0.001-0.001,0.003-0.001,0.004-0.002c0.002-0.001,0.004-0.002,0.006-0.003
	c0.001-0.001,0.003-0.001,0.004-0.002c0.002-0.001,0.004-0.002,0.006-0.003c0.002-0.001,0.003-0.001,0.005-0.002
	c0.002-0.001,0.004-0.002,0.005-0.002c0.002-0.001,0.003-0.001,0.005-0.002c0.002-0.001,0.004-0.002,0.006-0.003
	c0.001-0.001,0.003-0.001,0.004-0.002c0.002-0.001,0.004-0.002,0.005-0.002c0.002-0.001,0.004-0.002,0.005-0.002
	c0.002-0.001,0.004-0.002,0.005-0.002c0.002-0.001,0.003-0.002,0.005-0.002c0.002-0.001,0.003-0.001,0.005-0.002
	c0.002-0.001,0.004-0.002,0.006-0.003c0.002-0.001,0.003-0.001,0.005-0.002c0.002-0.001,0.004-0.002,0.006-0.003
	c0.002-0.001,0.002-0.001,0.004-0.002c0.002-0.001,0.005-0.002,0.007-0.003c0.001,0,0.003-0.001,0.003-0.002
	c0.002-0.001,0.005-0.002,0.007-0.003c0.001,0,0.002-0.001,0.003-0.001c0.002-0.001,0.005-0.002,0.007-0.003
	c0.001,0,0.003-0.001,0.004-0.002c0.002-0.001,0.004-0.002,0.007-0.003c0.002-0.001,0.002-0.001,0.004-0.002
	c0.002-0.001,0.004-0.002,0.006-0.003c0.002-0.001,0.003-0.001,0.004-0.002c0.002-0.001,0.005-0.002,0.007-0.003
	c0.001,0,0.002-0.001,0.003-0.001c0.002-0.001,0.005-0.002,0.007-0.003c0.001,0,0.003-0.001,0.003-0.002
	c0.003-0.001,0.005-0.002,0.008-0.003c0.001,0,0.001-0.001,0.002-0.001c0.003-0.001,0.005-0.002,0.008-0.004
	c0.001,0,0.002-0.001,0.003-0.001c0.003-0.001,0.006-0.003,0.009-0.004c0.001,0,0,0,0.001,0c0.003-0.001,0.006-0.003,0.009-0.004
	c0.001,0,0.001-0.001,0.002-0.001c0.003-0.001,0.006-0.003,0.01-0.004l0,0c0.003-0.002,0.007-0.003,0.01-0.005l0,0
	c0.329-0.148,0.654-0.301,0.976-0.46L41.496,53.328L41.496,53.328z M54.745,38.007c-1.072,3.317-2.78,6.344-5.074,8.996l3.025,2.617
	c0.104-0.121,0.207-0.242,0.31-0.364c0,0,0,0,0,0c0.005-0.006,0.009-0.011,0.014-0.017c0,0,0-0.001,0.001-0.001
	c0.005-0.006,0.009-0.01,0.013-0.016c0-0.001,0.001-0.001,0.001-0.002c0.005-0.006,0.009-0.01,0.013-0.016
	c0,0,0.001-0.001,0.001-0.001c0.005-0.006,0.009-0.011,0.014-0.017c0,0,0-0.001,0.001-0.001c0.005-0.006,0.009-0.011,0.014-0.016
	c0-0.001,0.001-0.001,0.001-0.001c0.005-0.006,0.008-0.01,0.013-0.016c0.001-0.001,0.002-0.002,0.002-0.003
	c0.004-0.005,0.008-0.01,0.012-0.015c0.001-0.001,0.001-0.001,0.002-0.002c0.004-0.005,0.008-0.01,0.012-0.015
	c0.001-0.001,0.002-0.002,0.003-0.003c0.004-0.005,0.007-0.009,0.012-0.014c0.001-0.001,0.002-0.003,0.003-0.004
	c0.004-0.004,0.007-0.009,0.011-0.013c0.002-0.003,0.005-0.006,0.007-0.009c0.004-0.004,0.008-0.009,0.011-0.014
	c0.001-0.001,0.002-0.002,0.003-0.004c0.004-0.005,0.008-0.01,0.012-0.015c0.001-0.001,0.002-0.002,0.002-0.003
	c0.004-0.004,0.008-0.009,0.011-0.014c0.001-0.001,0.002-0.003,0.003-0.004c0.004-0.004,0.007-0.008,0.01-0.012
	c0.002-0.002,0.003-0.004,0.005-0.006c0.003-0.004,0.007-0.009,0.01-0.013c0.001-0.001,0.003-0.003,0.004-0.005
	c0.003-0.004,0.007-0.009,0.01-0.012c0.002-0.002,0.003-0.004,0.005-0.006c0.003-0.004,0.006-0.008,0.009-0.011
	c0.002-0.002,0.003-0.004,0.005-0.007c0.004-0.004,0.006-0.007,0.009-0.012c0.002-0.002,0.003-0.004,0.005-0.006
	c0.003-0.004,0.007-0.008,0.01-0.012c0.002-0.002,0.003-0.004,0.005-0.006c0.003-0.004,0.007-0.008,0.01-0.012
	c0.002-0.002,0.004-0.004,0.005-0.006c0.003-0.004,0.006-0.007,0.009-0.011c0.002-0.002,0.004-0.005,0.006-0.008
	c0.002-0.003,0.006-0.007,0.008-0.01c0.002-0.003,0.005-0.006,0.007-0.009c0.002-0.003,0.005-0.006,0.007-0.009
	c0.003-0.003,0.006-0.007,0.008-0.01c0.002-0.003,0.004-0.005,0.006-0.008c0.003-0.003,0.006-0.007,0.008-0.01
	c0.002-0.002,0.004-0.005,0.006-0.007c0.003-0.004,0.006-0.007,0.009-0.011c0.002-0.002,0.004-0.005,0.006-0.007
	c0.003-0.004,0.006-0.007,0.009-0.011c0.002-0.002,0.004-0.005,0.006-0.007c0.003-0.003,0.006-0.007,0.008-0.01
	c0.002-0.003,0.005-0.006,0.007-0.009c0.002-0.003,0.005-0.006,0.007-0.009c0.002-0.003,0.005-0.006,0.007-0.009
	c0.003-0.003,0.005-0.006,0.008-0.01c0.002-0.003,0.004-0.006,0.007-0.008c0.003-0.003,0.005-0.006,0.008-0.01
	c0.002-0.003,0.005-0.006,0.007-0.009c0.003-0.003,0.005-0.006,0.008-0.01c0.002-0.003,0.005-0.006,0.007-0.009
	c0.003-0.003,0.005-0.006,0.008-0.01c0.002-0.003,0.004-0.005,0.006-0.008c0.003-0.003,0.006-0.007,0.008-0.01
	c0.002-0.003,0.004-0.005,0.007-0.008c0.003-0.003,0.005-0.006,0.008-0.01c0.002-0.002,0.005-0.006,0.007-0.008
	c0.003-0.003,0.005-0.007,0.008-0.01c0.002-0.003,0.004-0.005,0.007-0.008c0.003-0.003,0.006-0.007,0.008-0.011
	c0.002-0.002,0.004-0.005,0.005-0.007c0.003-0.004,0.006-0.008,0.01-0.012c0.002-0.002,0.003-0.004,0.005-0.006
	c0.003-0.004,0.006-0.008,0.01-0.012c0.002-0.002,0.003-0.003,0.004-0.006c0.003-0.004,0.006-0.008,0.01-0.012
	c0.001-0.001,0.004-0.004,0.005-0.006c0.003-0.004,0.006-0.008,0.01-0.012c0.001-0.001,0.003-0.004,0.004-0.005
	c0.003-0.004,0.006-0.008,0.01-0.013c0.002-0.002,0.003-0.004,0.005-0.006c0.003-0.004,0.006-0.008,0.01-0.012
	c0.002-0.002,0.003-0.004,0.005-0.006c0.003-0.004,0.006-0.008,0.01-0.012c0.002-0.002,0.003-0.004,0.005-0.006
	c0.003-0.004,0.006-0.008,0.01-0.012c0.001-0.001,0.003-0.004,0.004-0.005c0.003-0.004,0.007-0.009,0.01-0.013
	c0.002-0.002,0.003-0.004,0.005-0.006c0.003-0.004,0.006-0.008,0.009-0.012c0.002-0.002,0.003-0.004,0.005-0.007
	c0.003-0.004,0.006-0.008,0.009-0.012c0.002-0.002,0.003-0.004,0.005-0.007c0.003-0.004,0.007-0.009,0.01-0.013
	c0.001-0.001,0.003-0.004,0.004-0.005c0.003-0.004,0.007-0.009,0.01-0.013c0.002-0.002,0.002-0.003,0.004-0.005
	c0.004-0.005,0.007-0.009,0.011-0.014c0.001-0.001,0.002-0.002,0.003-0.004c0.004-0.005,0.007-0.009,0.011-0.014
	c0.001-0.001,0.003-0.003,0.004-0.005c0.004-0.005,0.007-0.009,0.011-0.014c0.001-0.001,0.002-0.003,0.003-0.004
	c0.004-0.005,0.007-0.009,0.011-0.014c0.001-0.001,0.002-0.003,0.003-0.004c0.004-0.005,0.007-0.009,0.011-0.014
	c0.001-0.001,0.002-0.003,0.003-0.004c0.004-0.005,0.007-0.009,0.011-0.014c0.001-0.001,0.002-0.003,0.003-0.004
	c0.004-0.005,0.008-0.01,0.011-0.015c0.001-0.001,0.002-0.002,0.003-0.003c0.004-0.005,0.008-0.01,0.011-0.015
	c0.001-0.001,0.002-0.003,0.003-0.004c0.004-0.005,0.007-0.01,0.011-0.015c0.001-0.001,0.002-0.003,0.003-0.004
	c0.004-0.005,0.007-0.01,0.011-0.014c0.001-0.001,0.002-0.003,0.003-0.004c0.004-0.005,0.008-0.01,0.011-0.015
	c0.001-0.001,0.001-0.002,0.002-0.003c0.004-0.005,0.008-0.01,0.012-0.015c0.001-0.001,0.002-0.002,0.002-0.003
	c0.004-0.005,0.008-0.011,0.012-0.016c0.001-0.001,0.001-0.002,0.002-0.003c0.004-0.005,0.008-0.011,0.012-0.016
	c0.001-0.001,0.001-0.001,0.002-0.002c0.004-0.006,0.008-0.011,0.013-0.017c0.001-0.001,0.001-0.001,0.002-0.002
	c0.004-0.005,0.008-0.011,0.012-0.016c0.001-0.001,0.001-0.001,0.002-0.002c0.004-0.005,0.008-0.011,0.012-0.016
	c0.001-0.001,0.001-0.002,0.002-0.002c0.004-0.005,0.008-0.011,0.012-0.016c0.001-0.001,0.002-0.002,0.002-0.003
	c0.004-0.005,0.008-0.011,0.012-0.016c0.001-0.001,0.001-0.002,0.002-0.002c0.004-0.005,0.008-0.011,0.012-0.016
	c0.001-0.001,0.001-0.002,0.002-0.003c0.004-0.005,0.008-0.011,0.012-0.016c0.001-0.001,0.001-0.001,0.002-0.002
	c0.004-0.005,0.008-0.011,0.012-0.016c0.001-0.001,0.001-0.001,0.002-0.002c0.004-0.005,0.008-0.011,0.012-0.017
	c0.001-0.001,0.001-0.001,0.002-0.002c0.004-0.005,0.008-0.011,0.012-0.016c0.001-0.001,0.001-0.001,0.002-0.002
	c0.004-0.006,0.008-0.011,0.012-0.017l0.001-0.002c0.004-0.006,0.008-0.011,0.013-0.017c0.001-0.001,0.001-0.001,0.001-0.002
	c0.004-0.006,0.009-0.012,0.013-0.018c0.001-0.001,0,0,0.001-0.001c0.005-0.006,0.009-0.012,0.014-0.018l0,0
	c0.014-0.019,0.028-0.037,0.041-0.056l0,0c0.005-0.006,0.009-0.012,0.014-0.018l0.001-0.001c0.004-0.006,0.009-0.012,0.013-0.018
	l0.001-0.001c0.004-0.006,0.009-0.012,0.013-0.018c0.001-0.001,0-0.001,0.001-0.001c0.004-0.006,0.009-0.012,0.013-0.018
	c0.001-0.001,0,0,0.001-0.001c0.004-0.006,0.009-0.012,0.013-0.018l0.001-0.001c0.004-0.006,0.009-0.012,0.013-0.018l0-0.001
	c0.004-0.006,0.009-0.012,0.013-0.018c0.001-0.001,0,0,0.001-0.001c0.004-0.006,0.009-0.012,0.013-0.018
	c0.001-0.001,0,0,0.001-0.001c0.004-0.006,0.009-0.012,0.013-0.018l0.001-0.001c0.004-0.006,0.009-0.012,0.013-0.018l0-0.001
	c0.004-0.006,0.009-0.012,0.013-0.018c0.001-0.001,0,0,0.001-0.001c0.005-0.006,0.009-0.012,0.013-0.019l0,0
	c0.014-0.019,0.027-0.038,0.041-0.057h0c0.009-0.013,0.018-0.025,0.027-0.038l0,0c0.005-0.006,0.009-0.012,0.013-0.019l0,0
	c0.005-0.006,0.009-0.012,0.013-0.018c0.001-0.001,0,0,0-0.001c0.004-0.006,0.009-0.012,0.013-0.019l0,0
	c0.825-1.156,1.571-2.374,2.228-3.644l0-0.001c0.003-0.007,0.007-0.013,0.01-0.02l0,0c0.004-0.007,0.007-0.014,0.011-0.021l0,0
	c0.029-0.056,0.057-0.111,0.085-0.167l0,0c0.004-0.007,0.007-0.014,0.01-0.021l0,0c0.003-0.007,0.007-0.014,0.01-0.02l0.001-0.001
	c0.003-0.007,0.007-0.013,0.01-0.02c0-0.001,0,0,0,0c0.003-0.007,0.007-0.013,0.01-0.02c0-0.001,0.001-0.001,0.001-0.002
	c0.003-0.006,0.006-0.013,0.009-0.019l0.001-0.002c0.003-0.006,0.006-0.013,0.009-0.019c0-0.001,0.001-0.002,0.001-0.003
	c0.003-0.006,0.006-0.013,0.009-0.019c0-0.001,0-0.001,0.001-0.002c0.003-0.006,0.006-0.013,0.009-0.019
	c0-0.001,0.001-0.001,0.001-0.002c0.003-0.007,0.006-0.013,0.01-0.019l0.001-0.001c0.003-0.007,0.007-0.013,0.01-0.02l0.001-0.001
	c0.014-0.028,0.028-0.056,0.041-0.083c0-0.001,0,0,0-0.001c0.003-0.007,0.007-0.013,0.01-0.02c0-0.001,0,0,0.001-0.001
	c0.003-0.007,0.006-0.013,0.01-0.02l0.001-0.001c0.003-0.007,0.006-0.013,0.01-0.02c0-0.001,0-0.001,0.001-0.002
	c0.003-0.007,0.006-0.013,0.009-0.019c0-0.001,0.001-0.001,0.001-0.002c0.003-0.006,0.006-0.013,0.009-0.019
	c0-0.001,0.001-0.001,0.001-0.002c0.003-0.006,0.006-0.012,0.009-0.019c0-0.001,0.001-0.002,0.001-0.003
	c0.003-0.006,0.006-0.012,0.009-0.018c0-0.001,0.001-0.002,0.001-0.003c0.003-0.006,0.006-0.012,0.009-0.018
	c0-0.001,0.001-0.002,0.001-0.003c0.003-0.006,0.006-0.012,0.009-0.018c0-0.001,0.001-0.002,0.001-0.003
	c0.003-0.006,0.006-0.013,0.009-0.019c0-0.001,0.001-0.001,0.001-0.002c0.003-0.006,0.006-0.013,0.009-0.019
	c0-0.001,0-0.001,0.001-0.002c0.003-0.007,0.006-0.013,0.01-0.02c0-0.001,0,0,0.001-0.001c0.003-0.007,0.006-0.013,0.01-0.02
	c0-0.001,0,0,0.001-0.001c0.003-0.007,0.007-0.014,0.01-0.021l0-0.001c0.003-0.007,0.007-0.014,0.01-0.02
	c0-0.001,0-0.001,0.001-0.002c0.003-0.006,0.006-0.013,0.009-0.019c0-0.001,0.001-0.002,0.001-0.002
	c0.003-0.006,0.006-0.012,0.009-0.019c0.001-0.002,0-0.001,0.001-0.003c0.003-0.006,0.006-0.012,0.009-0.018
	c0-0.001,0.001-0.002,0.002-0.003c0.003-0.006,0.006-0.012,0.008-0.018c0-0.001,0.001-0.003,0.002-0.003
	c0.003-0.006,0.006-0.012,0.008-0.018c0-0.001,0.001-0.003,0.002-0.004c0.003-0.006,0.005-0.012,0.008-0.017
	c0.001-0.002,0.001-0.002,0.002-0.004c0.003-0.006,0.005-0.011,0.008-0.017c0.001-0.002,0.001-0.003,0.002-0.004
	c0.003-0.006,0.005-0.011,0.008-0.017c0-0.001,0.002-0.003,0.002-0.004c0.003-0.006,0.005-0.011,0.008-0.017
	c0-0.001,0.002-0.004,0.002-0.005c0.003-0.006,0.005-0.011,0.008-0.017c0.001-0.002,0.001-0.003,0.002-0.004
	c0.003-0.006,0.005-0.012,0.008-0.017c0.001-0.002,0.001-0.002,0.002-0.004c0.003-0.006,0.006-0.012,0.008-0.018
	c0-0.001,0.001-0.002,0.001-0.003c0.003-0.006,0.006-0.012,0.009-0.018c0-0.001,0.001-0.003,0.002-0.004
	c0.003-0.006,0.006-0.012,0.008-0.018c0.001-0.002,0.001-0.002,0.002-0.004c0.003-0.006,0.006-0.012,0.008-0.018
	c0-0.001,0.002-0.003,0.002-0.004c0.003-0.006,0.006-0.012,0.008-0.018c0-0.001,0.001-0.003,0.002-0.004
	c0.003-0.006,0.005-0.012,0.008-0.017c0.001-0.002,0.001-0.003,0.002-0.004c0.003-0.006,0.005-0.011,0.008-0.017
	c0.001-0.002,0.001-0.003,0.002-0.004c0.003-0.006,0.005-0.011,0.008-0.017c0-0.001,0.002-0.004,0.002-0.005
	c0.003-0.006,0.005-0.011,0.008-0.017c0.001-0.002,0.001-0.003,0.002-0.004c0.002-0.005,0.005-0.011,0.008-0.017
	c0.001-0.002,0.002-0.003,0.002-0.005c0.002-0.005,0.005-0.011,0.007-0.016c0.001-0.002,0.002-0.004,0.002-0.005
	c0.002-0.005,0.005-0.011,0.007-0.016c0.001-0.002,0.002-0.004,0.003-0.006c0.002-0.005,0.005-0.011,0.007-0.016
	c0-0.001,0.002-0.004,0.002-0.005c0.002-0.005,0.005-0.01,0.007-0.016c0.001-0.002,0.002-0.004,0.003-0.006
	c0.002-0.005,0.005-0.01,0.007-0.016c0.001-0.002,0.002-0.004,0.002-0.005c0.002-0.005,0.005-0.011,0.007-0.016
	c0.001-0.002,0.002-0.003,0.002-0.005c0.002-0.005,0.005-0.011,0.007-0.017c0.001-0.002,0.002-0.004,0.002-0.005
	c0.002-0.005,0.005-0.011,0.007-0.016c0.001-0.002,0.002-0.005,0.003-0.007c0.002-0.005,0.004-0.01,0.007-0.015
	c0.001-0.003,0.002-0.004,0.003-0.007c0.002-0.005,0.004-0.01,0.007-0.015c0.001-0.003,0.002-0.005,0.003-0.007
	c0.002-0.005,0.005-0.01,0.007-0.015c0.001-0.002,0.002-0.005,0.003-0.007c0.002-0.005,0.004-0.009,0.006-0.014
	c0.001-0.003,0.002-0.005,0.003-0.008c0.002-0.004,0.004-0.009,0.006-0.014c0.001-0.003,0.002-0.005,0.003-0.008
	c0.002-0.004,0.004-0.009,0.006-0.013c0.001-0.003,0.002-0.005,0.003-0.008c0.002-0.005,0.004-0.009,0.006-0.014
	c0.001-0.003,0.002-0.005,0.003-0.007c0.002-0.004,0.004-0.009,0.006-0.014c0.001-0.003,0.002-0.005,0.004-0.008
	c0.002-0.004,0.004-0.009,0.006-0.013c0.001-0.003,0.002-0.005,0.004-0.008c0.002-0.004,0.004-0.009,0.006-0.013
	c0.001-0.003,0.002-0.006,0.004-0.008c0.002-0.004,0.004-0.009,0.006-0.013c0.001-0.003,0.003-0.006,0.004-0.009
	c0.002-0.004,0.003-0.008,0.005-0.012c0.002-0.003,0.003-0.008,0.005-0.011c0.002-0.004,0.003-0.007,0.005-0.011
	c0.002-0.003,0.003-0.007,0.004-0.01c0.002-0.004,0.003-0.008,0.005-0.011c0.002-0.003,0.003-0.007,0.004-0.01
	c0.002-0.004,0.003-0.008,0.005-0.012c0.002-0.003,0.003-0.007,0.005-0.011c0.001-0.003,0.003-0.007,0.004-0.01
	c0.002-0.003,0.004-0.008,0.005-0.012c0.001-0.003,0.003-0.007,0.004-0.01c0.002-0.004,0.003-0.007,0.005-0.011
	c0.001-0.003,0.003-0.007,0.004-0.01c0.002-0.004,0.003-0.007,0.005-0.011c0.002-0.004,0.003-0.007,0.005-0.011
	c0.002-0.003,0.003-0.007,0.005-0.011c0.001-0.003,0.003-0.007,0.004-0.01c0.002-0.003,0.004-0.008,0.005-0.012
	c0.002-0.004,0.003-0.008,0.005-0.012c0.001-0.003,0.003-0.007,0.004-0.009c0.002-0.004,0.004-0.008,0.005-0.013
	c0.001-0.003,0.002-0.006,0.004-0.008c0.002-0.005,0.004-0.009,0.006-0.013c0.002-0.003,0.002-0.005,0.004-0.008
	c0.002-0.004,0.004-0.008,0.005-0.013c0.001-0.003,0.002-0.005,0.004-0.009c0.002-0.004,0.004-0.008,0.005-0.013
	c0.001-0.003,0.003-0.006,0.004-0.009c0.002-0.004,0.004-0.008,0.005-0.012c0.001-0.003,0.003-0.006,0.004-0.01
	c0.002-0.004,0.003-0.008,0.005-0.011c0.002-0.004,0.003-0.008,0.005-0.013c0.001-0.003,0.002-0.006,0.004-0.008
	c0.002-0.004,0.004-0.009,0.006-0.014c0.001-0.002,0.002-0.006,0.003-0.008c0.002-0.004,0.004-0.009,0.006-0.013
	c0.001-0.003,0.003-0.006,0.004-0.009c0.001-0.004,0.004-0.009,0.005-0.012c0.001-0.003,0.003-0.006,0.004-0.009
	c0.002-0.004,0.004-0.009,0.006-0.013c0.001-0.003,0.002-0.005,0.003-0.008c0.002-0.004,0.004-0.009,0.006-0.014
	c0.001-0.002,0.002-0.005,0.003-0.007c0.002-0.004,0.004-0.01,0.006-0.014c0.001-0.003,0.002-0.005,0.003-0.008
	c0.002-0.004,0.004-0.009,0.006-0.013c0.001-0.003,0.002-0.006,0.004-0.008c0.001-0.004,0.004-0.009,0.005-0.013
	c0.001-0.003,0.002-0.006,0.004-0.009c0.002-0.004,0.004-0.009,0.006-0.013c0.002-0.004,0.003-0.007,0.005-0.011
	c0.001-0.004,0.003-0.007,0.004-0.01c0.002-0.004,0.003-0.008,0.005-0.012c0.001-0.004,0.003-0.006,0.004-0.01
	c0.002-0.004,0.003-0.007,0.005-0.011c0.002-0.004,0.004-0.009,0.006-0.014c0.001-0.003,0.002-0.005,0.003-0.008
	c0.002-0.005,0.004-0.01,0.006-0.016c0.001-0.002,0.001-0.004,0.002-0.006c0.002-0.005,0.004-0.011,0.007-0.016
	c0.001-0.002,0.002-0.004,0.002-0.006c0.003-0.006,0.004-0.011,0.007-0.017c0.001-0.001,0.001-0.003,0.002-0.005
	c0.002-0.005,0.005-0.012,0.007-0.017c0.001-0.001,0.001-0.003,0.002-0.004c0.002-0.005,0.005-0.012,0.007-0.018
	c0.001-0.001,0.001-0.003,0.002-0.004c0.002-0.005,0.005-0.012,0.007-0.017c0.001-0.002,0.001-0.003,0.002-0.005
	c0.002-0.005,0.005-0.012,0.007-0.017c0.001-0.002,0.001-0.003,0.002-0.004c0.002-0.005,0.005-0.012,0.007-0.017
	c0-0.001,0.001-0.002,0.001-0.003c0.003-0.006,0.005-0.012,0.008-0.018c0-0.001,0.001-0.001,0.001-0.002
	c0.003-0.006,0.005-0.013,0.008-0.019c0-0.001,0.001-0.002,0.001-0.003c0.003-0.006,0.005-0.013,0.008-0.019c0,0,0,0,0-0.001
	c0.019-0.046,0.037-0.091,0.055-0.137l0,0c0.003-0.007,0.006-0.014,0.008-0.021c0,0,0,0,0,0c0.011-0.028,0.022-0.057,0.034-0.085
	l0,0c0.227-0.576,0.436-1.16,0.628-1.752L54.745,38.007L54.745,38.007z M56.518,15.958l-3.533,1.875
	c1.636,3.084,2.618,6.415,2.919,9.901l3.985-0.343c-0.088-1.022-0.227-2.029-0.415-3.018v0c-0.001-0.004-0.001-0.008-0.002-0.011
	l0,0c-0.046-0.241-0.094-0.48-0.146-0.719l0,0c-0.002-0.008-0.003-0.015-0.005-0.023c0-0.001,0,0,0-0.001
	c-0.007-0.03-0.013-0.061-0.02-0.091l0-0.002c-0.001-0.004-0.002-0.007-0.002-0.011l0,0c-0.001-0.004-0.002-0.007-0.002-0.011l0,0
	c-0.002-0.007-0.003-0.015-0.005-0.022l0-0.001c-0.001-0.003-0.002-0.007-0.002-0.01l0-0.001c-0.001-0.003-0.002-0.007-0.002-0.01
	l0-0.001c-0.001-0.004-0.002-0.007-0.002-0.011l0,0c-0.001-0.004-0.002-0.007-0.002-0.01l0-0.002
	c-0.001-0.004-0.002-0.007-0.002-0.011l0,0c-0.003-0.011-0.005-0.022-0.008-0.034c0-0.001,0,0,0-0.001
	c-0.001-0.004-0.002-0.007-0.002-0.011l0,0c-0.001-0.004-0.002-0.007-0.002-0.011c0-0.001,0,0,0-0.001
	c-0.001-0.004-0.002-0.007-0.002-0.011c0-0.001,0,0,0-0.001c-0.001-0.003-0.002-0.007-0.002-0.01c0-0.001,0-0.001,0-0.002
	c-0.001-0.004-0.002-0.007-0.002-0.011l0,0c-0.003-0.011-0.005-0.023-0.008-0.034l0,0c-0.003-0.015-0.007-0.03-0.01-0.046l0,0
	c-0.035-0.153-0.072-0.306-0.109-0.458l0,0c-0.004-0.015-0.007-0.03-0.011-0.045l0-0.001c-0.002-0.007-0.004-0.015-0.006-0.022l0,0
	c-0.001-0.004-0.002-0.007-0.003-0.011l0,0c-0.001-0.004-0.002-0.007-0.003-0.011c0-0.001,0,0,0-0.001
	c-0.004-0.015-0.007-0.03-0.011-0.045l0-0.001c-0.002-0.008-0.004-0.015-0.006-0.022l0,0c-0.001-0.004-0.002-0.007-0.003-0.011l0,0
	c-0.001-0.004-0.002-0.007-0.003-0.011l0-0.001c-0.002-0.007-0.004-0.015-0.006-0.022l0,0c-0.002-0.008-0.004-0.015-0.006-0.022l0,0
	c-0.002-0.008-0.004-0.015-0.006-0.022l0,0c-0.001-0.004-0.002-0.007-0.003-0.011l0,0c-0.001-0.004-0.002-0.007-0.003-0.011l0-0.001
	c-0.004-0.015-0.008-0.03-0.012-0.045l0,0c-0.002-0.008-0.004-0.015-0.006-0.023l0,0c-0.002-0.008-0.004-0.015-0.006-0.022
	c0-0.001,0,0,0,0c-0.004-0.015-0.008-0.03-0.012-0.045l0-0.001c-0.002-0.008-0.004-0.015-0.006-0.022l0,0
	c-0.002-0.007-0.004-0.015-0.006-0.022l0-0.001c-0.004-0.015-0.008-0.03-0.012-0.045l0,0c-0.004-0.015-0.008-0.03-0.012-0.045l0,0
	c-0.028-0.106-0.057-0.211-0.086-0.316l0-0.001c-0.002-0.007-0.004-0.014-0.006-0.021l0-0.001c-0.001-0.004-0.002-0.007-0.003-0.01
	l0-0.001c-0.001-0.003-0.002-0.007-0.003-0.01l0-0.001c-0.002-0.007-0.004-0.014-0.006-0.022l0,0
	c-0.002-0.007-0.004-0.015-0.006-0.022c0-0.001,0,0,0-0.001c-0.001-0.004-0.002-0.007-0.003-0.01l0,0
	c-0.001-0.004-0.002-0.007-0.003-0.011c0-0.001,0,0,0-0.001c-0.001-0.003-0.002-0.007-0.003-0.01c0-0.001,0,0,0-0.001
	c-0.001-0.003-0.002-0.006-0.003-0.01c0-0.001,0-0.001-0.001-0.002c-0.002-0.007-0.004-0.014-0.006-0.021c0-0.001,0,0,0-0.001
	c-0.001-0.004-0.002-0.007-0.003-0.01c0-0.001,0,0,0-0.001c-0.001-0.003-0.002-0.007-0.003-0.01c0-0.001,0-0.001-0.001-0.002
	c-0.001-0.003-0.002-0.007-0.003-0.01l0-0.001c-0.001-0.003-0.002-0.007-0.003-0.01c0-0.001,0-0.001-0.001-0.002
	c-0.001-0.003-0.002-0.006-0.003-0.009l0-0.002c-0.001-0.003-0.002-0.006-0.003-0.009c0-0.001,0-0.001-0.001-0.002
	c-0.001-0.003-0.002-0.006-0.003-0.01l0-0.001c-0.001-0.003-0.002-0.007-0.003-0.01l0-0.001c-0.001-0.004-0.002-0.007-0.003-0.011
	l0,0c-0.001-0.004-0.002-0.007-0.003-0.01l-0.001-0.002c-0.001-0.003-0.002-0.006-0.003-0.01l0-0.001
	c-0.001-0.003-0.002-0.006-0.003-0.01l-0.001-0.002c-0.001-0.003-0.002-0.007-0.003-0.01l0-0.001
	c-0.001-0.003-0.002-0.007-0.003-0.01c0-0.001,0-0.001-0.001-0.002c-0.001-0.003-0.002-0.006-0.003-0.01l0-0.001
	c-0.001-0.003-0.002-0.007-0.003-0.01l0-0.001c-0.001-0.004-0.002-0.007-0.003-0.011l0-0.001c-0.001-0.003-0.002-0.007-0.003-0.01
	c0-0.001,0-0.001-0.001-0.002c-0.001-0.003-0.002-0.006-0.003-0.01c0-0.001,0-0.001,0-0.001c-0.001-0.003-0.002-0.006-0.003-0.01
	c0-0.001,0-0.001,0-0.001c-0.001-0.003-0.002-0.007-0.003-0.01c0-0.001,0,0,0-0.001c-0.001-0.003-0.002-0.006-0.003-0.009
	c0-0.001,0-0.001-0.001-0.002c-0.001-0.003-0.002-0.006-0.003-0.01c0-0.001,0,0,0-0.001c-0.001-0.003-0.002-0.006-0.003-0.009
	c0-0.001,0-0.001-0.001-0.002c-0.001-0.003-0.002-0.006-0.003-0.01c0-0.001,0-0.001,0-0.001c-0.001-0.003-0.002-0.006-0.003-0.009
	c0-0.001,0-0.001-0.001-0.002c-0.001-0.003-0.002-0.007-0.003-0.01l0-0.001c-0.001-0.004-0.002-0.007-0.003-0.01l0-0.001
	c-0.001-0.004-0.002-0.007-0.003-0.01l0-0.001c-0.001-0.004-0.002-0.007-0.003-0.01l0-0.001c-0.001-0.004-0.002-0.007-0.003-0.01
	l0-0.001c-0.001-0.004-0.002-0.007-0.003-0.01l0-0.001c-0.001-0.003-0.002-0.007-0.003-0.01l0-0.001
	c-0.001-0.003-0.002-0.006-0.003-0.009l-0.001-0.002c-0.001-0.003-0.002-0.006-0.003-0.01l0-0.002
	c-0.044-0.146-0.088-0.29-0.134-0.435l0,0c-0.001-0.004-0.002-0.007-0.003-0.011l0,0c-0.001-0.004-0.002-0.007-0.003-0.011l0,0
	c-0.002-0.007-0.005-0.015-0.007-0.022c0-0.001,0,0,0-0.001c-0.001-0.003-0.002-0.007-0.003-0.01c0-0.001,0,0,0-0.001
	c-0.001-0.003-0.002-0.007-0.003-0.01c0-0.001,0,0.001,0,0c-0.002-0.007-0.005-0.015-0.007-0.022l0,0
	c-0.001-0.004-0.002-0.007-0.004-0.011l0,0c-0.001-0.004-0.002-0.007-0.004-0.011l0,0c-0.002-0.007-0.005-0.015-0.007-0.022l0-0.001
	c-0.001-0.003-0.002-0.007-0.003-0.01l0,0c-0.001-0.003-0.002-0.007-0.003-0.01l0-0.001c-0.001-0.003-0.002-0.007-0.003-0.01l0,0
	c-0.001-0.003-0.002-0.007-0.003-0.011l0-0.001c-0.001-0.003-0.002-0.007-0.003-0.011l0,0c-0.001-0.004-0.002-0.007-0.004-0.011l0,0
	c-0.002-0.007-0.005-0.014-0.007-0.021l0-0.001c-0.001-0.003-0.002-0.007-0.003-0.01l0-0.001c-0.001-0.003-0.002-0.007-0.003-0.01
	l0-0.001c-0.001-0.003-0.002-0.007-0.003-0.01l0-0.001c-0.001-0.003-0.002-0.007-0.003-0.01c0-0.001,0,0,0-0.001
	c-0.002-0.007-0.005-0.015-0.007-0.022l0,0c-0.002-0.007-0.005-0.014-0.007-0.022l0-0.001c-0.005-0.015-0.01-0.029-0.014-0.044l0,0
	C57.963,18.981,57.3,17.433,56.518,15.958L56.518,15.958z M38.405,1.193l-1.119,3.84c3.347,0.975,6.422,2.593,9.138,4.81
	l2.529-3.099c-2.306-1.882-4.896-3.427-7.698-4.562c0,0,0,0,0,0c-0.007-0.003-0.013-0.005-0.02-0.008c0,0-0.001,0-0.001-0.001
	c-0.007-0.003-0.013-0.005-0.02-0.008c-0.001,0-0.001-0.001-0.002-0.001c-0.006-0.002-0.013-0.005-0.019-0.008
	c-0.001,0-0.002-0.001-0.002-0.001c-0.006-0.002-0.012-0.005-0.018-0.007c-0.001,0-0.002-0.001-0.003-0.001
	c-0.005-0.002-0.013-0.005-0.018-0.007c-0.001,0-0.002-0.001-0.003-0.001c-0.006-0.002-0.012-0.005-0.018-0.007
	c-0.001,0-0.002-0.001-0.003-0.001c-0.006-0.002-0.012-0.005-0.018-0.007c-0.001,0-0.002-0.001-0.003-0.001
	c-0.006-0.002-0.012-0.005-0.018-0.007c-0.001,0-0.003-0.001-0.004-0.002c-0.006-0.002-0.011-0.004-0.017-0.007
	c-0.002-0.001-0.004-0.002-0.005-0.002c-0.005-0.002-0.011-0.004-0.016-0.006c-0.002-0.001-0.004-0.002-0.006-0.002
	c-0.005-0.002-0.01-0.004-0.015-0.006c-0.002-0.001-0.004-0.002-0.006-0.003c-0.005-0.002-0.01-0.004-0.015-0.006
	c-0.004-0.001-0.008-0.003-0.011-0.005c-0.004-0.001-0.007-0.003-0.01-0.004c-0.004-0.002-0.007-0.003-0.011-0.004
	c-0.005-0.002-0.01-0.004-0.015-0.006c-0.002-0.001-0.004-0.002-0.007-0.003c-0.005-0.002-0.011-0.004-0.016-0.006
	c-0.002-0.001-0.004-0.002-0.006-0.002c-0.005-0.002-0.01-0.004-0.016-0.006c-0.002-0.001-0.004-0.002-0.006-0.002
	c-0.005-0.002-0.01-0.004-0.016-0.006c-0.002-0.001-0.004-0.002-0.006-0.002c-0.005-0.002-0.01-0.004-0.016-0.006
	c-0.002-0.001-0.004-0.002-0.006-0.002c-0.005-0.002-0.01-0.004-0.015-0.006c-0.003-0.001-0.005-0.002-0.007-0.003
	c-0.005-0.002-0.009-0.003-0.014-0.006c-0.003-0.001-0.005-0.002-0.007-0.003c-0.005-0.002-0.009-0.004-0.015-0.006
	C40.798,2.002,40.796,2.001,40.794,2c-0.004-0.002-0.01-0.004-0.015-0.006c-0.003-0.001-0.005-0.002-0.008-0.003
	c-0.004-0.002-0.01-0.004-0.014-0.005c-0.003-0.001-0.005-0.002-0.008-0.003c-0.004-0.002-0.009-0.004-0.014-0.005
	c-0.003-0.001-0.006-0.002-0.009-0.003c-0.004-0.001-0.009-0.003-0.012-0.005c-0.004-0.002-0.008-0.003-0.012-0.005
	c-0.003-0.001-0.007-0.003-0.01-0.004c-0.004-0.002-0.008-0.003-0.013-0.005c-0.004-0.001-0.006-0.002-0.009-0.003
	c-0.004-0.002-0.009-0.003-0.013-0.005c-0.004-0.001-0.005-0.002-0.009-0.003c-0.004-0.002-0.009-0.003-0.013-0.005
	c-0.004-0.001-0.005-0.002-0.009-0.003c-0.004-0.002-0.009-0.003-0.013-0.005c-0.003-0.001-0.006-0.002-0.009-0.003
	c-0.004-0.002-0.008-0.003-0.013-0.005c-0.003-0.001-0.007-0.003-0.01-0.004c-0.004-0.001-0.008-0.003-0.012-0.005
	c-0.004-0.001-0.007-0.003-0.011-0.004c-0.004-0.001-0.007-0.003-0.011-0.004c-0.004-0.001-0.007-0.003-0.011-0.004
	C40.534,1.902,40.53,1.9,40.526,1.899c-0.004-0.001-0.007-0.002-0.01-0.004c-0.004-0.002-0.008-0.003-0.012-0.005
	c-0.003-0.001-0.007-0.002-0.009-0.003c-0.004-0.002-0.009-0.003-0.013-0.005c-0.004-0.001-0.005-0.002-0.009-0.003
	c-0.004-0.002-0.009-0.003-0.013-0.005c-0.004-0.001-0.005-0.002-0.009-0.003c-0.005-0.002-0.009-0.003-0.014-0.005
	c-0.003-0.001-0.006-0.002-0.008-0.003c-0.005-0.002-0.009-0.003-0.014-0.005c-0.003-0.001-0.005-0.002-0.008-0.003
	c-0.005-0.002-0.01-0.004-0.015-0.005c-0.002-0.001-0.006-0.002-0.008-0.003c-0.005-0.002-0.01-0.004-0.015-0.006
	c-0.002-0.001-0.004-0.002-0.006-0.002c-0.005-0.002-0.011-0.004-0.016-0.006c-0.003-0.001-0.003-0.001-0.006-0.002
	c-0.005-0.002-0.011-0.004-0.016-0.006c-0.002-0.001-0.004-0.001-0.005-0.002c-0.006-0.002-0.011-0.004-0.016-0.006
	c-0.002-0.001-0.004-0.002-0.006-0.002c-0.006-0.002-0.011-0.004-0.016-0.006c-0.002-0.001-0.004-0.001-0.006-0.002
	c-0.005-0.002-0.011-0.004-0.016-0.006c-0.002-0.001-0.004-0.002-0.006-0.002c-0.005-0.002-0.011-0.004-0.016-0.006
	C40.234,1.791,40.232,1.79,40.23,1.79c-0.006-0.002-0.011-0.004-0.016-0.006c-0.002-0.001-0.004-0.001-0.006-0.002
	c-0.006-0.002-0.011-0.004-0.017-0.006c-0.002-0.001-0.003-0.001-0.005-0.002c-0.006-0.002-0.012-0.004-0.017-0.006
	c-0.002-0.001-0.003-0.001-0.005-0.002c-0.006-0.002-0.012-0.004-0.018-0.007c-0.001,0-0.003-0.001-0.004-0.001
	c-0.006-0.002-0.012-0.004-0.018-0.007c-0.002-0.001-0.003-0.001-0.005-0.002c-0.006-0.002-0.012-0.004-0.018-0.007
	c-0.002-0.001-0.002-0.001-0.004-0.001c-0.007-0.002-0.013-0.005-0.019-0.007c-0.001,0-0.002-0.001-0.003-0.001
	c-0.006-0.002-0.013-0.005-0.019-0.007c-0.001,0-0.003-0.001-0.003-0.001c-0.006-0.002-0.012-0.004-0.018-0.007
	c-0.002-0.001-0.003-0.001-0.004-0.002c-0.006-0.002-0.012-0.004-0.018-0.006c-0.001,0-0.003-0.001-0.004-0.001
	c-0.006-0.002-0.012-0.004-0.018-0.006c-0.001,0-0.003-0.001-0.004-0.001c-0.006-0.002-0.012-0.004-0.018-0.006
	c-0.001,0-0.003-0.001-0.003-0.001c-0.006-0.002-0.012-0.004-0.018-0.006c-0.002-0.001-0.003-0.001-0.004-0.002
	c-0.006-0.002-0.012-0.004-0.018-0.006c-0.002-0.001-0.002-0.001-0.004-0.001c-0.006-0.002-0.012-0.004-0.018-0.006
	c-0.002-0.001-0.002-0.001-0.004-0.001c-0.006-0.002-0.012-0.004-0.018-0.006c-0.001,0-0.003-0.001-0.004-0.001
	c-0.006-0.002-0.012-0.004-0.018-0.006c-0.001,0-0.003-0.001-0.004-0.001c-0.007-0.002-0.013-0.004-0.019-0.007
	c-0.001,0-0.002-0.001-0.003-0.001c-0.007-0.002-0.013-0.005-0.02-0.007c-0.001,0-0.001,0-0.002-0.001
	c-0.007-0.002-0.014-0.005-0.021-0.007c-0.001,0,0,0-0.001,0c-0.007-0.002-0.014-0.005-0.021-0.007l-0.001,0
	c-0.015-0.005-0.03-0.01-0.045-0.015l0,0c-0.015-0.005-0.03-0.01-0.045-0.015l-0.001,0c-0.007-0.002-0.014-0.005-0.022-0.007l0,0
	c-0.007-0.003-0.015-0.005-0.022-0.008l0,0c-0.007-0.003-0.015-0.005-0.022-0.008l0,0c-0.007-0.003-0.015-0.005-0.022-0.007l0,0
	c-0.007-0.003-0.015-0.005-0.022-0.007l0,0c-0.007-0.003-0.015-0.005-0.022-0.007l0,0c-0.007-0.003-0.015-0.005-0.022-0.007l0,0
	c-0.007-0.003-0.015-0.005-0.022-0.007l0,0C39.134,1.413,38.771,1.3,38.405,1.193L38.405,1.193z">

	<animateTransform attributeName="transform"
		 attributeType="XML"
		 type="rotate"
		 from="0 30 30"
		 to="360 30 30"
		 dur="5s"
		 repeatCount="indefinite" />

</path>

<path id="animateIcon-circle" d="M30,10c-11.046,0-20,8.954-20,20c0,11.046,8.954,20,20,20s20-8.954,20-20C50,18.954,41.046,10,30,10z
	 M33.349,16l-1.17,17.873h-4.438L26.53,16H33.349z M29.96,44c-2.542,0-3.954-1.372-3.954-3.833c0-2.461,1.412-3.913,3.954-3.913
	c2.541,0,4.034,1.452,4.034,3.913C33.994,42.628,32.501,44,29.96,44z"/>
</svg>
