<?xml version="1.0" encoding="utf-8"?>
<!-- Generator: Adobe Illustrator 16.0.4, SVG Export Plug-In . SVG Version: 6.00 Build 0)  -->
<!DOCTYPE svg PUBLIC "-//W3C//DTD SVG 1.1//EN" "http://www.w3.org/Graphics/SVG/1.1/DTD/svg11.dtd">
<svg version="1.1" id="Layer_5" xmlns="http://www.w3.org/2000/svg" xmlns:xlink="http://www.w3.org/1999/xlink" x="0px" y="0px"
	 width="60px" height="60px" viewBox="0 0 60 60" style="enable-background:new 0 0 60 60;" xml:space="preserve">
<style type="text/css">
<![CDATA[
	.st0{fill:#FFFFFF;}
	.st1{fill:#666666;}
]]>
</style>
<path class="st0" d="M57.2,51.3c0,3.3-2.7,6-6,6H8.7c-3.3,0-6-2.7-6-6V8.7c0-3.3,2.7-6,6-6h42.6c3.3,0,6,2.7,6,6V51.3z"/>
<path class="st1" d="M49.3,5c3.2,0,5.7,2.6,5.7,5.8v38.4c0,3.2-2.6,5.8-5.7,5.8H10.7C7.6,55,5,52.4,5,49.2V10.8C5,7.6,7.6,5,10.7,5
	H49.3 M49.3,0H10.7C4.8,0,0,4.8,0,10.8v38.4C0,55.2,4.8,60,10.7,60h38.5C55.2,60,60,55.2,60,49.2V10.8C60,4.8,55.2,0,49.3,0L49.3,0z
	"/>
<g>
</g>
<g>
</g>
<g>
</g>
<g>
</g>
<g>
</g>
<g>
</g>
</svg>
