<?xml version="1.0" encoding="utf-8"?>
<!-- Generator: Adobe Illustrator 16.0.4, SVG Export Plug-In . SVG Version: 6.00 Build 0)  -->
<!DOCTYPE svg PUBLIC "-//W3C//DTD SVG 1.1//EN" "http://www.w3.org/Graphics/SVG/1.1/DTD/svg11.dtd">
<svg version="1.1" id="right-arrow" xmlns="http://www.w3.org/2000/svg" xmlns:xlink="http://www.w3.org/1999/xlink" x="0px"
	 y="0px" width="60px" height="60px" viewBox="0 0 60 60" style="enable-background:new 0 0 60 60;" xml:space="preserve">
<style type="text/css">
<![CDATA[
	.st0{fill:#EA5F03;}
]]>
</style>
<g>
	<path class="st0" d="M30.5,4.6c-2.8,0-5.6,0.6-8.2,1.7l-0.1,0.1L23,8.2l0.1-0.1c2.3-1,4.8-1.5,7.3-1.5c10.3,0,18.7,8.4,18.7,18.7
		c0,10.3-8.4,18.8-18.7,18.8c-1.6,0-3.2-0.2-4.8-0.6l0-14.6h1.5v12.9h2.2V29.1h0.7l5.4,5.3l0.1,0h0c2.3,2.1,3.7,3.1,5.3,3.1
		c3.1,0,4.5-2,4.5-3.9c0-2.6-2.1-3.4-3.9-4c-1.4-0.5-2.6-1-2.6-2.2c0-1,0.9-1.5,1.8-1.5c1.1,0,1.7,0.5,2.5,1.5l0.1,0.1l1.6-1.3
		L45,26.2c-0.7-0.9-1.8-2-3.9-2c-2.4,0-4.1,1.4-4.1,3.4c0,2.7,2.1,3.4,3.9,4c1.4,0.5,2.6,0.9,2.6,2.1c0,1.3-0.7,1.9-2.2,1.9
		c-0.9,0-1.4-0.3-2.8-1.5l-5.4-5c2.8-0.2,4.2-1.5,4.2-3.9c0-2.3-1.8-3.7-4.6-3.7h-5.4v5.7h-7V29h3.4c0,1.4,0,12.7,0,14h0l0,2l0,0.1
		l0.1,0c2.2,0.8,4.5,1.1,6.8,1.1c11.5,0,20.8-9.3,20.8-20.8C51.3,13.9,42,4.6,30.5,4.6z M32.1,23.3c0.9,0,1.6,0.1,2,0.4
		c0.6,0.4,0.8,0.9,0.8,1.6c0,1.3-1,2-2.9,2h-2.7v-4H32.1z"/>
	<path class="st0" d="M15.6,52.9l5.2-10.3c-1.2-0.7-2.3-1.4-3.4-2.3l-0.1-0.1c-0.2-0.1-0.3-0.3-0.5-0.4l0,0
		c-0.3-0.3-0.6-0.6-0.9-0.9l-0.1-0.1c-0.1-0.1-0.2-0.3-0.4-0.4l-0.2-0.2c-0.1-0.1-0.2-0.2-0.3-0.4L15,37.6c-0.2-0.3-0.4-0.5-0.6-0.8
		l0,0c0-0.1-0.1-0.1-0.1-0.2c-0.1-0.1-0.2-0.3-0.3-0.4l-0.1-0.2l-9.9,6C6.8,46.6,10.8,50.3,15.6,52.9z"/>
	<path class="st0" d="M15.9,33.4c-0.1-0.1-0.1-0.2-0.2-0.3c0-0.1-0.1-0.2-0.1-0.2c-0.1-0.2-0.2-0.4-0.3-0.6l0,0c0-0.1,0-0.1-0.1-0.2
		c-0.1-0.1-0.1-0.3-0.2-0.4L15,31.5c-0.1-0.3-0.2-0.5-0.3-0.8l0-0.1c0-0.1-0.1-0.3-0.1-0.4l0-0.1c-0.1-0.5-0.3-1-0.3-1.4l0,0
		c-0.1-0.7-0.2-1.3-0.2-2L2.3,26.7c0.2,4.5,1.5,8.8,3.7,12.7L15.9,33.4z"/>
	<path class="st0" d="M18,20.6c0-0.1,0.1-0.2,0.1-0.3l0.1-0.2c0.2-0.3,0.3-0.7,0.5-1c0,0,0,0,0,0L8.6,12.6
		c-2.3,3.9-3.5,8.3-3.5,12.8c0,0.1,0,0.1,0,0.2L17,25.4c0-0.1,0-0.3,0-0.4c0,0,0-0.1,0-0.1l0,0c0-0.2,0-0.3,0-0.5l0-0.1
		c0-0.2,0-0.4,0.1-0.6c0-0.1,0-0.1,0-0.1l0,0c0-0.1,0-0.3,0.1-0.4l0-0.1c0-0.1,0-0.1,0-0.2c0-0.2,0.1-0.3,0.1-0.5c0-0.1,0-0.1,0-0.2
		l0-0.1c0-0.1,0.1-0.2,0.1-0.3c0-0.1,0.1-0.2,0.1-0.3c0-0.1,0.1-0.2,0.1-0.2l0,0c0.1-0.2,0.1-0.3,0.2-0.5L18,20.6z"/>
	<path class="st0" d="M22.6,19.1l0.1-0.1c0.3-0.3,0.6-0.6,0.9-0.9l0,0c0.1-0.1,0.3-0.3,0.5-0.4l0,0l0.1,0c0.2-0.1,0.4-0.3,0.5-0.4
		c0.2-0.1,0.4-0.2,0.6-0.3l0,0c0.1,0,0.2-0.1,0.3-0.1l-5-11.3c-1.2,0.5-5.5,2.6-8.9,7.7l10.4,6.6C22.2,19.6,22.4,19.4,22.6,19.1
		L22.6,19.1z"/>
	<path class="st0" d="M30.7,0c-3.5,0-6.8,0.7-10,2l-0.4,0.2l1.2,2.7l0.4-0.2c0.6-0.2,1.1-0.5,1.7-0.6l0.1,0C23.9,4,24.1,4,24.3,3.9
		c0.2-0.1,0.3-0.1,0.5-0.1c0.2,0,0.3-0.1,0.5-0.1c0.2-0.1,0.5-0.1,0.7-0.2c0.1,0,0.2,0,0.3-0.1l0.1,0c0.3-0.1,0.5-0.1,0.8-0.1l0.3,0
		c0.3,0,0.6-0.1,0.9-0.1l0.2,0c0.4,0,0.7-0.1,1-0.1l0.1,0c0.4,0,0.7,0,1.1,0C43,3,53.1,13,53.1,25.4c0,12.3-10,22.4-22.4,22.4h0
		c-0.3,0-0.6,0-1,0l-0.3,0c-0.3,0-0.6,0-0.9-0.1c-0.1,0-0.2,0-0.3,0c-0.3,0-0.5-0.1-0.8-0.1c-0.1,0-0.3,0-0.4-0.1
		c-0.2,0-0.4-0.1-0.6-0.1l-0.1,0c-0.1,0-0.2,0-0.3-0.1c-0.2-0.1-0.5-0.1-0.7-0.2c-0.2,0-0.3-0.1-0.5-0.1c-0.1,0-0.2-0.1-0.4-0.1
		c-0.3-0.1-0.6-0.2-0.8-0.3c-0.1,0-0.1,0-0.2-0.1c-0.4-0.1-0.7-0.3-1.1-0.4l0,0c-0.4-0.2-0.8-0.3-1.2-0.5l-0.3-0.2l-5.5,10.9
		l0.4,0.2c4.6,2.2,9.5,3.4,14.6,3.5l0.4,0l0-9.2h0.1c14,0,25.4-11.4,25.4-25.4C56.1,11.4,44.7,0,30.7,0z"/>
</g>
<g>
</g>
<g>
</g>
<g>
</g>
<g>
</g>
<g>
</g>
<g>
</g>
</svg>
