<?xml version="1.0" encoding="utf-8"?>
<!-- Generator: Adobe Illustrator 16.0.4, SVG Export Plug-In . SVG Version: 6.00 Build 0)  -->
<!DOCTYPE svg PUBLIC "-//W3C//DTD SVG 1.1//EN" "http://www.w3.org/Graphics/SVG/1.1/DTD/svg11.dtd">
<svg version="1.1" id="Layer_2" xmlns="http://www.w3.org/2000/svg" xmlns:xlink="http://www.w3.org/1999/xlink" x="0px" y="0px"
	 width="60px" height="60px" viewBox="0 0 60 60" style="enable-background:new 0 0 60 60;" xml:space="preserve">
<style type="text/css">
<![CDATA[
	.st0{fill:#3B5998;}
]]>
</style>
<path class="st0" d="M46.5,8h-33c-3,0-5.5,2.5-5.5,5.5v33c0,3,2.5,5.5,5.5,5.5H31V34h-5.3v-6.9H31v-3.4c0-5.3,3.9-9.5,8.9-9.5h4V22
	h-4.3c-1.2,0-1.5,0.7-1.5,1.5v3.6h5.8V34h-5.8v18h8.4c3,0,5.5-2.5,5.5-5.5v-33C52,10.5,49.5,8,46.5,8z"/>
<g>
</g>
<g>
</g>
<g>
</g>
<g>
</g>
<g>
</g>
<g>
</g>
</svg>
